<svg version="1.2" xmlns="http://www.w3.org/2000/svg" viewBox="0 0 3090 905" width="3090" height="905">
	<title>2110</title>
	<defs>
		<linearGradient id="g1" x2="1" gradientUnits="userSpaceOnUse" gradientTransform="matrix(0,-602.301,4435.831,0,2273.368,785.964)">
			<stop offset="0" stop-color="#252d8c"/>
			<stop offset="1" stop-color="#bdd1ff"/>
		</linearGradient>
		<linearGradient id="g2" x2="1" gradientUnits="userSpaceOnUse" gradientTransform="matrix(-6.595,-167.683,274.572,-10.799,1008.687,478.556)">
			<stop offset=".011" stop-color="#72222f"/>
			<stop offset=".989" stop-color="#673439"/>
		</linearGradient>
		<linearGradient id="g3" x2="1" gradientUnits="userSpaceOnUse" gradientTransform="matrix(-5.741,-145.953,237.625,-9.346,1007.569,478.6)">
			<stop offset=".011" stop-color="#5b1833"/>
			<stop offset=".989" stop-color="#592227"/>
		</linearGradient>
		<linearGradient id="g4" x2="1" gradientUnits="userSpaceOnUse" gradientTransform="matrix(-4.497,-114.341,40.326,-1.586,985.068,459.345)">
			<stop offset="0" stop-color="#abb145"/>
			<stop offset="1" stop-color="#fff66f"/>
		</linearGradient>
		<linearGradient id="g5" x2="1" gradientUnits="userSpaceOnUse" gradientTransform="matrix(-171.009,6.726,-4.675,-118.852,1009.329,335.601)">
			<stop offset=".011" stop-color="#f4a9ab"/>
			<stop offset=".994" stop-color="#985e98"/>
		</linearGradient>
		<linearGradient id="g6" x2="1" gradientUnits="userSpaceOnUse" gradientTransform="matrix(6.808,-161.557,371.147,15.639,2887.418,331.64)">
			<stop offset="0" stop-color="#271834"/>
			<stop offset="1" stop-color="#673640"/>
		</linearGradient>
		<linearGradient id="g7" x2="1" gradientUnits="userSpaceOnUse" gradientTransform="matrix(-292.808,-12.338,6.336,-150.368,3044.664,189.323)">
			<stop offset="0" stop-color="#1e0e2b"/>
			<stop offset="1" stop-color="#321d29"/>
		</linearGradient>
		<linearGradient id="g8" x2="1" gradientUnits="userSpaceOnUse" gradientTransform="matrix(-291.608,-12.288,4.798,-113.862,3053.131,220.255)">
			<stop offset="0" stop-color="#1e0e2b"/>
			<stop offset="1" stop-color="#321d29"/>
		</linearGradient>
		<linearGradient id="g9" x2="1" gradientUnits="userSpaceOnUse" gradientTransform="matrix(-212.683,-8.962,14.024,-332.804,3000.567,309.221)">
			<stop offset="0" stop-color="#1e0e2b"/>
			<stop offset="1" stop-color="#321d29"/>
		</linearGradient>
		<linearGradient id="g10" x2="1" gradientUnits="userSpaceOnUse" gradientTransform="matrix(0,-618.053,2812.939,0,1509.367,791.543)">
			<stop offset="0" stop-color="#b6bbe8"/>
			<stop offset="1" stop-color="#fefee2"/>
		</linearGradient>
		<linearGradient id="g11" x2="1" gradientUnits="userSpaceOnUse" gradientTransform="matrix(21.813,-517.656,573.105,24.149,595.702,708.028)">
			<stop offset="0" stop-color="#b6bbe8"/>
			<stop offset="1" stop-color="#fefee2"/>
		</linearGradient>
		<linearGradient id="g12" x2="1" gradientUnits="userSpaceOnUse" gradientTransform="matrix(0,-602.3,1121.264,0,532.858,775.177)">
			<stop offset="0" stop-color="#7c84d5"/>
			<stop offset="1" stop-color="#bdd1ff"/>
		</linearGradient>
		<linearGradient id="g13" x2="1" gradientUnits="userSpaceOnUse" gradientTransform="matrix(-2941.791,-123.961,3.938,-93.452,2985.403,289.442)">
			<stop offset=".006" stop-color="#366590"/>
			<stop offset=".182" stop-color="#4b3670"/>
			<stop offset="1" stop-color="#2f004f"/>
		</linearGradient>
		<linearGradient id="g14" x2="1" gradientUnits="userSpaceOnUse" gradientTransform="matrix(-2615.634,-110.217,2.76,-65.505,2941.72,439.393)">
			<stop offset="0" stop-color="#bdc7e9"/>
			<stop offset="1" stop-color="#7c84d5"/>
		</linearGradient>
		<linearGradient id="g15" x2="1" gradientUnits="userSpaceOnUse" gradientTransform="matrix(-2615.634,-110.217,2.425,-57.554,2941.97,433.46)">
			<stop offset="0" stop-color="#f6f7fc"/>
			<stop offset="1" stop-color="#ffffff"/>
		</linearGradient>
		<linearGradient id="g16" x2="1" gradientUnits="userSpaceOnUse" gradientTransform="matrix(-2436.442,-102.667,3.904,-92.659,2874.316,524.929)">
			<stop offset="0" stop-color="#bdc7e9"/>
			<stop offset="1" stop-color="#7c84d5"/>
		</linearGradient>
		<linearGradient id="g17" x2="1" gradientUnits="userSpaceOnUse" gradientTransform="matrix(-2436.442,-102.667,3.775,-89.584,2874.563,519.075)">
			<stop offset="0" stop-color="#f6f7fc"/>
			<stop offset="1" stop-color="#ffffff"/>
		</linearGradient>
		<linearGradient id="g18" x2="1" gradientUnits="userSpaceOnUse" gradientTransform="matrix(1305.753,208.921,-69.375,433.597,1456.951,539.507)">
			<stop offset="0" stop-color="#b6bbe8"/>
			<stop offset="1" stop-color="#fefee2"/>
		</linearGradient>
		<linearGradient id="g19" x2="1" gradientUnits="userSpaceOnUse" gradientTransform="matrix(-2227.273,-33.502,.985,-65.474,2803.111,626.336)">
			<stop offset="0" stop-color="#bdc7e9"/>
			<stop offset="1" stop-color="#7c84d5"/>
		</linearGradient>
		<linearGradient id="g20" x2="1" gradientUnits="userSpaceOnUse" gradientTransform="matrix(-2223.297,-93.685,4.938,-117.184,2803.318,620.538)">
			<stop offset="0" stop-color="#f6f7fc"/>
			<stop offset="1" stop-color="#ffffff"/>
		</linearGradient>
		<linearGradient id="g21" x2="1" gradientUnits="userSpaceOnUse" gradientTransform="matrix(.637,-15.107,24.656,1.039,365.376,322.511)">
			<stop offset=".006" stop-color="#926d9a"/>
			<stop offset=".994" stop-color="#d2dde2"/>
		</linearGradient>
		<linearGradient id="g22" x2="1" gradientUnits="userSpaceOnUse" gradientTransform="matrix(19.631,-465.878,665.792,28.055,444.481,716.129)">
			<stop offset=".006" stop-color="#926d9a"/>
			<stop offset=".994" stop-color="#d2dde2"/>
		</linearGradient>
		<linearGradient id="g23" x2="1" gradientUnits="userSpaceOnUse" gradientTransform="matrix(19.634,-465.94,1183.614,49.875,2833.205,816.736)">
			<stop offset=".006" stop-color="#926d9a"/>
			<stop offset=".994" stop-color="#d2dde2"/>
		</linearGradient>
		<linearGradient id="g24" x2="1" gradientUnits="userSpaceOnUse" gradientTransform="matrix(0,-483.876,418.08,0,665.888,690.228)">
			<stop offset=".006" stop-color="#d2dde2"/>
			<stop offset=".994" stop-color="#92869a"/>
		</linearGradient>
		<linearGradient id="g25" x2="1" gradientUnits="userSpaceOnUse" gradientTransform="matrix(0,-446.302,412.399,0,743.824,679.037)">
			<stop offset=".006" stop-color="#940068"/>
			<stop offset="1" stop-color="#ff6a27"/>
		</linearGradient>
		<linearGradient id="g26" x2="1" gradientUnits="userSpaceOnUse" gradientTransform="matrix(10.966,-260.239,143.302,6.038,1273.377,600.473)">
			<stop offset="0" stop-color="#c23927"/>
			<stop offset=".994" stop-color="#940068"/>
		</linearGradient>
		<linearGradient id="g27" x2="1" gradientUnits="userSpaceOnUse" gradientTransform="matrix(-2.406,-112.164,62.839,-1.348,1103.19,333.83)">
			<stop offset="0" stop-color="#ff866a"/>
			<stop offset="1" stop-color="#ffa986"/>
		</linearGradient>
		<linearGradient id="g28" x2="1" gradientUnits="userSpaceOnUse" gradientTransform="matrix(-0.716,-33.393,129.54,-2.779,1139.78,474.915)">
			<stop offset="0" stop-color="#ff866a"/>
			<stop offset="1" stop-color="#ffa986"/>
		</linearGradient>
		<linearGradient id="g29" x2="1" gradientUnits="userSpaceOnUse" gradientTransform="matrix(-1.072,-49.951,155.418,-3.334,845.356,504.529)">
			<stop offset="0" stop-color="#ff866a"/>
			<stop offset="1" stop-color="#ffa986"/>
		</linearGradient>
		<linearGradient id="g30" x2="1" gradientUnits="userSpaceOnUse" gradientTransform="matrix(-2.231,-103.993,36.83,-0.79,1158.488,677.144)">
			<stop offset="0" stop-color="#ff866a"/>
			<stop offset="1" stop-color="#ffa986"/>
		</linearGradient>
		<linearGradient id="g31" x2="1" gradientUnits="userSpaceOnUse" gradientTransform="matrix(-4.37,-203.718,209.228,-4.488,998.683,439.378)">
			<stop offset="0" stop-color="#000000"/>
			<stop offset="1" stop-color="#ff7233"/>
		</linearGradient>
		<linearGradient id="g32" x2="1" gradientUnits="userSpaceOnUse" gradientTransform="matrix(-90.187,-3.8,3.272,-77.638,1095.476,526.044)">
			<stop offset="0" stop-color="#000000"/>
			<stop offset="1" stop-color="#ff7233"/>
		</linearGradient>
		<linearGradient id="g33" x2="1" gradientUnits="userSpaceOnUse" gradientTransform="matrix(9.715,-230.543,353.613,14.901,1021.771,680.63)">
			<stop offset=".006" stop-color="#92869a"/>
			<stop offset=".994" stop-color="#d2dde2"/>
		</linearGradient>
		<linearGradient id="g34" x2="1" gradientUnits="userSpaceOnUse" gradientTransform="matrix(0,656.745,-371.874,0,988.631,66.955)">
			<stop offset="0" stop-color="#000000"/>
			<stop offset="1" stop-color="#ffffff"/>
		</linearGradient>
		<linearGradient id="g35" x2="1" gradientUnits="userSpaceOnUse" gradientTransform="matrix(0,649.037,-1104.089,0,1003.542,71.742)">
			<stop offset="0" stop-color="#000000"/>
			<stop offset="1" stop-color="#ffffff"/>
		</linearGradient>
		<linearGradient id="g36" x2="1" gradientUnits="userSpaceOnUse" gradientTransform="matrix(0,639.867,-1086.824,0,1002.665,77.456)">
			<stop offset="0" stop-color="#000000"/>
			<stop offset="1" stop-color="#ffffff"/>
		</linearGradient>
		<linearGradient id="g37" x2="1" gradientUnits="userSpaceOnUse" gradientTransform="matrix(0,656.075,-234.635,0,981.403,67.357)">
			<stop offset="0" stop-color="#000000"/>
			<stop offset="1" stop-color="#ffffff"/>
		</linearGradient>
		<linearGradient id="g38" x2="1" gradientUnits="userSpaceOnUse" gradientTransform="matrix(0,671.395,-983.45,0,966.189,58.297)">
			<stop offset="0" stop-color="#000000"/>
			<stop offset="1" stop-color="#ffffff"/>
		</linearGradient>
		<linearGradient id="g39" x2="1" gradientUnits="userSpaceOnUse" gradientTransform="matrix(0,663.172,-1494.649,0,2891.209,63.106)">
			<stop offset="0" stop-color="#000000"/>
			<stop offset="1" stop-color="#ffffff"/>
		</linearGradient>
		<linearGradient id="g40" x2="1" gradientUnits="userSpaceOnUse" gradientTransform="matrix(0,640.832,-1190.793,0,2938.421,72.58)">
			<stop offset="0" stop-color="#000000"/>
			<stop offset="1" stop-color="#ffffff"/>
		</linearGradient>
		<linearGradient id="g41" x2="1" gradientUnits="userSpaceOnUse" gradientTransform="matrix(0,642.194,-5401.752,0,2847.978,67.708)">
			<stop offset="0" stop-color="#000000"/>
			<stop offset="1" stop-color="#ffffff"/>
		</linearGradient>
		<linearGradient id="g42" x2="1" gradientUnits="userSpaceOnUse" gradientTransform="matrix(0,638.231,-1510.092,0,2930.888,68.292)">
			<stop offset="0" stop-color="#000000"/>
			<stop offset="1" stop-color="#ffffff"/>
		</linearGradient>
		<linearGradient id="g43" x2="1" gradientUnits="userSpaceOnUse" gradientTransform="matrix(0,640.892,-1574.722,0,2928.66,67.207)">
			<stop offset="0" stop-color="#000000"/>
			<stop offset="1" stop-color="#ffffff"/>
		</linearGradient>
		<linearGradient id="g44" x2="1" gradientUnits="userSpaceOnUse" gradientTransform="matrix(0,652.046,-436.334,0,3138.877,70.864)">
			<stop offset="0" stop-color="#000000"/>
			<stop offset="1" stop-color="#ffffff"/>
		</linearGradient>
		<linearGradient id="g45" x2="1" gradientUnits="userSpaceOnUse" gradientTransform="matrix(0,656.043,-2986.025,0,1645.156,67.367)">
			<stop offset="0" stop-color="#000000"/>
			<stop offset="1" stop-color="#ffffff"/>
		</linearGradient>
		<linearGradient id="g46" x2="1" gradientUnits="userSpaceOnUse" gradientTransform="matrix(0,656.065,-643.23,0,653.282,67.363)">
			<stop offset="0" stop-color="#000000"/>
			<stop offset="1" stop-color="#ffffff"/>
		</linearGradient>
		<linearGradient id="g47" x2="1" gradientUnits="userSpaceOnUse" gradientTransform="matrix(0,656.065,-1221.354,0,865.43,67.364)">
			<stop offset="0" stop-color="#000000"/>
			<stop offset="1" stop-color="#ffffff"/>
		</linearGradient>
		<linearGradient id="g48" x2="1" gradientUnits="userSpaceOnUse" gradientTransform="matrix(0,639.041,-10091.613,0,1519.576,69.909)">
			<stop offset="0" stop-color="#000000"/>
			<stop offset="1" stop-color="#ffffff"/>
		</linearGradient>
		<linearGradient id="g49" x2="1" gradientUnits="userSpaceOnUse" gradientTransform="matrix(0,656.739,-23561.19,0,1633.948,66.97)">
			<stop offset="0" stop-color="#000000"/>
			<stop offset="1" stop-color="#ffffff"/>
		</linearGradient>
		<linearGradient id="g50" x2="1" gradientUnits="userSpaceOnUse" gradientTransform="matrix(0,696.551,-19309.877,0,1634.634,44.402)">
			<stop offset="0" stop-color="#000000"/>
			<stop offset="1" stop-color="#ffffff"/>
		</linearGradient>
		<linearGradient id="g51" x2="1" gradientUnits="userSpaceOnUse" gradientTransform="matrix(0,655.981,-40035.132,0,1654.685,67.417)">
			<stop offset="0" stop-color="#000000"/>
			<stop offset="1" stop-color="#ffffff"/>
		</linearGradient>
		<linearGradient id="g52" x2="1" gradientUnits="userSpaceOnUse" gradientTransform="matrix(0,656.065,-38970.597,0,1654.704,67.364)">
			<stop offset="0" stop-color="#000000"/>
			<stop offset="1" stop-color="#ffffff"/>
		</linearGradient>
		<linearGradient id="g53" x2="1" gradientUnits="userSpaceOnUse" gradientTransform="matrix(0,655.95,-35932.045,0,1689.462,67.458)">
			<stop offset="0" stop-color="#000000"/>
			<stop offset="1" stop-color="#ffffff"/>
		</linearGradient>
		<linearGradient id="g54" x2="1" gradientUnits="userSpaceOnUse" gradientTransform="matrix(0,655.864,-39628.333,0,1689.386,67.532)">
			<stop offset="0" stop-color="#000000"/>
			<stop offset="1" stop-color="#ffffff"/>
		</linearGradient>
		<linearGradient id="g55" x2="1" gradientUnits="userSpaceOnUse" gradientTransform="matrix(0,653.535,-4142.541,0,1677.844,69.896)">
			<stop offset="0" stop-color="#000000"/>
			<stop offset="1" stop-color="#ffffff"/>
		</linearGradient>
		<linearGradient id="g56" x2="1" gradientUnits="userSpaceOnUse" gradientTransform="matrix(0,633.866,-1760.276,0,226.412,70.917)">
			<stop offset="0" stop-color="#000000"/>
			<stop offset="1" stop-color="#ffffff"/>
		</linearGradient>
		<linearGradient id="g57" x2="1" gradientUnits="userSpaceOnUse" gradientTransform="matrix(0,658.726,-561.492,0,1279.245,64.717)">
			<stop offset="0" stop-color="#000000"/>
			<stop offset="1" stop-color="#ffffff"/>
		</linearGradient>
		<linearGradient id="g58" x2="1" gradientUnits="userSpaceOnUse" gradientTransform="matrix(0,650.891,-601.447,0,1226.815,72.186)">
			<stop offset="0" stop-color="#000000"/>
			<stop offset="1" stop-color="#ffffff"/>
		</linearGradient>
		<linearGradient id="g59" x2="1" gradientUnits="userSpaceOnUse" gradientTransform="matrix(0,690.862,-393.899,0,1268.115,39.698)">
			<stop offset="0" stop-color="#000000"/>
			<stop offset="1" stop-color="#ffffff"/>
		</linearGradient>
		<linearGradient id="g60" x2="1" gradientUnits="userSpaceOnUse" gradientTransform="matrix(0,551.55,-312.619,0,1100.755,102.58)">
			<stop offset="0" stop-color="#000000"/>
			<stop offset="1" stop-color="#ffffff"/>
		</linearGradient>
		<linearGradient id="g61" x2="1" gradientUnits="userSpaceOnUse" gradientTransform="matrix(0,656.065,-2709.024,0,1139.206,67.361)">
			<stop offset="0" stop-color="#000000"/>
			<stop offset="1" stop-color="#ffffff"/>
		</linearGradient>
		<linearGradient id="g62" x2="1" gradientUnits="userSpaceOnUse" gradientTransform="matrix(0,656.055,-1918.964,0,842.431,67.369)">
			<stop offset="0" stop-color="#000000"/>
			<stop offset="1" stop-color="#ffffff"/>
		</linearGradient>
		<linearGradient id="g63" x2="1" gradientUnits="userSpaceOnUse" gradientTransform="matrix(0,656.061,-225.005,0,1143.04,67.365)">
			<stop offset="0" stop-color="#000000"/>
			<stop offset="1" stop-color="#ffffff"/>
		</linearGradient>
		<linearGradient id="g64" x2="1" gradientUnits="userSpaceOnUse" gradientTransform="matrix(0,643.601,-639.471,0,980.733,74.297)">
			<stop offset="0" stop-color="#000000"/>
			<stop offset="1" stop-color="#ffffff"/>
		</linearGradient>
		<linearGradient id="g65" x2="1" gradientUnits="userSpaceOnUse" gradientTransform="matrix(0,656.063,-813.975,0,1078.93,67.363)">
			<stop offset="0" stop-color="#000000"/>
			<stop offset="1" stop-color="#ffffff"/>
		</linearGradient>
		<linearGradient id="g66" x2="1" gradientUnits="userSpaceOnUse" gradientTransform="matrix(0,656.059,-950.585,0,1035.344,67.367)">
			<stop offset="0" stop-color="#000000"/>
			<stop offset="1" stop-color="#ffffff"/>
		</linearGradient>
	</defs>
	<style>
		.s0 { fill: url(#g1) } 
		.s1 { fill: #180015 } 
		.s2 { fill: url(#g2) } 
		.s3 { fill: url(#g3) } 
		.s4 { fill: url(#g4) } 
		.s5 { opacity: .5;mix-blend-mode: multiply;fill: url(#g5) } 
		.s6 { fill: url(#g6) } 
		.s7 { fill: url(#g7) } 
		.s8 { fill: #6f484f } 
		.s9 { fill: url(#g8) } 
		.s10 { fill: url(#g9) } 
		.s11 { fill: url(#g10) } 
		.s12 { fill: url(#g11) } 
		.s13 { fill: url(#g12) } 
		.s14 { fill: url(#g13) } 
		.s15 { fill: url(#g14) } 
		.s16 { fill: url(#g15) } 
		.s17 { fill: url(#g16) } 
		.s18 { fill: url(#g17) } 
		.s19 { fill: url(#g18) } 
		.s20 { fill: url(#g19) } 
		.s21 { fill: url(#g20) } 
		.s22 { opacity: .5;mix-blend-mode: multiply;fill: url(#g21) } 
		.s23 { opacity: .5;mix-blend-mode: multiply;fill: url(#g22) } 
		.s24 { opacity: .5;mix-blend-mode: multiply;fill: url(#g23) } 
		.s25 { mix-blend-mode: multiply;fill: #655792 } 
		.s26 { fill: url(#g24) } 
		.s27 { fill: url(#g25) } 
		.s28 { fill: url(#g26) } 
		.s29 { fill: url(#g27) } 
		.s30 { fill: url(#g28) } 
		.s31 { fill: url(#g29) } 
		.s32 { fill: url(#g30) } 
		.s33 { mix-blend-mode: screen;fill: url(#g31) } 
		.s34 { mix-blend-mode: screen;fill: url(#g32) } 
		.s35 { opacity: .5;mix-blend-mode: multiply;fill: url(#g33) } 
		.s36 { fill: url(#g34) } 
		.s37 { fill: url(#g35) } 
		.s38 { fill: url(#g36) } 
		.s39 { fill: url(#g37) } 
		.s40 { fill: url(#g38) } 
		.s41 { fill: url(#g39) } 
		.s42 { fill: url(#g40) } 
		.s43 { fill: url(#g41) } 
		.s44 { fill: url(#g42) } 
		.s45 { fill: url(#g43) } 
		.s46 { fill: url(#g44) } 
		.s47 { fill: url(#g45) } 
		.s48 { fill: url(#g46) } 
		.s49 { fill: url(#g47) } 
		.s50 { fill: url(#g48) } 
		.s51 { fill: url(#g49) } 
		.s52 { fill: url(#g50) } 
		.s53 { fill: url(#g51) } 
		.s54 { fill: url(#g52) } 
		.s55 { fill: url(#g53) } 
		.s56 { fill: url(#g54) } 
		.s57 { fill: url(#g55) } 
		.s58 { fill: url(#g56) } 
		.s59 { fill: url(#g57) } 
		.s60 { fill: url(#g58) } 
		.s61 { fill: url(#g59) } 
		.s62 { fill: url(#g60) } 
		.s63 { fill: url(#g61) } 
		.s64 { fill: url(#g62) } 
		.s65 { fill: url(#g63) } 
		.s66 { fill: url(#g64) } 
		.s67 { fill: url(#g65) } 
		.s68 { fill: url(#g66) } 
	</style>
	<g id="&lt;Group&gt;">
		<g id="&lt;Group&gt;">
			<path id="&lt;Path&gt;" class="s0" d="m1783.6 735.2l919.3-30.2 78.6-105.3z"/>
			<g id="&lt;Group&gt;">
				<path id="&lt;Path&gt;" class="s1" d="m870 349.3c0 0-1.7 2.3-0.3 6.6 0.8 2.2 3.6 4.8 6.7 7.9 9.3 9.4 20.9 23 30 39.9 18.2 34 15.8 48.9 15.8 48.9l-45.6 7.3-16.9-50.8c0 0 0.1-23.3 0.2-40.8 0.1-3.5 0.1-6.7 0.1-9.5 2.2-5.7 10-9.5 10-9.5z"/>
				<path id="&lt;Path&gt;" class="s2" d="m816.2 384.2c2.5 4.4 15.8 15.9 31.1 28.4 6.3 5.1 13 10.4 19.3 15.4 17.7 13.9 33.2 25.5 33.2 25.5 0 0 23.3-3.2 74.3 0.1 5.9 0.4 11.7 0.9 17.3 1.7 42.5 5.7 74 20.7 74 20.7 4.1 0.5 10.4-0.2 16.1-1.1 7-1.1 13.2-2.5 13.2-2.5-17-46.3-54.4-69.2-70-77.1-4.4-2.2-7.1-3.2-7.1-3.2-36.1-5.6-54.6-21.5-55.7-22.5v-0.1c0 0 5.2-4 6.5-8.5-1.8-21.6 25.1-16.2 30.5-32.3-10.8-5.4-26.9-10.8-37.7-16.2 5.4 0 5.4 5.4 5.4 10.8-21.6 26.9-48.6 21.5-77.2 31.6-4.3 6-6.8 12.1-9 17.9-4.5 11.4-8 21.1-8 21.1-3.5-0.6-17.6-3-30.7-5.3q-0.8-0.1-1.6-0.2c-12.5-2.2-23.9-4.2-23.9-4.2z"/>
				<path id="&lt;Path&gt;" class="s3" d="m840.1 388.4l0.9 3 1.9 6.3 4.4 14.9c6.3 5.1 13 10.4 19.3 15.4 3.4 2.6 6.6 5.1 9.7 7.5q1.5 1.2 3 2.3c1.1 0.9 2.2 1.8 3.3 2.6 0.8 0.6 1.5 1.2 2.3 1.8 2.2 1.7 4.3 3.3 6.1 4.7 0.7 0.5 1.4 1 2 1.5 4.2 3.2 6.8 5.1 6.8 5.1 0 0 23.3-3.2 74.3 0.1 3.2 0.2 6.3 0.4 9.4 0.7q4 0.5 7.9 1c42.5 5.7 74 20.7 74 20.7 4.1 0.5 10.4-0.2 16.1-1.1-3.8-6.9-32.8-58.5-69.5-71.1-0.5-0.2-1.1-0.4-1.6-0.6-18.8-5.9-38.9-15.7-57.3-27.4q-5.2-3.4-10.2-6.9c-8.7-2.5-14.1-7.9-8.7-18.7q16.2-16.1 32.4-16.1c-27 5.3-48.6 16.1-77.2 20.8-4.3 6-6.8 12.1-9 17.9-4.5 11.4-8 21.1-8 21.1-1.2-0.2-3.4-0.6-6.4-1.1q-1.5-0.2-3.3-0.5c-4.3-0.8-9.5-1.7-14.8-2.6-0.9-0.2-1.7-0.3-2.6-0.5-0.4 0-0.8-0.1-1.1-0.2q-1.2-0.2-2.5-0.4-0.8-0.1-1.6-0.2z"/>
				<path id="&lt;Path&gt;" class="s4" d="m839.1 361.5c0 0-15.3 72.8 4 103.4l-40.4-0.9c0 0-1.8-53.3 7.5-95.4 1.3-6 2.9-11.7 4.7-17.1 0 0 2.2 1.8 6.3 4 4.2 2.1 10.2 4.6 17.9 6z"/>
				<path id="&lt;Path&gt;" class="s5" d="m840.4 394.5l2.5 3.2 23.7 30.3c3.4 2.6 6.6 5.1 9.7 7.5q1.5 1.2 3 2.3c1.1 0.9 2.2 1.8 3.3 2.6q1.2 0.9 2.3 1.8c2.2 1.7 4.3 3.3 6.1 4.7 0.7 0.5 1.4 1 2 1.5 4.2 3.2 6.8 5.1 6.8 5.1 0 0 23.3-3.2 74.3 0.1 3.2 0.2 6.3 0.4 9.4 0.7q4 0.5 7.9 1c-1.8-7.1-1.9-16.5 2.8-28 4.3-10.3 11.1-18 17.8-23.5-0.5-0.2-1.1-0.4-1.6-0.6-18.8-5.9-38.9-15.7-57.3-27.4-12.6 8.3-35.5 20.9-45.7 10.2-3.6-3.8-6.3-8.5-8.2-13.5-2-4.9-3.3-10.1-3.6-15 22.8-11.1 48.5-19.3 48.5-19.3-13.1 3.9-35.6 10-54.7 16.7-4.3 6-6.8 12.1-9 17.9-4.5 11.4-8 21.1-8 21.1-1.2-0.2-3.4-0.6-6.4-1.1q-1.5-0.2-3.3-0.5c-4.3-0.8-9.5-1.7-14.8-2.6-0.9-0.2-1.7-0.3-2.6-0.5-0.4 0-0.8-0.1-1.1-0.2-0.9-0.1-1.7-0.3-2.5-0.4l-0.7 2.8z"/>
			</g>
			<path id="&lt;Path&gt;" class="s6" d="m2691.1 313.1c12.2-22.2-31-11.4-21.6-31.2 1-3.7 2.3-7.5 3.7-11.3 1.3-3.9 2.8-8 4.2-12 1.4-4.1 2.9-8.3 4.3-12.4 0-20 48.6-14.6 27-41.6-5.4-5.4-27 0-32.4-21.6 113.3-21.5 237.3-26.9 334.4 27 48.6 27 32.4 102.5-5.4 113.3-91.7 26.9-204.9-10.8-306.1-9.8-5.2-0.3-8.1-0.4-8.1-0.4z"/>
			<path id="&lt;Path&gt;" class="s7" d="m3018 202.8c-88.2-9-179.9-25.2-266.2-25.2 37.8 16.2 27 37.8 14.2 68.4q-1.1 5.3-2.2 10.6-1.1 5.3-2.1 10.4c-1.4 6.8-2.7 13.4-3.8 19.4 58.7 63.8 171.9 47.7 252.8 36.9 32.4-5.4 43.2-70.1 11.6-111.2-1.8-3.4-3.5-6.5-4.3-9.3z"/>
			<path id="&lt;Path&gt;" class="s8" d="m2675 180.8c114.6-19.3 227.8 13 341.1 23.8-102.5-37.7-215.7-53.9-322.5-27.6q-9.5 1.7-18.6 3.8z"/>
			<path id="&lt;Path&gt;" class="s8" d="m3036.4 238c17.5 20.5 22.9 42.1-0.8 63.8-2.9 4.3-3.9 7.7-4.6 10.9-1.4 6.3-2.6 11.9-3.5 15.8-92.3-5.2-200.2 5.6-268.4-37.4-2.1-2.4-1-5.5-0.5-8.8 1.9-9.6 4.1-20.2 6.2-30.4 0.7-3.3 1.3-6.7 2.1-9.9 11.9-69.8 76.6-21.2 122.8-20 4.5 0.7 9.1 1.3 13.7 1.9 23.2 2.9 46.3 5.9 66.5 8.5 4.2 0.4 8.2 0.8 12 1.3 12.6 8.7 28.8 3.3 39 3.3 9.8 0.6 15.5 1 15.5 1z"/>
			<path id="&lt;Path&gt;" class="s9" d="m3049.1 246.4c-33-4-60-4-90.4-8.6q-5.9-0.8-12.1-1.6c-16.4-2.2-33.6-4.5-50.6-6.7q-6.3-0.9-12.6-1.7c-45.3-1.6-110-50.2-117.4 18.2-1.3 6.1-2.6 12.6-3.9 19.1-1.3 6.5-2.7 13-3.8 19.1 63.6 60.6 182.3 39.1 269.2 44.3 0.9-3.9 2.1-9.5 3.5-15.8 0.7-3.2 1.7-6.6 4.6-10.9 23.7-10.9 12.9-32.5 10.4-47.9 2-4.7 3.1-7.5 3.1-7.5z"/>
			<path id="&lt;Path&gt;" class="s10" d="m2999.7 328.7c-26.7 10.7 0.2 37.7-16.2 58.7q-1.5 5.2-3 10.7c-25.9 91.3-68.2 240.8-68.2 240.8l-138.2-11.5c0 0 27.9-133.8 48-230.4q1.3-6.3 2.6-12.4c45.8-29 13.4-50.5-2.8-82.9 54 10.8 107.9 16.2 160.9 23.4 10.5 2.2 16.9 3.6 16.9 3.6z"/>
			<path id="&lt;Path&gt;" class="s11" d="m2983.7 328.7c-21.5 10.7-10.8 37.7-21.3 54q-3.1 6.7-6.4 13.2c-6.6 13-13.6 25.4-20.9 37.3-1.3 2-2.5 4.2-3.8 6.2h-0.1c-1.6 2.6-3.2 5.2-5 7.7-18.1 27.9-37.7 52.3-56.8 73-1.5 1.7-3 3.4-4.6 5-2.5 2.6-4.9 5.2-7.4 7.8-52.6 54.1-59.5 88-59.5 88-27.3 4.1-93.9 4-123.1 4.2-46.7 0.4-106.4 8.8-177.8 21.6h-0.2c-193.9 34.7-474.3 102-814.5 131h-0.1c-292.3 24.9-628.8 21.7-992.5-54.7-30.2-22.4-59.4-45.5-87.5-68.9-3.6-3.1-7.4-6.3-11-9.4-0.3-0.2-0.6-0.4-0.8-0.6-3.6-3-7.2-6.1-10.7-9.1-47.6-41.1-91.9-83.2-132.2-124.4-1.9-1.7-3.7-3.6-5.5-5.5-0.1-0.1-0.2-0.1-0.3-0.3-1.6-1.5-3.1-3.1-4.6-4.6-38-39.2-72.5-77.4-103-113-3.4-4-6.7-7.9-10-11.9-10.2-14.3-10.2-30.5-26.3-41.2 10.7-5.4 26.9-10.8 37.7-16.2-27-21.6-64.7-16.2-91.7-32.4-26.9-10.8-16.2-48.5 16.2-59.3-27-10.8-53.9-10.8-75.2-32.5-5.2-6.8-8.5-11.8-10.7-15.1-2.2-3.3-3.3-5.1-3.3-5.1 58.8 1.4 118.7 3.2 179.4 5.1 4.4 0.1 8.7 0.2 12.9 0.4 71.1 3.2 142.3 6.2 213.3 9.3 6.6 0.3 13 0.6 19.6 1 386.7 20.7 780.5 31.5 1169.1 56.7q5.3 0.4 10.6 0.7c35.6 2.1 70.8 4.2 105.5 6.3 3.5 0.3 6.9 0.5 10.5 0.7 239.9-5.9 471.8 42.6 711.1 44.8 6.4 0.3 12.7 0.6 19 0.9 120.7 5.9 242.4 12.2 361.9 29.3z"/>
			<path id="&lt;Path&gt;" class="s12" d="m122.8 172.4l-25.6-4c0 0 1.2 3.1 3.9 9q2 4.4 5.1 10.7c13.6 21.9 45.9 21.9 56.7 38.1 10.8 5.4-26.9 10.8-21.5 27 10.7 26.9 37.7 37.7 64.7 53.9 5.4 5.4-5.4 10.8-8.9 15.1-3.2 5.4-2.2 10.5 1.7 15.8 3.8 5.2 7.9 10.5 12 15.9 2.1 2.6 4.1 5.4 6.2 8.2q3.2 4.1 6.5 8.2c83 105.4 148.7 160.8 342.2 276.4l82.7 63.6c0 0-224.5-134.8-389.1-330.5-2.7-3.2-5.5-6.5-8-9.9-7.6-19.7-39.9-41.2-7.6-57.4-21.5-27-80.9-21.6-75.5-64.7 5.4-10.8 32.4-16.2 21.6-21.6-10.8-16.2-37.8-21.6-56.7-32.3q-2.7-5.4-5.3-10.7-2.6-5.4-5.1-10.8z"/>
			<path id="&lt;Path&gt;" class="s13" d="m689.7 723c178 28.3 373.5 54.3 585.7 68.5-201.1-7.3-409.2-3-620.1-62.9 0 0-231.6-132.4-404.2-348.3-2.8-3.4-5.5-6.9-8.2-10.5-26-19.6-26-41.1-4.5-62.7-32.3-10.8-75.5-21.6-70.1-64.7 5.4-10.8 27-10.8 21.6-21.6-10.8-16.2-37.8-10.8-53.5-23.1-3.4-4.3-5.7-8.5-7.9-12.7q-2.9-6.3-5.7-12.6l95.1 1.7q0 0 1.5 2.6c0.9 1.7 2.4 4.3 3.8 7.9 9.9 47 63.8 20 85.4 41.6-21.6 16.2-59.4 16.2-37.8 53.9 16.2 32.4 70.1 10.8 97.1 37.8-27 16.2-37.8 26.9-17.8 54.1 1.6 3.4 3.7 6.4 6 9.3 80.4 106 193.6 234.8 333.6 341.7z"/>
			<path id="&lt;Path&gt;" class="s14" d="m169.6 226.1c131.2 3.8 263.5 10.2 396.3 18.1q10 0.6 19.9 1.2c192 13.1 386.2 13.1 581.4 41.2 6.3 0.7 12.9 1.2 19.6 1.7q5 0.4 10.1 0.8 5 0.3 10.1 0.7c218 1.1 428.4 28.1 641.5 44.2q9.9 0.6 19.9 1.1c113.1 6 225.8 10.8 337.8 13.6q9.9 0.3 19.8 0.5c18.8 1 40.4 1 59.2 1.2q9.9 0.2 19.7 0.3c229.9 3.4 456.8-2.1 678.8-22-121.3-10.2-244.8-16-367.6-21.8q-9.2-0.5-18.4-0.8c-250.4-9.8-493.1-36.8-739-40.1q-5.2-0.3-10.3-0.6-35.2-2-70.7-3.9-5.1-0.3-10.2-0.6c-396.4-29.3-790.1-29.3-1186.1-64.6-6.7-0.6-13.4-1.1-20-1.6-98.2-5.8-196.3-11.4-294.4-16.9q-8.3-0.4-16.5-0.9c-129.5-7.1-206.9-11.4-206.9-11.4 0 0 15.8 11.6 33.5 24.7 3.2 1.9 6.1 3.8 9.4 5.8 17.1 14 38.7 19.4 62 22 17.1 5.1 21.1 8.1 21.1 8.1z"/>
			<path id="&lt;Path&gt;" class="s15" d="m324.1 375.3c0 0 9.9 4.1 19.9 8.2 9.9 4 19.9 8 19.9 8 20.1 1.3 40.4 2.6 60.8 3.8 806.3 49.6 1819.1 53.8 2268.5 52.9 142.9-0.3 228.9-1.1 233.1-1.1 0 0 0.1 0 0.1 0l15.3-7.7c0 0-1.8 0-5.3 0-1.7 0-3.4 0-5.1 0 0 0 0 0 0 0h-0.1c-4.9 0.1-9.9 0.1-14.8 0-15.5 0.1-31.6 0.1-48.4 0-8.5-0.1-17.7-0.1-27.6-0.1-41.2-0.2-85.8-0.6-133.5-1.2-682.2-8-1983.6-49.6-2308.1-60.3-16.1-0.5-29.7-0.9-40.8-1.3-11-0.4-19.5-0.7-25.2-0.9-5.7-0.2-8.7-0.3-8.7-0.3z"/>
			<path id="&lt;Path&gt;" class="s16" d="m324.1 375.3q12.9 0.9 25.9 1.8 13 0.9 26.2 1.7 13.2 0.9 26.5 1.7c749.2 46.6 1830.6 56.4 2303.2 58.5 52.9 0.1 98.2 0.2 134.5 0.3 9.9 0 19.1 0 27.6 0.1 20.1 0 36.3 0 48.4 0 5.9 0 10.9 0 14.8 0h0.1c0 0 0 0 0 0 1.9 0 3.7 0 5.1 0 3.5 0 5.3 0 5.3 0l-6.5-6.2h-0.1c-63.9 0.8-138.6 0.7-221.5-0.1-658.6-6.3-1835.4-57.7-2239.6-76.1q-5.8-0.2-11.3-0.5c-40.9 9.9-100.2-33.2-130.8 3.8-4.2 7.8-7.8 15-7.8 15z"/>
			<path id="&lt;Path&gt;" class="s17" d="m434.4 504.7l13.1 6 9.1 4.2c61.9 3.3 125.2 6.3 189.7 9 670 27.8 1453 21.9 1885.2 15.4 185.8-2.9 306.7-5.9 325.8-6.4 1.9 0 2.7-0.1 2.7-0.1l14.3-7.9c0 0-2.9 0.1-8.6 0.2h-0.9c-0.4 0-0.8 0-1.2 0-7.3 0.2-18.3 0.4-32.8 0.6-76.2 1.2-169.2 1.7-273.5 1.8-590.1 0.7-1546.3-13.5-1942.3-19.8-91.5-1.4-153-2.5-173.3-2.9-4.8-0.1-7.3-0.1-7.3-0.1z"/>
			<path id="&lt;Path&gt;" class="s18" d="m434.4 504.7c2.5 0.1 5.1 0.3 7.6 0.4 59.4 3.4 121.4 6.4 185.3 9 639.9 26.8 1474.1 21.6 1924.5 16 129.1-1.7 226.6-3.3 279-4.4 14.5-0.2 25.5-0.4 32.8-0.6l1.2 0.1c0.3-0.1 0.6-0.1 0.9-0.1 5.7-0.1 8.6-0.2 8.6-0.2l-4.9-4.8-1.3-1.3c-83.3 2.4-186 3.7-301.7 4.3-614.9 2.9-1595-17.6-1971.3-26-97.2-2.2-154.1-3.6-154.1-3.6l-3.9 6.7z"/>
			<path id="&lt;Path&gt;" class="s19" d="m2501 645.5c-194 34.8-478.5 103.2-818.7 132.2 0 0 341.2-43.8 500.9-77.6 159.8-33.7 317.8-67.1 317.8-54.6z"/>
			<path id="&lt;Path&gt;" class="s20" d="m575.1 643.9c0 0 1690.7 3.4 2228-17.6l-13 8.1c0 0-1273.1 58-2194.7 19.3z"/>
			<path id="&lt;Path&gt;" class="s21" d="m575.1 644c5.3 0.2 10.7 0.4 16 0.7 648.5 28.1 1616.3 1.8 2022.1-11.6 74.2-2.5 129.7-4.5 160.9-5.7 7.1-0.3 12.9-0.5 17.3-0.6 7.7-0.3 11.7-0.5 11.7-0.5l-5.2-5.4-0.5-0.6c-36.9 1.8-78 3.4-122.6 4.8-147.1 4.9-332.4 7.9-531.6 9.7-237 2.2-493.6 2.6-729.1 2.3-456.4-0.7-833.2-4.4-833.2-4.4l-1.2 2.3z"/>
			<path id="&lt;Path&gt;" class="s22" d="m362.4 310.8c-4.1-1.4-8.7-2.8-13.3-4.1 7.7 5.5 12.9 10.7 18.1 15.9 2.3-1.5 4.5-3.1 6.1-4.7-5.4 0-5.4-5.4-10.9-7.1z"/>
			<path id="&lt;Path&gt;" class="s23" d="m328.3 388.3c7.4 20.5 16 42.8 25.3 64.6h149.6c-42.2-25.1-78.2-49.9-109.1-72.9-4.3-3.2-8.4-6.4-11.9-10-14.3-9-19.7-30.6-30.5-41.3 3.6 0 9.5-2.4 14.6-5.6-41.8-4.6-52.2 16.8-41.6 55.1q1.7 5 3.6 10.1z"/>
			<path id="&lt;Path&gt;" class="s24" d="m2922.4 452.9c1.3-2 2.6-3.9 3.9-5.8 0 0 0.1 0 0.1 0l15.3-7.7-6.5-6.2h-0.1c7.3-11.9 14.3-24.3 20.9-37.3q3.3-6.5 6.5-13.2c10.5-5.5 5.1-16.3 5.1-27.1-64.8 16.2-145.7-32.3-194.9 27.8q-4.4 4.5-9.1 9c-20.4 19.7-45.5 40.2-75 60.5z"/>
			<path id="&lt;Path&gt;" class="s25" d="m306.2 226.5c-19.2-21.9-62.4-0.3-79.3-40.2-0.9-4.7-1.9-7.5-1.9-7.5l-102.2-6.4c0 0 4 7.6 9.2 17.7 9.4 25.3 52.5 14.5 63.3 36.1 0 5.4-10.8 16.2-21.6 10.8 43.2 0 80.9-5.4 124.4-9.5 5.2-0.6 8.1-1 8.1-1z"/>
			<g id="&lt;Group&gt;">
				<path id="&lt;Compound Path&gt;" fill-rule="evenodd" class="s26" d="m742 434.2c6.3-32.6 17.8-63.5 33.3-91.4q4.7-8.4 9.8-16.4c15.4-14.5 22.2-25.3 35.2-41.5-6.8 0-13.6 0-19.4 2.7 24.5-22.3 37.6-36.8 63.7-51.2 69.8-37.8 217.6-54 232.2 37.7 2.4 2.7-2.2 6.8-6.8 10.8-4.6 4-9.2 8.1-6.9 10.8 2.5 21.6 36.3 10.8 50.5 19.3 5.2 5 7.3 10.2 9.1 15.5 12.6 37.3 16 80.9 7.8 127.4-11.7 66-44.4 124.8-88 166.8 0 0-0.1 0-0.1 0.1-44.1 42.5-99.4 67.6-155.1 65.3-110.8-4.7-189.8-117.9-166.3-250.8 0.3-1.7 0.6-3.4 1-5.1zm49.9-138.5c2.5-4 5.6-6.5 9-8.1q-4.2 3.9-9 8.1zm225 58q-4.5-5.4-9.6-10c-12.6-31.8-51.8-21-81.6 1.2q-6.9 4.1-13.3 9.1c-30.2 23.1-53.5 60.2-61 102.6-10.5 59.6 13.4 111.4 55.7 129.9 60.7 2 120-54.9 132.9-127.7 7.4-41.8-2.2-79.8-23.1-105.1z"/>
				<path id="&lt;Compound Path&gt;" fill-rule="evenodd" class="s27" d="m779.6 439.5c1.6-27.1 7.5-52.9 17-76.5 2.4-6 5.1-11.8 10.2-18.6-7.4-37.3 19.5-37.3 35.7-64.3 0-5.4 0-16.2 0-21.6 75.5-32.3 161.8-32.3 242.7-10.7 21.6 10.7 43.2 26.9 37.6 53.8 0.4 3.6-0.5 7.3-3 10.9-2.5 3.6-6.7 7.2-13 10.8 16.2 16.1 43.2 5.4 61.7 25.5q4 8.4 7.4 17.3c11.2 29.4 16.8 62.2 15.4 96.6-2.6 61.6-27.2 116.4-65 155.6 0 0-0.1 0-0.1 0-38.2 39.6-90 62.9-146.1 60.6-111.4-4.7-206-110.6-200.8-234.7 0.1-1.6 0.2-3.2 0.3-4.7zm273.7-63.6c-3.1-3.8-6.4-7.4-10.7-11.5-11.3-51.9-76-30.3-102.9 0.1-4.6 3.6-8.3 6.9-11.8 10.5-20.8 21.5-34.4 51.7-35.8 85.7-2.3 55.6 28.7 104 73.6 121.4 60.9 2.1 112.4-50.9 115.3-118.8 1.4-33.5-9.3-64.3-27.7-87.4z"/>
				<path id="&lt;Path&gt;" class="s28" d="m965.7 582.1c10.1 4 20.9 6.3 32.1 6.8 61.2 2.5 113.3-50.7 116.1-118.9 1.7-39.8-13.7-75.9-39-99.6-3.6-3.4-7.8-6.6-12.3-10.5-9.7-25.8-36.7-20.5-52.9-31.2 16.2 10.7 32.4 16.1 32.9 35.7 4.3 4.1 7.6 7.7 10.7 11.5 18.4 23.1 29.1 53.9 27.7 87.4-2.9 67.9-54.4 120.9-115.3 118.8z"/>
				<path id="&lt;Path&gt;" class="s29" d="m1032.5 226.7c-6.6 4.9-17.4 4.9-22.8 10.3 16.2 32.3 37.8 26.9 20.3 63.7-2.1 3.4-3.9 6.2-6.7 9.1-4.8 8.1-14.9 16.2-19 24.3 1.4-5.4 1.7-10.5 1.3-15.3-0.4-4.8-1.3-9.4-1.4-14.1 16.3-35.4-10.7-40.8-26.8-67.7-10.8-16.2 32.3-5.4 49.6-10.2 3.5 0 5.5-0.1 5.5-0.1z"/>
				<path id="&lt;Path&gt;" class="s30" d="m1080.5 445.2c0 0 48.9 11.9 110.9 2.2l-0.9 23.1c0 0-60.2 6.4-109.5-7.2z"/>
				<path id="&lt;Path&gt;" class="s31" d="m892.1 460.7c0 0-56.7 13-112.5 8.8 0 0-0.5 12.4 4.5 29.6 0 0 54.3 2.1 107.5-26.3z"/>
				<path id="&lt;Path&gt;" class="s32" d="m999.7 577.7c0 0 26.6 45.3 2.4 100.8 0 0-10.5 1.7-24.7 0.3 0 0 20-48.1 6.7-98.4z"/>
				<path id="&lt;Path&gt;" class="s33" d="m979.5 268.2c-56.1-4.3-66.9 49.7-102.7 78.6-3.4 2.2-7 4.4-11.1 6.4-4 2-8.4 3.8-13.2 5.6q-2.7 4.7-5.2 9.2c-19.5 36.4-25.7 63.9-25.7 63.9l-28.3 0.5c0 0 0.9-25.5 12.3-58.7 1.9-5.5 4.1-11.3 6.6-17.2 4.9-2.9 7.6-5.8 9.6-9.1 4.5-13.3 4.5-24.1-0.9-34.9q16.2-8.1 32.4-16.2c10.8-10.8 0-37.8 10.8-37.8 32.4-10.7 75.5-26.9 104.3 6.5 7.5 2.1 11.1 3.2 11.1 3.2z"/>
				<path id="&lt;Path&gt;" class="s34" d="m1095.1 534.5c0 0-32.7 49.2-86.8 65.6l-5.6-16.4c0 0 40.8-3.7 83.6-58z"/>
				<path id="&lt;Path&gt;" class="s35" d="m779.3 444.2c-5.2 124.1 89.4 230 200.8 234.7 56.1 2.3 107.9-21 146.1-60.6-14.9 9-85.8 48.1-164.3 33.9-88.4-16-170.6-102.3-182.3-212.7-0.1 1.5-0.2 3.1-0.3 4.7z"/>
			</g>
		</g>
		<g id="&lt;Group&gt;" style="opacity: .5;mix-blend-mode: multiply">
			<g id="&lt;Group&gt;">
				<path id="&lt;Path&gt;" class="s36" d="m870 349.3c0 0-1.7 2.3-0.3 6.6 0.8 2.2 3.6 4.8 6.7 7.9 9.3 9.4 20.9 23 30 39.9 18.2 34 15.8 48.9 15.8 48.9l-45.6 7.3-16.9-50.8c0 0 0.1-23.3 0.2-40.8 0.1-3.5 0.1-6.7 0.1-9.5 2.2-5.7 10-9.5 10-9.5z"/>
				<path id="&lt;Path&gt;" class="s37" d="m816.2 384.2c2.5 4.4 15.8 15.9 31.1 28.4 6.3 5.1 13 10.4 19.3 15.4 17.7 13.9 33.2 25.5 33.2 25.5 0 0 23.3-3.2 74.3 0.1 5.9 0.4 11.7 0.9 17.3 1.7 42.5 5.7 74 20.7 74 20.7 4.1 0.5 10.4-0.2 16.1-1.1 7-1.1 13.2-2.5 13.2-2.5-17-46.3-54.4-69.2-70-77.1-4.4-2.2-7.1-3.2-7.1-3.2-36.1-5.6-54.6-21.5-55.7-22.5v-0.1c0 0 5.2-4 6.5-8.5-1.8-21.6 25.1-16.2 30.5-32.3-10.8-5.4-26.9-10.8-37.7-16.2 5.4 0 5.4 5.4 5.4 10.8-21.6 26.9-48.6 21.5-77.2 31.6-4.3 6-6.8 12.1-9 17.9-4.5 11.4-8 21.1-8 21.1-3.5-0.6-17.6-3-30.7-5.3q-0.8-0.1-1.6-0.2c-12.5-2.2-23.9-4.2-23.9-4.2z"/>
				<path id="&lt;Path&gt;" class="s38" d="m840.1 388.4l0.9 3 1.9 6.3 4.4 14.9c6.3 5.1 13 10.4 19.3 15.4 3.4 2.6 6.6 5.1 9.7 7.5q1.5 1.2 3 2.3c1.1 0.9 2.2 1.8 3.3 2.6 0.8 0.6 1.5 1.2 2.3 1.8 2.2 1.7 4.3 3.3 6.1 4.7 0.7 0.5 1.4 1 2 1.5 4.2 3.2 6.8 5.1 6.8 5.1 0 0 23.3-3.2 74.3 0.1 3.2 0.2 6.3 0.4 9.4 0.7q4 0.5 7.9 1c42.5 5.7 74 20.7 74 20.7 4.1 0.5 10.4-0.2 16.1-1.1-3.8-6.9-32.8-58.5-69.5-71.1-0.5-0.2-1.1-0.4-1.6-0.6-18.8-5.9-38.9-15.7-57.3-27.4q-5.2-3.4-10.2-6.9c-8.7-2.5-14.1-7.9-8.7-18.7q16.2-16.1 32.4-16.1c-27 5.3-48.6 16.1-77.2 20.8-4.3 6-6.8 12.1-9 17.9-4.5 11.4-8 21.1-8 21.1-1.2-0.2-3.4-0.6-6.4-1.1q-1.5-0.2-3.3-0.5c-4.3-0.8-9.5-1.7-14.8-2.6-0.9-0.2-1.7-0.3-2.6-0.5-0.4 0-0.8-0.1-1.1-0.2q-1.2-0.2-2.5-0.4-0.8-0.1-1.6-0.2z"/>
				<path id="&lt;Path&gt;" class="s39" d="m839.1 361.5c0 0-15.3 72.8 4 103.4l-40.4-0.9c0 0-1.8-53.3 7.5-95.4 1.3-6 2.9-11.7 4.7-17.1 0 0 2.2 1.8 6.3 4 4.2 2.1 10.2 4.6 17.9 6z"/>
				<path id="&lt;Path&gt;" class="s40" d="m840.4 394.5l2.5 3.2 23.7 30.3c3.4 2.6 6.6 5.1 9.7 7.5q1.5 1.2 3 2.3c1.1 0.9 2.2 1.8 3.3 2.6q1.2 0.9 2.3 1.8c2.2 1.7 4.3 3.3 6.1 4.7 0.7 0.5 1.4 1 2 1.5 4.2 3.2 6.8 5.1 6.8 5.1 0 0 23.3-3.2 74.3 0.1 3.2 0.2 6.3 0.4 9.4 0.7q4 0.5 7.9 1c-1.8-7.1-1.9-16.5 2.8-28 4.3-10.3 11.1-18 17.8-23.5-0.5-0.2-1.1-0.4-1.6-0.6-18.8-5.9-38.9-15.7-57.3-27.4-12.6 8.3-35.5 20.9-45.7 10.2-3.6-3.8-6.3-8.5-8.2-13.5-2-4.9-3.3-10.1-3.6-15 22.8-11.1 48.5-19.3 48.5-19.3-13.1 3.9-35.6 10-54.7 16.7-4.3 6-6.8 12.1-9 17.9-4.5 11.4-8 21.1-8 21.1-1.2-0.2-3.4-0.6-6.4-1.1q-1.5-0.2-3.3-0.5c-4.3-0.8-9.5-1.7-14.8-2.6-0.9-0.2-1.7-0.3-2.6-0.5-0.4 0-0.8-0.1-1.1-0.2-0.9-0.1-1.7-0.3-2.5-0.4l-0.7 2.8z"/>
			</g>
			<path id="&lt;Path&gt;" class="s41" d="m2691.1 313.1c12.2-22.2-31-11.4-21.6-31.2 1-3.7 2.3-7.5 3.7-11.3 1.3-3.9 2.8-8 4.2-12 1.4-4.1 2.9-8.3 4.3-12.4 0-20 48.6-14.6 27-41.6-5.4-5.4-27 0-32.4-21.6 113.3-21.5 237.3-26.9 334.4 27 48.6 27 32.4 102.5-5.4 113.3-91.7 26.9-204.9-10.8-306.1-9.8-5.2-0.3-8.1-0.4-8.1-0.4z"/>
			<path id="&lt;Path&gt;" class="s42" d="m3018 202.8c-88.2-9-179.9-25.2-266.2-25.2 37.8 16.2 27 37.8 14.2 68.4q-1.1 5.3-2.2 10.6-1.1 5.3-2.1 10.4c-1.4 6.8-2.7 13.4-3.8 19.4 58.7 63.8 171.9 47.7 252.8 36.9 32.4-5.4 43.2-70.1 11.6-111.2-1.8-3.4-3.5-6.5-4.3-9.3z"/>
			<path id="&lt;Path&gt;" class="s43" d="m2675 180.8c114.6-19.3 227.8 13 341.1 23.8-102.5-37.7-215.7-53.9-322.5-27.6q-9.5 1.7-18.6 3.8z"/>
			<path id="&lt;Path&gt;" class="s44" d="m3036.4 238c17.5 20.5 22.9 42.1-0.8 63.8-2.9 4.3-3.9 7.7-4.6 10.9-1.4 6.3-2.6 11.9-3.5 15.8-92.3-5.2-200.2 5.6-268.4-37.4-2.1-2.4-1-5.5-0.5-8.8 1.9-9.6 4.1-20.2 6.2-30.4 0.7-3.3 1.3-6.7 2.1-9.9 11.9-69.8 76.6-21.2 122.8-20 4.5 0.7 9.1 1.3 13.7 1.9 23.2 2.9 46.3 5.9 66.5 8.5 4.2 0.4 8.2 0.8 12 1.3 12.6 8.7 28.8 3.3 39 3.3 9.8 0.6 15.5 1 15.5 1z"/>
			<path id="&lt;Path&gt;" class="s45" d="m3049.1 246.4c-33-4-60-4-90.4-8.6q-5.9-0.8-12.1-1.6c-16.4-2.2-33.6-4.5-50.6-6.7q-6.3-0.9-12.6-1.7c-45.3-1.6-110-50.2-117.4 18.2-1.3 6.1-2.6 12.6-3.9 19.1-1.3 6.5-2.7 13-3.8 19.1 63.6 60.6 182.3 39.1 269.2 44.3 0.9-3.9 2.1-9.5 3.5-15.8 0.7-3.2 1.7-6.6 4.6-10.9 23.7-10.9 12.9-32.5 10.4-47.9 2-4.7 3.1-7.5 3.1-7.5z"/>
			<path id="&lt;Path&gt;" class="s46" d="m2999.7 328.7c-26.7 10.7 0.2 37.7-16.2 58.7q-1.5 5.2-3 10.7c-25.9 91.3-68.2 240.8-68.2 240.8l-138.2-11.5c0 0 27.9-133.8 48-230.4q1.3-6.3 2.6-12.4c45.8-29 13.4-50.5-2.8-82.9 54 10.8 107.9 16.2 160.9 23.4 10.5 2.2 16.9 3.6 16.9 3.6z"/>
			<path id="&lt;Path&gt;" class="s47" d="m170.8 173.5c0 0 1.1 1.8 3.3 5.1 2.2 3.3 5.5 8.3 10.7 15.1 21.3 21.7 48.3 21.7 75.2 32.5-32.3 10.8-43.1 48.5-16.2 59.3 27 16.2 64.8 10.8 91.7 32.4-10.8 5.4-26.9 10.8-37.7 16.2 16.2 10.7 16.2 26.9 26.3 41.2 3.2 4 6.6 7.9 10 11.9 30.6 35.6 65 73.8 103 113 1.5 1.5 3 3.1 4.6 4.6 0.1 0.2 0.2 0.2 0.3 0.3 1.8 1.9 3.6 3.8 5.5 5.6 40.3 41.1 84.6 83.2 132.2 124.3 3.6 3 7.1 6 10.7 9 0.2 0.3 0.5 0.5 0.7 0.7 3.7 3.1 7.5 6.3 11.1 9.4 28.1 23.4 57.3 46.5 87.5 68.9 943.2 198 1968.8-95.6 1985.1-97.9 28.9-3.8 57-7.9 84.3-12.1 0 0 45.7-26 98.2-80.1 2.6-2.6 5-5.1 7.5-7.7v-0.1c1.6-1.6 3.1-3.3 4.6-5 19.1-20.7 38.6-45 56.9-73 1.6-2.5 3.3-5 4.9-7.7h0.1c1.2-2 2.5-4.1 3.8-6.2 7.3-11.9 14.3-24.3 20.9-37.3q3.3-6.5 6.4-13.2c10.6-16.3-0.2-43.3 21.3-54-119.5-17.1-241.2-23.4-361.9-29.3q-9.5-0.5-19-0.9c-239.3-2.2-471.2-50.7-711.1-44.8q-5.3-0.3-10.5-0.6-52.1-3.2-105.4-6.4-5.4-0.4-10.7-0.7c-388.6-25.2-782.3-36-1169.1-56.7q-9.8-0.5-19.5-1-106.7-4.6-213.4-9.3c-4.2-0.2-8.6-0.3-12.9-0.4-60.7-1.9-120.6-3.6-179.4-5.1z"/>
			<path id="&lt;Path&gt;" class="s48" d="m122.8 172.4l-25.6-4c0 0 1.2 3.1 3.9 9q2 4.4 5.1 10.7c13.6 21.9 45.9 21.9 56.7 38.1 10.8 5.4-26.9 10.8-21.5 27 10.7 26.9 37.7 37.7 64.7 53.9 5.4 5.4-5.4 10.8-8.9 15.1-3.2 5.4-2.2 10.5 1.7 15.8 3.8 5.2 7.9 10.5 12 15.9 2.1 2.6 4.1 5.4 6.2 8.2q3.2 4.1 6.5 8.2c83 105.4 212.9 236 406.4 351.6l12.3 2.5c0 0-218.3-148.9-382.9-344.6-2.7-3.2-5.5-6.5-8-9.9-7.6-19.7-39.9-41.2-7.6-57.4-21.5-27-80.9-21.6-75.5-64.7 5.4-10.8 32.4-16.2 21.6-21.6-10.8-16.2-37.8-21.6-56.7-32.3q-2.7-5.4-5.3-10.7-2.6-5.4-5.1-10.8z"/>
			<path id="&lt;Path&gt;" class="s49" d="m689.7 723c178 28.3 373.5 54.3 585.7 68.5-201.1-7.3-409.2-3-620.1-62.9 0 0-231.6-132.4-404.2-348.3-2.8-3.4-5.5-6.9-8.2-10.5-26-19.6-26-41.1-4.5-62.7-32.3-10.8-75.5-21.6-70.1-64.7 5.4-10.8 27-10.8 21.6-21.6-10.8-16.2-37.8-10.8-53.5-23.1-3.4-4.3-5.7-8.5-7.9-12.7q-2.9-6.3-5.7-12.6l95.1 1.7q0 0 1.5 2.6c0.9 1.7 2.4 4.3 3.8 7.9 9.9 47 63.8 20 85.4 41.6-21.6 16.2-59.4 16.2-37.8 53.9 16.2 32.4 70.1 10.8 97.1 37.8-27 16.2-37.8 26.9-17.8 54.1 1.6 3.4 3.7 6.4 6 9.3 80.4 106 193.6 234.8 333.6 341.7z"/>
			<path id="&lt;Path&gt;" class="s50" d="m169.6 226.1c131.2 3.8 263.5 10.2 396.3 18.1q10 0.6 19.9 1.2c192 13.1 386.2 13.1 581.4 41.2 6.3 0.7 12.9 1.2 19.6 1.7q5 0.4 10.1 0.8 5 0.3 10.1 0.7c218 1.1 428.4 28.1 641.5 44.2q9.9 0.6 19.9 1.1c113.1 6 225.8 10.8 337.8 13.6q9.9 0.3 19.8 0.5c18.8 1 40.4 1 59.2 1.2q9.9 0.2 19.7 0.3c229.9 3.4 456.8-2.1 678.8-22-121.3-10.2-244.8-16-367.6-21.8q-9.2-0.5-18.4-0.8c-250.4-9.8-493.1-36.8-739-40.1q-5.2-0.3-10.3-0.6-35.2-2-70.7-3.9-5.1-0.3-10.2-0.6c-396.4-29.3-790.1-29.3-1186.1-64.6-6.7-0.6-13.4-1.1-20-1.6-98.2-5.8-196.3-11.4-294.4-16.9q-8.3-0.4-16.5-0.9c-129.5-7.1-206.9-11.4-206.9-11.4 0 0 15.8 11.6 33.5 24.7 3.2 1.9 6.1 3.8 9.4 5.8 17.1 14 38.7 19.4 62 22 17.1 5.1 21.1 8.1 21.1 8.1z"/>
			<path id="&lt;Path&gt;" class="s51" d="m324.1 375.3c0 0 9.9 4.1 19.9 8.2 9.9 4 19.9 8 19.9 8 20.1 1.3 40.4 2.6 60.8 3.8 806.3 49.6 1819.1 53.8 2268.5 52.9 142.9-0.3 228.9-1.1 233.1-1.1 0 0 0.1 0 0.1 0l15.3-7.7c0 0-1.8 0-5.3 0-1.7 0-3.4 0-5.1 0 0 0 0 0 0 0h-0.1c-4.9 0.1-9.9 0.1-14.8 0-15.5 0.1-31.6 0.1-48.4 0-8.5-0.1-17.7-0.1-27.6-0.1-41.2-0.2-85.8-0.6-133.5-1.2-682.2-8-1983.6-49.6-2308.1-60.3-16.1-0.5-29.7-0.9-40.8-1.3-11-0.4-19.5-0.7-25.2-0.9-5.7-0.2-8.7-0.3-8.7-0.3z"/>
			<path id="&lt;Path&gt;" class="s52" d="m324.1 375.3q12.9 0.9 25.9 1.8 13 0.9 26.2 1.7 13.2 0.9 26.5 1.7c749.2 46.6 1830.6 56.4 2303.2 58.5 52.9 0.1 98.2 0.2 134.5 0.3 9.9 0 19.1 0 27.6 0.1 20.1 0 36.3 0 48.4 0 5.9 0 10.9 0 14.8 0h0.1c0 0 0 0 0 0 1.9 0 3.7 0 5.1 0 3.5 0 5.3 0 5.3 0l-6.5-6.2h-0.1c-63.9 0.8-138.6 0.7-221.5-0.1-658.6-6.3-1835.4-57.7-2239.6-76.1q-5.8-0.2-11.3-0.5c-40.9 9.9-100.2-33.2-130.8 3.8-4.2 7.8-7.8 15-7.8 15z"/>
			<path id="&lt;Path&gt;" class="s53" d="m434.4 504.7l13.1 6 9.1 4.2c61.9 3.3 125.2 6.3 189.7 9 670 27.8 1453 21.9 1885.2 15.4 185.8-2.9 306.7-5.9 325.8-6.4 1.9 0 2.7-0.1 2.7-0.1l14.3-7.9c0 0-2.9 0.1-8.6 0.2h-0.9c-0.4 0-0.8 0-1.2 0-7.3 0.2-18.3 0.4-32.8 0.6-76.2 1.2-169.2 1.7-273.5 1.8-590.1 0.7-1546.3-13.5-1942.3-19.8-91.5-1.4-153-2.5-173.3-2.9-4.8-0.1-7.3-0.1-7.3-0.1z"/>
			<path id="&lt;Path&gt;" class="s54" d="m434.4 504.7c2.5 0.1 5.1 0.3 7.6 0.4 59.4 3.4 121.4 6.4 185.3 9 639.9 26.8 1474.1 21.6 1924.5 16 129.1-1.7 226.6-3.3 279-4.4 14.5-0.2 25.5-0.4 32.8-0.6l1.2 0.1c0.3-0.1 0.6-0.1 0.9-0.1 5.7-0.1 8.6-0.2 8.6-0.2l-4.9-4.8-1.3-1.3c-83.3 2.4-186 3.7-301.7 4.3-614.9 2.9-1595-17.6-1971.3-26-97.2-2.2-154.1-3.6-154.1-3.6l-3.9 6.7z"/>
			<path id="&lt;Path&gt;" class="s55" d="m575.1 643.9c0 0 1690.7 3.4 2228-17.6l-13 8.1c0 0-1273.1 58-2194.7 19.3z"/>
			<path id="&lt;Path&gt;" class="s56" d="m575.1 644c5.3 0.2 10.7 0.4 16 0.7 648.5 28.1 1616.3 1.8 2022.1-11.6 74.2-2.5 129.7-4.5 160.9-5.7 7.1-0.3 12.9-0.5 17.3-0.6 7.7-0.3 11.7-0.5 11.7-0.5l-5.2-5.4-0.5-0.6c-36.9 1.8-78 3.4-122.6 4.8-147.1 4.9-332.4 7.9-531.6 9.7-237 2.2-493.6 2.6-729.1 2.3-456.4-0.7-833.2-4.4-833.2-4.4l-1.2 2.3z"/>
			<path id="&lt;Path&gt;" class="s57" d="m349.1 306.7c8 5.8 13.4 11.2 18.8 16.6-43.2-5.4-53.9 16.1-43.2 54.9q1.7 5 3.6 10.1c18.5 51.2 44.3 113.9 70.7 151.6 0 0 162 142.2 243.3 184.6 1007.6-11.4 1565.9-33.7 2136.4-86.7 1.2-0.9 11.4-9.8 19.2-16.9l-0.5-0.6c-36.9 1.8-78 3.4-122.6 4.8 28.9-3.8 57-7.9 84.3-12.1 0 0 45.7-26 98.2-80.1 1.9 0 2.7-0.1 2.7-0.1l14.3-7.9-4.9-4.8c19.1-20.7 38.6-45 56.9-73 0 0 0.1 0 0.1 0l15.3-7.7-6.5-6.2h-0.1c7.3-11.9 14.3-24.3 20.9-37.3q3.3-6.5 6.4-13.2c10.6-5.5 5.2-16.3 5.2-27.1-64.8 16.2-145.7-32.3-194.9 27.8q-4.4 4.5-9.1 9c-87.9 84.9-262.9 183.7-495.1 226.2-374.6 68.9-1277.3 30.1-1506.3-47.6-170.5-57.9-287-130.5-368.1-191-4.3-3.2-8.4-6.4-11.9-10-14.3-9-19.7-30.6-30.5-41.3 5.4 0 16.2-5.4 21.6-10.8-5.4 0-5.4-5.4-10.9-7.1-4.1-1.4-8.6-2.8-13.3-4.1z"/>
			<path id="&lt;Path&gt;" class="s58" d="m306.2 226.5c-19.2-21.9-62.4-0.3-79.3-40.2-0.9-4.7-1.9-7.5-1.9-7.5l-102.2-6.4c0 0 4 7.6 9.2 17.7 9.4 25.3 52.5 14.5 63.3 36.1 0 5.4-10.8 16.2-21.6 10.8 43.2 0 80.9-5.4 124.4-9.5 5.2-0.6 8.1-1 8.1-1z"/>
			<g id="&lt;Group&gt;">
				<path id="&lt;Compound Path&gt;" fill-rule="evenodd" class="s59" d="m789.7 461.8c1.9-32.6 9.3-63.5 21-91.4q3.5-8.4 7.6-16.4c13.4-14.6 18.8-25.3 29.6-41.5-6.8 0-13.6 0-19 2.7 21.4-22.3 32.6-36.8 56.8-51.3 64.7-37.7 210.3-53.9 237.3 37.8 2.7 2.7-1.4 6.7-5.4 10.8-4.1 4-8.1 8.1-5.4 10.8 5.4 21.5 37.8 10.8 53 19.3 5.9 5 8.7 10.2 11.2 15.5 17.7 37.3 26.9 80.8 25 127.4-2.8 66-27.6 124.8-65.5 166.8 0 0-0.1 0-0.1 0.1-38.4 42.5-90.2 67.6-146.3 65.3-111.4-4.7-205.7-117.9-200.1-250.8 0.1-1.7 0.2-3.5 0.3-5.1zm31.2-138.5c2-4 4.8-6.5 8-8.1q-3.7 3.9-8 8.1zm232.9 58q-5.2-5.4-11-10c-16.9-31.9-54.7-21.1-81.4 1.2q-6.3 4.1-12.1 9.1c-27 23.1-45.4 60.1-47.1 102.6-2.6 59.6 28.4 111.4 73.2 129.9 60.9 2 112.6-54.9 115.6-127.7 1.8-41.8-12.9-79.8-37.2-105.1z"/>
				<path id="&lt;Compound Path&gt;" fill-rule="evenodd" class="s60" d="m779.6 439.5c1.6-27.1 7.5-52.9 17-76.5 2.4-6 5.1-11.8 10.2-18.6-7.4-37.3 19.5-37.3 35.7-64.3 0-5.4 0-16.2 0-21.6 75.5-32.3 161.8-32.3 242.7-10.7 21.6 10.7 43.2 26.9 37.6 53.8 0.4 3.6-0.5 7.3-3 10.9-2.5 3.6-6.7 7.2-13 10.8 16.2 16.1 43.2 5.4 61.7 25.5q4 8.4 7.4 17.3c11.2 29.4 16.8 62.2 15.4 96.6-2.6 61.6-27.2 116.4-65 155.6 0 0-0.1 0-0.1 0-38.2 39.6-90 62.9-146.1 60.6-111.4-4.7-206-110.6-200.8-234.7 0.1-1.6 0.2-3.2 0.3-4.7zm273.7-63.6c-3.1-3.8-6.4-7.4-10.7-11.5-11.3-51.9-76-30.3-102.9 0.1-4.6 3.6-8.3 6.9-11.8 10.5-20.8 21.5-34.4 51.7-35.8 85.7-2.3 55.6 28.7 104 73.6 121.4 60.9 2.1 112.4-50.9 115.3-118.8 1.4-33.5-9.3-64.3-27.7-87.4z"/>
				<path id="&lt;Path&gt;" class="s61" d="m965.7 582.1c10.1 4 20.9 6.3 32.1 6.8 61.2 2.5 113.3-50.7 116.1-118.9 1.7-39.8-13.7-75.9-39-99.6-3.6-3.4-7.8-6.6-12.3-10.5-9.7-25.8-36.7-20.5-52.9-31.2 16.2 10.7 32.4 16.1 32.9 35.7 4.3 4.1 7.6 7.7 10.7 11.5 18.4 23.1 29.1 53.9 27.7 87.4-2.9 67.9-54.4 120.9-115.3 118.8z"/>
				<path id="&lt;Path&gt;" class="s62" d="m1032.5 226.7c-6.6 4.9-17.4 4.9-22.8 10.3 16.2 32.3 37.8 26.9 20.3 63.7-2.1 3.4-3.9 6.2-6.7 9.1-4.8 8.1-14.9 16.2-19 24.3 1.4-5.4 1.7-10.5 1.3-15.3-0.4-4.8-1.3-9.4-1.4-14.1 16.3-35.4-10.7-40.8-26.8-67.7-10.8-16.2 32.3-5.4 49.6-10.2 3.5 0 5.5-0.1 5.5-0.1z"/>
				<path id="&lt;Path&gt;" class="s63" d="m1080.5 445.2c0 0 48.9 11.9 110.9 2.2l-0.9 23.1c0 0-60.2 6.4-109.5-7.2z"/>
				<path id="&lt;Path&gt;" class="s64" d="m892.1 460.7c0 0-56.7 13-112.5 8.8 0 0-0.5 12.4 4.5 29.6 0 0 54.3 2.1 107.5-26.3z"/>
				<path id="&lt;Path&gt;" class="s65" d="m999.7 577.7c0 0 26.6 45.3 2.4 100.8 0 0-10.5 1.7-24.7 0.3 0 0 20-48.1 6.7-98.4z"/>
				<path id="&lt;Path&gt;" class="s66" d="m979.5 268.2c-56.1-4.3-66.9 49.7-102.7 78.6-3.4 2.2-7 4.4-11.1 6.4-4 2-8.4 3.8-13.2 5.6q-2.7 4.7-5.2 9.2c-19.5 36.4-25.7 63.9-25.7 63.9l-28.3 0.5c0 0 0.9-25.5 12.3-58.7 1.9-5.5 4.1-11.3 6.6-17.2 4.9-2.9 7.6-5.8 9.6-9.1 4.5-13.3 4.5-24.1-0.9-34.9q16.2-8.1 32.4-16.2c10.8-10.8 0-37.8 10.8-37.8 32.4-10.7 75.5-26.9 104.3 6.5 7.5 2.1 11.1 3.2 11.1 3.2z"/>
				<path id="&lt;Path&gt;" class="s67" d="m1095.1 534.5c0 0-32.7 49.2-86.8 65.6l-5.6-16.4c0 0 40.8-3.7 83.6-58z"/>
				<path id="&lt;Path&gt;" class="s68" d="m779.3 444.2c-5.2 124.1 89.4 230 200.8 234.7 56.1 2.3 107.9-21 146.1-60.6-14.9 9-85.8 48.1-164.3 33.9-88.4-16-170.6-102.3-182.3-212.7-0.1 1.5-0.2 3.1-0.3 4.7z"/>
			</g>
		</g>
	</g>
</svg>