<svg version="1.2" xmlns="http://www.w3.org/2000/svg" viewBox="0 0 2430 1572" width="2430" height="1572">
	<title>19Z_2102</title>
	<defs>
		<linearGradient id="g1" x2="1" gradientUnits="userSpaceOnUse" gradientTransform="matrix(144.45,-535.997,1165.894,314.206,1464.852,837.37)">
			<stop offset="0" stop-color="#f77e00"/>
			<stop offset="1" stop-color="#651300"/>
		</linearGradient>
		<radialGradient id="g2" cx="0" cy="0" r="1" gradientUnits="userSpaceOnUse" gradientTransform="matrix(129.867,9.272,-9.272,129.867,1058.748,919.494)">
			<stop offset="0" stop-color="#f73b00"/>
			<stop offset="1" stop-color="#000000"/>
		</radialGradient>
		<radialGradient id="g3" cx="0" cy="0" r="1" gradientUnits="userSpaceOnUse" gradientTransform="matrix(90.83,6.485,-6.485,90.83,285.058,844.914)">
			<stop offset="0" stop-color="#f73b00"/>
			<stop offset="1" stop-color="#000000"/>
		</radialGradient>
	</defs>
	<style>
		.s0 { opacity: .8;mix-blend-mode: screen;fill: url(#g1) } 
		.s1 { fill: #20132c } 
		.s2 { fill: #100008 } 
		.s3 { fill: #090000 } 
		.s4 { fill: #574c68 } 
		.s5 { fill: #6e657d } 
		.s6 { fill: #1f1536 } 
		.s7 { fill: #0f000e } 
		.s8 { fill: #434f70 } 
		.s9 { fill: #201225 } 
		.s10 { fill: #51468c } 
		.s11 { fill: #000329 } 
		.s12 { fill: #120818 } 
		.s13 { fill: #e81542 } 
		.s14 { fill: #ba0132 } 
		.s15 { fill: #ff2e32 } 
		.s16 { fill: #cc1b3d } 
		.s17 { fill: #2a1e40 } 
		.s18 { mix-blend-mode: soft-light;fill: #c4c7ff } 
		.s19 { opacity: .2;mix-blend-mode: multiply;fill: #201225 } 
		.s20 { fill: #180a17 } 
		.s21 { mix-blend-mode: soft-light;fill: #9abaec } 
		.s22 { fill: #412d5f } 
		.s23 { fill: #22103d } 
		.s24 { fill: #0e012b } 
		.s25 { fill: #7c79e0 } 
		.s26 { opacity: .8;mix-blend-mode: screen;fill: url(#g2) } 
		.s27 { opacity: .8;mix-blend-mode: screen;fill: url(#g3) } 
	</style>
	<g id="&lt;Group&gt;">
		<path id="&lt;Path&gt;" class="s0" d="m1051.7 661.1c0 0 242.9-239.3 348.6-239.2 535.3 0.6 791.6 46.2 791.6 46.2 0 0-203.5 127.5-396.1 310.1z"/>
		<path id="&lt;Path&gt;" class="s1" d="m1712.7 490l3.4 175.2 6.2 0.5 12.5-174.1z"/>
		<path id="&lt;Path&gt;" class="s1" d="m1614.7 502.8l108.5-4.7-1.7 24.5-97.2-4.2z"/>
		<g id="&lt;Group&gt;">
			<path id="&lt;Path&gt;" class="s2" d="m499.2 937.5c0 0-55-35.3-138.9-8.5l-11.2 324.7c0 0 56 23.2 137.2 9.8z"/>
			<path id="&lt;Path&gt;" class="s3" d="m552.6 1104.7c-3.6 90.1-33.3 161.1-66.3 158.8-33-2.4-56.9-77.3-53.4-167.3 3.6-90 33.3-161.1 66.3-158.7 33 2.3 56.9 77.2 53.4 167.2z"/>
			<path id="&lt;Path&gt;" class="s4" d="m536.2 1103.6c-2 50.3-18.6 90-37 88.7-6-0.4-11.4-5.1-15.9-12.9-9.6-16.3-15.3-46.5-14-80.6 1.2-29.8 7.5-55.8 16.2-71.9 6.1-11.1 13.3-17.4 20.9-16.8 18.4 1.3 31.8 43.2 29.8 93.5z"/>
			<path id="&lt;Path&gt;" class="s5" d="m511 1105.3c-1.5 39.3-13.6 70.8-27.7 74.1-9.6-16.3-15.3-46.5-14-80.6 1.2-29.8 7.5-55.8 16.2-71.9h0.5c15.5 1.1 26.7 36.3 25 78.4z"/>
			<path id="&lt;Path&gt;" class="s2" d="m421.6 1095.4c-3.5 90-33.2 161.1-66.2 158.7-33-2.3-56.9-77.2-53.4-167.2 3.6-90.1 33.2-161.1 66.3-158.8 33 2.4 56.9 77.3 53.3 167.3z"/>
		</g>
		<path id="&lt;Path&gt;" class="s6" d="m1172.8 403.6c0 0 123.6-54.9 162.5-66.6 59.1-17.9 158.1-17.5 158.1-17.5l81.5 192.7 101.8-42c0 0 44.9 108.2 36 194.8l-626.3 593.8 37.4-402.5z"/>
		<g id="&lt;Group&gt;">
			<path id="&lt;Path&gt;" class="s7" d="m1377.5 942.1l-1.9-0.4c31.3-142.3 13.3-278.8 11.8-289.9l-19.8-3.4 0.3-1.9 21.2 3.6 0.2 0.7c0.2 1.4 20.9 143.2-11.8 291.3z"/>
		</g>
		<path id="&lt;Path&gt;" class="s8" d="m1676.7 470.2l-123.3-8.8 21.5 50.8z"/>
		<path id="&lt;Path&gt;" class="s2" d="m237.4 1070.5l891.4 54.1-18.3 134.2-864.4-67.1z"/>
		<path id="&lt;Path&gt;" class="s3" d="m1429 1011.2l-88.4-2.3-62.7-90.3 111.5-34z"/>
		<path id="&lt;Path&gt;" class="s3" d="m1741.7 664l-172.6 155.4 11.6-162.4 79-48z"/>
		<path id="&lt;Path&gt;" class="s3" d="m1369.6 1011l-45-104.8-126.7 73.1-0.8 157.6z"/>
		<path id="&lt;Path&gt;" class="s3" d="m1770.8 675.9l-74-5.3-45.4-62.2 89.2-27.2z"/>
		<g id="&lt;Group&gt;">
			<path id="&lt;Path&gt;" class="s2" d="m1368.6 1004.1c0 0-51.1-34.5-139.1-8.4l-52 317.4c0 0 53.6 22.8 137.2 9.7z"/>
			<path id="&lt;Path&gt;" class="s1" d="m1401.4 1167.8c-14.9 88-53.7 157.4-86.7 155-33.1-2.3-47.8-75.6-32.9-163.6 14.9-88 53.7-157.4 86.8-155.1 33 2.4 47.7 75.7 32.8 163.7z"/>
			<path id="&lt;Path&gt;" class="s2" d="m1385 1166.6c-8.3 49.2-30 88-48.4 86.7-6-0.5-10.8-5-14.4-12.6-7.7-16-9.6-45.6-4-78.9 4.9-29.1 14.6-54.6 25.3-70.3 7.6-10.7 15.7-16.9 23.2-16.4 18.4 1.4 26.7 42.3 18.3 91.5z"/>
			<path id="&lt;Path&gt;" class="s9" d="m1359.4 1168.3c-6.4 38.3-22.6 69.1-37.2 72.4-7.7-16-9.6-45.6-4-78.9 4.9-29.1 14.6-54.6 25.3-70.3l0.6 0.1c15.5 1.1 22.3 35.4 15.3 76.7z"/>
			<path id="&lt;Path&gt;" class="s2" d="m1270.5 1158.4c-14.9 88-53.7 157.5-86.8 155.1-33-2.4-47.7-75.6-32.8-163.6 14.9-88 53.7-157.5 86.7-155.1 33.1 2.4 47.8 75.6 32.9 163.6z"/>
		</g>
		<g id="&lt;Group&gt;">
			<path id="&lt;Path&gt;" class="s2" d="m1729.3 669.3c0 0-40.6-27.4-110.5-6.7l-41.4 252.4c0 0 42.6 18.1 109.1 7.8z"/>
			<path id="&lt;Path&gt;" class="s1" d="m1755.4 799.4c-11.8 70-42.7 125.2-68.9 123.4-26.3-1.9-38-60.2-26.2-130.1 11.9-70 42.7-125.2 69-123.4 26.3 1.9 38 60.2 26.1 130.1z"/>
			<path id="&lt;Path&gt;" class="s2" d="m1742.4 798.5c-6.6 39.1-23.9 70-38.5 68.9-4.8-0.3-8.6-3.9-11.5-10-6.1-12.7-7.6-36.2-3.1-62.7 3.9-23.1 11.5-43.4 20.1-55.9 6-8.5 12.4-13.4 18.4-13 14.7 1 21.2 33.6 14.6 72.7z"/>
			<path id="&lt;Path&gt;" class="s9" d="m1722.1 799.9c-5.2 30.4-18.1 55-29.7 57.5-6.1-12.7-7.6-36.2-3.1-62.7 3.9-23.1 11.5-43.4 20.1-55.9l0.4 0.1c12.4 0.8 17.8 28.2 12.3 61z"/>
			<path id="&lt;Path&gt;" class="s2" d="m1651.3 792c-11.8 70-42.7 125.2-68.9 123.3-26.3-1.8-38-60.1-26.2-130.1 11.9-69.9 42.7-125.2 69-123.3 26.3 1.9 38 60.1 26.1 130.1z"/>
		</g>
		<path id="&lt;Path&gt;" class="s2" d="m1121.3 1219.1l91.8-0.6 44.3-239.8-98.5 1.1z"/>
		<path id="&lt;Path&gt;" class="s10" d="m1158.9 979.8c0 0 47.7-52.1 85.4-79.3 34.1-24.8 61.1-35.4 61.1-35.4l94.9-11.5c0 0-34.6 22.2-82.3 60.7-39 31.4-69.7 76-69.7 76z"/>
		<path id="&lt;Path&gt;" class="s2" d="m1526.1 848.8l73.5-0.5 35.5-191.9-78.9 0.9z"/>
		<path id="&lt;Path&gt;" class="s1" d="m1599.6 848.3l10.3-17.3 28.7-159.6c0 0 19.6-33 52.1-60.2 30.8-25.8 49.9-30 49.9-30l30.2 94.7 4.1-7.7-25.5-111.9c0 0-39.1 22.7-69.7 49.9-31.1 27.5-51.9 59.5-51.9 59.5z"/>
		<path id="&lt;Path&gt;" class="s10" d="m1556.2 657.3c0 0 38.2-41.7 68.3-63.5 39.3-28.4 77.4-40.8 77.4-40.8l47.5 3.3c0 0-31.8 23.7-63.8 47.8-32 24-57.8 61.6-57.8 61.6z"/>
		<path id="&lt;Path&gt;" class="s1" d="m1213.1 1218.5l12.8-21.7 36-199.4c0 0 24.5-41.2 65.1-75.3 38.4-32.2 62.4-37.5 62.4-37.5l39.6 126.6 4.1-14.2-32.8-143.4c0 0-48.8 28.3-87.1 62.3-38.8 34.3-64.9 74.4-64.9 74.4z"/>
		<path id="&lt;Path&gt;" class="s10" d="m1602.9 830.6l-169.8 166.4-15.1-63.4 111.8-95.2z"/>
		<path id="&lt;Path&gt;" class="s1" d="m1611.4 822.5l-1.6 21.6-180.8 167.1-1.9-8.1z"/>
		<path id="&lt;Path&gt;" class="s11" d="m403.6 378c0 0-114.1 226.3-158.8 380.3 0 0-11.6 182.8-2.5 313.9l862.3 52.4c0 0 30.6-185.8 37-257.8l35.7-432.2z"/>
		<path id="&lt;Path&gt;" class="s9" d="m213.3 1070.5l28-13.4 864.7 46.7 43.4-28 6.4 2.3-51.5 49z"/>
		<path id="&lt;Path&gt;" class="s2" d="m297.8 737.5l796.7 52.3 47.3-320.8-703.9-38c0 0-81.2 112.4-140.1 306.5z"/>
		<path id="&lt;Path&gt;" class="s10" d="m1177.3 434.6c0 0 141.4-91.7 316.1-115.1l-518.7-21.8c0 0-276.5-10-571.1 80.3z"/>
		<path id="&lt;Path&gt;" class="s6" d="m1171.6 785.7l389.5-274.5c0 0-14.8-80.2-75.8-179.4 0 0-116.7 19.2-290 121.6z"/>
		<path id="&lt;Path&gt;" class="s1" d="m1104.3 1127.1l-17.9 131.7 54.3-39.8 15.1-140.9z"/>
		<path id="&lt;Path&gt;" class="s1" d="m1176.7 981.9l-18.4 86-53 47.1 13.7-83.2z"/>
		<path id="&lt;Path&gt;" class="s2" d="m1152.5 1035.7l-183.2-10.7-68.1 82.8 236.3 7.2z"/>
		<path id="&lt;Path&gt;" class="s2" d="m222.9 1065.9l-0.9-87 149.5 25.2 62.2 78.3z"/>
		<path id="&lt;Path&gt;" class="s9" d="m222 978.9l16.9-5.1 138.5 27.1 62.9 71.5-6.6 10-62.2-78.3z"/>
		<path id="&lt;Path&gt;" class="s10" d="m937.1 1025l9-5.5 173.2 8.2 39.6-47.9 17.8 2.1-56.4 53.8z"/>
		<path id="&lt;Path&gt;" class="s9" d="m937.1 1025l9-5.5 173.2 8.2 1 8z"/>
		<path id="&lt;Path&gt;" class="s12" d="m434.1 1172.9l-10.3-58 417.8 19.5-16.9 75.4z"/>
		<path id="&lt;Path&gt;" class="s13" d="m1178.1 824.7l-16.9 106.8-31 26.8-147.9-10.6 28.5-102 132.6 2.3z"/>
		<path id="&lt;Path&gt;" class="s14" d="m1143.4 848c0 0-2 36.7-13.2 110.3l-147.9-10.6 28.5-102z"/>
		<path id="&lt;Path&gt;" class="s15" d="m1002.9 899l12.6-47.5 120.4 4.8-9 51.5z"/>
		<path id="&lt;Path&gt;" class="s16" d="m1122.1 953.9l2.7-38.8-122.7-5.7-13.2 35z"/>
		<path id="&lt;Path&gt;" class="s14" d="m243.1 790.9l89 8 22.9 93.8-115.3-8.2c0 0 2.1-70.5 3.4-93.6z"/>
		<path id="&lt;Path&gt;" class="s15" d="m242.8 796.8l83.1 8.9 5.1 35.6-89.8-3.6z"/>
		<path id="&lt;Path&gt;" class="s16" d="m241.1 841.8l89.3 9 7.7 35.7-98.3-7z"/>
		<path id="&lt;Path&gt;" class="s17" d="m1193 753.7l356.9-243.3c0 0-3.1-69.8-68.5-171.2 0 0-126.1 32.5-272.7 122.2z"/>
		<path id="&lt;Path&gt;" class="s6" d="m1346.3 389.1l7.7 254.8 7.6-5.1-3.5-254.9z"/>
		<g id="&lt;Group&gt;">
			<path id="&lt;Compound Path&gt;" fill-rule="evenodd" class="s7" d="m1204 888c-1.9-0.1-3.9-0.7-5.6-1.8-4.1-2.5-6.3-6.8-5.9-11.5l5.1-72c0.3-3.8 2.2-7.2 5.3-9.4l62.8-43.8c4-2.8 9-3 13.3-0.6 4.2 2.4 6.6 6.9 6.2 11.7l-5.6 78.4c-0.3 4.1-2.5 7.7-6 9.8l-62.3 37.5c-2.3 1.3-4.8 1.9-7.3 1.7zm69.5-138.7c-2.3-0.2-4.6 0.5-6.6 1.9l-62.8 43.8c-2.6 1.8-4.2 4.6-4.5 7.8l-5.1 72.1c-0.3 3.9 1.5 7.5 4.9 9.6 3.4 2.1 7.4 2.1 10.8 0l62.4-37.4c2.9-1.8 4.8-4.8 5-8.2l5.6-78.5c0.3-4-1.7-7.8-5.2-9.8-1.4-0.7-2.9-1.2-4.5-1.3z"/>
		</g>
		<path id="&lt;Path&gt;" class="s7" d="m1197 826l7.4 13.6-10.1 23.9z"/>
		<g id="&lt;Group&gt;">
			<path id="&lt;Path&gt;" class="s7" d="m1507.7 860.5l-2-0.4c17.9-77 21.2-198 21.2-199.2v-0.3l48.6-59.1c4.4-27.5 1.2-75.9 0.8-81.7l-15.6-7.7 0.8-1.8 16.7 8.2v0.5c0.1 0.6 4 53.7-0.7 83l-0.1 0.3-0.1 0.2-48.4 58.8c-0.2 7.3-3.8 124.1-21.2 199.2z"/>
		</g>
		<path id="&lt;Path&gt;" class="s18" d="m1208.7 461.4l-8.1 150.8 96.9-51.2 3-42.4 48.6-38.1-2.8-91.4c0 0-96.4 45-137.6 72.3z"/>
		<path id="&lt;Path&gt;" class="s18" d="m1359.4 476.6l99.9-50.7 13.8 123.8 14.7-12-6.9-154 19.6-12.7-19.1-31.8-123.3 44.7z"/>
		<path id="&lt;Path&gt;" class="s19" d="m297.8 737.5l731.8-191.3 100.4 2.9-35.5 240.7z"/>
		<path id="&lt;Path&gt;" class="s3" d="m1346.3 389.1l7.7 254.8-5.5 0.4-5.8-253.5z"/>
		<path id="&lt;Path&gt;" class="s3" d="m1481.4 339.2l-3 1.1c0 0 49.9 66.4 67.9 172.5l3.6-2.4c0 0-14.5-110.9-68.5-171.2z"/>
		<path id="&lt;Path&gt;" class="s10" d="m1571.7 521.9l-177.9 124.9-15.6-1.2 178.8-126.8z"/>
		<path id="&lt;Path&gt;" class="s10" d="m1380.7 653.2l-201.8 133-7.3-0.5 193.5-136.4z"/>
		<g id="&lt;Group&gt;">
			<path id="&lt;Path&gt;" class="s1" d="m855.2 938c-8.3 117.3-95.9 206.6-195.6 199.4-99.7-7.1-173.8-107.9-165.4-225.2 8.4-117.3 96-206.6 195.7-199.5 99.7 7.1 173.7 108 165.3 225.3z"/>
			<path id="&lt;Path&gt;" class="s1" d="m562.3 725.8c0 0 93.6-31.8 164.3-6 0 0 121.7 65 101.6 226.5-20.1 161.5-129.2 188.9-129.2 188.9 0 0-53.4 14-91.9 8.5z"/>
			<path id="&lt;Path&gt;" class="s2" d="m610.4 1143.7c-100.1 0-181-95.2-181-212.9 0-117.8 80.9-212.9 181-212.9 100.1 0 181 95.1 181 212.9 0 117.7-80.9 212.9-181 212.9z"/>
			<path id="&lt;Path&gt;" class="s20" d="m595.2 1038.1c-51 0-92.2-48.5-92.2-108.4 0-60 41.2-108.4 92.2-108.4 50.9 0 92.1 48.4 92.1 108.4 0 59.9-41.2 108.4-92.1 108.4z"/>
			<path id="&lt;Path&gt;" class="s2" d="m610.4 996.2c-30.8 0-55.6-29.2-55.6-65.4 0-36.2 24.8-65.5 55.6-65.5 30.8 0 55.7 29.3 55.7 65.5 0 36.2-24.9 65.4-55.7 65.4z"/>
			<path id="&lt;Path&gt;" class="s21" d="m545.2 1016.5l31.3-23.9c0 0 28.7 10.9 48.5 3.5l-9.6 36.8c0 0-44.6 14.2-70.2-16.4z"/>
			<path id="&lt;Path&gt;" class="s21" d="m654.7 1031.7l4.6-35.5 9.8-4.6 3.1 29.9c0 0-7 6.8-17.5 10.2z"/>
			<path id="&lt;Path&gt;" class="s2" d="m614 855.8c-5 0-9-5.1-9-11.5 0-6.3 4-11.4 9-11.4 5.1 0 9.1 5.1 9.1 11.4 0 6.4-4 11.5-9.1 11.5z"/>
			<path id="&lt;Path&gt;" class="s2" d="m580.2 1023.2c-5 0-9-5.1-9-11.5 0-6.3 4-11.4 9-11.4 5.1 0 9.1 5.1 9.1 11.4 0 6.4-4 11.5-9.1 11.5z"/>
			<path id="&lt;Path&gt;" class="s2" d="m531 961c-5 0-9.1-5.1-9.1-11.5 0-6.3 4.1-11.4 9.1-11.4 5 0 9.1 5.1 9.1 11.4 0 6.4-4.1 11.5-9.1 11.5z"/>
			<path id="&lt;Path&gt;" class="s2" d="m542.4 888.2c-5 0-9.1-5.1-9.1-11.5 0-6.3 4.1-11.4 9.1-11.4 5 0 9.1 5.1 9.1 11.4 0 6.4-4.1 11.5-9.1 11.5z"/>
			<path id="&lt;Path&gt;" class="s2" d="m664.6 987.4c-0.4 6.3-2.8 11.3-5.3 11.1-2.5-0.2-4.2-5.4-3.7-11.7 0.4-6.3 2.8-11.3 5.3-11.1 2.5 0.2 4.2 5.4 3.7 11.7z"/>
			<path id="&lt;Path&gt;" class="s2" d="m670.9 878.1c-0.5 6.3-2.9 11.3-5.4 11.1-2.5-0.2-4.1-5.5-3.7-11.7 0.5-6.3 2.9-11.3 5.4-11.1 2.4 0.2 4.1 5.4 3.7 11.7z"/>
			<path id="&lt;Path&gt;" class="s22" d="m762.5 814.5l69-0.3c0 0-22.6-44.4-57.8-70l-75.3-0.1c0 0 38.8 27.4 64.1 70.4z"/>
			<path id="&lt;Path&gt;" class="s22" d="m774.8 840.7l64.1-9.9c0 0 6.9 18.2 9 27.1l-64.5 8.8z"/>
		</g>
		<path id="&lt;Path&gt;" class="s21" d="m1326.2 1241l11.6 8.9c0 0 11-0.7 20.1-18.1l-15.2-4.1c0 0-8 8.8-16.5 13.3z"/>
		<path id="&lt;Path&gt;" class="s21" d="m1694.8 858.5c0 0 4 0.1 11.2-7.8l17-1c0 0-7.7 15.1-20.9 16.8z"/>
		<path id="&lt;Path&gt;" class="s23" d="m443 666.1l48.5-196.7 520.2 30-37.2 215.8z"/>
		<path id="&lt;Path&gt;" class="s24" d="m549.3 553.4l13.4-56.2 338.5 18-15.6 62.2 44.6 3.2-27 95.7-407.7-40.8 22.8-73.3z"/>
		<g id="&lt;Group&gt;">
			<path id="&lt;Compound Path&gt;" class="s23" d="m633.2 516.4q-2 10.9-4.5 21.1-2.6 10.3-5.8 20.9-0.7 0-1.4-0.1-0.7 0-1.3-0.1-1.6-0.1-3.1-0.2-1.5-0.2-3-0.6-1.6-4.1-3.3-8-1.8-4-3.3-8.2-1 1.9-2.2 3.7-1.1 1.8-2.4 3.6-1.7 2.2-3.3 4.5-1.6 2.2-3.1 4.5l-9.6-0.9q-0.9-5.4-1.8-10.6-0.8-5.3-1.6-10.7-1.1-6.6-2.2-13.2-1.2-6.5-2.4-13.2l17 1.3q0.1 1.9 0.2 3.9 0 1.9 0 3.8 0.1 5.1 0.4 10.2 0.2 5.1 0.4 10.2 1.3-3.5 2.6-7 1.2-3.4 2.7-6.8 1.3-3.1 2.5-6.1 1.2-3.1 2.4-6.2l2.9 0.3q1.4 7.2 3.3 14.2 1.9 7 4.3 14 1.9-6.3 3.4-12.7 1.6-6.3 3.2-12.7z"/>
			<path id="&lt;Compound Path&gt;" class="s23" d="m672.2 526.3q-5.8-0.1-11.5-0.2-5.7-0.1-11.5 0l-0.4 4.6 15.2 0.2q0.1 2 0.2 3.9 0 2-0.2 4 0 0.8-0.1 1.7-0.1 0.9-0.2 1.7l-14.2 1.5 0.3 7.3q4.5 0.1 9-0.2 4.4-0.2 9-0.3 0.2 3 0.4 6 0.2 2.9 0.7 5.8-8.3-0.6-16.5-1.1-8.2-0.5-16.6-1.1 0.7-6.9 1.4-13.7 0.7-6.8 1.2-13.7l0.1-1.1q0.3-4 0.5-8 0.1-3.9 0.3-8 4.6 0.4 9.2 0.7 4.7 0.3 9.3 0.6 3.6 0.3 7.2 0.7 3.5 0.4 7.1 0.8z"/>
			<path id="&lt;Compound Path&gt;" class="s23" d="m727.5 564.7q-7 0-13.9 0-7 0-14-0.1 0.5-11.3 1.2-22.3 0.6-11.1 0.9-22.4 3.9 0.2 7.8 0.3 3.8 0.1 7.7 0.1-1 4.3-1.8 8.6-0.9 4.3-1.5 8.7-0.5 3.7-0.9 7.4-0.4 3.6-0.8 7.3 3.9 0.4 7.6 0.7 3.8 0.2 7.6 0.6z"/>
			<path id="&lt;Compound Path&gt;" fill-rule="evenodd" class="s23" d="m782.9 544.9q0 0.8-0.1 1.5 0 0.7-0.1 1.4-0.1 0.6-0.3 2.1-0.2 1.5-0.5 3.3-0.3 1.9-0.7 4-0.3 2.1-0.7 3.9-0.4 1.8-0.8 3.1-0.4 1.2-0.7 1.5-1.9 1.6-4.4 2.3-2.5 0.7-5.1 0.8-2.7 0.1-5.3-0.2-2.7-0.2-4.9-0.4-0.8 0-2.6-0.2-1.8-0.1-4.2-0.4-2.3-0.2-4.8-0.5-2.5-0.3-4.7-0.8-2.2-0.4-3.7-0.9-1.6-0.5-2-1.1-0.4-0.7-0.7-1.5-0.3-0.7-0.6-1.5-0.6-2-1.1-4.2-0.5-2.3-0.7-4.6-0.3-2.4-0.4-4.7-0.1-2.3 0-4.3 0.1-1.1 0.4-2.9 0.3-1.8 0.8-3.9 0.4-2 1-4.2 0.5-2.1 1.2-3.9 0.6-1.9 1.3-3.2 0.7-1.4 1.4-1.8 0.6-0.4 2.2-0.6 1.6-0.2 3.8-0.3 2.1-0.2 4.5-0.2 2.4 0 4.6 0 2.2 0 4 0.1 1.7 0 2.6 0.1 1.1 0.1 3 0.3 1.9 0.3 4.1 0.7 2.2 0.4 4.5 1 2.2 0.5 4.2 1.2 1.9 0.6 3.2 1.4 1.4 0.7 1.7 1.5 0.3 0.7 0.4 1.9 0.2 1.2 0.3 2.8 0 1.5 0.1 3.2 0 1.7 0 3.3-0.1 1.6-0.1 2.9 0 1.2-0.1 2zm-10.6 1.2q0.1-1.2 0-2.5 0-1.3-0.6-2.4-0.4-0.7-2.1-1.3-1.8-0.5-3.9-0.8-2.2-0.3-4.2-0.5-1.9-0.2-2.8-0.3-0.6 0-2.2 0-1.7 0-3.5 0.1-1.8 0.2-3.3 0.5-1.6 0.2-2 0.7-0.4 0.4-0.6 1.5-0.3 1.2-0.6 2.5-0.2 1.3-0.4 2.5-0.1 1.2-0.1 1.7-0.1 0.5-0.1 1.4 0 1 0 2 0 1 0.1 1.9 0.1 0.9 0.4 1.3 0.1 0.3 1 0.6 0.9 0.3 2.1 0.6 1.3 0.3 2.7 0.5 1.4 0.2 2.7 0.4 1.3 0.2 2.3 0.3 1 0.1 1.4 0.1 0.7 0.1 2.5 0.1 1.7 0 3.7-0.1 1.9-0.2 3.5-0.4 1.7-0.3 2.2-0.8 0.4-0.4 0.7-1.7 0.3-1.3 0.5-2.8 0.3-1.6 0.4-3 0.1-1.5 0.2-2.1z"/>
			<path id="&lt;Compound Path&gt;" class="s23" d="m828.8 527.7q-3.2 11.2-6.4 22.3-3.3 11-6.8 22.1l-18.8-1q-1-6.4-2.1-12.9-1-6.4-2.4-12.8-1-4.9-2.1-9.6-1.2-4.7-2.3-9.5 2 0.3 4.1 0.7 2 0.3 4.1 0.4 0.5 0.1 0.9 0.1 0.4 0 0.9 0 1.8 7.5 3.8 14.8 2 7.3 4.1 14.8 2.1-4.1 4.1-8.2 1.9-4.2 4-8.3 0.1-0.3 0.6-1.5 0.5-1.1 1.1-2.6 0.7-1.5 1.5-3.2 0.7-1.7 1.3-3.1 0.6-1.5 1.4-3.4 0.6 0.2 1.2 0.2 0.7 0.1 1.3 0.1 1.7 0.2 3.3 0.3 1.6 0.1 3.2 0.3z"/>
			<path id="&lt;Compound Path&gt;" class="s23" d="m866.4 540.1q-5.8-0.1-11.5-0.2-5.7 0-11.5 0l-0.4 4.6 15.2 0.2q0.2 2.1 0.2 4 0 2-0.2 3.9 0 0.9-0.1 1.8-0.1 0.8-0.2 1.7l-14.2 1.5 0.3 7.3q4.5 0 9-0.2 4.4-0.2 9-0.3 0.2 2.9 0.4 5.9 0.2 3 0.8 5.9-8.4-0.7-16.6-1.2-8.2-0.5-16.5-1.1 0.6-6.8 1.3-13.6 0.8-6.8 1.3-13.7v-1.1q0.3-4 0.5-8 0.1-4 0.3-8 4.6 0.4 9.3 0.7 4.6 0.3 9.3 0.6 3.5 0.3 7.1 0.6 3.5 0.4 7.1 0.9z"/>
			<path id="&lt;Compound Path&gt;" class="s23" d="m571.6 593.2l-0.3 4.1-11.3-0.2q-0.5 3.4-0.9 6.7-0.3 3.3-0.6 6.7-0.3 4.1-0.8 8.1-0.5 4.1-1 8.1-2.2 0-4.3-0.1-2.1 0-4.2-0.2-0.8 0-1.5-0.1-0.7-0.1-1.4-0.1 0.3-3.6 0.7-7.2 0.3-3.5 0.6-7 0.2-3.5 0.3-7.1 0.1-3.6 0.1-7.2-1.7 0-3.5-0.1-1.7-0.1-3.5-0.2-0.9-0.1-1.9-0.1-1-0.1-2-0.2 0.2-4.4 0.4-8.7 0.3-4.3 0.5-8.5 8.8 0.8 17.5 1.7 8.6 0.9 17.3 1.8 0.1 2.5 0 4.9 0 2.4-0.2 4.9z"/>
			<path id="&lt;Compound Path&gt;" fill-rule="evenodd" class="s23" d="m625.9 606.2q0 0.8-0.1 1.5-0.1 0.7-0.2 1.4-0.1 0.6-0.3 2.1-0.1 1.4-0.4 3.3-0.3 1.9-0.7 4-0.3 2.1-0.7 3.9-0.4 1.8-0.8 3-0.4 1.3-0.7 1.6-1.9 1.6-4.4 2.3-2.5 0.7-5.1 0.8-2.7 0.1-5.3-0.2-2.7-0.2-5-0.4-0.7 0-2.5-0.2-1.9-0.2-4.2-0.4-2.3-0.2-4.8-0.5-2.5-0.4-4.7-0.8-2.2-0.4-3.8-0.9-1.6-0.5-1.9-1.1-0.4-0.7-0.7-1.5-0.3-0.8-0.6-1.5-0.6-2-1.1-4.2-0.5-2.3-0.8-4.6-0.2-2.4-0.3-4.7-0.1-2.3 0-4.3 0.1-1.2 0.4-2.9 0.3-1.8 0.7-3.9 0.5-2 1-4.2 0.6-2.1 1.2-4 0.7-1.8 1.4-3.1 0.6-1.4 1.4-1.8 0.6-0.4 2.2-0.6 1.6-0.2 3.8-0.4 2.1-0.1 4.5-0.1 2.4 0 4.6 0 2.2 0 4 0 1.7 0.1 2.5 0.2 1.2 0 3.1 0.3 1.9 0.3 4.1 0.7 2.2 0.4 4.4 0.9 2.3 0.6 4.2 1.3 2 0.6 3.3 1.4 1.4 0.7 1.7 1.5 0.2 0.7 0.4 1.9 0.2 1.2 0.3 2.8 0 1.5 0 3.2 0.1 1.7 0.1 3.3-0.1 1.5-0.1 2.8 0 1.3-0.1 2.1zm-10.6 1.2q0-1.2 0-2.5 0-1.3-0.6-2.4-0.4-0.7-2.2-1.3-1.7-0.5-3.8-0.8-2.2-0.4-4.2-0.5-2-0.2-2.8-0.3-0.6 0-2.3 0-1.6 0-3.4 0.1-1.8 0.2-3.3 0.4-1.6 0.3-2 0.8-0.4 0.4-0.7 1.5-0.2 1.2-0.5 2.5-0.2 1.3-0.4 2.5-0.1 1.2-0.2 1.7 0 0.5 0 1.4-0.1 1 0 2 0 1 0.1 1.9 0.1 0.9 0.4 1.3 0.1 0.3 1 0.6 0.8 0.3 2.1 0.6 1.2 0.3 2.6 0.5 1.4 0.2 2.8 0.4 1.3 0.2 2.3 0.3 1 0.1 1.4 0.1 0.7 0.1 2.5 0.1 1.7 0 3.6-0.2 2-0.1 3.6-0.4 1.6-0.2 2.2-0.7 0.3-0.4 0.7-1.7 0.3-1.3 0.5-2.9 0.3-1.5 0.4-2.9 0.1-1.5 0.2-2.1z"/>
			<path id="&lt;Compound Path&gt;" class="s23" d="m692.1 601.8l-0.3 4.1-11.3-0.2q-0.5 3.4-0.9 6.7-0.3 3.3-0.6 6.7-0.3 4.1-0.8 8.1-0.5 4.1-1 8.1-2.2 0-4.3-0.1-2.1 0-4.2-0.2-0.8 0-1.5-0.1-0.7-0.1-1.4-0.1 0.3-3.6 0.7-7.2 0.3-3.5 0.6-7 0.2-3.5 0.3-7.1 0.1-3.6 0.1-7.2-1.7 0-3.5-0.1-1.7-0.1-3.5-0.2-0.9-0.1-1.9-0.1-1-0.1-2-0.2 0.2-4.4 0.4-8.7 0.2-4.3 0.5-8.5 8.8 0.8 17.5 1.7 8.6 0.9 17.3 1.8 0.1 2.5 0 4.9 0 2.4-0.2 4.9z"/>
			<path id="&lt;Compound Path&gt;" fill-rule="evenodd" class="s23" d="m740.7 609.9q-0.3 4.8-3.4 7.4-3.2 2.5-8 2.4 5.1 10.1 8.7 20.6l-17.1-0.8q-0.2-4.8-0.8-8.9-0.7-4-2.1-8.6-1.9 0-3.8 0.1-1.9 0-3.8 0l-0.7 13.3q-3.3 0-6.7-0.3-1.7-0.1-3.3-0.3-1.6-0.2-3.2-0.4 0.8-5.4 1.5-10.8 0.7-5.3 1.2-10.6 0.8-9.5 1.8-19 5.6 0.1 11.1 0.1 5.5 0.1 11 0.4 1.4 0.2 3.1 0.3 1.6 0.2 3.3 0.6 1.6 0.4 3.1 1 1.6 0.5 2.7 1.4 2.9 2.1 4.3 5.3 1.4 3.3 1.1 6.8zm-13.5-1.9q0-0.5 0-1.3 0.1-0.8 0-1.7 0-0.8-0.2-1.6-0.2-0.7-0.6-1.1-0.3-0.3-1-0.4-0.7-0.2-1.4-0.4-0.8-0.1-1.6-0.2-0.7-0.1-1-0.1-2.3-0.2-4.6-0.1-2.3 0.1-4.5 0.3l0.7 11.5q1.3 0.4 2.7 0.6 1.4 0.2 2.8 0.3 0.5 0 1.7 0.1 1.1 0 2.3-0.1 1.3-0.1 2.3-0.3 1.1-0.3 1.5-0.8 0.2-0.2 0.4-0.9 0.1-0.6 0.2-1.4 0.1-0.7 0.2-1.4 0.1-0.7 0.1-1z"/>
			<path id="&lt;Compound Path&gt;" fill-rule="evenodd" class="s23" d="m783.2 642.4l-9 0.7q-0.8-3-1.5-6-0.7-3.1-1.4-6.1l-14.5-0.5-2.3 7.6-9.1-0.6q1.6-9.9 3.2-19.7 1.5-9.8 3.1-19.7 4.2-0.4 8.5-0.6 4.2-0.1 8.5 0.2 5.2 0.4 10.4 0.9 0.5 6.2 1 12.3 0.5 6.2 1 12.3 0.4 4.9 0.9 9.7 0.5 4.7 1.2 9.5zm-13.4-19.6q0-0.5-0.1-1.9-0.1-1.5-0.3-3.1-0.2-1.7-0.5-3-0.3-1.4-0.6-1.6-0.1-0.1-0.6-0.2-0.4-0.1-0.9-0.2-0.5-0.1-1-0.1-0.4 0-0.6 0-0.3-0.1-0.8-0.1-0.5 0-1.1 0-0.5-0.1-1 0-0.5 0.1-0.7 0.3-0.1 0-0.4 0.7-0.2 0.7-0.5 1.7-0.4 1-0.7 2.2-0.4 1.1-0.7 2.2-0.3 1-0.5 1.8-0.2 0.7-0.3 0.8z"/>
			<path id="&lt;Compound Path&gt;" class="s23" d="m829.1 600.2q-3.2 11.2-6.5 22.3-3.3 11-6.7 22.2l-18.8-1.1q-1-6.4-2.1-12.9-1-6.4-2.5-12.8-1-4.8-2.1-9.6-1.1-4.7-2.3-9.5 2.1 0.4 4.1 0.7 2.1 0.3 4.2 0.5 0.4 0 0.8 0 0.5 0 0.9 0 1.9 7.5 3.9 14.8 2 7.4 4.1 14.8 2.1-4.1 4-8.2 2-4.1 4-8.3 0.2-0.3 0.7-1.4 0.5-1.2 1.1-2.7 0.7-1.5 1.4-3.2 0.8-1.7 1.4-3.1 0.6-1.5 1.4-3.4 0.6 0.2 1.2 0.3 0.6 0 1.3 0 1.7 0.2 3.3 0.3 1.6 0.1 3.2 0.3z"/>
			<path id="&lt;Compound Path&gt;" class="s23" d="m866.7 612.6q-5.8-0.1-11.5-0.2-5.7 0-11.5 0l-0.4 4.7 15.2 0.2q0.1 2 0.2 3.9 0 2-0.2 4 0 0.8-0.1 1.7-0.1 0.8-0.2 1.7l-14.2 1.5 0.3 7.3q4.5 0 9-0.2 4.4-0.2 9-0.3 0.2 2.9 0.4 5.9 0.2 3 0.7 5.9-8.3-0.7-16.5-1.2-8.2-0.5-16.6-1.1 0.7-6.8 1.4-13.6 0.7-6.8 1.2-13.7l0.1-1.1q0.3-4 0.5-8 0.1-4 0.3-8 4.6 0.4 9.2 0.7 4.7 0.3 9.3 0.6 3.6 0.3 7.2 0.7 3.5 0.4 7.1 0.8z"/>
			<path id="&lt;Compound Path&gt;" class="s23" d="m897.8 649.3q-7 0-13.9 0-6.9 0-13.9-0.1 0.5-11.2 1.1-22.3 0.6-11.1 0.9-22.4 4 0.3 7.8 0.3 3.8 0.1 7.7 0.1-0.9 4.3-1.8 8.7-0.9 4.3-1.5 8.7-0.5 3.7-0.9 7.3-0.4 3.7-0.8 7.4 3.9 0.3 7.7 0.6 3.7 0.3 7.5 0.7z"/>
		</g>
		<path id="&lt;Path&gt;" class="s25" d="m403.6 378c0 0 251.4-72 538.1-77.3l543.6 21.6 76.1 158-68-160.8c0 0-379.5-28.1-544.5-30.4-165-2.3-391.3 37.7-545.3 88.9z"/>
		<path id="&lt;Path&gt;" class="s25" d="m1553.4 461.4l123.3 8.8c0 0 19.8 54.9 23.2 72.3 0 0-8.7-54.6-19.1-77.5l-129.3-5.3z"/>
		<path id="&lt;Path&gt;" class="s7" d="m1571.7 521.9l29.5-24.6 3.8 17-27.1 33.7z"/>
		<g id="&lt;Group&gt;">
			<path id="&lt;Path&gt;" class="s7" d="m1588.4 523.6l11.3-82.1 111.9 0.1c0 0 5 46.2-12.7 81.2z"/>
			<path id="&lt;Path&gt;" class="s6" d="m1711.6 441.6l15.2-9.6c0 0 11.4 32.2-18.5 87.2l-9.4 3.6c0 0 12-32.2 12.7-81.2z"/>
			<path id="&lt;Path&gt;" class="s25" d="m1599.7 441.5l15.1-6.8 112-2.7-15.2 9.6z"/>
			<path id="&lt;Path&gt;" class="s2" d="m1594.4 515.4c-2.9-2.1 6.4-62.7 8.6-65.9 2.1-3.2 97.8-4.5 101.2-0.5 3.4 3.9-6.1 58.8-9.9 66.3-3.7 7.6-95.5 3.1-99.9 0.1z"/>
		</g>
		<path id="&lt;Path&gt;" class="s26" d="m1188.6 928.8c-3.4 47.2-64.2 81.4-136 76.2-71.7-5.1-127.1-47.5-123.7-94.8 3.3-47.2 64.2-81.4 136-76.3 71.7 5.2 127.1 47.6 123.7 94.9z"/>
		<path id="&lt;Path&gt;" class="s27" d="m375.9 851.4c-3.6 50.2-47.2 87.9-97.3 84.3-50.2-3.5-88-47.1-84.4-97.3 3.6-50.1 47.2-87.9 97.3-84.3 50.2 3.6 88 47.1 84.4 97.3z"/>
	</g>
</svg>