<svg version="1.2" xmlns="http://www.w3.org/2000/svg" viewBox="0 0 800 400" width="800" height="400">
	<title>4Z_2101</title>
	<defs>
		<clipPath clipPathUnits="userSpaceOnUse" id="cp1">
			<path d="m800 400h-800v-400h800z"/>
		</clipPath>
		<linearGradient id="g1" x2="1" gradientUnits="userSpaceOnUse" gradientTransform="matrix(0,-400,800,0,300,400)">
			<stop offset=".008" stop-color="#007ccc"/>
			<stop offset=".165" stop-color="#00389f"/>
			<stop offset=".333" stop-color="#1c0681"/>
			<stop offset="1" stop-color="#096fe3"/>
		</linearGradient>
		<linearGradient id="g2" x2="1" gradientUnits="userSpaceOnUse" gradientTransform="matrix(112.242,-54.97,46.012,93.951,167.737,310.424)">
			<stop offset="0" stop-color="#ffffff"/>
			<stop offset="1" stop-color="#754ad6"/>
		</linearGradient>
		<radialGradient id="g3" cx="0" cy="0" r="1" gradientUnits="userSpaceOnUse" gradientTransform="matrix(344.858,0,0,344.858,400,381.132)">
			<stop offset=".006" stop-color="#005ab1"/>
			<stop offset=".533" stop-color="#001a68"/>
			<stop offset="1" stop-color="#000000"/>
		</radialGradient>
		<linearGradient id="g4" x2="1" gradientUnits="userSpaceOnUse" gradientTransform="matrix(0,-47.242,800,0,398.605,376.916)">
			<stop offset=".006" stop-color="#003bae"/>
			<stop offset=".992" stop-color="#12228f"/>
		</linearGradient>
		<linearGradient id="g5" x2="1" gradientUnits="userSpaceOnUse" gradientTransform="matrix(0,-37.737,306.602,0,620.619,400)">
			<stop offset=".006" stop-color="#0057ae"/>
			<stop offset=".992" stop-color="#12318f"/>
		</linearGradient>
		<linearGradient id="g6" x2="1" gradientUnits="userSpaceOnUse" gradientTransform="matrix(0,-17.63,281.028,0,658.933,329.674)">
			<stop offset="0" stop-color="#1b009f"/>
			<stop offset=".992" stop-color="#12138f"/>
		</linearGradient>
		<linearGradient id="g7" x2="1" gradientUnits="userSpaceOnUse" gradientTransform="matrix(0,-51.41,299.274,0,170.389,400)">
			<stop offset=".006" stop-color="#0057ae"/>
			<stop offset=".992" stop-color="#12318f"/>
		</linearGradient>
		<linearGradient id="g8" x2="1" gradientUnits="userSpaceOnUse" gradientTransform="matrix(0,-19.453,493.926,0,246.58,329.674)">
			<stop offset="0" stop-color="#1b009f"/>
			<stop offset=".992" stop-color="#12138f"/>
		</linearGradient>
		<linearGradient id="g9" x2="1" gradientUnits="userSpaceOnUse" gradientTransform="matrix(0,-193.054,204.962,0,478.583,312.495)">
			<stop offset="0" stop-color="#0a1b87"/>
			<stop offset=".992" stop-color="#12048d"/>
		</linearGradient>
		<linearGradient id="g10" x2="1" gradientUnits="userSpaceOnUse" gradientTransform="matrix(0,-332.052,211.662,0,434.352,345.936)">
			<stop offset="0" stop-color="#0e4cbc"/>
			<stop offset=".992" stop-color="#121498"/>
		</linearGradient>
		<linearGradient id="g11" x2="1" gradientUnits="userSpaceOnUse" gradientTransform="matrix(0,-48.585,99.418,0,527.012,364.684)">
			<stop offset="0" stop-color="#0e57bc"/>
			<stop offset=".992" stop-color="#121498"/>
		</linearGradient>
		<linearGradient id="g12" x2="1" gradientUnits="userSpaceOnUse" gradientTransform="matrix(110.186,0,0,19.589,544.849,352.344)">
			<stop offset="0" stop-color="#0e57bc"/>
			<stop offset=".992" stop-color="#121498"/>
		</linearGradient>
		<linearGradient id="g13" x2="1" gradientUnits="userSpaceOnUse" gradientTransform="matrix(0,-358.558,316.944,0,-44.346,359.021)">
			<stop offset="0" stop-color="#0e4cbc"/>
			<stop offset=".992" stop-color="#121498"/>
		</linearGradient>
		<linearGradient id="g14" x2="1" gradientUnits="userSpaceOnUse" gradientTransform="matrix(0,-154.056,146.259,0,267.506,306.53)">
			<stop offset="0" stop-color="#0a1b87"/>
			<stop offset=".992" stop-color="#12048d"/>
		</linearGradient>
		<linearGradient id="g15" x2="1" gradientUnits="userSpaceOnUse" gradientTransform="matrix(1.451,-29.269,88.914,4.407,238.998,308.667)">
			<stop offset="0" stop-color="#0a1b87"/>
			<stop offset=".992" stop-color="#12048d"/>
		</linearGradient>
		<linearGradient id="g16" x2="1" gradientUnits="userSpaceOnUse" gradientTransform="matrix(-1.591,-31.98,94.282,-4.691,418.715,312.744)">
			<stop offset="0" stop-color="#0a1b87"/>
			<stop offset=".992" stop-color="#12048d"/>
		</linearGradient>
		<linearGradient id="g17" x2="1" gradientUnits="userSpaceOnUse" gradientTransform="matrix(358.791,-400,285.413,256.009,186.324,400.221)">
			<stop offset="0" stop-color="#000000"/>
			<stop offset="1" stop-color="#00dbff"/>
		</linearGradient>
		<radialGradient id="g18" cx="0" cy="0" r="1" gradientUnits="userSpaceOnUse" gradientTransform="matrix(4.787,0,0,4.787,386.54,46.512)">
			<stop offset=".548" stop-color="#000000"/>
			<stop offset=".983" stop-color="#0045fe"/>
		</radialGradient>
		<linearGradient id="g19" x2="1" gradientUnits="userSpaceOnUse" gradientTransform="matrix(0,-9.574,9.574,0,381.483,51.623)">
			<stop offset="0" stop-color="#000000"/>
			<stop offset=".902" stop-color="#227ebd"/>
			<stop offset=".983" stop-color="#00cafe"/>
		</linearGradient>
		<radialGradient id="g20" cx="0" cy="0" r="1" gradientUnits="userSpaceOnUse" gradientTransform="matrix(2.627,0,0,2.627,404.197,70.193)">
			<stop offset=".548" stop-color="#000000"/>
			<stop offset=".983" stop-color="#0045fe"/>
		</radialGradient>
		<linearGradient id="g21" x2="1" gradientUnits="userSpaceOnUse" gradientTransform="matrix(0,-5.254,5.254,0,401.421,72.998)">
			<stop offset="0" stop-color="#000000"/>
			<stop offset=".902" stop-color="#227ebd"/>
			<stop offset=".983" stop-color="#00cafe"/>
		</linearGradient>
		<radialGradient id="g22" cx="0" cy="0" r="1" gradientUnits="userSpaceOnUse" gradientTransform="matrix(15.658,0,0,15.658,409.241,30.137)">
			<stop offset=".548" stop-color="#000000"/>
			<stop offset=".983" stop-color="#0045fe"/>
		</radialGradient>
		<linearGradient id="g23" x2="1" gradientUnits="userSpaceOnUse" gradientTransform="matrix(0,-14.047,26.817,0,404.805,37.636)">
			<stop offset="0" stop-color="#000000"/>
			<stop offset=".902" stop-color="#227ebd"/>
			<stop offset=".983" stop-color="#00cafe"/>
		</linearGradient>
		<radialGradient id="g24" cx="0" cy="0" r="1" gradientUnits="userSpaceOnUse" gradientTransform="matrix(3.626,0,0,3.626,475.279,228.715)">
			<stop offset=".548" stop-color="#000000"/>
			<stop offset=".983" stop-color="#0045fe"/>
		</radialGradient>
		<linearGradient id="g25" x2="1" gradientUnits="userSpaceOnUse" gradientTransform="matrix(0,-7.252,7.252,0,471.448,232.587)">
			<stop offset="0" stop-color="#000000"/>
			<stop offset=".902" stop-color="#227ebd"/>
			<stop offset=".983" stop-color="#00cafe"/>
		</linearGradient>
		<radialGradient id="g26" cx="0" cy="0" r="1" gradientUnits="userSpaceOnUse" gradientTransform="matrix(9.47,0,0,9.47,391.387,190.472)">
			<stop offset=".548" stop-color="#000000"/>
			<stop offset=".983" stop-color="#0045fe"/>
		</radialGradient>
		<linearGradient id="g27" x2="1" gradientUnits="userSpaceOnUse" gradientTransform="matrix(0,-11.157,20.428,0,387.764,196.428)">
			<stop offset="0" stop-color="#000000"/>
			<stop offset=".902" stop-color="#227ebd"/>
			<stop offset=".983" stop-color="#00cafe"/>
		</linearGradient>
		<radialGradient id="g28" cx="0" cy="0" r="1" gradientUnits="userSpaceOnUse" gradientTransform="matrix(2.337,0,0,2.337,499.131,189.659)">
			<stop offset=".548" stop-color="#000000"/>
			<stop offset=".983" stop-color="#0045fe"/>
		</radialGradient>
		<linearGradient id="g29" x2="1" gradientUnits="userSpaceOnUse" gradientTransform="matrix(0,-4.674,4.674,0,496.662,192.155)">
			<stop offset="0" stop-color="#000000"/>
			<stop offset=".902" stop-color="#227ebd"/>
			<stop offset=".983" stop-color="#00cafe"/>
		</linearGradient>
		<radialGradient id="g30" cx="0" cy="0" r="1" gradientUnits="userSpaceOnUse" gradientTransform="matrix(2.337,0,0,2.337,442.509,240.188)">
			<stop offset=".548" stop-color="#000000"/>
			<stop offset=".983" stop-color="#0045fe"/>
		</radialGradient>
		<linearGradient id="g31" x2="1" gradientUnits="userSpaceOnUse" gradientTransform="matrix(0,-4.674,4.674,0,440.04,242.683)">
			<stop offset="0" stop-color="#000000"/>
			<stop offset=".902" stop-color="#227ebd"/>
			<stop offset=".983" stop-color="#00cafe"/>
		</linearGradient>
		<radialGradient id="g32" cx="0" cy="0" r="1" gradientUnits="userSpaceOnUse" gradientTransform="matrix(2.337,0,0,2.337,401.553,209.238)">
			<stop offset=".548" stop-color="#000000"/>
			<stop offset=".983" stop-color="#0045fe"/>
		</radialGradient>
		<linearGradient id="g33" x2="1" gradientUnits="userSpaceOnUse" gradientTransform="matrix(0,-4.674,4.674,0,399.084,211.734)">
			<stop offset="0" stop-color="#000000"/>
			<stop offset=".902" stop-color="#227ebd"/>
			<stop offset=".983" stop-color="#00cafe"/>
		</linearGradient>
		<linearGradient id="g34" x2="1" gradientUnits="userSpaceOnUse" gradientTransform="matrix(0,-13.361,43.2,0,239.86,334.534)">
			<stop offset="0" stop-color="#0a1b87"/>
			<stop offset=".992" stop-color="#12048d"/>
		</linearGradient>
		<linearGradient id="g35" x2="1" gradientUnits="userSpaceOnUse" gradientTransform="matrix(0,-9.663,26.825,0,497.259,328.167)">
			<stop offset="0" stop-color="#0a1b87"/>
			<stop offset=".992" stop-color="#12048d"/>
		</linearGradient>
	</defs>
	<style>
		.s0 { fill: url(#g1) } 
		.s1 { mix-blend-mode: multiply;fill: url(#g2) } 
		.s2 { fill: #808cd3 } 
		.s3 { opacity: .5;mix-blend-mode: screen;fill: url(#g3) } 
		.s4 { fill: url(#g4) } 
		.s5 { fill: url(#g5) } 
		.s6 { fill: url(#g6) } 
		.s7 { fill: url(#g7) } 
		.s8 { fill: url(#g8) } 
		.s9 { mix-blend-mode: multiply;fill: #808cd3 } 
		.s10 { opacity: .6;mix-blend-mode: multiply;fill: #808cd3 } 
		.s11 { fill: url(#g9) } 
		.s12 { fill: #0626aa } 
		.s13 { fill: #8ca2d1 } 
		.s14 { fill: url(#g10) } 
		.s15 { fill: #066bd3 } 
		.s16 { mix-blend-mode: soft-light;fill: #808cd3 } 
		.s17 { opacity: .5;mix-blend-mode: multiply;fill: #808cd3 } 
		.s18 { fill: #0650bb } 
		.s19 { fill: #b3c8ff } 
		.s20 { fill: #001b7a } 
		.s21 { fill: url(#g11) } 
		.s22 { opacity: .8;mix-blend-mode: multiply;fill: #808cd3 } 
		.s23 { mix-blend-mode: soft-light;fill: #8ca2d1 } 
		.s24 { fill: url(#g12) } 
		.s25 { fill: url(#g13) } 
		.s26 { fill: url(#g14) } 
		.s27 { fill: url(#g15) } 
		.s28 { fill: url(#g16) } 
		.s29 { opacity: .2;mix-blend-mode: screen;fill: url(#g17) } 
		.s30 { fill: #5c6bc6 } 
		.s31 { fill: #131da6 } 
		.s32 { fill: #130b86 } 
		.s33 { fill: #131890 } 
		.s34 { fill: #1372ec } 
		.s35 { fill: #135be5 } 
		.s36 { fill: #1397ec } 
		.s37 { fill: #2798ec } 
		.s38 { fill: #1381ec } 
		.s39 { fill: #63c7ec } 
		.s40 { fill: #1334bd } 
		.s41 { fill: #279fec } 
		.s42 { fill: #27c7ec } 
		.s43 { fill: #95bbf9 } 
		.s44 { mix-blend-mode: screen;fill: url(#g18) } 
		.s45 { mix-blend-mode: screen;fill: url(#g19) } 
		.s46 { fill: #ffffff } 
		.s47 { mix-blend-mode: overlay;fill: #ffffff } 
		.s48 { mix-blend-mode: screen;fill: url(#g20) } 
		.s49 { mix-blend-mode: screen;fill: url(#g21) } 
		.s50 { mix-blend-mode: screen;fill: url(#g22) } 
		.s51 { mix-blend-mode: screen;fill: url(#g23) } 
		.s52 { mix-blend-mode: screen;fill: url(#g24) } 
		.s53 { mix-blend-mode: screen;fill: url(#g25) } 
		.s54 { mix-blend-mode: screen;fill: url(#g26) } 
		.s55 { mix-blend-mode: screen;fill: url(#g27) } 
		.s56 { mix-blend-mode: screen;fill: url(#g28) } 
		.s57 { mix-blend-mode: screen;fill: url(#g29) } 
		.s58 { mix-blend-mode: screen;fill: url(#g30) } 
		.s59 { mix-blend-mode: screen;fill: url(#g31) } 
		.s60 { mix-blend-mode: screen;fill: url(#g32) } 
		.s61 { mix-blend-mode: screen;fill: url(#g33) } 
		.s62 { fill: #abbbdd } 
		.s63 { fill: #7791c8 } 
		.s64 { fill: url(#g34) } 
		.s65 { fill: url(#g35) } 
	</style>
	<g id="_Artboards_">
	</g>
	<g id="layer1">
		<g id="&lt;Clip Group&gt;" clip-path="url(#cp1)">
			<path id="&lt;Path&gt;" class="s0" d="m800 400h-800v-400h800z"/>
			<path id="&lt;Mesh&gt;" class="s1" d="m167.7 310.4q25.2 0 50.3 0 0-27.5 0-54.9-25.1 0-50.3 0 0 27.4 0 54.9zm0-54.9q25.2 0 50.3 0 0-34.4 0-68.7-25.1 0-50.3 0 0 34.3 0 68.7zm0-68.7q25.2 0 50.3 0 0-43.3 0-86.6-25.1 0-50.3 0 0 43.3 0 86.6zm0-86.6q25.2 0 50.3 0 0-11.8 0-23.5-25.1 0-50.3 0 0 11.7 0 23.5zm0-23.5q25.2 0 50.3 0 0-38.4 0-76.7-25.1 0-50.3 0 0 38.3 0 76.7zm50.3 233.7q31 0 62 0 0-27.5 0-54.9-31 0-62 0 0 27.4 0 54.9zm0-54.9q31 0 62 0 0-34.4 0-68.7-31 0-62 0 0 34.3 0 68.7zm0-68.7q31 0 62 0 0-43.3 0-86.6-31 0-62 0 0 43.3 0 86.6zm0-86.6q31 0 62 0 0-11.8 0-23.5-31 0-62 0 0 11.7 0 23.5zm0-23.5q31 0 62 0 0-38.4 0-76.7-31 0-62 0 0 38.3 0 76.7zm62 233.7q140.5 0 281.1 0 0-27.5 0-54.9-140.6 0-281.1 0 0 27.4 0 54.9zm0-54.9q140.5 0 281.1 0 0-34.4 0-68.7-140.6 0-281.1 0 0 34.3 0 68.7zm0-68.7q140.5 0 281.1 0 0-43.3 0-86.6-140.6 0-281.1 0 0 43.3 0 86.6zm0-86.6q140.5 0 281.1 0c0-7.9 1.5-53.7 1.5-61.5-93.7 0-188.9 38-282.6 38q0 11.7 0 23.5zm0-23.5c93.7 0 188.9-38 282.6-38 0-25.5-1.5-13.1-1.5-38.7q-140.6 0-281.1 0 0 38.3 0 76.7zm281.1 233.7q8.3 0 16.7 0 0-27.5 0-54.9-8.4 0-16.7 0 0 27.4 0 54.9zm0-54.9q8.3 0 16.7 0 0-34.4 0-68.7-8.4 0-16.7 0 0 34.3 0 68.7zm0-68.7q8.3 0 16.7 0 0-43.3 0-86.6-8.4 0-16.7 0 0 43.3 0 86.6zm0-86.6q8.3 0 16.7 0c0-7.9 16-51.5 16-59.4-5.6 0-25.6-2.1-31.2-2.1 0 7.8-1.5 53.6-1.5 61.5zm1.5-61.5c5.6 0 25.6 2.1 31.2 2.1 0-25.5-16-15.2-16-40.8q-8.4 0-16.7 0c0 25.6 1.5 13.2 1.5 38.7zm15.2 271.7q35.6 0 71.3 0 0-27.5 0-54.9-35.7 0-71.3 0 0 27.4 0 54.9zm0-54.9q35.6 0 71.3 0 0-34.4 0-68.7-35.7 0-71.3 0 0 34.3 0 68.7zm0-68.7q35.6 0 71.3 0 0-43.3 0-86.6-35.7 0-71.3 0 0 43.3 0 86.6zm0-86.6q35.6 0 71.3 0 0-11.8 0-23.5c-23.8 0-31.6-35.9-55.3-35.9 0 7.9-16 51.5-16 59.4zm16-59.4c23.7 0 31.5 35.9 55.3 35.9q0-38.4 0-76.7-35.7 0-71.3 0c0 25.6 16 15.3 16 40.8zm55.3 269.6q23 0 46 0 0-27.5 0-54.9-23 0-46 0 0 27.4 0 54.9zm0-54.9q23 0 46 0 0-34.4 0-68.7-23 0-46 0 0 34.3 0 68.7zm0-68.7q23 0 46 0 0-43.3 0-86.6-23 0-46 0 0 43.3 0 86.6zm0-86.6q23 0 46 0 0-11.8 0-23.5-23 0-46 0 0 11.7 0 23.5zm0-23.5q23 0 46 0 0-38.4 0-76.7-23 0-46 0 0 38.3 0 76.7z"/>
			<g id="&lt;Group&gt;" style="mix-blend-mode: multiply">
				<path id="&lt;Path&gt;" class="s2" d="m195.2 215.4l29.3 21.1v34.5l15 5.1 2.3-3.9h6.1l9.1-1.9 2.9 13.9 9.6-1.5 9.8 9.6 180.2 5.7 18.1-10.7 18-4.1v-5.1l6.5-5.9 5.9-3.7 46.1-7 245.5-12.9 0.4 58.9-681.3-17.3z"/>
				<g id="&lt;Group&gt;">
					<path id="&lt;Path&gt;" class="s2" d="m498.7 275.2l-19.1-31.1 0.6-0.4 19.1 31.1z"/>
				</g>
				<g id="&lt;Group&gt;">
					<path id="&lt;Path&gt;" class="s2" d="m504.8 270.4l-13.5-31.1 0.7-0.3 13.5 31.1z"/>
				</g>
				<g id="&lt;Group&gt;">
					<path id="&lt;Path&gt;" class="s2" d="m480.1 253l-0.4-0.6 18.6-8.8 0.3 0.6z"/>
				</g>
				<g id="&lt;Group&gt;">
					<path id="&lt;Path&gt;" class="s2" d="m483.6 265.4l-0.3-0.6 21.7-12.4 0.3 0.6z"/>
				</g>
				<g id="&lt;Group&gt;">
					<path id="&lt;Path&gt;" class="s2" d="m233 276.4l-0.8-0.1 17.2-67.6 0.8 0.2z"/>
				</g>
				<g id="&lt;Group&gt;">
					<path id="&lt;Path&gt;" class="s2" d="m248.2 272.4l-0.7-0.3 8.9-21 0.7 0.3z"/>
				</g>
				<g id="&lt;Group&gt;">
					<path id="&lt;Path&gt;" class="s2" d="m256.5 225.7l-18.8-9.4 0.4-0.7 18.8 9.4z"/>
				</g>
				<g id="&lt;Group&gt;">
					<path id="&lt;Path&gt;" class="s2" d="m262.3 238.2l-21.3-12.5 0.4-0.7 21.3 12.5z"/>
				</g>
				<g id="&lt;Group&gt;">
					<path id="&lt;Path&gt;" class="s2" d="m257 286.1l-0.6-0.4 11.6-20.8 0.7 0.4z"/>
				</g>
				<g id="&lt;Group&gt;">
					<path id="&lt;Path&gt;" class="s2" d="m292.1 294.9l-32.4-24.7 0.5-0.6 32.3 24.7z"/>
				</g>
				<g id="&lt;Group&gt;">
					<path id="&lt;Path&gt;" class="s2" d="m518.9 269.7l-0.3-17.5h0.7l0.4 17.4z"/>
				</g>
				<g id="&lt;Group&gt;">
					<path id="&lt;Path&gt;" class="s2" d="m488.9 292.1l-12.6-9.5 0.4-0.6 12.7 9.5z"/>
				</g>
				<g id="&lt;Group&gt;">
					<path id="&lt;Path&gt;" class="s2" d="m213.6 244l-0.7-0.2 19.3-58.5 0.8 0.2z"/>
				</g>
			</g>
			<path id="&lt;Path&gt;" class="s3" d="m744.9 381.1c0 32-154.4 58-344.9 58-190.5 0-344.9-26-344.9-58 0-32 154.4-57.9 344.9-57.9 190.5 0 344.9 25.9 344.9 57.9z"/>
			<g id="&lt;Group&gt;" style="opacity: .8;mix-blend-mode: soft-light">
				<path id="&lt;Path&gt;" class="s2" d="m472.7 362.3l34-13.9h76.5l31.6 31.2-77.9-3.7z"/>
				<path id="&lt;Path&gt;" class="s2" d="m619.6 379.8l-10.3-11.2 15.9-8.4 101 12.7-8.2 11.6z"/>
				<path id="&lt;Path&gt;" class="s2" d="m602.2 364l-1.5-3 18.9-2v2.5l-13.6 4.2z"/>
				<path id="&lt;Path&gt;" class="s2" d="m321 348.6l-35.6-8.6-79.3 8.4 37.6 4.9z"/>
				<path id="&lt;Path&gt;" class="s2" d="m237.9 355.5l-37.6-5.1-61.2 18.2-38.1 12.5 64 2.4z"/>
				<path id="&lt;Path&gt;" class="s2" d="m328.6 329.7l-28.3-12.9-47-0.3-67.2 8.7-31.1 23.4 46.8-3.3z"/>
				<path id="&lt;Path&gt;" class="s2" d="m334.4 329.7l-5.8-9.8 19.4-6.5 55.6-1.2 18.2 22.3z"/>
				<path id="&lt;Path&gt;" class="s2" d="m524.4 312l275.6-13.9v24.8l-106.5 4-24.5-3.4 40.4-6.6-1-4.4-110.1 4.7 43.4 3.7z"/>
				<path id="&lt;Path&gt;" class="s2" d="m709.5 358.2l11.8-13.7-72.2-11.2-50.8 12.9z"/>
				<path id="&lt;Path&gt;" class="s2" d="m120.2 360.7l-120.2-23.7v30.1l31.3 2.7 77.7-3.5z"/>
				<path id="&lt;Path&gt;" class="s2" d="m73.7 344.8l12.9 3.8h24.5z"/>
				<path id="&lt;Path&gt;" class="s2" d="m0 318.6l122.7 8.4 44.4-3-167.1-26.9z"/>
				<path id="&lt;Path&gt;" class="s2" d="m136.3 316.5l48 7.5 57.5-7.5-92.8-2.7z"/>
				<path id="&lt;Path&gt;" class="s2" d="m493.9 312.1l-146.1-14-150.1 7 62.4 9.9 139.9-4.6z"/>
				<path id="&lt;Path&gt;" class="s2" d="m413.2 296.3l57.1 7.2 155.1-10.3z"/>
				<path id="&lt;Path&gt;" class="s2" d="m251 290.2l-17 1.6-44.9 1.5-105.5-1.5z"/>
				<path id="&lt;Path&gt;" class="s2" d="m261.3 290.2l21.6-2.3-10.8 2.3z"/>
				<path id="&lt;Path&gt;" class="s2" d="m537.9 291.8l29.5 3.5 120.2-1.9-25.4-8.4z"/>
				<path id="&lt;Path&gt;" class="s2" d="m692.5 291.8l40-1.6 67.5-1.2v2z"/>
				<path id="&lt;Path&gt;" class="s2" d="m731.1 345.8l-14.7 12.2 50.4-3.4 22.7-16.7z"/>
				<path id="&lt;Path&gt;" class="s2" d="m254.8 376.3l37.9-20.1 138 9.5 103.6 29.3-287.3-8.5z"/>
				<path id="&lt;Path&gt;" class="s2" d="m227 400l20-20.4-14.2-2.7-76.3 23.1z"/>
			</g>
			<g id="&lt;Group&gt;">
				<path id="&lt;Path&gt;" class="s4" d="m0 376.9l112.6-4.4 9.8-3.9h16.7l64.7-19.2 126.3-17.2 259.2 13.1 8.1 2.6 125.5 17 77.1-1.6v-13.7l-33.2 5-56.1 3.7-112.4-12.1-7.6-2.6-259.8-13.9-129.1 15.6-61.4 16.7-20.2-1.3-11.2 5.6-74.2 3.8-34.8-3z"/>
				<path id="&lt;Path&gt;" class="s5" d="m472.7 362.3l-3.1 4 67.5 10.6 179.9 9.4 14.1 4.5 16.4 9.2h28.7l-40.7-10-15.1-8.9-183.5-5.2z"/>
				<path id="&lt;Path&gt;" class="s6" d="m800 326.1l-107.1 3.6-8.6-1.8-83.4-8.8-81.9-2.4 5.4-4.7 77.1 5.4 83.2 8.6 8.8 0.9 106.5-4z"/>
				<path id="&lt;Path&gt;" class="s7" d="m324.4 351.5l-3.4-2.9-77.3 4.7-78.7 30.2-10-2.4-53.3 2.4-76.5 16.5h60.2l15.6-8.3 2-5.2 52.5-0.1 11.1-0.5 77.3-29.2z"/>
				<path id="&lt;Path&gt;" class="s8" d="m0 320.8l128.2 8.9 40.2-4.5h17.7l67.4-6.3 137.7-7 102.7 2.5-4.1-2.5-97.6-1.7-140.7 5.1-67.2 8.7-5.3 0.2-11.9-0.2-45.9 3.1-121.2-8.5z"/>
				<path id="&lt;Path&gt;" class="s9" d="m717 386.3l3.4-5.2-137.4-4.2v2.4z"/>
				<path id="&lt;Path&gt;" class="s9" d="m735.5 390l-0.6 2.9 12.6 7.1h28.7z"/>
				<path id="&lt;Path&gt;" class="s9" d="m243.7 353.3l0.2 3.4 80.5-5.2-3.4-2.9z"/>
				<path id="&lt;Path&gt;" class="s9" d="m165 383.5l1.6 2.4-63.6 0.6-1.3-3 53.3-2.4z"/>
				<path id="&lt;Path&gt;" class="s9" d="m101 391.7l-8.6-6.2-67.2 14.5h60.2z"/>
				<path id="&lt;Path&gt;" class="s9" d="m140.4 362l-1.3 6.6h-16.7l-2.2-7.9z"/>
				<path id="&lt;Path&gt;" class="s9" d="m109 366.3l3.6 6.2-97.1 3.8 19.3-6.2z"/>
				<path id="&lt;Path&gt;" class="s10" d="m330.1 332.2l0.8-2.5 259.8 13.9-1.4 1.7z"/>
				<path id="&lt;Path&gt;" class="s9" d="m598.3 346.2l-0.9 1.7 125.5 17-10.3-6.7z"/>
				<path id="&lt;Path&gt;" class="s10" d="m251 319.1l0.5-3.8 139.5-5.1 0.2 1.7z"/>
			</g>
			<g id="&lt;Group&gt;">
				<path id="&lt;Path&gt;" class="s11" d="m478.4 312.2l58.4-4v-4.9l4.9-1.9-7.4-34.5 33-8.9v-3.8h-13.9v-7.3l13.9-2.4-2-2.6-58.3-34.1-15.3-6.4 16.4-2.6-2.3-4.5-4.4-1.6-34.4-62 105-11.3 13.4 2.9 19.9 45-11.9-37 17.8-6.2 60.8 13.1-9.6 175.3z"/>
				<path id="&lt;Path&gt;" class="s12" d="m585.4 122.3l-47.5 32.5-28.8-3.3-42.1-20.8 105-11.3z"/>
				<path id="&lt;Path&gt;" class="s12" d="m491.7 201.4l32.7 2.3 55.5-23.8-71.8 18.9z"/>
				<path id="&lt;Path&gt;" class="s12" d="m553.4 246.9l18.6 3.4 65.5-11.2-1.1-1.6-69.1 7z"/>
				<path id="&lt;Path&gt;" class="s12" d="m534.3 266.9l31.6 5.3 66.4-18.6-65 4.4z"/>
				<path id="&lt;Path&gt;" class="s12" d="m536.8 303.3l12.1 7.3h21.6l-28.8-9.2z"/>
				<path id="&lt;Path&gt;" class="s12" d="m536.8 308.2l6.3 2.4-47.5 0.4z"/>
				<path id="&lt;Path&gt;" class="s12" d="m570.5 301.4l29.4 0.9-9.2 3.4z"/>
				<path id="&lt;Path&gt;" class="s12" d="m605.3 167.3l-19.9 10.2 46.9-6.7z"/>
				<path id="&lt;Path&gt;" class="s12" d="m593.4 130.3l78.6 6.9-60.8-13.1z"/>
				<path id="&lt;Path&gt;" class="s12" d="m526.4 162.2l28.8-11.5-7.6 8.9z"/>
				<path id="&lt;Path&gt;" class="s12" d="m592.8 275l33.5-15.8 19.2-2.6z"/>
				<path id="&lt;Path&gt;" class="s12" d="m592.8 308.2l16.7-6.8 22.8-0.5-26.5 5.1z"/>
				<path id="&lt;Path&gt;" class="s12" d="m607 309.4l8.8-1.8 1 2z"/>
				<path id="&lt;Path&gt;" class="s12" d="m608.9 279.5l14.6-3.1-7.3 4.9z"/>
				<g id="&lt;Group&gt;" style="opacity: .7;mix-blend-mode: multiply">
					<path id="&lt;Path&gt;" class="s2" d="m579.9 179.9l11.2 62.2h4.4l-10.1-64.6 19.9-10.2-19.9-45-47.5 32.5 1.2 2.3 16.1-6.4-7.6 8.9 7.6 25.8z"/>
					<path id="&lt;Path&gt;" class="s2" d="m572 250.3l1.6 3.3-6.3 0.6v3.8l65-4.4 5.2-14.5z"/>
					<path id="&lt;Path&gt;" class="s2" d="m565.9 272.2l-1.7 36.4 7.4 2h-22.7v1.4l58.1 0.4v-3l8.8-1.8 1 2v2.9h13.9l0.8-11.4-38.7 7.1 8.1-3.3-1-2.6-9.2 3.4-20.2-4.3 20.2 0.6 2.1-27 33.5-15.8-0.5-3.8z"/>
					<path id="&lt;Path&gt;" class="s2" d="m526.4 162.2l5.4 29.8-8.7-31.1z"/>
					<path id="&lt;Path&gt;" class="s2" d="m505.8 194.3h20.4l-18.1 4.5z"/>
				</g>
				<g id="&lt;Group&gt;" style="mix-blend-mode: soft-light">
					<path id="&lt;Path&gt;" class="s13" d="m509.1 151.5l54.7-16.7 5.7-1.6-33.7 21.6z"/>
					<path id="&lt;Path&gt;" class="s13" d="m471.6 130.2l15.6 7 52.1-4 9.6-11.3z"/>
					<path id="&lt;Path&gt;" class="s13" d="m548.9 129.6l4.5-3.5h5.6l-3.8 3.5z"/>
					<path id="&lt;Path&gt;" class="s13" d="m565.8 249.2l5.8-5.3 27.5-1.8-6.3 4.7-20.8 3.5z"/>
					<path id="&lt;Path&gt;" class="s13" d="m608.9 240.3v1.8h10.2l5.8-3.5z"/>
					<path id="&lt;Path&gt;" class="s13" d="m605.3 131.4l4.8-1.9 31.6 0.9 10.9 5.1z"/>
					<path id="&lt;Path&gt;" class="s13" d="m524.4 203.7l16.7-7.2-9.3-4.5-23.7 6.8-16.4 2.6z"/>
					<path id="&lt;Path&gt;" class="s13" d="m543.3 195.6l-1-3.6 4.9-2.5 12.5-0.9z"/>
					<path id="&lt;Path&gt;" class="s13" d="m502.1 137.2l1.7 2 3.7-1 6.4-1.1z"/>
					<path id="&lt;Path&gt;" class="s13" d="m534.3 266.9l19.8-5.4 15.4 0.7-4.6 5.5-7.6-1.2-10.4 2.5z"/>
					<path id="&lt;Path&gt;" class="s13" d="m553.4 270.1l2.3-1.1 6.9 0.6v2.1z"/>
					<path id="&lt;Path&gt;" class="s13" d="m586.3 255.9l-6.4 12.4 21.2-6 6.5-7z"/>
				</g>
			</g>
			<g id="&lt;Group&gt;">
				<path id="&lt;Path&gt;" class="s14" d="m652.6 343.8l-19.7-53.5 32-17.7-3.8-0.1 2.7-7.5-16.4-94.7 11.6-0.9-22.7-5-2.7-15.7 7.1-6.3-25-5.5-21.1-27.6 2.5-3.3-8.1-11.8 109.1-40.1 15.5-40.2 22.3 78 64-32 0.1 0.6 0.6 284.2-32.7 1.2-26.8-1.5-0.2-2.8-39.4 0.1-0.1 3z"/>
				<path id="&lt;Path&gt;" class="s15" d="m741.2 345l-0.2-1.8 12.4-22.4 23.4-8.3-6.1 25.4-2.8 8z"/>
				<path id="&lt;Path&gt;" class="s16" d="m667.1 62.3l8.5 27.6-78.5 16.1-8.1-11.8z"/>
				<path id="&lt;Path&gt;" class="s16" d="m677.8 98.1l3.5 26.6 40.1 19.2 15.7 0.8-121.4-7.8-21.1-27.6z"/>
				<path id="&lt;Path&gt;" class="s16" d="m687.2 146.7l4.1 25.8-55-8.1-2.7-15.7z"/>
				<path id="&lt;Path&gt;" class="s16" d="m663.8 265l6.2 4 45.2 1.3 17.9-78.3-85.7-21.7z"/>
				<path id="&lt;Path&gt;" class="s16" d="m683.4 281.3l-1.3-9.5-9.2-0.4-8 1.2z"/>
				<path id="&lt;Path&gt;" class="s16" d="m688.2 291.4l-12 45.1 8.5 3.6 16.7 4.6-48.8-0.9-19.7-53.5z"/>
				<path id="&lt;Path&gt;" class="s15" d="m698.1 54.1l15.5-40.2-116.4 60.3-8.2 20z"/>
				<path id="&lt;Path&gt;" class="s15" d="m677.8 98.1l20.5-2.8-22.7-5.4-78.5 16.1-2.5 3.3z"/>
				<path id="&lt;Path&gt;" class="s15" d="m640.7 142.4l-7.1 6.3 54.9 6.1 48.6-10.1z"/>
				<path id="&lt;Path&gt;" class="s15" d="m659 169.4l-11.6 0.9 85.7 21.7 27.2-18.9-69-0.6z"/>
				<path id="&lt;Path&gt;" class="s15" d="m663.4 273.4l-30.5 16.9 55.3 1.1 31.7-14-36.2 0.6z"/>
				<path id="&lt;Path&gt;" class="s15" d="m735.9 196.5l12-10.2 12.9-3-12.1 56.7z"/>
				<path id="&lt;Path&gt;" class="s15" d="m690.6 310.3l41-35.1 70.9-22.5-63.3 65.6z"/>
				<path id="&lt;Path&gt;" class="s15" d="m690.9 314.5l23.1 3.3-11.7 1.8z"/>
				<path id="&lt;Path&gt;" class="s15" d="m687.4 294.3l12.4-4.9-9.1 8.6h-4z"/>
				<path id="&lt;Path&gt;" class="s15" d="m720 153.8l32.6-3.1 6.8 2.3-30.8 4.1z"/>
				<path id="&lt;Path&gt;" class="s15" d="m733.1 120.3l51.2 4.7-14.7-13.8z"/>
				<path id="&lt;Path&gt;" class="s15" d="m800.2 148.7l-39.4 34.6 39.4-25.8z"/>
				<path id="&lt;Path&gt;" class="s15" d="m799.9 59.9l-116.4 59.5 84-7.6 32.5-8.3z"/>
				<path id="&lt;Path&gt;" class="s15" d="m701.8 94.9l23.5-5.9-9.9 5.1z"/>
				<path id="&lt;Path&gt;" class="s15" d="m770.7 337.9l6.5-11.9 20.2-5.8-11.1 8.9z"/>
				<path id="&lt;Path&gt;" class="s15" d="m699.6 341.7l16.4-7.1 14.8-1.9-19 7.4z"/>
				<path id="&lt;Path&gt;" class="s15" d="m698.1 337.1l5.2-3.3 5.1 0.1-8 2.9z"/>
				<path id="&lt;Path&gt;" class="s15" d="m749.9 315.1l12.7-15.9 25-12.6 0.1 6.6z"/>
				<path id="&lt;Path&gt;" class="s15" d="m789.4 293.3l11-4.3v-6.6z"/>
				<path id="&lt;Path&gt;" class="s15" d="m773.3 342l11.4-8.1 15.8-6.1v7.7z"/>
				<path id="&lt;Path&gt;" class="s15" d="m791.9 316.5l5.5-3.8 2.2 1.9z"/>
				<path id="&lt;Path&gt;" class="s15" d="m739.4 320.6l9.5-5.6 1.8-0.8-18.6 15.2z"/>
				<path id="&lt;Path&gt;" class="s15" d="m763.1 251.3l6.1-17.1 21.8-39.6-16 57.1z"/>
				<path id="&lt;Path&gt;" class="s15" d="m758.7 253.4l-11.5 2.9-2.6 2.5 10.5-1.5z"/>
				<path id="&lt;Path&gt;" class="s15" d="m655 325.5l20.6-6.1-1.6 3.1-18 8.7z"/>
				<g id="&lt;Group&gt;" style="opacity: .6;mix-blend-mode: multiply">
					<path id="&lt;Path&gt;" class="s2" d="m698.3 95.3v16.6l3.5-2.6-1.7-14.4z"/>
					<path id="&lt;Path&gt;" class="s2" d="m698.1 54.1l5.7 40.1 21.5-5.2-9.9 5.1-0.5 9.3 21-11.5-22.3-78z"/>
					<path id="&lt;Path&gt;" class="s2" d="m784.3 125l-7.2 44.4 23.1-20.7-0.2-45.2-30.4 7.7z"/>
					<path id="&lt;Path&gt;" class="s2" d="m759.4 153l-2.5 19.5 3.4 0.6z"/>
					<path id="&lt;Path&gt;" class="s2" d="m720 153.8l1.3 18.9-4.3-0.2-3.4-21.8 23.5-6-1.2 7.6z"/>
					<path id="&lt;Path&gt;" class="s2" d="m748.7 240l1.1 15.7 8.9-2.3 2.1-70.1z"/>
					<path id="&lt;Path&gt;" class="s2" d="m775 251.7v9.7l6.6-2.1 9.4-64.7z"/>
					<path id="&lt;Path&gt;" class="s2" d="m690.7 298l1.8 10.7 4.8-4.1 2.5-15.2z"/>
					<path id="&lt;Path&gt;" class="s2" d="m739.2 318.3l0.2 2.3 11.3-6.4 11.9-15 25-12.6 0.1 6.6-4.7 31.1 3.2-0.9 3.2-30.1 11-10.9-0.4-27.1z"/>
					<path id="&lt;Path&gt;" class="s2" d="m776.8 312.5l0.4 13.5-6.5 11.9z"/>
					<path id="&lt;Path&gt;" class="s2" d="m786.3 329.1l-0.1 4.2 14.3-5.5-0.5-7.6h-2.6z"/>
					<path id="&lt;Path&gt;" class="s2" d="m773.3 342l-1.1 3.8-4.3 0.1 2.8-8 9.3-5.2 0.3 4.4z"/>
					<path id="&lt;Path&gt;" class="s2" d="m730.8 332.7v9h2.3z"/>
					<path id="&lt;Path&gt;" class="s2" d="m708.4 333.9v3.3l1.9-0.1z"/>
					<path id="&lt;Path&gt;" class="s2" d="m714 317.8l-0.1 17.7 2.1-0.9 0.9-20-21.1-3.5v4z"/>
					<path id="&lt;Path&gt;" class="s2" d="m690.9 314.5v11.9h-4.8l-9.9 10.1 7.2-27.1z"/>
					<path id="&lt;Path&gt;" class="s2" d="m674 322.5l-0.6 16.2 1.6-1.5 0.6-17.8z"/>
					<path id="&lt;Path&gt;" class="s2" d="m711.8 340.1l1 1.6 7.3-4.9z"/>
				</g>
				<path id="&lt;Path&gt;" class="s15" d="m666.2 344l14.4 1.8 14.2-19.4h-8.7z"/>
				<path id="&lt;Path&gt;" class="s17" d="m647.4 170.3l18.4 15.6 8.3-4 8.3 1.4 5.3 5.8 16.1-1.4 13.7 4.3 10.4 4 3.4 4 5.8-9.3 11.2-7.4 12-10.2-27.2 18.9z"/>
				<path id="&lt;Path&gt;" class="s17" d="m633.6 148.7l5.1 2h5.8l17.9 3.2 11.7 7 8.4-3.8h5.2l1.4 1.6 2.2-3.2 5.5-1.6h1.5l5.5-0.8 3.1-2.2-18.4 3.9z"/>
				<path id="&lt;Path&gt;" class="s17" d="m594.6 109.3l83.2-11.2 20.5-2.8-5.9 2.8-4.4-0.3-0.5 0.3-0.3 0.7-6.3 0.3-2.3-0.7-1.2 0.3-16.4 4.7-5.9-1.1-14.7 4.3-17.1 6.1-11.1-2.4-3.5-1h-10.4z"/>
				<path id="&lt;Path&gt;" class="s17" d="m589 94.2l109.1-40.1 9.4-24.4 6.1-15.8-2.8 14.9-2.3 6.6v1.8l-3.1 2.8-1.6 4.7-2 1 0.7 2.7-3.1 15.2-13.9-2.7-5.1 1.4-5.8 7.7-10.4 0.9-8.1 1.3-38.3 12.9z"/>
				<path id="&lt;Path&gt;" class="s17" d="m650.8 290.7l37.4 0.7 31.7-14-10.5 5.7-6 2.4-1.6 1.9-9.3 3-4.6 2.1-1.2 5.5-13.7-4.9-3.5-1.3-2.3 0.9z"/>
				<path id="&lt;Path&gt;" class="s17" d="m733.1 120.3l15.2 6.5 8.6-1.8 10.2 4.3 2.5-2.3 14.7-2z"/>
				<path id="&lt;Path&gt;" class="s18" d="m690.2 57l9.9-8.1-1.6 8.1z"/>
				<path id="&lt;Path&gt;" class="s18" d="m678.7 153.7l16.1-0.7-5.7 5.7z"/>
				<path id="&lt;Path&gt;" class="s18" d="m728.6 190.9l9.6-2.4-6.4 9.2z"/>
				<path id="&lt;Path&gt;" class="s18" d="m726.7 156.4l4.2 0.7-2.3 3.8z"/>
				<path id="&lt;Path&gt;" class="s18" d="m681.4 291.4l11.8-2.4-5.8 5.3z"/>
				<path id="&lt;Path&gt;" class="s18" d="m688.8 298l3.3-1.3-1.2 2.7z"/>
				<path id="&lt;Path&gt;" class="s18" d="m734.9 317.5l8.3-3.3-3.8 6.4z"/>
				<path id="&lt;Path&gt;" class="s18" d="m699.4 318.3l5.5 0.9-2.7 2.6z"/>
				<g id="&lt;Group&gt;" style="mix-blend-mode: soft-light">
					<path id="&lt;Path&gt;" class="s13" d="m716.4 306.5l14.4-25.2 26.1-4.9-19.8 21.7z"/>
					<path id="&lt;Path&gt;" class="s13" d="m723.6 306.5l11.3-5.1h15l-16.5 8z"/>
					<path id="&lt;Path&gt;" class="s13" d="m693.2 289l10.1-11.6-19.6 0.6-24.2 11z"/>
					<path id="&lt;Path&gt;" class="s13" d="m672 275.4l-19.9 14.8-19.2 0.1 30.5-16.9z"/>
					<path id="&lt;Path&gt;" class="s13" d="m702.8 184.3l14.2-11.8h-25.7l-18.2-1.7-5.6 4.6z"/>
					<path id="&lt;Path&gt;" class="s13" d="m709 182.3l8-6.4h9.7l-7.7 5.6z"/>
					<path id="&lt;Path&gt;" class="s13" d="m717.9 188.2l15.5-5.9 2.5 1-10.6 6.8z"/>
					<path id="&lt;Path&gt;" class="s13" d="m659.1 151.5l12.9-8.4-23.6-0.7-8.7 7z"/>
					<path id="&lt;Path&gt;" class="s13" d="m666.5 148.7l14.9-4 9.9 2.3-8.5 3.7z"/>
					<path id="&lt;Path&gt;" class="s13" d="m745.4 87.8l-14.5 23.4 22.2 1.9 14.4-1.3 25.1-48.2z"/>
					<path id="&lt;Path&gt;" class="s13" d="m784.3 89.9l8.3-11.8 7.3-1.3-7.8 11.5z"/>
					<path id="&lt;Path&gt;" class="s13" d="m625.2 80.9l32.1-26.8-1.5-10.3-58.1 30.1-8.7 20.3z"/>
					<path id="&lt;Path&gt;" class="s13" d="m654 62.3l21.6-15.4 24.5-8.2-3.4 8.5z"/>
					<path id="&lt;Path&gt;" class="s13" d="m652.6 64.9l1.4-1.8 11.1-3.2-1 1.5z"/>
					<path id="&lt;Path&gt;" class="s13" d="m635.7 98.1l-5.8 2.6-2.4 1.5 16.6-0.9 9.9-4z"/>
					<path id="&lt;Path&gt;" class="s13" d="m780 259.8l-10.2 13.6-6.7 16.4 6.7-3.2 27.8-32.3z"/>
				</g>
				<g id="&lt;Group&gt;" style="mix-blend-mode: soft-light">
					<path id="&lt;Path&gt;" class="s19" d="m748.3 199l2.6-1.4-2.6 3.8z"/>
					<path id="&lt;Path&gt;" class="s19" d="m725.7 253.6l2.8 3.7 3 0.4z"/>
					<path id="&lt;Path&gt;" class="s19" d="m629.4 87.7l2.8 3.7 3 0.4z"/>
					<path id="&lt;Path&gt;" class="s19" d="m760.1 272.2l-2.1-3.9 2.1 0.5 3.4 2.6z"/>
					<path id="&lt;Path&gt;" class="s19" d="m639.8 303.9l-2.1-1.8 1.3-1.5 4 2.9z"/>
					<path id="&lt;Path&gt;" class="s19" d="m719.6 111l-2.1-1.9 1.2-1.4 4.1 2.8z"/>
					<path id="&lt;Path&gt;" class="s19" d="m641.2 300.6l1.8 0.3v-1.1z"/>
					<path id="&lt;Path&gt;" class="s19" d="m692.3 251.8l5.2-0.6 2-1.7z"/>
					<path id="&lt;Path&gt;" class="s19" d="m690 254.6l2.6-0.5-1.7 1.8z"/>
					<path id="&lt;Path&gt;" class="s19" d="m677.5 299.3l4.5-1-2.8 2.3z"/>
					<path id="&lt;Path&gt;" class="s19" d="m607.9 73.1l4.4-1-2.8 2.3z"/>
					<path id="&lt;Path&gt;" class="s19" d="m788.7 133.1l4.5-1-2.8 2.3z"/>
					<path id="&lt;Path&gt;" class="s19" d="m629.6 133.2l1.8 2.4 2.1 0.7-2.9-3.1z"/>
					<path id="&lt;Path&gt;" class="s19" d="m599.1 92.6l1.6 4.5h1.6l-2.2-3.7z"/>
				</g>
				<path id="&lt;Path&gt;" class="s20" d="m760.3 173.1l4.3 6.8 5.2-3.4 3 9.7-4 17h-2.2l-6.3 15.6 8.9 15.4 9.8 3.1 4 12.2 3.5 4.1 13.5 4.1v-2.4l-1.3 1.5-11.7-4.1-3.5-3.9-4.4-11.8-8.2-2.5-1.6-1.4-6.2-10.8-1.5-5.7 5-13.2 2.7-0.1 1.5-7.1 2.6-10.3-3-8.9-0.8-1.5-3.7 3.2-1.5 0.3z"/>
				<path id="&lt;Path&gt;" class="s18" d="m760.5 218.8l2.1 3.7 0.3-0.3-1.4-5z"/>
				<path id="&lt;Path&gt;" class="s18" d="m786.6 253.4l0.1-0.8 0.4 0.3 1.4 0.5 0.2 0.9z"/>
				<path id="&lt;Path&gt;" class="s20" d="m627.5 58.5l22 7.8-1.5 1-0.1 2.8h6.7l-3.3 9.1-6.8 17.1 4.6 3 2.2 2.4-4.9 31.5v5.6l4 3.6-3.5-3.7-0.2-4.6 4.6-28.6 2.7-4.2-2.3-0.9-2.4-1.9-4.1-2.7 10.8-26.2-5.8 0.2-1.5-0.8-0.4-1.5 1.8-1.4z"/>
				<path id="&lt;Path&gt;" class="s18" d="m651.1 100.4l0.4 1.8-0.2 2.3 2.3-3z"/>
				<path id="&lt;Path&gt;" class="s20" d="m647.4 282.3l13.2 5.4 0.6 2.7 4.1 3.4-2.5 16.4-5 6.9-5.3 2.5-5.8 8 0.5 1.5 4.4-8 0.9-1.3 5.4-2.3 4.4-6.4 0.9-0.6 2.1-16.3 0.4-0.9-3.7-2.4-0.7-3-2.9-2.4z"/>
				<path id="&lt;Path&gt;" class="s18" d="m658.2 285.6l-2.9-0.7-0.2 0.2 4.1 1.8h0.3z"/>
			</g>
			<g id="&lt;Group&gt;">
				<path id="&lt;Path&gt;" class="s21" d="m501.4 363.1l33.2 1.6 47.6-3.4 6.4-26.2h-3.3l1-7.6-39.6-11.4-57.5 27 2.9 7.4 7.6-1.1 0.7 3-4.6 1.9z"/>
				<path id="&lt;Path&gt;" class="s15" d="m489.2 343.1l60.9-2.2 36.2-13.4-39.6-11.4z"/>
				<path id="&lt;Path&gt;" class="s15" d="m495.8 354.3l31.9 4.9 27.8-9.1-55.1 2.3z"/>
				<path id="&lt;Path&gt;" class="s15" d="m588.6 335.1l-26.9 9.3 23.6-9.3z"/>
				<path id="&lt;Path&gt;" class="s22" d="m499.7 349.4l34.6 1.6-33.9 1.4z"/>
				<path id="&lt;Path&gt;" class="s22" d="m527.7 359.2l6.9 5.5 47.6-3.4 6.4-26.2-26.9 9.3 23.6-9.3 1-7.6-35.4 13.7 0.5 9.2z"/>
				<path id="&lt;Path&gt;" class="s23" d="m550.9 341.2l18.6-6.7-16.1-3.3-45.8 6.3-11.8 5.6z"/>
				<path id="&lt;Path&gt;" class="s23" d="m543.1 328.4l3.5-3.1 10-1.9z"/>
				<path id="&lt;Path&gt;" class="s23" d="m527.7 359.2l13.9-4.6h-29.5l-3.8 1.6z"/>
			</g>
			<g id="&lt;Group&gt;">
				<path id="&lt;Path&gt;" class="s24" d="m550.8 366.2l-6-13 39.6-0.9 70.6 9v6.1l-53.6 4.5z"/>
				<path id="&lt;Path&gt;" class="s15" d="m544.8 353.2l53.7 15.7 56.5-7.6-70.6-9z"/>
				<path id="&lt;Path&gt;" class="s22" d="m598.5 368.9l2.9 3 53.6-4.5v-6.1z"/>
				<path id="&lt;Path&gt;" class="s23" d="m598.5 368.9l-26.9-7.9 13.6-4.1 46.3 4.1 6.2 2.6z"/>
				<path id="&lt;Path&gt;" class="s23" d="m571.6 359l-4.2-2.1 4.2-2.3h9.4z"/>
			</g>
			<path id="&lt;Path&gt;" class="s15" d="m14.1 348.6l11.1 7.6h-5.6z"/>
			<g id="&lt;Group&gt;">
				<path id="&lt;Path&gt;" class="s25" d="m0 0.5l155 37.3-2.1 5.1 164-2.1-33.1 57.1-19.8 6-16.7 3.4 1.4 13.6-18.2 42.1 5.6-1.1 14.9 12.3-86.5 114.6-4.2 5.7 14.8 23-18 14.4-9.1 5.1-1.8 2.3 21.5-6.4 21.1 5-60.3 10.8-45.4 10.3-83.1-1z"/>
				<path id="&lt;Path&gt;" class="s15" d="m160.3 294.5l-98 9.1 57.3 24.3 55.5-10.4z"/>
				<path id="&lt;Path&gt;" class="s15" d="m167.7 332.9l-37.2 10.7 58.3-5.7z"/>
				<path id="&lt;Path&gt;" class="s15" d="m113.8 344.1l-15.1 0.4-13.2 1.8 27.3 1.2z"/>
				<path id="&lt;Path&gt;" class="s15" d="m48.3 307.9l28 17.8-3.4 20.9-54.9-33.8z"/>
				<path id="&lt;Path&gt;" class="s15" d="m37.6 328.8l20.2 12.3-11.9 1z"/>
				<path id="&lt;Path&gt;" class="s15" d="m236.1 161.9l-106.4-12.5 121.3 24.8z"/>
				<path id="&lt;Path&gt;" class="s15" d="m248.7 120.9l-55.8 6.4-5-7 59.4-13z"/>
				<path id="&lt;Path&gt;" class="s15" d="m0 239l61.3-2.5 104.7 32.6 8.3 6.6-67.4 8.5-106.9-31.2z"/>
				<path id="&lt;Path&gt;" class="s15" d="m316.9 40.8l-108.1 39.1-123.2-10.6 67.3-26.4z"/>
				<path id="&lt;Path&gt;" class="s15" d="m87.2 74l54.1 9.1 13.7 12.8z"/>
				<path id="&lt;Path&gt;" class="s15" d="m0 329.6l63.4 27.5-30.4-2.7-33-17.9z"/>
				<path id="&lt;Path&gt;" class="s15" d="m9.5 343.7l15.2 9.9-8.9 0.1z"/>
				<path id="&lt;Path&gt;" class="s15" d="m78.6 326.1l20.9 6.6-5.9-4.1z"/>
				<path id="&lt;Path&gt;" class="s15" d="m0 289.4l62.3 14.2-35.8 3-26.5-9z"/>
				<path id="&lt;Path&gt;" class="s15" d="m1.2 305.8l8.8 2.5 5.5 6.5z"/>
				<path id="&lt;Path&gt;" class="s15" d="m83.1 359l-9.3-11.8 8.4-0.9 13.6 10.5z"/>
				<path id="&lt;Path&gt;" class="s15" d="m32.2 326.2l6.8 7.8-16.7-7.1z"/>
				<path id="&lt;Path&gt;" class="s15" d="m0 338.6l9.5 5.1-9.5-2.4z"/>
				<path id="&lt;Path&gt;" class="s15" d="m120.7 184.7l34.3 15.1-17.4-12.8z"/>
				<path id="&lt;Path&gt;" class="s15" d="m0 82.4l55.4-7.5 74.3 74.5-123.9-11.1-4.3-12z"/>
				<path id="&lt;Path&gt;" class="s15" d="m0 142.8l9.7 0.7 23.9 11.8-33.6-4.6z"/>
				<path id="&lt;Path&gt;" class="s15" d="m184.7 118.8l-43.4-7.3v6.9z"/>
				<path id="&lt;Path&gt;" class="s16" d="m208.8 79.9l5.1 30.5 69.9-12.5 33.1-57.1z"/>
				<path id="&lt;Path&gt;" class="s16" d="m192.9 127.3v30.7l37.6 5 18.2-42.1z"/>
				<path id="&lt;Path&gt;" class="s16" d="m106.9 284.2l4.2 14.9 49.2-4.6 14-18.8z"/>
				<path id="&lt;Path&gt;" class="s16" d="m119.6 327.9l-5.8 16.2 16.7-0.5 15.7-4.3 10.9-7.4 18-14.4z"/>
				<path id="&lt;Path&gt;" class="s15" d="m47.7 62.9l28.6 25.3 34.8 8.6-47.7-33.9z"/>
				<path id="&lt;Path&gt;" class="s15" d="m91.4 94l11.1 2.8 8.6 12.6z"/>
				<path id="&lt;Path&gt;" class="s15" d="m155 91.9l53.8 9.8 5.5 5.6-31.4 2.1-33.1-15.4z"/>
				<path id="&lt;Path&gt;" class="s15" d="m57.8 167.8l56 14.7 3.3-3.3-33.5-11.4z"/>
				<path id="&lt;Path&gt;" class="s15" d="m155 37.8l-103.7 14.2-51.3-4.5v-47z"/>
				<g id="&lt;Group&gt;" style="opacity: .6;mix-blend-mode: multiply">
					<path id="&lt;Path&gt;" class="s2" d="m18 312.8l2 25.5-5.9-2.6 1.4-20.9z"/>
					<path id="&lt;Path&gt;" class="s2" d="m73.8 348.6l-5.2 9.8 5.2-11.2z"/>
					<g id="&lt;Group&gt;">
						<path id="&lt;Path&gt;" class="s2" d="m106.9 284.2l-11.1 16.3-35.7 2.6-60.1-13.7v-36.4z"/>
						<path id="&lt;Path&gt;" class="s2" d="m57.8 167.8l3.5 68.7-6.2 0.3z"/>
						<path id="&lt;Path&gt;" class="s2" d="m9.7 143.5l1.4-4.7-5.3-0.5-4.3-12-1.5 16.5z"/>
						<path id="&lt;Path&gt;" class="s2" d="m26.5 306.6l-1.3 5.1-7.2 1.1-2.5 2-5.5-6.5-10-2.5v-8.2z"/>
						<path id="&lt;Path&gt;" class="s2" d="m62.3 303.6l-0.3 12.9 14.3 9.2 17.3 2.9 5.9 4.1 1.5 11.8 12.8-0.4 5.8-16.2z"/>
						<path id="&lt;Path&gt;" class="s2" d="m33 354.4l-0.8 4-7.5-0.1v-4.7l-15.2-9.9-9.5-5.1v-2.1z"/>
						<path id="&lt;Path&gt;" class="s2" d="m15.8 353.7l0.7 4.5-5.8-0.1-1.2-14.4z"/>
						<path id="&lt;Path&gt;" class="s2" d="m39 334v12.7l4.8 1.9 2.1-6.5-8.3-13.3-1.4 2z"/>
						<path id="&lt;Path&gt;" class="s2" d="m85.6 69.3l-1.4 8.4-20.8-14.8-12.1-10.9 103.7-14.2-2.1 5.1z"/>
						<path id="&lt;Path&gt;" class="s2" d="m76.3 88.2v7.7l-20.9-21-9.7 1.3 2-13.3z"/>
						<path id="&lt;Path&gt;" class="s2" d="m152 93.1l-1.1-18.2-10.5-0.9 0.9 9.1z"/>
						<path id="&lt;Path&gt;" class="s2" d="m182.9 109.4l1.8 9.4-43.4-7.3-4.9-21.6 18.6 6z"/>
						<path id="&lt;Path&gt;" class="s2" d="m141.3 118.4l1.7 32.6v-32.2z"/>
						<path id="&lt;Path&gt;" class="s2" d="m91.4 94l-1.5 15.4-2.2-2.1v-15.4l10.9 1.8v2.1z"/>
					</g>
					<path id="&lt;Path&gt;" class="s2" d="m120.7 184.7l-13.8 66 12.7-52.5z"/>
					<path id="&lt;Path&gt;" class="s2" d="m81.4 327l-7.6 20.2 2.5-21.5z"/>
					<path id="&lt;Path&gt;" class="s2" d="m85.5 346.3l1.6 4.1-4.9-4.1z"/>
					<path id="&lt;Path&gt;" class="s2" d="m192.9 127.3v29.5l-5-0.6v-35.9z"/>
				</g>
				<path id="&lt;Path&gt;" class="s17" d="m129.7 149.4l71.6 20.1 12-1.7 3.9 1.7 3.6 4.7 24.2 2.9 6-2.9z"/>
				<path id="&lt;Path&gt;" class="s17" d="m150.9 74.9l50.4 8.7 2.6-4.2 6 7.1 6.3-2.9 4.6-4.2 54.7-21.6 2.8 6.3 9.1 2.1 19.5-17.6h2.3l7.7-7.8-108.1 39.1z"/>
				<path id="&lt;Path&gt;" class="s17" d="m39.1 141.3l32.6 8.1 10.1-0.4 9.6-0.8 14.2 0.8 1.3 6.3h12l10.8-5.9z"/>
				<path id="&lt;Path&gt;" class="s17" d="m33.6 155.3h-33.6v-4.6z"/>
				<path id="&lt;Path&gt;" class="s17" d="m0 253l21.9 16h4.6l4.7-4 3.3 0.4 2.7 1.6 6.3 0.3 4.9 4.4 9.8 2.5h9.5l3.4 1.5 11.4 10.5h13.8l3.5-2 4.1 2h3l5-2h18.4l8.5-4 19.7-2.5-51.6 6.5z"/>
				<path id="&lt;Path&gt;" class="s17" d="m62.3 303.6l4.2 6.6 12.7 7.3 4.4-2.5 1 2.5v1.4l3.3 1.9 3.6-3.3 0.9 1.4h1.2l11.1 4.3 9.1 5.5v8.3l1.9 1.7 14.8-9.9 3.7-0.9v2.2l4-1.7 0.8-2.8 16.7-4.4 1.5 2 7.7-2 10.2-3.7-55.5 10.4z"/>
				<path id="&lt;Path&gt;" class="s17" d="m0 297.6v1.7h1.2l1.4 1.1 2.1-0.7h1.5l11.8 6.1 7.4 1.4 0.3 2.4 5.1-3h1.1l5.6-0.4 11.7-0.4 1.7 1.4 6.8-2 4.6-1.6-35.8 3z"/>
				<path id="&lt;Path&gt;" class="s17" d="m36.9 324.5l3.6 5.6h1.8l0.9 0.7 5.3 1.9 2.5 0.4 5.9 6.1 3.2 0.8 1.3 1.1 0.6 5.5 5.7 3 3.2-2.2 1.3 1.2 0.7-2z"/>
				<path id="&lt;Path&gt;" class="s18" d="m108.4 181.1l7.4-0.6-2.7 4.2z"/>
				<path id="&lt;Path&gt;" class="s18" d="m199.2 79l17.6-2-7.1 8z"/>
				<path id="&lt;Path&gt;" class="s18" d="m179.7 107.9l6.4 1.3-2.7 2.9z"/>
				<path id="&lt;Path&gt;" class="s18" d="m39.7 50.9l13.8 0.8-2.2 2.7z"/>
				<path id="&lt;Path&gt;" class="s18" d="m72.6 85l6.8 4-3.1 1.9z"/>
				<path id="&lt;Path&gt;" class="s18" d="m101 282.4l13.6 0.8-8.8 5z"/>
				<path id="&lt;Path&gt;" class="s18" d="m44.6 340l4.3 1.9-3.8 2.6z"/>
				<path id="&lt;Path&gt;" class="s18" d="m31.7 353.7l3.7 0.9-2.8 1.6z"/>
				<path id="&lt;Path&gt;" class="s18" d="m14.9 352.4l2.5 1.3-1.3 2.1z"/>
				<path id="&lt;Path&gt;" class="s18" d="m2.7 129.7l20.8 10.2-17.7-1.6z"/>
				<g id="&lt;Group&gt;" style="mix-blend-mode: soft-light">
					<path id="&lt;Path&gt;" class="s13" d="m36.9 256.6l64.1 25.8 13.6 0.8 29.8-3.7-65.2-24.6z"/>
					<path id="&lt;Path&gt;" class="s13" d="m83.6 250.7l16 8.2h22.4l-31.2-8.2z"/>
					<path id="&lt;Path&gt;" class="s13" d="m93.8 309.6l5.8 4.7 25.6 5.6-3.2-16.8h-38.4l8.8 6.5z"/>
					<path id="&lt;Path&gt;" class="s13" d="m122 327l-22.5-8.1v-2.4l41.1 6.7 1.7 0.5z"/>
					<path id="&lt;Path&gt;" class="s13" d="m129.7 149.4l-58.2-58.5-49.9 5 12 33.8h5.5l-2.1-8.8 16.5 3.6 7.5 19z"/>
					<path id="&lt;Path&gt;" class="s13" d="m23.5 118.4l-6.7-14-7.5 2.9 9 11.5z"/>
					<path id="&lt;Path&gt;" class="s13" d="m318.5 40.8l-87.8 29.9-79.8-16.3-35.8 5.9 37.8-17.4z"/>
					<path id="&lt;Path&gt;" class="s13" d="m195.2 70.7l-18.7-4-21.5 5.5h29.7z"/>
					<path id="&lt;Path&gt;" class="s13" d="m150.9 38.4l-114.4-17.7-13 8.8 41.4 15.5 48.9-1.6z"/>
					<path id="&lt;Path&gt;" class="s13" d="m45.7 40.8l-45.7-22.6v17.9l27.4 4.7z"/>
					<path id="&lt;Path&gt;" class="s13" d="m148.5 278.9l-47.5-17.4 1.8-1.1 40.3 1.6 22.9 7.1 9.1 6.6z"/>
					<path id="&lt;Path&gt;" class="s13" d="m125.2 303.6l7 7.6h8.4l-11.2-9.1z"/>
					<path id="&lt;Path&gt;" class="s13" d="m18 312.8l35.5 21.8 6.6-3.8-15.5-11.9 3.1-2.4 8.8 5.3 15.9 1.4-24.1-15.3z"/>
					<path id="&lt;Path&gt;" class="s13" d="m62.3 336.5l6.3 2.1v-2.2l-6.6-2.4z"/>
					<path id="&lt;Path&gt;" class="s13" d="m13 335.2l-6.4 1.2 19.9 11.1 19.4 2z"/>
					<path id="&lt;Path&gt;" class="s13" d="m19.6 244.9l13.1 4.2 6.7-2.1-14.5-3.6z"/>
					<path id="&lt;Path&gt;" class="s13" d="m75.7 71.6h-10.8l12.6 12 21.1 4.3z"/>
					<path id="&lt;Path&gt;" class="s13" d="m111.1 62.9l14.5 3.8-13.5 2.8-13.5-3.3z"/>
				</g>
				<g id="&lt;Group&gt;" style="mix-blend-mode: soft-light">
					<path id="&lt;Path&gt;" class="s19" d="m53.5 243.4l4.3 2.8 8.7-1.4z"/>
					<path id="&lt;Path&gt;" class="s19" d="m158.5 236.8l3.7-4.1 12.1-4.9-15.8 14.6z"/>
					<path id="&lt;Path&gt;" class="s19" d="m205.2 192.2l3.4-1.7-3.4 4.9z"/>
					<path id="&lt;Path&gt;" class="s19" d="m141.4 304.8l3.6 4.8 4 0.6z"/>
					<path id="&lt;Path&gt;" class="s19" d="m49.8 46.8l3.7 4.9 3.9 0.6z"/>
					<path id="&lt;Path&gt;" class="s19" d="m169 318.9l-2.6-5.1 2.6 0.6 4.5 3.4z"/>
					<path id="&lt;Path&gt;" class="s19" d="m63.4 329.4l-2.7-2.4 1.6-1.9 5.3 3.7z"/>
					<path id="&lt;Path&gt;" class="s19" d="m216.1 54.8l-2.8-2.4 1.7-1.9 5.3 3.7z"/>
					<path id="&lt;Path&gt;" class="s19" d="m65.3 325.1l2.3 0.4v-1.5z"/>
					<path id="&lt;Path&gt;" class="s19" d="m13 294.5l5.9 3.5h3.4z"/>
					<path id="&lt;Path&gt;" class="s19" d="m8.4 295.6l3.1 1.5-3.1 0.5z"/>
					<path id="&lt;Path&gt;" class="s19" d="m20 342.4l3.7 1.3c-0.8 1.8-3.7-1.3-3.7-1.3z"/>
					<path id="&lt;Path&gt;" class="s19" d="m120.9 338.3l5.8-1.3-3.6 3z"/>
					<path id="&lt;Path&gt;" class="s19" d="m18.7 18l5.8-1.3-3.6 3z"/>
					<path id="&lt;Path&gt;" class="s19" d="m263.5 53.8l5.9-1.2-3.7 3z"/>
					<path id="&lt;Path&gt;" class="s19" d="m50.1 106.3l2.3 3.1 2.7 0.9-3.8-4z"/>
					<path id="&lt;Path&gt;" class="s19" d="m3.4 90.9l2.1 5.9h2l-2.8-4.9z"/>
				</g>
				<path id="&lt;Path&gt;" class="s20" d="m149.8 153.5l13.2 19 2.4 4.6-2.2 22.9 27.2 27.8 2.5 3.2 6.6 11.4 1.4-1.8-7.3-9.6-2.9-3.2-22.5-26.9-1.6-9-0.8-14.8-14.8-23.3 2.3-1.6 16.6-10.3 0.2-4.9 6.1-4.3 11.7-7.4-14 8.1-4.9 3.8 0.7 3.7-1.1 1.5z"/>
				<path id="&lt;Path&gt;" class="s20" d="m262.5 59.9l19.8 15.7 13.2 2.1 1.7-2.8-9.5 0.7-5.2-0.9-18.4-13.8-1.2-1.1 0.6-16.2 5.9-2.2-6.9 2.3z"/>
				<path id="&lt;Path&gt;" class="s20" d="m113.8 344.1l22-4.1 2.2-3.6 21.6-6.8v0.3l-20.5 6.4-1 0.4-2.5 3.6-9.1 2.7-1.3-0.5z"/>
				<path id="&lt;Path&gt;" class="s20" d="m57.8 167.8l-2.7 34.5-7.4 3.8-4.8 9.9-1.5 0.8-28.4 14.9-13 3.5-0.3-0.8 12-2.9 4.3-2.4 24.4-12.1 2.7-2.1 4.6-9.6 5.9-2.6 1.1-1.4z"/>
				<path id="&lt;Path&gt;" class="s18" d="m164.6 196.7l-0.7 2.4 3.5 4.1 0.7-1.1-1.7-6.7z"/>
				<path id="&lt;Path&gt;" class="s18" d="m164.8 193.2v-6.5l1.2-1.6-0.6 7.7z"/>
				<path id="&lt;Path&gt;" class="s20" d="m19.6 293.9l11.6-0.6 7.8-10.9 14.5-13.8v-2.3h37.2l23.1 4.7 15 10.2 8 7.7 8.4 0.5 2.9 6h2.4l-1.8-0.2-1.2-1.3-2.2-4.5-7.3-0.6-2.1-1-6.7-6.4-14.3-10-0.9-0.9-1 0.1-22.3-4.5h-35.3l-2.7-0.4-2 1.6-3.5-0.5-9.8 16-6.2 9.7z"/>
				<path id="&lt;Path&gt;" class="s18" d="m51.7 268l-0.6-0.6 1.5-1.4 0.5 0.3v2.2z"/>
				<path id="&lt;Path&gt;" class="s18" d="m52.8 265.8l0.4 0.3h1.4z"/>
				<path id="&lt;Path&gt;" class="s18" d="m125.7 341.9l1 1 2.8-0.8-0.6-0.8z"/>
			</g>
			<g id="&lt;Group&gt;">
				<path id="&lt;Path&gt;" class="s26" d="m294.6 306.5l-3.4-17.5 6-1.1v-1.7l-2.6-7.6 4.2-2.5v1.2l-14.2-7.6v-10.9l13.8 1.3-22.9-80.3 30.3-12.7-25.5-2.7-2.8-8.4 40.7-3.5 103.6 22.6-29.9 13-6.5 0.2-5 47.1-3.1 0.3-0.5 18.6 23.2 14.7-31.8 22.8h-2.5l-1 6.3 5.5 3-2.2 5.4z"/>
				<path id="&lt;Path&gt;" class="s12" d="m277.5 156l35.9 7.3 108.4 11.8-100.7-25.9z"/>
				<path id="&lt;Path&gt;" class="s12" d="m275.5 179.8l55.1 20.4 42.2 3.5-67-36.6z"/>
				<path id="&lt;Path&gt;" class="s12" d="m284.6 258.8l42.2 11.1-28.4-9.8z"/>
				<path id="&lt;Path&gt;" class="s12" d="m400 269l-64.5-1.1-31.4-16.7 72.7 3.1z"/>
				<path id="&lt;Path&gt;" class="s12" d="m298.8 276.1l45.2 13-6.1 10.6-43.3-21.1z"/>
				<path id="&lt;Path&gt;" class="s12" d="m297.2 287.9l19.7 7.4-16.1 0.1-8.1-6.3z"/>
				<path id="&lt;Path&gt;" class="s12" d="m300 203.7l21.1 10.1h-7.9z"/>
				<path id="&lt;Path&gt;" class="s12" d="m344 299.1l12.4-3.8 13.8 5.8z"/>
				<g id="&lt;Group&gt;" style="opacity: .7;mix-blend-mode: multiply">
					<path id="&lt;Path&gt;" class="s2" d="m330.6 200.2l7.1 52.4-13.3-0.5-3.3-38.3-21.1-10.1 6.7 47.7-2.6-0.2 0.7 11.1-6.4-2.2-22.9-80.3z"/>
					<path id="&lt;Path&gt;" class="s2" d="m277.5 156l2.8 8.4 25.5 2.7 19.1 10.4-11.5-14.2z"/>
					<path id="&lt;Path&gt;" class="s2" d="m335.5 267.9l2.2 19.4-38.9-11.2-14.2-6.4v-10.9l44 11.1-15.7-4.8-2.3-10.4z"/>
					<path id="&lt;Path&gt;" class="s2" d="m337.9 299.7l1.5 6.8h-20.1l-2.4-11.2-10.3-3.9-1.8-7.8z"/>
					<path id="&lt;Path&gt;" class="s2" d="m300.8 295.4l0.7 11.1h-6.9l-3.4-17.5z"/>
					<path id="&lt;Path&gt;" class="s2" d="m365.7 291.8l-20.5-2.1 19.5 8.4z"/>
					<path id="&lt;Path&gt;" class="s2" d="m391.9 188.1l-58.6-15.8 52.1 16z"/>
					<path id="&lt;Path&gt;" class="s2" d="m372.8 203.7l-5.1 34.1 6.5-32.2z"/>
				</g>
				<g id="&lt;Group&gt;" style="mix-blend-mode: soft-light">
					<path id="&lt;Path&gt;" class="s13" d="m335.5 267.9l-18.6-9.8 1.6-4.1 38.2 1.6 28.8 13.4z"/>
					<path id="&lt;Path&gt;" class="s13" d="m362.7 257.5l4.1 1.3h15.4l-8-3.5z"/>
					<path id="&lt;Path&gt;" class="s13" d="m321.1 175.2l-15.4 8.6 2.5 6.7 22.4 9.7 23.2-3.5v-3.8z"/>
					<path id="&lt;Path&gt;" class="s13" d="m342 201.2l1.2-1.2 7.5-1.8 12.9 4.8z"/>
					<path id="&lt;Path&gt;" class="s13" d="m328.3 165l9.4-11.5 36.9 9.5-8.2 6.1z"/>
					<path id="&lt;Path&gt;" class="s13" d="m314.1 156h-34.8l24.8 5.8 17-5z"/>
					<path id="&lt;Path&gt;" class="s13" d="m304.8 277.9l-4.8 2.7 19.3 5.6-5.7 1.1 3 2 17.2-3.2z"/>
					<path id="&lt;Path&gt;" class="s13" d="m328.5 295.1l4.7-4.9 9.3 1.5-4.6 8z"/>
					<path id="&lt;Path&gt;" class="s13" d="m301.2 176.5l2.9-4.2-4.5 1.9-3.4 1z"/>
					<path id="&lt;Path&gt;" class="s13" d="m316.9 160.4l1.5-1.5 5.8 0.8-3.1 2.1z"/>
					<path id="&lt;Path&gt;" class="s13" d="m378.1 264.3l7.4 1.6 2-0.8z"/>
				</g>
			</g>
			<g id="&lt;Group&gt;">
				<path id="&lt;Path&gt;" class="s27" d="m251.1 279.9l35.1 10.1-0.3 6.1-2 1-0.2 2.3 3.2 0.2 1.7 5.4-88.2 1.8-0.9-2.4 4.6-5.2-0.6-5.5z"/>
				<path id="&lt;Path&gt;" class="s12" d="m251.1 279.9l35.1 10.1-40.6 8.3-42.1-4.6z"/>
				<path id="&lt;Path&gt;" class="s12" d="m204.1 299.2l22.9 1.1-27.5 4.1z"/>
				<path id="&lt;Path&gt;" class="s12" d="m286.9 299.6l-14.5 4.7-22.6-3.8 33.9-1.1z"/>
				<path id="&lt;Path&gt;" class="s22" d="m245.6 298.3v7.6l-18.6 0.3v-5.9l-22.9-1.1-0.6-5.5z"/>
				<path id="&lt;Path&gt;" class="s23" d="m223.5 295.4l7.4-5.7 33.3-0.7 0.7 1.8-10.7 5.8-8.6 1.7z"/>
				<path id="&lt;Path&gt;" class="s23" d="m222.4 293.7l2.1-3.5-3.9-0.5-8.9 2.1z"/>
				<path id="&lt;Path&gt;" class="s23" d="m247.9 286.2l1.9-2.6h5.2l-2.5 1.3z"/>
			</g>
			<g id="&lt;Group&gt;">
				<path id="&lt;Path&gt;" class="s28" d="m376.7 308.9l2.1-11.4-2.1-1.8 1.4-13 53.5 0.2 31 10.5 0.2 4.1-3.3 0.5-0.3 4 12 5.9 0.1 2.2z"/>
				<path id="&lt;Path&gt;" class="s12" d="m378.1 282.7l33.9 13.2 50.6-2.5-31-10.5z"/>
				<path id="&lt;Path&gt;" class="s12" d="m459.2 302l-65.9-5.2 37.3 9.4 40.6 1.7z"/>
				<path id="&lt;Path&gt;" class="s22" d="m393.3 296.8v12.3l-16.6-0.2 2.1-11.4-2.1-1.8 35.3 0.2v2.2z"/>
				<path id="&lt;Path&gt;" class="s22" d="m459.5 298l-39.9 0.9 39.6 3.1z"/>
				<path id="&lt;Path&gt;" class="s23" d="m412 282.7v8.2l13.7 3h22.6l-24.3-10.3z"/>
				<path id="&lt;Path&gt;" class="s23" d="m425.2 304.8l3.7-2.8 21.3 0.4 5.5 4.8-25.1-1z"/>
				<path id="&lt;Path&gt;" class="s23" d="m422.7 302l1.3-0.9-4.4-2.2v2.2z"/>
			</g>
			<g id="&lt;Group&gt;" style="mix-blend-mode: soft-light">
				<path id="&lt;Path&gt;" class="s13" d="m720.4 381.1l18.6 5.2 37.2 13.7-40.7-10z"/>
				<path id="&lt;Path&gt;" class="s13" d="m472.7 362.3l61.6 13 48.7 1.6z"/>
				<path id="&lt;Path&gt;" class="s13" d="m104.4 383.5l50.6-2.4 11.4 2.4 79.2-30.9-70.5 17.2z"/>
				<path id="&lt;Path&gt;" class="s13" d="m82.2 387.7l-82.2 12.3h25.2z"/>
				<path id="&lt;Path&gt;" class="s13" d="m120.2 360.7l59-9.2-38.8 10.5z"/>
				<path id="&lt;Path&gt;" class="s13" d="m652.5 351.5l99.2 4.1-39.1 2.6z"/>
				<path id="&lt;Path&gt;" class="s13" d="m598.3 346.2h15.5l15.4 3.4z"/>
				<path id="&lt;Path&gt;" class="s13" d="m184.3 324l63-8.2-63 4.1-17.2 4.1z"/>
				<path id="&lt;Path&gt;" class="s13" d="m330.9 329.7l35.7-3.7 72.9 9.5z"/>
			</g>
			<g id="&lt;Group&gt;" style="opacity: .2;mix-blend-mode: multiply">
				<path id="&lt;Path&gt;" class="s2" d="m268.3 400l38.3-12.3 110.1 3.8 8.5 8.5z"/>
				<path id="&lt;Path&gt;" class="s2" d="m420.3 381.1l9.9 6.6h23.9l-25.5-6.1z"/>
				<path id="&lt;Path&gt;" class="s2" d="m375.2 338.3l8.9 10.1 73.6 1v-6.3z"/>
				<path id="&lt;Path&gt;" class="s2" d="m357.1 338.7l-27 5.1-33.8-7 33.8-4.6 25.3 6.5z"/>
				<path id="&lt;Path&gt;" class="s2" d="m427.4 320.9l9.8 8.8 64.1-1.3-12.1-4.4z"/>
				<path id="&lt;Path&gt;" class="s2" d="m421.8 319.9l4.5 4.1h-6l-3.9-3.1z"/>
				<path id="&lt;Path&gt;" class="s2" d="m251 327h-30.7l-8.6 9.9 41.8-5z"/>
				<path id="&lt;Path&gt;" class="s2" d="m253.5 324l1.5 1.3 4.9-1.9z"/>
				<path id="&lt;Path&gt;" class="s2" d="m218 310.4l16.3-4.2 30.6 2.9z"/>
			</g>
			<path id="&lt;Mesh&gt;" class="s29" d="m186.3 400.2q28.8 0 57.6 0c10.8-31.7 21.3-63.3 31.5-95-18.4 0-37.1 0-55.5 0q-16.8 47.5-33.6 95zm33.6-95c18.4 0 37.1 0 55.5 0 19.4-59.7 38.1-119.4 57.2-179-16.4 0-33.2 0-49.6 0q-31.6 89.5-63.1 179zm63.1-179c16.4 0 33.2 0 49.6 0 13.5-42 27.2-84 41.5-126q-23.3 0-46.7 0-22.2 63-44.4 126zm-39.1 274q11.1 0 22.1 0c10.6-31.7 20.6-63.3 30.5-95-7.1 0-14 0-21.1 0-10.2 31.7-20.7 63.3-31.5 95zm31.5-95c7.1 0 14 0 21.1 0 18.5-59.7 36.2-119.4 55-179q-9.5 0-18.9 0c-19.1 59.6-37.8 119.3-57.2 179zm57.2-179q9.4 0 18.9 0c13.3-42 26.3-84 40.4-126q-8.9 0-17.8 0c-14.3 42-28 84-41.5 126zm-66.6 274q16.3 0 32.7 0c10.3-31.7 19.8-63.3 29.1-95-10.6 0-20.9 0-31.3 0-9.9 31.7-19.9 63.3-30.5 95zm30.5-95c10.4 0 20.7 0 31.3 0 17.4-59.7 33.7-119.4 52.1-179q-14.3 0-28.4 0c-18.8 59.6-36.5 119.3-55 179zm55-179q14.1 0 28.4 0c12.9-42 24.9-84 38.5-126q-13.3 0-26.5 0c-14.1 42-27.1 84-40.4 126zm-52.8 274q44.2 0 88.3 0c8.8-31.7 17-63.3 25-95-28.4 0-55.9 0-84.2 0-9.3 31.7-18.8 63.3-29.1 95zm29.1-95c28.3 0 55.8 0 84.2 0 15.1-59.7 29.4-119.4 45.3-179-25.9 0-51.8 0-77.4 0-18.4 59.6-34.7 119.3-52.1 179zm52.1-179c25.6 0 51.5 0 77.4 0 11.2-42 20.9-84 32.5-126q-35.7 0-71.4 0c-13.6 42-25.6 84-38.5 126zm7.1 274q23.1 0 46.1 0c8.1-31.7 15.6-63.3 23-95-14.9 0-29.2 0-44.1 0-8 31.7-16.2 63.3-25 95zm25-95c14.9 0 29.2 0 44.1 0 13.8-59.7 27-119.4 41.7-179q-20.2 0-40.5 0c-15.9 59.6-30.2 119.3-45.3 179zm45.3-179q20.3 0 40.5 0c10.3-42 18.7-84 29.4-126q-18.7 0-37.4 0c-11.6 42-21.3 84-32.5 126zm-24.2 274q11.1 0 22.2 0c7.6-31.7 14.8-63.3 21.8-95-7.1 0-13.9 0-21 0-7.4 31.7-14.9 63.3-23 95zm23-95c7.1 0 13.9 0 21 0 13.3-59.7 26.2-119.4 40.1-179q-9.7 0-19.4 0c-14.7 59.6-27.9 119.3-41.7 179zm41.7-179q9.7 0 19.4 0c9.8-42 17.9-84 27.9-126q-8.9 0-17.9 0c-10.7 42-19.1 84-29.4 126zm-42.5 274q18.4 0 36.9 0 9.8-47.5 19.7-95c-11.8 0-22.9 0-34.8 0-7 31.7-14.2 63.3-21.8 95zm21.8-95c11.9 0 23 0 34.8 0 12.5-59.7 25-119.4 37.2-179q-15.9 0-31.9 0c-13.9 59.6-26.8 119.3-40.1 179zm40.1-179q16 0 31.9 0c8.7-42 17.2-84 25.9-126q-15 0-29.9 0c-10 42-18.1 84-27.9 126zm-25 274q11 0 22 0 9.3-47.5 18.7-95c-7.1 0-13.9 0-21 0q-9.9 47.5-19.7 95zm19.7-95c7.1 0 13.9 0 21 0q17.6-89.5 35.1-179-9.4 0-18.9 0c-12.2 59.6-24.7 119.3-37.2 179zm37.2-179q9.5 0 18.9 0 12.4-63 24.8-126-8.9 0-17.8 0c-8.7 42-17.2 84-25.9 126z"/>
			<g id="&lt;Group&gt;" style="mix-blend-mode: multiply">
				<path id="&lt;Path&gt;" class="s30" d="m453 200.9l-2.1-5.9 7.7 5.1c0 0 3.1-6.9 9.3-8.6 6.2-1.8 13.9 10.6 13.9 10.6h1.4c0 0-5.6 10.6-15.1 11-9.4 0.4-10-10.3-10-10.3l-7.2 2.2z"/>
				<path id="&lt;Path&gt;" class="s30" d="m464.3 192.2l-0.5-3 4.2-4.4 4.3 7.4z"/>
				<path id="&lt;Path&gt;" class="s30" d="m465.4 211.5l-7.5 5.6 7.8-2.3z"/>
				<path id="&lt;Path&gt;" class="s30" d="m468.2 211.5l-1.2 6.4 1.9-3.5z"/>
			</g>
			<g id="&lt;Group&gt;" style="mix-blend-mode: multiply">
				<path id="&lt;Path&gt;" class="s30" d="m372.9 127.7l2.1-5.8-7.6 5c0 0-3.2-6.9-9.3-8.6-6.2-1.7-13.9 10.7-13.9 10.7h-1.4c0 0 5.5 10.5 15 10.9 9.5 0.4 10-10.2 10-10.2l7.2 2.2z"/>
				<path id="&lt;Path&gt;" class="s30" d="m361.6 119.1l0.6-3-4.3-4.4-4.3 7.4z"/>
				<path id="&lt;Path&gt;" class="s30" d="m360.6 138.3l7.4 5.6-7.7-2.3z"/>
				<path id="&lt;Path&gt;" class="s30" d="m357.7 138.3l1.2 6.5-1.9-3.6z"/>
			</g>
			<g id="&lt;Group&gt;" style="mix-blend-mode: multiply">
				<path id="&lt;Path&gt;" class="s2" d="m415.5 235.1l-0.2-3.3 3.1 3.7c0 0 2.6-3.1 6-3.1 3.4 0 5.5 7.4 5.5 7.4l0.7 0.2c0 0-4.3 4.6-9.2 3.4-4.8-1.1-3.6-6.6-3.6-6.6l-4 0.1z"/>
				<path id="&lt;Path&gt;" class="s2" d="m422.5 232.3l0.1-1.6 2.8-1.6 1.1 4.3z"/>
				<path id="&lt;Path&gt;" class="s2" d="m420.3 242.2l-4.6 1.8 4.3-0.1z"/>
				<path id="&lt;Path&gt;" class="s2" d="m421.7 242.6l-1.5 3.1 1.4-1.5z"/>
			</g>
			<g id="&lt;Group&gt;" style="mix-blend-mode: multiply">
				<path id="&lt;Path&gt;" class="s2" d="m459.4 277.9l-1-1.7 2.7 1.2c0 0 0.6-2.4 2.4-3.3 1.9-0.8 5 2.6 5 2.6l0.4-0.1c0 0-1.1 3.7-4.1 4.3-3 0.7-3.7-2.6-3.7-2.6l-2.2 1.1z"/>
				<path id="&lt;Path&gt;" class="s2" d="m462.4 274.6l-0.3-0.9 1.1-1.7 1.8 2.1z"/>
				<path id="&lt;Path&gt;" class="s2" d="m463.8 280.6l-2 2.2 2.3-1.2z"/>
				<path id="&lt;Path&gt;" class="s2" d="m464.7 280.4v2.1l0.4-1.2z"/>
			</g>
			<g id="&lt;Group&gt;">
				<path id="&lt;Path&gt;" class="s31" d="m428 88.9c0 0 2.8-4.1 7.6-3.1 0 0-2.6 3.8-7.6 3.1z"/>
				<path id="&lt;Path&gt;" class="s31" d="m414.3 66.3c0 0 2.8-4.1 7.6-3.1 0 0-2.6 3.8-7.6 3.1z"/>
				<path id="&lt;Path&gt;" class="s31" d="m425.2 92.8c0 0 3.3-3.6 8-2 0 0-3.2 3.4-8 2z"/>
				<path id="&lt;Path&gt;" class="s31" d="m417.9 85.8c0 0 3.4-3.6 8-2 0 0-3.1 3.4-8 2z"/>
				<path id="&lt;Path&gt;" class="s31" d="m424 98.6c0 0 1.8-4.6 6.7-4.8 0 0-1.7 4.4-6.7 4.8z"/>
				<path id="&lt;Path&gt;" class="s31" d="m446.1 105.3c0 0 3.4-3.7 8-2 0 0-3.1 3.4-8 2z"/>
				<path id="&lt;Path&gt;" class="s31" d="m446.1 80.2c0 0 2.7-4 7.6-3.1 0 0-2.6 3.9-7.6 3.1z"/>
				<path id="&lt;Path&gt;" class="s31" d="m408.7 87c0 0 2.7-4.1 7.6-3.1 0 0-2.6 3.8-7.6 3.1z"/>
				<path id="&lt;Path&gt;" class="s31" d="m417.9 116.2c0 0 2.8-4.1 7.6-3.1 0 0-2.6 3.8-7.6 3.1z"/>
				<path id="&lt;Path&gt;" class="s31" d="m435.5 93.6c0 0 2.8-4.1 7.6-3.1 0 0-2.6 3.8-7.6 3.1z"/>
				<path id="&lt;Path&gt;" class="s31" d="m428.1 80.5c0 0 2.7-4.1 7.6-3.1 0 0-2.6 3.8-7.6 3.1z"/>
				<path id="&lt;Path&gt;" class="s31" d="m415 81.9c0 0 1.7-4.6 6.6-4.9 0 0-1.6 4.4-6.6 4.9z"/>
				<path id="&lt;Path&gt;" class="s31" d="m436.1 105.2c0 0 1.3-4.8 6.1-5.5 0 0-1.2 4.5-6.1 5.5z"/>
				<path id="&lt;Path&gt;" class="s31" d="m451 109.5c0 0 1.2-4.7 6.1-5.4 0 0-1.2 4.4-6.1 5.4z"/>
				<path id="&lt;Path&gt;" class="s31" d="m436.6 84.8c0 0 1.3-1.9 3.6-1.5 0 0-1.2 1.8-3.6 1.5z"/>
				<path id="&lt;Path&gt;" class="s31" d="m442.2 83.9c0 0 2.8-4.1 7.6-3.1 0 0-2.6 3.8-7.6 3.1z"/>
				<path id="&lt;Path&gt;" class="s31" d="m428.5 61.3c0 0 2.8-4.1 7.6-3.1 0 0-2.6 3.8-7.6 3.1z"/>
				<path id="&lt;Path&gt;" class="s31" d="m439.4 87.8c0 0 3.3-3.6 8-2 0 0-3.2 3.4-8 2z"/>
				<path id="&lt;Path&gt;" class="s31" d="m432.1 80.8c0 0 3.4-3.6 8-2 0 0-3.1 3.4-8 2z"/>
				<path id="&lt;Path&gt;" class="s31" d="m438.2 93.6c0 0 1.8-4.6 6.7-4.8 0 0-1.7 4.4-6.7 4.8z"/>
				<path id="&lt;Path&gt;" class="s31" d="m460.3 100.3c0 0 3.3-3.7 8-2 0 0-3.2 3.4-8 2z"/>
				<path id="&lt;Path&gt;" class="s31" d="m422.8 82c0 0 2.8-4.1 7.7-3.1 0 0-2.7 3.8-7.7 3.1z"/>
				<path id="&lt;Path&gt;" class="s31" d="m432.1 111.2c0 0 2.8-4.1 7.6-3.1 0 0-2.6 3.8-7.6 3.1z"/>
				<path id="&lt;Path&gt;" class="s31" d="m449.7 88.6c0 0 2.8-4.1 7.6-3.1 0 0-2.6 3.8-7.6 3.1z"/>
				<path id="&lt;Path&gt;" class="s31" d="m442.3 75.5c0 0 2.7-4.1 7.6-3.1 0 0-2.6 3.8-7.6 3.1z"/>
				<path id="&lt;Path&gt;" class="s31" d="m429.2 76.9c0 0 1.7-4.6 6.6-4.9 0 0-1.6 4.4-6.6 4.9z"/>
				<path id="&lt;Path&gt;" class="s31" d="m450.3 100.2c0 0 1.2-4.8 6.1-5.5 0 0-1.2 4.5-6.1 5.5z"/>
				<path id="&lt;Path&gt;" class="s31" d="m450.8 79.8c0 0 1.3-1.9 3.6-1.5 0 0-1.2 1.8-3.6 1.5z"/>
				<path id="&lt;Path&gt;" class="s31" d="m413.9 89c0 0 4.1-2.7 8.2 0 0 0-3.8 2.6-8.2 0z"/>
				<path id="&lt;Path&gt;" class="s31" d="m468 73.7c0 0 1.7-4.6 6.6-4.8 0 0-1.6 4.3-6.6 4.8z"/>
				<path id="&lt;Path&gt;" class="s31" d="m409.8 62.9c0 0 4.1-2.7 8.2 0 0 0-3.9 2.5-8.2 0z"/>
				<path id="&lt;Path&gt;" class="s31" d="m347.3 76.3c0 0 4.1-2.8 8.2 0 0 0-3.9 2.5-8.2 0z"/>
				<path id="&lt;Path&gt;" class="s31" d="m409.8 91.6c0 0 4.5-2.1 8.2 1.2 0 0-4.2 1.9-8.2-1.2z"/>
				<path id="&lt;Path&gt;" class="s31" d="m405.8 82.3c0 0 4.4-2.1 8.1 1.2 0 0-4.2 2-8.1-1.2z"/>
				<path id="&lt;Path&gt;" class="s31" d="m406.5 96.5c0 0 3.4-3.6 8.1-1.9 0 0-3.2 3.4-8.1 1.9z"/>
				<path id="&lt;Path&gt;" class="s31" d="m424.5 111c0 0 4.4-2.1 8.1 1.2 0 0-4.2 2-8.1-1.2z"/>
				<path id="&lt;Path&gt;" class="s31" d="m426.5 47.5c0 0 4.4-2.1 8.1 1.2 0 0-4.2 2-8.1-1.2z"/>
				<path id="&lt;Path&gt;" class="s31" d="m433.9 87.8c0 0 4.1-2.7 8.2 0 0 0-3.8 2.6-8.2 0z"/>
				<path id="&lt;Path&gt;" class="s31" d="m396.7 79.9c0 0 4.1-2.7 8.3 0 0 0-3.9 2.6-8.3 0z"/>
				<path id="&lt;Path&gt;" class="s31" d="m370.2 106.8c0 0 3.3-3.6 8-2 0 0-3.1 3.4-8 2z"/>
				<path id="&lt;Path&gt;" class="s31" d="m358.2 105.8c0 0 3.3-3.6 7.9-2 0 0-3.1 3.4-7.9 2z"/>
				<path id="&lt;Path&gt;" class="s31" d="m329.3 94.4c0 0 3.3-3.6 7.9-2 0 0-3.1 3.4-7.9 2z"/>
				<path id="&lt;Path&gt;" class="s31" d="m492.9 96.7c0 0 4.1-2.7 8.2 0 0 0-3.9 2.6-8.2 0z"/>
				<path id="&lt;Path&gt;" class="s31" d="m394.2 110.5c0 0 4.1-2.8 8.2 0 0 0-3.8 2.5-8.2 0z"/>
				<path id="&lt;Path&gt;" class="s32" d="m415 133.5c0 0 4.1-2.7 8.2 0 0 0-3.9 2.5-8.2 0z"/>
				<path id="&lt;Path&gt;" class="s32" d="m440.5 176.7c0 0 3.1-3.8 7.9-2.5 0 0-3 3.6-7.9 2.5z"/>
				<path id="&lt;Path&gt;" class="s32" d="m398.4 130.4c0 0 3.5-3.5 8.1-1.6 0 0-3.3 3.2-8.1 1.6z"/>
				<path id="&lt;Path&gt;" class="s32" d="m320.9 130.6c0 0 3.5-3.5 8-1.6 0 0-3.3 3.2-8 1.6z"/>
				<path id="&lt;Path&gt;" class="s32" d="m261 137.5c0 0 2.3-2.3 5.3-1.1 0 0-2.2 2.2-5.3 1.1z"/>
				<path id="&lt;Path&gt;" class="s31" d="m419.1 96.2c0 0 4.1-2.8 8.2 0 0 0-3.9 2.5-8.2 0z"/>
				<path id="&lt;Path&gt;" class="s31" d="m379.6 107.7c0 0 4.1-2.7 8.3 0 0 0-3.9 2.5-8.3 0z"/>
				<path id="&lt;Path&gt;" class="s32" d="m387.8 144c0 0 4.1-2.7 8.3 0 0 0-3.9 2.6-8.3 0z"/>
				<path id="&lt;Path&gt;" class="s31" d="m383.7 87.8c0 0 4.2-2.7 8.3 0 0 0-3.9 2.6-8.3 0z"/>
				<path id="&lt;Path&gt;" class="s31" d="m310.6 115.2c0 0 4.1-2.7 8.2 0 0 0-3.9 2.5-8.2 0z"/>
				<path id="&lt;Path&gt;" class="s31" d="m417.1 81.3c0 0 4.2-2.8 8.3 0 0 0-3.9 2.5-8.3 0z"/>
				<path id="&lt;Path&gt;" class="s31" d="m404.5 77.6c0 0 3.4-3.7 8-2 0 0-3.1 3.4-8 2z"/>
				<path id="&lt;Path&gt;" class="s31" d="m471.3 99.2c0 0 4.1-2.7 8.2 0 0 0-3.8 2.6-8.2 0z"/>
				<path id="&lt;Path&gt;" class="s32" d="m470.3 116c0 0 4.1-2.7 8.2 0 0 0-3.8 2.5-8.2 0z"/>
				<path id="&lt;Path&gt;" class="s32" d="m547.6 108.4c0 0 2-4.5 6.9-4.4 0 0-1.9 4.2-6.9 4.4z"/>
				<path id="&lt;Path&gt;" class="s32" d="m421.6 153.8c0 0 3.1-3.8 7.8-2.5 0 0-2.9 3.6-7.8 2.5z"/>
				<path id="&lt;Path&gt;" class="s32" d="m406.4 142.6c0 0 2.1-1.4 4.2 0 0 0-2 1.2-4.2 0z"/>
				<path id="&lt;Path&gt;" class="s31" d="m415.2 107.2c0 0 3-4 7.8-2.8 0 0-2.8 3.7-7.8 2.8z"/>
				<path id="&lt;Path&gt;" class="s31" d="m427.4 116.8c0 0 2.9-3.9 7.7-2.7 0 0-2.8 3.7-7.7 2.7z"/>
				<path id="&lt;Path&gt;" class="s31" d="m453.4 81.3c0 0 3-4 7.8-2.8 0 0-2.8 3.7-7.8 2.8z"/>
				<path id="&lt;Path&gt;" class="s31" d="m456.4 66.3c0 0 3-4 7.7-2.8 0 0-2.8 3.7-7.7 2.8z"/>
				<path id="&lt;Path&gt;" class="s31" d="m485.3 56.4c0 0 0.2-4.9 4.8-6.7 0 0-0.2 4.6-4.8 6.7z"/>
				<path id="&lt;Path&gt;" class="s31" d="m423.5 88.4c0 0 1.9-1.2 3.8 0 0 0-1.8 1.2-3.8 0z"/>
				<path id="&lt;Path&gt;" class="s31" d="m428.9 89.8c0 0 4.1-2.8 8.3 0 0 0-3.9 2.5-8.3 0z"/>
				<path id="&lt;Path&gt;" class="s31" d="m424.8 63.6c0 0 4.1-2.7 8.2 0 0 0-3.8 2.6-8.2 0z"/>
				<path id="&lt;Path&gt;" class="s31" d="m424.9 92.3c0 0 4.4-2.1 8.1 1.2 0 0-4.2 2-8.1-1.2z"/>
				<path id="&lt;Path&gt;" class="s31" d="m420.8 83.1c0 0 4.5-2.1 8.1 1.2 0 0-4.2 1.9-8.1-1.2z"/>
				<path id="&lt;Path&gt;" class="s31" d="m421.6 97.2c0 0 3.4-3.6 8-1.8 0 0-3.2 3.3-8 1.8z"/>
				<path id="&lt;Path&gt;" class="s31" d="m439.5 111.8c0 0 4.5-2.1 8.1 1.2 0 0-4.2 1.9-8.1-1.2z"/>
				<path id="&lt;Path&gt;" class="s31" d="m448.9 88.6c0 0 4.1-2.7 8.3 0 0 0-3.9 2.5-8.3 0z"/>
				<path id="&lt;Path&gt;" class="s31" d="m411.8 80.7c0 0 4.1-2.8 8.2 0 0 0-3.9 2.5-8.2 0z"/>
				<path id="&lt;Path&gt;" class="s31" d="m409.2 111.2c0 0 4.1-2.7 8.3 0 0 0-3.9 2.6-8.3 0z"/>
				<path id="&lt;Path&gt;" class="s32" d="m423.6 136.6c0 0 3.1-3.9 7.9-2.5 0 0-2.9 3.6-7.9 2.5z"/>
				<path id="&lt;Path&gt;" class="s32" d="m413.4 131.1c0 0 3.5-3.4 8.1-1.6 0 0-3.3 3.3-8.1 1.6z"/>
				<path id="&lt;Path&gt;" class="s31" d="m434.1 96.9c0 0 4.1-2.7 8.2 0 0 0-3.8 2.6-8.2 0z"/>
				<path id="&lt;Path&gt;" class="s32" d="m402.9 144.8c0 0 4.1-2.7 8.2 0 0 0-3.9 2.6-8.2 0z"/>
				<path id="&lt;Path&gt;" class="s31" d="m432.2 82c0 0 4.1-2.7 8.2 0 0 0-3.9 2.6-8.2 0z"/>
				<path id="&lt;Path&gt;" class="s31" d="m419.5 78.3c0 0 3.4-3.6 8-2 0 0-3.1 3.5-8 2z"/>
				<path id="&lt;Path&gt;" class="s32" d="m436.1 150c0 0 3.1-3.9 7.9-2.5 0 0-3 3.6-7.9 2.5z"/>
				<path id="&lt;Path&gt;" class="s32" d="m484.9 152.3c0 0 0.7-4.9 5.5-6.1 0 0-0.7 4.6-5.5 6.1z"/>
				<path id="&lt;Path&gt;" class="s32" d="m457 142c0 0 0.8-4.9 5.5-6.1 0 0-0.7 4.6-5.5 6.1z"/>
				<path id="&lt;Path&gt;" class="s32" d="m450.1 126.1c0 0 0.8-4.9 5.6-6.1 0 0-0.7 4.5-5.6 6.1z"/>
				<path id="&lt;Path&gt;" class="s32" d="m484.9 129.1c0 0 0.7-4.9 5.5-6.1 0 0-0.7 4.6-5.5 6.1z"/>
				<path id="&lt;Path&gt;" class="s32" d="m421.5 143.3c0 0 2-1.4 4.1 0 0 0-2 1.3-4.1 0z"/>
				<path id="&lt;Path&gt;" class="s31" d="m430.2 107.9c0 0 3-3.9 7.8-2.7 0 0-2.8 3.7-7.8 2.7z"/>
				<path id="&lt;Path&gt;" class="s31" d="m442.4 117.6c0 0 2.9-4 7.7-2.8 0 0-2.8 3.7-7.7 2.8z"/>
				<path id="&lt;Path&gt;" class="s31" d="m438.5 89.2c0 0 1.9-1.3 3.8 0 0 0-1.8 1.2-3.8 0z"/>
				<path id="&lt;Path&gt;" class="s31" d="m482.8 63.4c0 0 1.9-1.3 3.9 0 0 0-1.9 1.2-3.9 0z"/>
				<path id="&lt;Path&gt;" class="s31" d="m446 53.8c0 0 1.9-1.2 3.8 0 0 0-1.8 1.2-3.8 0z"/>
				<path id="&lt;Path&gt;" class="s31" d="m445.3 97.3c0 0 1.9-1.2 3.8 0 0 0-1.8 1.2-3.8 0z"/>
				<path id="&lt;Path&gt;" class="s33" d="m447.3 89.3c0 0 1.5-4.7 6.4-5.1 0 0-1.4 4.4-6.4 5.1z"/>
				<path id="&lt;Path&gt;" class="s33" d="m423 108.4c0 0 1.5-4.6 6.4-5.1 0 0-1.5 4.4-6.4 5.1z"/>
				<path id="&lt;Path&gt;" class="s34" d="m425 75.4c0 0 2.8-4 7.6-3.1 0 0-2.6 3.9-7.6 3.1z"/>
				<path id="&lt;Path&gt;" class="s35" d="m447.1 101.2c0 0 0.6-4.9 5.3-6.3 0 0-0.5 4.6-5.3 6.3z"/>
				<path id="&lt;Path&gt;" class="s36" d="m441.9 62.1c0 0 2.1-3.1 5.8-2.4 0 0-2 3-5.8 2.4z"/>
				<path id="&lt;Path&gt;" class="s37" d="m455.9 96.5c0 0 0.7-2.8 3.6-3.4 0 0-0.6 2.7-3.6 3.4z"/>
				<path id="&lt;Path&gt;" class="s34" d="m434.1 67.7c0 0 1.1-1.5 2.9-1.2 0 0-1 1.5-2.9 1.2z"/>
				<path id="&lt;Path&gt;" class="s34" d="m416.5 99.5c0 0 1.1-1.6 2.9-1.2 0 0-1 1.4-2.9 1.2z"/>
				<path id="&lt;Path&gt;" class="s34" d="m435 89.4c0 0 1.1-1.6 3-1.2 0 0-1.1 1.5-3 1.2z"/>
				<path id="&lt;Path&gt;" class="s33" d="m437.1 103.4c0 0 1.6-4.6 6.5-5.1 0 0-1.5 4.4-6.5 5.1z"/>
				<path id="&lt;Path&gt;" class="s34" d="m439.2 70.4c0 0 2.7-4 7.6-3.1 0 0-2.6 3.9-7.6 3.1z"/>
				<path id="&lt;Path&gt;" class="s34" d="m461.3 96.2c0 0 0.6-4.9 5.3-6.3 0 0-0.5 4.6-5.3 6.3z"/>
				<path id="&lt;Path&gt;" class="s34" d="m448.3 62.7c0 0 1.1-1.5 2.9-1.2 0 0-1 1.5-2.9 1.2z"/>
				<path id="&lt;Path&gt;" class="s34" d="m430.7 94.5c0 0 1.1-1.6 2.9-1.2 0 0-1 1.4-2.9 1.2z"/>
				<path id="&lt;Path&gt;" class="s34" d="m449.2 84.4c0 0 1.1-1.6 2.9-1.2 0 0-1 1.5-2.9 1.2z"/>
				<path id="&lt;Path&gt;" class="s33" d="m431.6 96.7c0 0 3.2-3.8 7.9-2.3 0 0-3 3.5-7.9 2.3z"/>
				<path id="&lt;Path&gt;" class="s33" d="m388 120.1c0 0 3.2-3.8 7.9-2.4 0 0-3 3.6-7.9 2.4z"/>
				<path id="&lt;Path&gt;" class="s33" d="m401.8 105.2c0 0 3.2-3.8 7.9-2.3 0 0-3 3.5-7.9 2.3z"/>
				<path id="&lt;Path&gt;" class="s34" d="m416.2 75.4c0 0 4.1-2.7 8.2 0 0 0-3.8 2.6-8.2 0z"/>
				<path id="&lt;Path&gt;" class="s34" d="m468 56.5c0 0 4.1-2.7 8.2 0 0 0-3.8 2.6-8.2 0z"/>
				<path id="&lt;Path&gt;" class="s38" d="m485.4 20.5c0 0 3.8 3.1 2.4 7.9 0 0-3.5-3-2.4-7.9z"/>
				<path id="&lt;Path&gt;" class="s34" d="m426.9 107.6c0 0 2.4-4.3 7.3-3.8 0 0-2.2 4.1-7.3 3.8z"/>
				<path id="&lt;Path&gt;" class="s35" d="m454.7 92.2c0 0 3.1-3.9 7.8-2.5 0 0-2.9 3.6-7.8 2.5z"/>
				<path id="&lt;Path&gt;" class="s34" d="m508 70.8c0 0 3.1-3.9 7.8-2.5 0 0-2.9 3.6-7.8 2.5z"/>
				<path id="&lt;Path&gt;" class="s35" d="m448.9 87.5c0 0 3.1-3.8 7.9-2.5 0 0-3 3.6-7.9 2.5z"/>
				<path id="&lt;Path&gt;" class="s35" d="m471.4 77.8c0 0 1.2-4.8 6.1-5.5 0 0-1.2 4.5-6.1 5.5z"/>
				<path id="&lt;Path&gt;" class="s34" d="m503.8 44.4c0 0 1.3-4.7 6.2-5.4 0 0-1.2 4.5-6.2 5.4z"/>
				<path id="&lt;Path&gt;" class="s36" d="m436.9 69.5c0 0 3.1-2.1 6.3 0 0 0-3 2-6.3 0z"/>
				<path id="&lt;Path&gt;" class="s36" d="m410.5 118c0 0 3.2-2.1 6.4 0 0 0-3 2-6.4 0z"/>
				<path id="&lt;Path&gt;" class="s37" d="m459.6 73.6c0 0 1.7-2.4 4.6-1.8 0 0-1.6 2.2-4.6 1.8z"/>
				<path id="&lt;Path&gt;" class="s37" d="m436.9 106.6c0 0 1.7-2.4 4.5-1.8 0 0-1.6 2.3-4.5 1.8z"/>
				<path id="&lt;Path&gt;" class="s37" d="m461.9 104.7c0 0 1.7-2.4 4.5-1.8 0 0-1.5 2.3-4.5 1.8z"/>
				<path id="&lt;Path&gt;" class="s37" d="m406.2 147.1c0 0 1.7-2.4 4.6-1.8 0 0-1.6 2.2-4.6 1.8z"/>
				<path id="&lt;Path&gt;" class="s39" d="m479.4 67.9c0 0 0.4-2.1 2.5-2.6 0 0-0.3 2-2.5 2.6z"/>
				<path id="&lt;Path&gt;" class="s39" d="m490.2 35.6c0 0-1.3-1.8-0.3-3.7 0 0 1.3 1.7 0.3 3.7z"/>
				<path id="&lt;Path&gt;" class="s34" d="m427.6 71.7c0 0 1.6-1 3.1 0 0 0-1.4 1-3.1 0z"/>
				<path id="&lt;Path&gt;" class="s34" d="m386.3 74.2c0 0 1.6-1 3.1 0 0 0-1.5 1-3.1 0z"/>
				<path id="&lt;Path&gt;" class="s34" d="m399.3 94.4c0 0 1.5-1 3.1 0 0 0-1.5 1-3.1 0z"/>
				<path id="&lt;Path&gt;" class="s34" d="m420.2 92.1c0 0 1.6-1 3.2 0 0 0-1.5 1-3.2 0z"/>
				<path id="&lt;Path&gt;" class="s34" d="m434 126c0 0 1.6-1 3.1 0 0 0-1.4 1-3.1 0z"/>
				<path id="&lt;Path&gt;" class="s34" d="m433 46.9c0 0 1.6-1.1 3.2 0 0 0-1.5 0.9-3.2 0z"/>
				<path id="&lt;Path&gt;" class="s40" d="m479.6 53.3c0 0-0.5-5 3.9-7.3 0 0 0.4 4.7-3.9 7.3z"/>
				<path id="&lt;Path&gt;" class="s40" d="m482.4 41.8c0 0-3.5-3.4-1.8-8 0 0 3.4 3.2 1.8 8z"/>
				<path id="&lt;Path&gt;" class="s33" d="m446.7 97.4c0 0 3.1-3.7 7.8-2.3 0 0-3 3.6-7.8 2.3z"/>
				<path id="&lt;Path&gt;" class="s33" d="m403 120.8c0 0 3.2-3.8 7.9-2.3 0 0-3 3.5-7.9 2.3z"/>
				<path id="&lt;Path&gt;" class="s33" d="m416.9 105.9c0 0 3.1-3.7 7.8-2.3 0 0-3 3.6-7.8 2.3z"/>
				<path id="&lt;Path&gt;" class="s34" d="m431.2 76.2c0 0 4.1-2.8 8.3 0 0 0-3.9 2.5-8.3 0z"/>
				<path id="&lt;Path&gt;" class="s34" d="m441.9 108.4c0 0 2.4-4.3 7.3-3.8 0 0-2.2 4-7.3 3.8z"/>
				<path id="&lt;Path&gt;" class="s36" d="m451.9 70.2c0 0 3.2-2.1 6.3 0 0 0-2.9 2-6.3 0z"/>
				<path id="&lt;Path&gt;" class="s36" d="m425.6 118.7c0 0 3.1-2.1 6.3 0 0 0-3 2-6.3 0z"/>
				<path id="&lt;Path&gt;" class="s37" d="m451.9 107.4c0 0 1.7-2.4 4.5-1.8 0 0-1.5 2.2-4.5 1.8z"/>
				<path id="&lt;Path&gt;" class="s37" d="m421.3 147.8c0 0 1.6-2.4 4.5-1.8 0 0-1.6 2.3-4.5 1.8z"/>
				<path id="&lt;Path&gt;" class="s34" d="m442.6 72.5c0 0 1.6-1.1 3.2 0 0 0-1.5 1-3.2 0z"/>
				<path id="&lt;Path&gt;" class="s34" d="m414.3 95.2c0 0 1.6-1.1 3.2 0 0 0-1.5 1-3.2 0z"/>
				<path id="&lt;Path&gt;" class="s34" d="m435.2 92.9c0 0 1.6-1.1 3.2 0 0 0-1.5 1-3.2 0z"/>
				<path id="&lt;Path&gt;" class="s34" d="m449 126.8c0 0 1.6-1.1 3.2 0 0 0-1.5 1-3.2 0z"/>
				<path id="&lt;Path&gt;" class="s40" d="m462.6 80.1c0 0 1.3-1.8 3.6-1.3 0 0-1.3 1.7-3.6 1.3z"/>
				<path id="&lt;Path&gt;" class="s40" d="m471.5 53c0 0-0.6-2.2 1.3-3.6 0 0 0.5 2.1-1.3 3.6z"/>
				<path id="&lt;Path&gt;" class="s41" d="m457.3 86.1c0 0 2.2-3.1 5.9-2.3 0 0-2 2.9-5.9 2.3z"/>
				<path id="&lt;Path&gt;" class="s41" d="m466.8 80.5c0 0 0.4-2.2 2.5-2.7 0 0-0.3 2-2.5 2.7z"/>
				<path id="&lt;Path&gt;" class="s41" d="m478.6 75.8c0 0-1-3.7 1.9-6.1 0 0 1 3.4-1.9 6.1z"/>
				<path id="&lt;Path&gt;" class="s42" d="m422.2 40.8c0 0 3.2-2.1 6.3 0 0 0-2.9 2-6.3 0z"/>
				<path id="&lt;Path&gt;" class="s42" d="m446.9 57.2c0 0 3.7-0.9 5.9 2.2 0 0-3.4 0.8-5.9-2.2z"/>
				<path id="&lt;Path&gt;" class="s42" d="m458 46.9c0 0 3.2-2.1 6.4-0.1 0 0-3 2-6.4 0.1z"/>
				<path id="&lt;Path&gt;" class="s42" d="m484.7 75.2c0 0 2.2-3.1 5.9-2.3 0 0-2 2.9-5.9 2.3z"/>
				<path id="&lt;Path&gt;" class="s42" d="m485.2 53.3c0 0-2-3.3 0.3-6.4 0 0 1.8 3.1-0.3 6.4z"/>
				<path id="&lt;Path&gt;" class="s42" d="m489.6 62.8c0 0-2.4-2.9-0.6-6.3 0 0 2.2 2.8 0.6 6.3z"/>
				<path id="&lt;Path&gt;" class="s42" d="m475.9 66.1c0 0-0.2-3.8 3.2-5.4 0 0 0.2 3.5-3.2 5.4z"/>
				<path id="&lt;Path&gt;" class="s42" d="m481.8 70.9c0 0-1.3-3.6 1.4-6.2 0 0 1.3 3.3-1.4 6.2z"/>
				<path id="&lt;Path&gt;" class="s42" d="m462 88c0 0 0.3-2.2 2.4-2.7 0 0-0.3 2-2.4 2.7z"/>
				<path id="&lt;Path&gt;" class="s42" d="m499.8 58.4c0 0 0.4-2.1 2.5-2.7 0 0-0.3 2.1-2.5 2.7z"/>
				<path id="&lt;Path&gt;" class="s42" d="m469.8 66.6c0 0-0.7-2.1 1-3.5 0 0 0.6 1.9-1 3.5z"/>
				<path id="&lt;Path&gt;" class="s42" d="m481.7 62.6c0 0-1.1-3.6 1.9-6.1 0 0 1 3.5-1.9 6.1z"/>
				<path id="&lt;Path&gt;" class="s42" d="m507.1 35c0 0-1.1-3.7 1.8-6.1 0 0 1 3.4-1.8 6.1z"/>
				<path id="&lt;Path&gt;" class="s42" d="m449.9 97.3c0 0 2.2-3.1 5.9-2.3 0 0-2.1 2.9-5.9 2.3z"/>
				<path id="&lt;Path&gt;" class="s42" d="m476.4 85.3c0 0 2.7-2.6 6.2-1.1 0 0-2.5 2.5-6.2 1.1z"/>
				<path id="&lt;Path&gt;" class="s42" d="m421 52.2c0 0 1.9-3.3 5.7-2.8 0 0-1.8 3-5.7 2.8z"/>
				<path id="&lt;Path&gt;" class="s42" d="m450.4 55.9c0 0 2.9-2.4 6.3-0.7 0 0-2.8 2.3-6.3 0.7z"/>
				<path id="&lt;Path&gt;" class="s42" d="m455.8 41.8c0 0 1.9-3.3 5.6-2.9 0 0-1.7 3.1-5.6 2.9z"/>
				<path id="&lt;Path&gt;" class="s42" d="m492.3 55.3c0 0 0.5-3.7 4.2-4.7 0 0-0.5 3.6-4.2 4.7z"/>
				<path id="&lt;Path&gt;" class="s42" d="m480.3 51.1c0 0-1.8-3.3 0.5-6.3 0 0 1.8 3.1-0.5 6.3z"/>
				<path id="&lt;Path&gt;" class="s42" d="m477.5 76.8c0 0-0.7-2.1 1-3.5 0 0 0.6 2-1 3.5z"/>
				<path id="&lt;Path&gt;" class="s42" d="m479.4 15.4c0 0-2-0.9-1.9-3.1 0 0 1.9 0.9 1.9 3.1z"/>
				<path id="&lt;Path&gt;" class="s42" d="m462 99.9c0 0 0.3-2.1 2.4-2.7 0 0-0.3 2.1-2.4 2.7z"/>
				<path id="&lt;Path&gt;" class="s42" d="m498.4 33.6c0 0-0.7-2.1 1-3.5 0 0 0.6 2-1 3.5z"/>
				<path id="&lt;Path&gt;" class="s42" d="m475.1 54.2c0 0-1.5-1.6-0.7-3.6 0 0 1.4 1.5 0.7 3.6z"/>
				<path id="&lt;Path&gt;" class="s42" d="m484 45.3c0 0-2.6-2.7-1-6.2 0 0 2.4 2.6 1 6.2z"/>
				<path id="&lt;Path&gt;" class="s42" d="m476.8 28c0 0-3.3-1.7-3-5.5 0 0 3.2 1.6 3 5.5z"/>
				<path id="&lt;Path&gt;" class="s42" d="m494.5 9.4c0 0-2.6-2.8-1-6.3 0 0 2.4 2.6 1 6.3z"/>
				<path id="&lt;Path&gt;" class="s42" d="m470.8 90.6c0 0 0.6-3.8 4.3-4.7 0 0-0.6 3.5-4.3 4.7z"/>
				<path id="&lt;Path&gt;" class="s42" d="m489.3 68.1c0 0 1.3-3.6 5.1-3.8 0 0-1.3 3.4-5.1 3.8z"/>
			</g>
			<g id="&lt;Group&gt;">
				<path id="&lt;Path&gt;" class="s43" d="m309.7 120.5c0 0.8-0.6 1.4-1.4 1.4-0.8 0-1.5-0.6-1.5-1.4 0-0.8 0.7-1.5 1.5-1.5 0.8 0 1.4 0.7 1.4 1.5z"/>
				<path id="&lt;Path&gt;" class="s43" d="m411 214.5c0 0.8-0.7 1.4-1.4 1.4-0.8 0-1.5-0.6-1.5-1.4 0-0.8 0.7-1.5 1.5-1.5 0.7 0 1.4 0.7 1.4 1.5z"/>
				<path id="&lt;Path&gt;" class="s43" d="m578.7 224.8c0 0.8-0.6 1.5-1.4 1.5-0.8 0-1.5-0.7-1.5-1.5 0-0.8 0.7-1.4 1.5-1.4 0.8 0 1.4 0.6 1.4 1.4z"/>
				<path id="&lt;Path&gt;" class="s43" d="m575.7 231c0 0.8-0.7 1.4-1.5 1.4-0.8 0-1.4-0.6-1.4-1.4 0-0.8 0.6-1.4 1.4-1.4 0.8 0 1.5 0.6 1.5 1.4z"/>
				<path id="&lt;Path&gt;" class="s43" d="m311.9 135.6c0 0.8-0.6 1.4-1.4 1.4-0.8 0-1.4-0.6-1.4-1.4 0-0.8 0.6-1.4 1.4-1.4 0.8 0 1.4 0.6 1.4 1.4z"/>
				<path id="&lt;Path&gt;" class="s43" d="m253.7 250.3c0 0.8-0.6 1.5-1.4 1.5-0.8 0-1.4-0.7-1.4-1.5 0-0.7 0.6-1.4 1.4-1.4 0.8 0 1.4 0.7 1.4 1.4z"/>
				<path id="&lt;Path&gt;" class="s43" d="m405.6 218.9c0 0.8-0.6 1.4-1.4 1.4-0.8 0-1.5-0.6-1.5-1.4 0-0.8 0.7-1.5 1.5-1.5 0.8 0 1.4 0.7 1.4 1.5z"/>
				<path id="&lt;Path&gt;" class="s43" d="m411 233.8c0 0.8-0.7 1.4-1.4 1.4-0.8 0-1.5-0.6-1.5-1.4 0-0.8 0.7-1.5 1.5-1.5 0.7 0 1.4 0.7 1.4 1.5z"/>
				<path id="&lt;Path&gt;" class="s43" d="m286.4 151.9c0 0.8-0.7 1.4-1.5 1.4-0.8 0-1.4-0.6-1.4-1.4 0-0.8 0.6-1.5 1.4-1.5 0.8 0 1.5 0.7 1.5 1.5z"/>
				<path id="&lt;Path&gt;" class="s43" d="m556.6 75.8c0 0.8-0.6 1.4-1.4 1.4-0.8 0-1.4-0.6-1.4-1.4 0-0.8 0.6-1.4 1.4-1.4 0.8 0 1.4 0.6 1.4 1.4z"/>
				<path id="&lt;Path&gt;" class="s43" d="m572.5 64.8c0 0.8-0.7 1.5-1.5 1.5-0.8 0-1.4-0.7-1.4-1.5 0-0.8 0.6-1.4 1.4-1.4 0.8 0 1.5 0.6 1.5 1.4z"/>
				<path id="&lt;Path&gt;" class="s43" d="m565.9 65.6c0 0.8-0.6 1.4-1.4 1.4-0.8 0-1.4-0.6-1.4-1.4 0-0.8 0.6-1.4 1.4-1.4 0.8 0 1.4 0.6 1.4 1.4z"/>
				<path id="&lt;Path&gt;" class="s43" d="m307.4 133.1c0 0.6-0.5 1-1 1-0.6 0-1-0.4-1-1 0-0.5 0.4-1 1-1 0.5 0 1 0.5 1 1z"/>
				<path id="&lt;Path&gt;" class="s43" d="m254.7 246.2c0 0.6-0.4 1-1 1-0.5 0-1-0.4-1-1 0-0.5 0.5-1 1-1 0.6 0 1 0.5 1 1z"/>
				<path id="&lt;Path&gt;" class="s43" d="m256.4 274.6c0 0.5-0.5 1-1 1-0.6 0-1-0.5-1-1 0-0.6 0.4-1 1-1 0.5 0 1 0.4 1 1z"/>
				<path id="&lt;Path&gt;" class="s43" d="m336.3 77.2c0 0.6-0.4 1-0.9 1-0.6 0-1-0.4-1-1 0-0.5 0.4-1 1-1 0.5 0 0.9 0.5 0.9 1z"/>
				<path id="&lt;Path&gt;" class="s43" d="m544.5 81.8c0 0.6-0.4 1-0.9 1-0.6 0-1-0.4-1-1 0-0.5 0.4-0.9 1-0.9 0.5 0 0.9 0.4 0.9 0.9z"/>
				<path id="&lt;Path&gt;" class="s43" d="m577.9 71.1c0 0.5-0.5 1-1 1-0.6 0-1-0.5-1-1 0-0.5 0.4-1 1-1 0.5 0 1 0.5 1 1z"/>
				<path id="&lt;Path&gt;" class="s43" d="m574.2 21.5c0 0.5-0.4 1-1 1-0.5 0-0.9-0.5-0.9-1 0-0.6 0.4-1 0.9-1 0.6 0 1 0.4 1 1z"/>
				<path id="&lt;Path&gt;" class="s43" d="m565.5 77.5c0 0.6-0.5 1-1 1-0.6 0-1-0.4-1-1 0-0.5 0.4-0.9 1-0.9 0.5 0 1 0.4 1 0.9z"/>
				<path id="&lt;Path&gt;" class="s43" d="m562.9 67.6c0 0.5-0.4 0.9-0.9 0.9-0.6 0-1-0.4-1-0.9 0-0.6 0.4-1 1-1 0.5 0 0.9 0.4 0.9 1z"/>
				<path id="&lt;Path&gt;" class="s43" d="m564.5 59.2c0 0.6-0.5 1-1 1-0.5 0-1-0.4-1-1 0-0.5 0.5-1 1-1 0.5 0 1 0.5 1 1z"/>
				<path id="&lt;Path&gt;" class="s43" d="m567.6 28.3c0 0.5-0.5 0.9-1 0.9-0.6 0-1-0.4-1-0.9 0-0.6 0.4-1 1-1 0.5 0 1 0.4 1 1z"/>
				<path id="&lt;Path&gt;" class="s43" d="m328.6 57.3c0 0.5-0.4 1-1 1-0.5 0-1-0.5-1-1 0-0.6 0.5-1 1-1 0.6 0 1 0.4 1 1z"/>
				<path id="&lt;Path&gt;" class="s43" d="m557.7 28.3c0 0.5-0.5 0.9-1 0.9-0.6 0-1-0.4-1-0.9 0-0.6 0.4-1 1-1 0.5 0 1 0.4 1 1z"/>
				<path id="&lt;Path&gt;" class="s43" d="m335.4 58.9c0 0.3-0.3 0.6-0.6 0.6-0.4 0-0.7-0.3-0.7-0.6 0-0.4 0.3-0.7 0.7-0.7 0.3 0 0.6 0.3 0.6 0.7z"/>
				<path id="&lt;Path&gt;" class="s43" d="m404.8 224.6c0 0.3-0.3 0.6-0.6 0.6-0.4 0-0.7-0.3-0.7-0.6 0-0.4 0.3-0.7 0.7-0.7 0.3 0 0.6 0.3 0.6 0.7z"/>
				<path id="&lt;Path&gt;" class="s43" d="m248.5 237.5c0 0.3-0.3 0.6-0.6 0.6-0.4 0-0.6-0.3-0.6-0.6 0-0.4 0.2-0.7 0.6-0.7 0.3 0 0.6 0.3 0.6 0.7z"/>
				<path id="&lt;Path&gt;" class="s43" d="m252.5 264.3c0 0.4-0.3 0.7-0.6 0.7-0.4 0-0.7-0.3-0.7-0.7 0-0.3 0.3-0.6 0.7-0.6 0.3 0 0.6 0.3 0.6 0.6z"/>
				<path id="&lt;Path&gt;" class="s43" d="m255.4 254c0 0.4-0.3 0.7-0.7 0.7-0.3 0-0.6-0.3-0.6-0.7 0-0.3 0.3-0.6 0.6-0.6 0.4 0 0.7 0.3 0.7 0.6z"/>
				<path id="&lt;Path&gt;" class="s43" d="m332.7 37.9c0 0.3-0.3 0.6-0.7 0.6-0.3 0-0.6-0.3-0.6-0.6 0-0.4 0.3-0.6 0.6-0.6 0.4 0 0.7 0.2 0.7 0.6z"/>
				<path id="&lt;Path&gt;" class="s43" d="m409.1 262.9c0 0.4-0.3 0.6-0.6 0.6-0.4 0-0.6-0.2-0.6-0.6 0-0.3 0.2-0.6 0.6-0.6 0.3 0 0.6 0.3 0.6 0.6z"/>
				<path id="&lt;Path&gt;" class="s43" d="m265.6 208.8c0 0.3-0.3 0.6-0.7 0.6-0.3 0-0.6-0.3-0.6-0.6 0-0.4 0.3-0.7 0.6-0.7 0.4 0 0.7 0.3 0.7 0.7z"/>
				<path id="&lt;Path&gt;" class="s43" d="m255.4 191.3c0 0.4-0.3 0.6-0.7 0.6-0.3 0-0.6-0.2-0.6-0.6 0-0.3 0.3-0.6 0.6-0.6 0.4 0 0.7 0.3 0.7 0.6z"/>
				<path id="&lt;Path&gt;" class="s43" d="m602.6 326.3c0 0.8-0.6 1.5-1.4 1.5-0.8 0-1.5-0.7-1.5-1.5 0-0.8 0.7-1.4 1.5-1.4 0.8 0 1.4 0.6 1.4 1.4z"/>
				<path id="&lt;Path&gt;" class="s43" d="m603.6 322.2c0 0.5-0.4 1-1 1-0.5 0-1-0.5-1-1 0-0.6 0.5-1 1-1 0.6 0 1 0.4 1 1z"/>
				<path id="&lt;Path&gt;" class="s43" d="m605.2 350.5c0 0.6-0.4 1-1 1-0.5 0-0.9-0.4-0.9-1 0-0.5 0.4-0.9 0.9-0.9 0.6 0 1 0.4 1 0.9z"/>
				<path id="&lt;Path&gt;" class="s43" d="m597.4 313.4c0 0.4-0.3 0.7-0.6 0.7-0.4 0-0.7-0.3-0.7-0.7 0-0.3 0.3-0.6 0.7-0.6 0.3 0 0.6 0.3 0.6 0.6z"/>
				<path id="&lt;Path&gt;" class="s43" d="m601.4 340.3c0 0.4-0.3 0.7-0.7 0.7-0.3 0-0.6-0.3-0.6-0.7 0-0.3 0.3-0.6 0.6-0.6 0.4 0 0.7 0.3 0.7 0.6z"/>
				<path id="&lt;Path&gt;" class="s43" d="m604.2 330c0 0.4-0.2 0.7-0.6 0.7-0.3 0-0.6-0.3-0.6-0.7 0-0.3 0.3-0.6 0.6-0.6 0.4 0 0.6 0.3 0.6 0.6z"/>
				<path id="&lt;Path&gt;" class="s43" d="m614.5 284.7c0 0.4-0.3 0.7-0.7 0.7-0.3 0-0.6-0.3-0.6-0.7 0-0.3 0.3-0.6 0.6-0.6 0.4 0 0.7 0.3 0.7 0.6z"/>
				<path id="&lt;Path&gt;" class="s43" d="m604.2 267.3c0 0.3-0.2 0.6-0.6 0.6-0.3 0-0.6-0.3-0.6-0.6 0-0.4 0.3-0.7 0.6-0.7 0.4 0 0.6 0.3 0.6 0.7z"/>
				<path id="&lt;Path&gt;" class="s43" d="m405.2 172.7c0 0.4-0.3 0.7-0.7 0.7-0.3 0-0.6-0.3-0.6-0.7 0-0.3 0.3-0.6 0.6-0.6 0.4 0 0.7 0.3 0.7 0.6z"/>
				<path id="&lt;Path&gt;" class="s43" d="m288.2 135.8c0 0.7-0.5 1.2-1.2 1.2-0.7 0-1.2-0.5-1.2-1.2 0-0.7 0.5-1.2 1.2-1.2 0.7 0 1.2 0.5 1.2 1.2z"/>
			</g>
			<g id="&lt;Group&gt;">
				<g id="&lt;Group&gt;">
					<path id="&lt;Path&gt;" class="s44" d="m391.1 46.8c0 2.7-2.2 4.8-4.8 4.8-2.7 0-4.8-2.1-4.8-4.8 0-2.6 2.1-4.8 4.8-4.8 2.6 0 4.8 2.2 4.8 4.8z"/>
					<path id="&lt;Path&gt;" class="s45" d="m391.1 46.8c0 2.7-2.2 4.8-4.8 4.8-2.7 0-4.8-2.1-4.8-4.8 0-2.6 2.1-4.8 4.8-4.8 2.6 0 4.8 2.2 4.8 4.8z"/>
					<path id="&lt;Path&gt;" class="s46" d="m388 43.2l-0.3 1.2 1.8 1.1 0.6-1c0 0-0.6-1.1-2.1-1.3z"/>
					<path id="&lt;Path&gt;" class="s47" d="m383.5 50.5l0.6-0.4c0 0 0.9 0.6 1.9 0.8l-0.1 0.6c0 0-1.4-0.1-2.4-1z"/>
				</g>
				<g id="&lt;Group&gt;">
					<path id="&lt;Path&gt;" class="s48" d="m406.7 70.4c0 1.4-1.2 2.6-2.7 2.6-1.4 0-2.6-1.2-2.6-2.6 0-1.5 1.2-2.7 2.6-2.7 1.5 0 2.7 1.2 2.7 2.7z"/>
					<path id="&lt;Path&gt;" class="s49" d="m406.7 70.4c0 1.4-1.2 2.6-2.7 2.6-1.4 0-2.6-1.2-2.6-2.6 0-1.5 1.2-2.7 2.6-2.7 1.5 0 2.7 1.2 2.7 2.7z"/>
					<path id="&lt;Path&gt;" class="s46" d="m405 68.4l-0.2 0.6 1 0.6 0.4-0.5c0 0-0.4-0.6-1.2-0.7z"/>
					<path id="&lt;Path&gt;" class="s47" d="m402.5 72.4l0.3-0.2c0 0 0.6 0.3 1.1 0.4l-0.1 0.3c0 0-0.7 0-1.3-0.5z"/>
				</g>
				<g id="&lt;Group&gt;">
					<g id="&lt;Group&gt;">
						<path id="&lt;Path&gt;" class="s50" d="m419.9 25.3c4.2 1.5 1.8 11-8.3 12.2-10.1 1.1-16.9-5-16.5-5.5 0.4-0.6 6-3.2 11.1-6.5 5.2-3.2 9.5-1.7 13.7-0.2z"/>
						<path id="&lt;Path&gt;" class="s51" d="m419.9 25.3c4.2 1.5 1.8 11-8.3 12.2-10.1 1.1-16.9-5-16.5-5.5 0.4-0.6 6-3.2 11.1-6.5 5.2-3.2 9.5-1.7 13.7-0.2z"/>
						<path id="&lt;Path&gt;" class="s46" d="m409.9 24.7c0 0.6-0.1 0.9-0.1 1.5 1.7-0.3 2.6-0.3 4.6-0.5 0.2-0.6 0.3-0.9 0.4-1.4 0 0-2.1-0.8-4.9 0.4z"/>
						<path id="&lt;Path&gt;" class="s47" d="m401.1 35c0.7 0 1-0.1 1.7-0.2 0 0 3.5 1.2 7.1 1.3 0.1 0.4 0.1 0.7 0.2 1.2 0 0-5.8-0.6-9-2.3z"/>
					</g>
				</g>
				<g id="&lt;Group&gt;">
					<path id="&lt;Path&gt;" class="s52" d="m478.7 229c0 2-1.6 3.6-3.6 3.6-2 0-3.7-1.6-3.7-3.6 0-2 1.7-3.7 3.7-3.7 2 0 3.6 1.7 3.6 3.7z"/>
					<path id="&lt;Path&gt;" class="s53" d="m478.7 229c0 2-1.6 3.6-3.6 3.6-2 0-3.7-1.6-3.7-3.6 0-2 1.7-3.7 3.7-3.7 2 0 3.6 1.7 3.6 3.7z"/>
					<path id="&lt;Path&gt;" class="s46" d="m476.4 226.2l-0.3 0.9 1.4 0.9 0.5-0.8c0 0-0.5-0.8-1.6-1z"/>
					<path id="&lt;Path&gt;" class="s47" d="m473 231.7l0.4-0.3c0 0 0.7 0.5 1.5 0.6l-0.1 0.5c0 0-1.1-0.1-1.8-0.8z"/>
				</g>
				<g id="&lt;Group&gt;">
					<g id="&lt;Group&gt;">
						<path id="&lt;Path&gt;" class="s54" d="m400.8 192.1c-1.5 2-5.8 1.2-9.9 1.9-4 0.7-7.7 3.3-9.7 2.1-1.9-1.1 0.3-8.8 8.1-10.5 7.8-1.8 12.9 4.4 11.5 6.5z"/>
						<path id="&lt;Path&gt;" class="s55" d="m400.8 192.1c-1.5 2-5.8 1.2-9.9 1.9-4 0.7-7.7 3.3-9.7 2.1-1.9-1.1 0.3-8.8 8.1-10.5 7.8-1.8 12.9 4.4 11.5 6.5z"/>
						<path id="&lt;Path&gt;" class="s46" d="m394.4 186.3c-0.4 0.4-0.6 0.6-1 1 1.9 0.4 2.8 0.8 4.4 1.8 0.8-0.1 1.2-0.1 2-0.1 0 0-1.3-2.2-5.4-2.7z"/>
						<path id="&lt;Path&gt;" class="s47" d="m386.4 195c0.2-0.4 0.3-0.5 0.6-0.9 0 0 1.7-0.5 3.4-0.7-0.1 0.3-0.1 0.4-0.1 0.6 0 0-2.1 0.5-3.9 1z"/>
					</g>
				</g>
				<g id="&lt;Group&gt;">
					<path id="&lt;Path&gt;" class="s56" d="m501.3 189.8c0 1.3-1 2.4-2.3 2.4-1.3 0-2.3-1.1-2.3-2.4 0-1.3 1-2.3 2.3-2.3 1.3 0 2.3 1 2.3 2.3z"/>
					<path id="&lt;Path&gt;" class="s57" d="m501.3 189.8c0 1.3-1 2.4-2.3 2.4-1.3 0-2.3-1.1-2.3-2.4 0-1.3 1-2.3 2.3-2.3 1.3 0 2.3 1 2.3 2.3z"/>
					<path id="&lt;Path&gt;" class="s46" d="m499.9 188.1l-0.2 0.5 0.9 0.6 0.3-0.5c0 0-0.3-0.5-1-0.6z"/>
					<path id="&lt;Path&gt;" class="s47" d="m497.7 191.6l0.2-0.2c0 0 0.5 0.3 1 0.4l-0.1 0.3c0 0-0.7-0.1-1.1-0.5z"/>
				</g>
				<g id="&lt;Group&gt;">
					<path id="&lt;Path&gt;" class="s58" d="m444.7 240.3c0 1.3-1 2.4-2.3 2.4-1.3 0-2.4-1.1-2.4-2.4 0-1.2 1.1-2.3 2.4-2.3 1.3 0 2.3 1.1 2.3 2.3z"/>
					<path id="&lt;Path&gt;" class="s59" d="m444.7 240.3c0 1.3-1 2.4-2.3 2.4-1.3 0-2.4-1.1-2.4-2.4 0-1.2 1.1-2.3 2.4-2.3 1.3 0 2.3 1.1 2.3 2.3z"/>
					<path id="&lt;Path&gt;" class="s46" d="m443.2 238.6l-0.1 0.5 0.8 0.6 0.4-0.5c0 0-0.4-0.5-1.1-0.6z"/>
					<path id="&lt;Path&gt;" class="s47" d="m441 242.1l0.3-0.2c0 0 0.5 0.3 0.9 0.4v0.3c0 0-0.7 0-1.2-0.5z"/>
				</g>
				<g id="&lt;Group&gt;">
					<path id="&lt;Path&gt;" class="s60" d="m403.8 209.4c0 1.3-1.1 2.3-2.4 2.3-1.3 0-2.3-1-2.3-2.3 0-1.3 1-2.3 2.3-2.3 1.3 0 2.4 1 2.4 2.3z"/>
					<path id="&lt;Path&gt;" class="s61" d="m403.8 209.4c0 1.3-1.1 2.3-2.4 2.3-1.3 0-2.3-1-2.3-2.3 0-1.3 1-2.3 2.3-2.3 1.3 0 2.4 1 2.4 2.3z"/>
					<path id="&lt;Path&gt;" class="s46" d="m402.3 207.6l-0.2 0.6 0.9 0.6 0.3-0.5c0 0-0.3-0.6-1-0.7z"/>
					<path id="&lt;Path&gt;" class="s47" d="m400.1 211.2l0.2-0.2c0 0 0.5 0.3 1 0.4l-0.1 0.3c0 0-0.7-0.1-1.1-0.5z"/>
				</g>
			</g>
			<g id="&lt;Group&gt;" style="mix-blend-mode: soft-light">
				<path id="&lt;Path&gt;" class="s62" d="m236.6 392.3c2 0.8 2.7 1.2 5.3 1.1 1.4 0 2.9-0.1 4.3-0.4 0.9-0.3 2.3-0.8 1.6-1.4-0.4-0.3-2.2-0.6-2.8-0.7-2.1-0.3-5.5 0.4-7 1.1z"/>
				<path id="&lt;Path&gt;" class="s62" d="m164.2 366.7c2 0.9 2.8 1.3 5.3 1.2 1.5 0 2.9-0.2 4.3-0.5 0.9-0.2 2.4-0.7 1.6-1.3-0.4-0.3-2.2-0.6-2.8-0.7-2.1-0.3-5.5 0.4-6.9 1.1z"/>
				<path id="&lt;Path&gt;" class="s62" d="m456.1 381.3c2 0.8 2.7 1.2 5.2 1.1 1.5 0 3-0.2 4.3-0.5 1-0.2 2.4-0.7 1.6-1.3-0.3-0.3-2.1-0.6-2.8-0.7-2.1-0.3-5.4 0.4-6.9 1.1z"/>
				<path id="&lt;Path&gt;" class="s62" d="m251.1 393.9c1.9-0.3 4.2-0.8 6.1-0.2 1.1 0.3 1.2 1 0.5 1.5-1.3 0.7-6 0.3-6.1-0.8z"/>
				<path id="&lt;Path&gt;" class="s62" d="m29.4 385.9c1.9-0.3 4.3-0.8 6.2-0.2 1.1 0.4 1.1 1.1 0.4 1.5-1.2 0.8-6 0.3-6.1-0.8z"/>
				<path id="&lt;Path&gt;" class="s62" d="m257.7 346.9c1.9-0.3 4.2-0.8 6.1-0.2 1.2 0.3 1.2 1 0.5 1.5-1.3 0.7-6 0.3-6.1-0.9z"/>
				<path id="&lt;Path&gt;" class="s63" d="m314.8 393.4c-0.9 0.6-2.7 1.3-1.6 2 2.1 1.3 7.4 1.3 10.3 1.3 4.3 0 9.1 0 13.2-0.8 1.3-0.2 3.9-0.7 3.9-1.6 0-0.9-2.8-1.7-4.3-2-1.9-0.3-4-0.5-6-0.6-2.6-0.2-5.2-0.2-7.8 0-3.3 0.2-5.3 0.6-7.7 1.7z"/>
				<path id="&lt;Path&gt;" class="s63" d="m560.3 386.8c-1.7 0.9-5.1 2-3 3.2 4 2.1 14 2.1 19.6 2.1 8.1 0.1 17.2 0 24.9-1.2 2.6-0.5 7.5-1.2 7.5-2.7 0-1.5-5.5-2.7-8.2-3.1-3.6-0.6-7.7-0.9-11.5-1.1-4.9-0.3-9.8-0.3-14.7 0-6.2 0.3-10 1-14.6 2.8z"/>
				<path id="&lt;Path&gt;" class="s63" d="m380.5 348c-0.5 0.3-1.5 0.7-0.9 1 1.1 0.7 4 0.7 5.6 0.8 2.3 0 4.8 0 7-0.5 0.8-0.1 2.2-0.4 2.2-0.8 0-0.5-1.6-1-2.4-1.1-1-0.2-2.1-0.3-3.2-0.4q-2.1-0.1-4.2 0c-1.7 0.1-2.8 0.4-4.1 1z"/>
				<path id="&lt;Path&gt;" class="s62" d="m346.6 395.8c1.1-0.2 5.1-1 6.1-0.1 0.4 0.5-0.8 0.8-1.4 1-0.8 0.2-2.3 0.4-3.3 0.2-0.9-0.2-2.4-0.9-2.8-1.4z"/>
				<path id="&lt;Path&gt;" class="s62" d="m637.3 394.3c1.1-0.2 5.1-1 6.1-0.1 0.4 0.5-0.7 0.8-1.3 1-0.9 0.2-2.4 0.4-3.3 0.2-1-0.2-2.5-0.9-2.9-1.4z"/>
				<path id="&lt;Path&gt;" class="s62" d="m453.7 322c1.1-0.1 5.1-0.5 6.1 0 0.4 0.2-0.7 0.4-1.4 0.5-0.8 0.1-2.3 0.2-3.3 0.1-0.9-0.1-1-0.4-1.4-0.6z"/>
				<path id="&lt;Path&gt;" class="s62" d="m364.9 391.8q-1.8 0.1-3 0.7c0.2 0.7 1.9 0.9 3 0.6 1.1-0.3 1.1-1.3-0.5-1.1z"/>
				<path id="&lt;Path&gt;" class="s62" d="m307.5 324.5q-4.7 0.1-7.9 0.8c0.7 0.7 5 0.8 8 0.5 2.9-0.3 2.9-1.2-1.3-1z"/>
				<path id="&lt;Path&gt;" class="s62" d="m469.9 319.2q-4.7 0.1-7.9 0.7c0.7 0.8 5 0.9 8 0.6 2.9-0.3 2.9-1.2-1.3-1z"/>
				<path id="&lt;Path&gt;" class="s62" d="m277.2 331.2q-1.8 0.1-3 0.7c0.3 0.8 1.9 0.9 3 0.6 1.2-0.3 1.2-1.2-0.5-1z"/>
				<path id="&lt;Path&gt;" class="s62" d="m356.6 352.7q-1.9 0.1-3.1 0.7c0.3 0.7 1.9 0.9 3.1 0.6 1.1-0.3 1.1-1.3-0.5-1.1z"/>
				<path id="&lt;Path&gt;" class="s62" d="m180.8 300.1q-1.8 0.1-3 0.7c0.3 0.8 1.9 0.9 3 0.6 1.2-0.3 1.2-1.2-0.5-1z"/>
				<path id="&lt;Path&gt;" class="s62" d="m368.4 394.5c-0.5 0.1-0.7 0.1-1.1 0.3-0.1 0.1-0.7 0.4-0.7 0.6 0 0.5 1 0.3 1.4 0.3 0.5 0 1 0 1.5 0.1 1 0.2 2.2 0 3.2-0.5 0.6-0.2 1.7-0.7 1.9-1.5 0.3-0.8-0.9-0.9-1.4-0.8-1 0-1.9 0-2.9 0.1q-0.7 0.1-1.3 0.3c-0.7 0.2-1 0.6-0.6 1.1z"/>
				<path id="&lt;Path&gt;" class="s62" d="m377.1 393.8c0.4 0 2-0.4 2.2 0.3 0.1 0.3-0.2 0.7-0.4 0.9-0.2 0.1-0.5 0.1-0.8 0-0.2 0-0.9-0.4-0.9-0.6q0.1 0 0.1-0.1z"/>
				<path id="&lt;Path&gt;" class="s62" d="m705.8 375.1c0.5-0.1 2-0.5 2.3 0.2 0.1 0.3-0.3 0.7-0.5 0.9-0.2 0.1-0.5 0.2-0.8 0.1-0.2-0.1-0.9-0.5-0.9-0.7q0.1 0 0.2 0z"/>
				<path id="&lt;Path&gt;" class="s62" d="m191.1 330.4c0.5-0.1 2.1-0.5 2.3 0.2 0.1 0.3-0.2 0.8-0.4 0.9-0.3 0.2-0.6 0.2-0.8 0.1-0.2-0.1-0.9-0.5-0.9-0.7q0 0 0.1 0z"/>
				<path id="&lt;Path&gt;" class="s62" d="m44.5 387.9c0.5-0.1 2-0.4 2.3 0.3 0.1 0.2-0.3 0.7-0.5 0.8-0.2 0.2-0.5 0.2-0.8 0.1-0.2-0.1-0.9-0.4-0.8-0.7q0 0 0.1 0z"/>
				<path id="&lt;Path&gt;" class="s62" d="m296.3 323.5c0.5-0.1 2.1-0.4 2.3 0.3 0.1 0.2-0.2 0.7-0.4 0.8-0.3 0.2-0.6 0.2-0.8 0.1-0.3-0.1-0.9-0.5-0.9-0.7q0 0 0.1 0z"/>
				<path id="&lt;Path&gt;" class="s62" d="m295.2 358.7c0.5-0.1 2-0.5 2.3 0.2 0.1 0.3-0.3 0.7-0.5 0.9-0.2 0.2-0.5 0.2-0.8 0.1-0.2-0.1-0.9-0.5-0.9-0.7q0.1 0 0.2 0z"/>
				<path id="&lt;Path&gt;" class="s62" d="m381.1 394.6c0.2 0.1 0.6 0.6 0.8 0.5 0.1 0 0.2-0.1 0.3-0.1 0.2-0.1 0.5-0.2 0.6-0.5 0-0.5-1-0.4-1.3-0.4z"/>
				<path id="&lt;Path&gt;" class="s62" d="m726.5 371.8c0.7 0.2 2 0.6 2.9 0.6 0.2 0 0.7-0.1 0.9-0.2 0.8-0.1 2.1-0.2 2.2-0.4 0.3-0.6-3.4-0.5-4.6-0.5z"/>
				<path id="&lt;Path&gt;" class="s62" d="m425.5 332.2c0.1 0.1 0.5 0.5 0.8 0.5 0 0 0.1-0.1 0.2-0.1 0.2-0.1 0.6-0.2 0.6-0.5 0.1-0.5-0.9-0.4-1.3-0.4z"/>
				<path id="&lt;Path&gt;" class="s62" d="m779.7 387.9c0.1 0.2 0.5 0.6 0.8 0.6 0 0 0.1-0.1 0.2-0.2 0.2-0.1 0.6-0.1 0.6-0.4 0.1-0.6-0.9-0.5-1.3-0.5z"/>
				<path id="&lt;Path&gt;" class="s62" d="m257.3 345.3c0.2 0.2 0.6 0.6 0.8 0.6 0.1 0 0.2-0.1 0.3-0.2 0.2-0.1 0.5-0.2 0.6-0.4 0.1-0.6-1-0.5-1.3-0.5z"/>
			</g>
			<g id="&lt;Group&gt;">
				<path id="&lt;Path&gt;" class="s64" d="m222.9 332.2l-2.6-5.2 14.9-5.8 28.3 3.6-0.6 6.9-8.3 2.8z"/>
				<path id="&lt;Path&gt;" class="s12" d="m220.3 327l21.6 3.6h17.1l-1.3 0.6-15.3 1 13 1 6.5-3.1 1.6-5.3-28.3-3.6z"/>
			</g>
			<g id="&lt;Group&gt;">
				<path id="&lt;Path&gt;" class="s65" d="m487.3 327.7l-1.7-5.7 7.3-3.5 14.8 1.5 4.7 2.6-2 5.6z"/>
				<path id="&lt;Path&gt;" class="s12" d="m485.6 322l20.7 1.1 6.1-0.5-4.7-2.6-14.8-1.5z"/>
				<path id="&lt;Path&gt;" class="s12" d="m498.3 326.6l4.5-0.9h8.2l-4.7 1.3z"/>
			</g>
		</g>
	</g>
</svg>