<svg version="1.2" xmlns="http://www.w3.org/2000/svg" viewBox="0 0 1707 1572" width="1707" height="1572">
	<title>19Z_2102</title>
	<defs>
		<linearGradient id="g1" x2="1" gradientUnits="userSpaceOnUse" gradientTransform="matrix(0,-1751.006,1676.714,0,-75.938,1751.006)">
			<stop offset=".006" stop-color="#1d0b2e"/>
			<stop offset=".403" stop-color="#25264a"/>
			<stop offset=".994" stop-color="#3b4879"/>
		</linearGradient>
	</defs>
	<style>
		.s0 { fill: url(#g1) } 
		.s1 { opacity: .8;fill: #1e0f26 } 
		.s2 { mix-blend-mode: soft-light;fill: #a2a4d4 } 
		.s3 { opacity: .6;mix-blend-mode: multiply;fill: #724777 } 
		.s4 { opacity: .5;mix-blend-mode: multiply;fill: #724777 } 
		.s5 { mix-blend-mode: soft-light;fill: #775047 } 
		.s6 { mix-blend-mode: soft-light;fill: #a48181 } 
		.s7 { opacity: .5;mix-blend-mode: soft-light;fill: #c59281 } 
		.s8 { fill: #392f66 } 
		.s9 { fill: #39396e } 
		.s10 { fill: #5b5277 } 
		.s11 { opacity: .8;fill: #13031b } 
		.s12 { opacity: .2;mix-blend-mode: multiply;fill: #724777 } 
		.s13 { opacity: .5;mix-blend-mode: soft-light;fill: #a48181 } 
	</style>
	<g id="&lt;Group&gt;">
		<path id="&lt;Path&gt;" class="s0" d="m1676.7 1598.3l-31.9-214.2-274.1-179.8-260.2-431.3-120.5-82.9 9.8-193.7-319.5-496.4h-680.3v1751l590.6-53.8 94.2-8.6z"/>
		<path id="&lt;Path&gt;" class="s1" d="m994.8 596.9l-21.2 88.6-92.6 113.9-128.6 43.4-54.6 55.6-80 202.9-15 47.3 53.2-130.3 51.3-108.6 47.7-55.6 117.7-32.2 27.4-7.5 94.7-111.5 12.2-1.2-17-11.6z"/>
		<path id="&lt;Path&gt;" class="s2" d="m1110.5 773l-57.4 75h-46.1l-106.9-33.6 94.7-111.5 12.2-1.2z"/>
		<path id="&lt;Path&gt;" class="s2" d="m755 854.1l303.3 350.2 240.8-55.7-354.2-294.5-72.2-32.2z"/>
		<path id="&lt;Path&gt;" class="s2" d="m1370.7 1204.3l-312.4 41.7-360.5-41.7 460.2 308.9 486.8-129.1z"/>
		<path id="&lt;Compound Path&gt;" fill-rule="evenodd" class="s3" d="m1676.7 1593.1l-1676.7 152.7v-773.3l250.2 130.8 447.6 95.7 202.3 135.9 257.9 173.1 22.9 115.7zm-1397-620.5h-279.8v-889.1l503.1 286.7 302.4 187.7 194.4-66.6-9.8 193.7-89.9 124.2-145.1 39.8 303.2 350.1v41.7l-360.4-41.7zm-178.1-482.4l357.1 245 276-111.2-52.9-109.5-402.1-245-154.7-19.2h-48.7z"/>
		<path id="&lt;Path&gt;" class="s4" d="m1136 1013.1l-82.9-165.1h-46.1l-106.9-33.6-27.4 7.5 72.2 32.2z"/>
		<path id="&lt;Path&gt;" class="s4" d="m458.8 740.3l-179 237.5h-279.8v-889.2l371.9 212 433.5 262.4-107.6 251.4 37-185.3-52.9-109.5-402.1-245-178.1-19.2h-25.3l25.3 239.9z"/>
		<path id="&lt;Path&gt;" class="s5" d="m0 1751v-303.6l146 14 13 248h21.7v-30.7l99.1-14 9.2 44.7h6.8v-54.9l13.1-8.4 3.9 32.6h20.8l2-69.8 70.4-3.9 7.8 73.7h11.7v-21.6l193.6-8.4 62.8-7.8v-47.9l8.6-209 32.8-25.3v216.3h11.5l20.2-248.2 117.7 31.9 16.6 288.7 18.6 1.3v-135.5h9.2l9.4 135.2h36.6l-14.3-224.4h41.2l9.6 208.3h34.5v-24.5h61.3l12.4 24.5h61.9v-27l121.4-13.5 27.8 28.6 13.9-5.2v-23.4h24.4v16l27.8-2.5v-51.2l30.4-6.6 5.2 50.8 105.6-5.8 10.4-77.2 16.1-4.1v55.4h7.8v-76.5l21.3-6.1-2.8 41.3 33.6-4.7v-13l48.6-13.5 15.5 104.2z"/>
		<path id="&lt;Path&gt;" class="s4" d="m250.2 1108.5l83.4 401.3v210.8l-333.6 30.4v-773.2z"/>
		<path id="&lt;Path&gt;" class="s4" d="m697.8 1204.3l-15.9 388.7-19 97.6 508.4-42.2-13.3-135.2z"/>
		<path id="&lt;Path&gt;" class="s2" d="m0 88.6l805.4 474.4 194.4-66.5-319.5-496.5h-680.3z"/>
		<path id="&lt;Path&gt;" class="s6" d="m1135.6 1235.6l261.5 128.8-41.7 13.6-219.8-71.2-77.3 2 208.5 69.2h-46l-110.3-38.2-40.2 9 228.8 127 19.8 144.6 165.7-10.2-14.3-121.6 29.4-19.2 10.4 139.2 50.4 0.3v-202.4l-365.3-178.8z"/>
		<path id="&lt;Path&gt;" class="s7" d="m1266 1218.2l333.6 177.9v209.2h34.7l-21.6-212.7-333.9-176.1-4.6-62.1-329.3-300.3-72.2-32.2-43.5 11.9 97.4 26.4 232 211.1-23 7.6-209-194-26.5 1.3 265.3 293.3 5.9 48.2z"/>
		<path id="&lt;Path&gt;" class="s8" d="m1073.7 1456.6l134.1 43.4-48 31.7z"/>
		<path id="&lt;Path&gt;" class="s8" d="m180.7 1072.2l77.9 76.4 95.6-17.9z"/>
		<path id="&lt;Path&gt;" class="s9" d="m1040.9 1183.4l54.5 12.3-37.1 37.2z"/>
		<path id="&lt;Path&gt;" class="s10" d="m418.8 706.3l21.7 58.2 45.1-35z"/>
		<path id="&lt;Path&gt;" class="s10" d="m778.9 547.4l21.6 27.2 28.7-19.7z"/>
		<path id="&lt;Path&gt;" class="s4" d="m76.4 255.4l-46.9 242.5v169.4l20 26.3 117.3 154.4-90.4-141.7-30.8-39 56.1-172z"/>
		<path id="&lt;Path&gt;" class="s11" d="m226.8 888.9l72.9 62.4 303.1-37.6 95-99.3 5.7-28.3-53.8 69.5-46.9 52.1-269.2 24.2-16.9-9.2z"/>
		<path id="&lt;Path&gt;" class="s12" d="m333.6 1509.8l348.3 83.2-19 97.6-329.3 30z"/>
		<path id="&lt;Path&gt;" class="s13" d="m333.6 1720.6l-3.2-226.5-71.8-345.5-43.6-106h19.6l59.1 29.6h13.2l-27-11.3 19.9-3.6 105.8 47.9 38.5-1.6-166.5-84.7 27.4-3.6 224.1 117.9 42.9 2.9 125.8 68.2-5.7 139.3-20.2 0.1-9-123.8-28.2-2-16.3 262h-57.3l2.6-201.4-7.2-3.2 1.3 62.5-17.6-1.3-11.1-132.2h-28l11.8 496.6z"/>
		<path id="&lt;Path&gt;" class="s6" d="m440.5 1064.8l67.3-139.3 95-243.3-512.3-293.5-3.6-34.2 287.1 178.7 143.4 78 26.1-14.3-276-151.2 11.4-15.6 314.1 185.1 20.9-4-128.3-86 68.3-27.3 134.2 99h9.7l-43.5-63.7h34.2l46.3 95.9-31.3 157-65.6 82.6 45-167h-20l-41 184.8-19.1 21.2-66.7 6-71 173.2z"/>
		<path id="&lt;Path&gt;" class="s7" d="m267.5 0l605.2 533.2-34.3 280.6 42.6-14.4 35.2-202.5 19.6-12.4v147.5l13.7-17.8 23.8-208.7-34.9-47-310.2-305.4-7.8 8.5 316.2 311.1-12.1 4.3-567.4-477z"/>
		<path id="&lt;Path&gt;" class="s7" d="m942.5 764.5l152.9 28.3 122.8 249.8h13.6l-95.8-199.8 8.9-0.5 34.9 71.4 10.6-8.2-79.9-132.5-103.5-71.3-12.2 1.2z"/>
		<path id="&lt;Path&gt;" class="s7" d="m130.3 977.8l288.5 170.8 46.3 364.6-8.7 196.2h-15.9l15.9-188-49.8-372.8-293.6-170.8z"/>
		<path id="&lt;Path&gt;" class="s7" d="m1320.5 1632.3l-21.4-156.5-541.1-264.6h-10.3l545.8 268 15.9 103-6.1 50.1z"/>
		<path id="&lt;Path&gt;" class="s12" d="m602.8 1148.6l104.5-238.9 47.7-55.6 285.9 329.3 17.4 49.5v13.1l-360.5-41.7z"/>
		<path id="&lt;Path&gt;" class="s10" d="m1007 848l51.3 10.4v-17.2z"/>
		<path id="&lt;Path&gt;" class="s13" d="m232.7 894l68.4 43.1 72.9 5-74.3 9.2z"/>
		<path id="&lt;Path&gt;" class="s13" d="m553.4 919.8h49.4l18.9-25.8-18.9 16.6z"/>
		<path id="&lt;Path&gt;" class="s12" d="m45.6 667.3l121.2 180.7 60 40.9 89.9 33.8 123.8-158.2-18.4-49.4-320.4-219.8z"/>
	</g>
</svg>