<svg version="1.2" xmlns="http://www.w3.org/2000/svg" viewBox="0 0 1590 2100" width="1590" height="2100">
	<title>vecteezy_cosmic-background-alien-planet-deserted-l</title>
	<style>
		.s0 { fill: #6a74d2 } 
		.s1 { opacity: .2;mix-blend-mode: multiply;fill: #7076e1 } 
		.s2 { fill: #453db0 } 
	</style>
	<g id="_Artboards_">
	</g>
	<g id="&lt;Group&gt;">
		<path id="&lt;Path&gt;" class="s0" d="m1409.3 1767.8c-258 126.5-1081 59.9-1095.1 22.8-3.8-9.8 15-63.7 44.8-137.6 38.3-94.9 94.4-222.8 143.5-332.2 56-125 102.8-225.8 102.8-225.8 0 0-108.2 8.4-121.1-10.3-12.8-18.8 217.5-422.8 217.5-422.8 0 0-89.4 7.7-102.6-5.5-13.4-13.1 212.2-534.8 212.2-534.8 0 0 249.3 527.2 233.6 538.3-15.7 11.1-104.8 1.2-104.8 1.2 0 0 211.1 536.4 190.8 552.7-19.9 15.8-62.8 2.6-65.3 1.7 1.7 2.9 45.2 68.1 100.7 152.8 34.1 52 72.6 111.3 108.8 168 76.3 119.5 142.3 227.6 134.2 231.5z"/>
		<path id="&lt;Path&gt;" class="s1" d="m1409.3 1767.8c-258 126.5-1081 59.9-1095.1 22.8-3.8-9.8 15-63.7 44.8-137.6 38.3-94.9 94.4-222.8 143.5-332.2 30.5 8.9 58.9 22 83.2 38.9 61.7 42.7 95.7 108.5 89.3 172.6 82.4-2.7 165.4 27.8 215.4 78.9 95.6-62.5 226.6-85.9 350.9-77.8 11.3 0.8 22.6 1.7 33.8 2.9 76.3 119.5 142.3 227.6 134.2 231.5z"/>
		<path id="&lt;Path&gt;" class="s2" d="m795 2100l22.8-1808.6 15.6-7.6 85 1805.3z"/>
		<path id="&lt;Path&gt;" class="s2" d="m850.2 1399.1l159.2-169.1 11.3 13.3-160.2 212.3"/>
		<path id="&lt;Path&gt;" class="s2" d="m836.5 1498.7l-147.2-105.8-5.4 13.5 142.8 132.7"/>
		<path id="&lt;Path&gt;" class="s2" d="m829.6 864.2l-87.9-63.2-3.3 8.1 85.3 79.3"/>
		<path id="&lt;Path&gt;" class="s2" d="m849.2 1117.6l77.1-125.6 6.6 12.2-74.7 166.6"/>
		<path id="&lt;Path&gt;" class="s2" d="m829.6 633.1l-85.5-104.8 10.1-3.2 72.2 69.2"/>
	</g>
</svg>