<svg version="1.2" xmlns="http://www.w3.org/2000/svg" viewBox="0 0 1500 1000" width="1500" height="1000">
	<title>6166066-ai</title>
	<style>
		.s0 { fill: #1c1f66 } 
		.s1 { fill: #181b56 } 
		.s2 { fill: #87bcf4 } 
		.s3 { fill: #b0d3f8 } 
		.s4 { fill: #ffffff } 
		.s5 { fill: #db1d5b } 
		.s6 { fill: #5186eb } 
	</style>
	<g id="BACKGROUND">
		<path id="&lt;Path&gt;" class="s0" d="m1500 0v1000h-1500v-1000z"/>
	</g>
	<g id="OBJECTS">
		<g id="&lt;Group&gt;">
			<path id="&lt;Path&gt;" class="s1" d="m0 638.3v-138.3l121.7-99.1 119.7 123.1 90.5-77.5 98.4 77.5 308.6-294 226.1 198.1 95.8-71.7 135.7 103 172.9-192.7 130.6 148.5v223.1l-598.8 176z"/>
			<path id="&lt;Path&gt;" class="s2" d="m0 742v-142.4c0 0 656.4-109.6 1119.3 142.4-337.8 281.4-1119.3 183.3-1119.3 183.3z"/>
			<path id="&lt;Path&gt;" class="s1" d="m175.3 683.2c0 0 3.6-32.8 31.5-28.7 5.3-25.2 62.5-37.1 68.4 6.8 21.9-11.3 30.8 7.9 30.8 7.9 0 0 38.8-13 36.7 30.9-2 40.9-167.4-16.9-167.4-16.9z"/>
			<path id="&lt;Path&gt;" class="s1" d="m676.7 818.9l-229.7-93.3c0 0 40.1-42 81.8-16.6 4.9-5 9.9-9.2 14.9-12.5q0 0 0.1 0 1.3-0.9 2.5-1.6c24.3-14.8 48-10.1 62.5 5 6.8 7.2 11.6 16.7 13.4 27.6 0.7 4 0.9 8.3 0.7 12.7 49.4-7.8 78.2 47.5 53.8 78.7z"/>
			<path id="&lt;Path&gt;" class="s3" d="m0 1000v-332.9c0 0 367.4-40.1 750 156.7 297.5-295.3 750-279.3 750-279.3v455.5z"/>
			<path id="&lt;Path&gt;" class="s0" d="m193.3 878.7c0 40.1-32.5 72.6-72.6 72.6-40.1 0-72.6-32.5-72.6-72.6 0-40.1 32.5-72.6 72.6-72.6 40.1 0 72.6 32.5 72.6 72.6z"/>
			<path id="&lt;Path&gt;" class="s0" d="m314.4 838c0 36-21.8 66.9-52.9 80.2-10.5 4.6-22.1 7.1-34.3 7.1-48.2 0-87.2-39.1-87.2-87.3 0-30.2 15.4-56.9 38.8-72.5q5.1-3.4 10.7-6.2c11.4-5.4 24.2-8.5 37.7-8.5 34.3 0 64 19.8 78.3 48.6q0.2 0.6 0.5 1.1 1.6 3.4 2.9 7 0.2 0.5 0.4 0.9c3.3 9.3 5.1 19.2 5.1 29.6z"/>
			<path id="&lt;Path&gt;" class="s0" d="m391.9 878.7c0 39.3-31.9 71.2-71.2 71.2-39.3 0-71.2-31.9-71.2-71.2 0-39.3 31.9-71.2 71.2-71.2 39.3 0 71.2 31.9 71.2 71.2z"/>
			<path id="&lt;Path&gt;" class="s4" d="m0 881c0 0 701.6-90.6 1100.7 119-534.7 0-1100.7 0-1100.7 0z"/>
			<g id="&lt;Group&gt;">
				<path id="&lt;Path&gt;" class="s0" d="m151.5 834q-0.3 0-0.5-0.2c-0.6-0.3-57.3-37.5-26.5-105.7 0.2-0.5 0.8-0.7 1.3-0.5 0.5 0.3 0.7 0.8 0.5 1.3-15.7 34.8-7.9 61 1.4 76.8 10.1 17.2 24.2 26.3 24.3 26.4 0.5 0.3 0.7 1 0.4 1.4-0.2 0.3-0.6 0.5-0.9 0.5z"/>
				<path id="&lt;Path&gt;" class="s0" d="m114.6 761.7q-4.4 0-7.7-2.6c-5.6-4.5-6.5-13.2-6.5-13.5-0.1-0.6 0.3-1.1 0.9-1.1 0.5-0.1 1 0.3 1.1 0.9 0 0.1 0.9 8.2 5.8 12.2 2.2 1.7 4.8 2.4 7.9 2.1 0.6-0.1 1.1 0.3 1.1 0.8 0.1 0.6-0.3 1.1-0.8 1.1q-0.9 0.1-1.8 0.1z"/>
				<path id="&lt;Path&gt;" class="s0" d="m132.4 755.4c-8.3 0-14.8-3.7-14.9-3.7-0.4-0.3-0.6-0.9-0.3-1.4 0.2-0.5 0.8-0.6 1.3-0.4 0.8 0.5 18.6 10.4 32.3-5.1 0.3-0.4 1-0.4 1.4-0.1 0.4 0.4 0.4 1 0.1 1.4-6.4 7.2-13.6 9.3-19.9 9.3z"/>
				<path id="&lt;Path&gt;" class="s0" d="m134.8 755.3c-0.3 0-0.6-0.1-0.8-0.4-0.1-0.1-5.3-7.2 0.3-15.3 0.3-0.5 1-0.6 1.4-0.3 0.5 0.4 0.6 1 0.3 1.4-4.8 6.9-0.6 12.8-0.4 13 0.3 0.5 0.2 1.1-0.2 1.4q-0.3 0.2-0.6 0.2z"/>
				<path id="&lt;Path&gt;" class="s0" d="m118.2 781.8c-0.6 0-0.9 0-0.9 0-0.5-0.1-1-0.5-0.9-1.1 0-0.6 0.5-1 1-0.9 0.2 0 17.6 0.9 24.1-12.4 0.2-0.5 0.8-0.7 1.3-0.4 0.5 0.2 0.7 0.8 0.5 1.3-6.2 12.7-21.3 13.5-25.1 13.5z"/>
				<path id="&lt;Path&gt;" class="s0" d="m108.7 776.3c-5.8 0-13.6-1.6-19.1-8.6-0.3-0.4-0.3-1.1 0.2-1.4 0.4-0.3 1-0.3 1.4 0.2 8.9 11.4 24.9 6.9 25.1 6.9 0.5-0.2 1 0.1 1.2 0.6 0.2 0.6-0.2 1.1-0.7 1.3-0.1 0-3.5 1-8.1 1z"/>
				<path id="&lt;Path&gt;" class="s5" d="m106.1 742.5c0-2.6-2.1-4.7-4.7-4.7-2.6 0-4.7 2.1-4.7 4.7 0 2.6 2.1 4.7 4.7 4.7 2.6 0 4.7-2.1 4.7-4.7z"/>
				<path id="&lt;Path&gt;" class="s5" d="m141.3 737.8c0-2.7-2.1-4.8-4.7-4.8-2.6 0-4.8 2.1-4.8 4.8 0 2.6 2.2 4.7 4.8 4.7 2.6 0 4.7-2.1 4.7-4.7z"/>
				<path id="&lt;Path&gt;" class="s5" d="m148.2 765.5c0-2.6-2.1-4.8-4.8-4.8-2.6 0-4.7 2.2-4.7 4.8 0 2.6 2.1 4.7 4.7 4.7 2.7 0 4.8-2.1 4.8-4.7z"/>
				<path id="&lt;Path&gt;" class="s5" d="m130.2 725.6c0-2.7-2.2-4.8-4.8-4.8-2.6 0-4.7 2.1-4.7 4.8 0 2.6 2.1 4.7 4.7 4.7 2.6 0 4.8-2.1 4.8-4.7z"/>
				<path id="&lt;Path&gt;" class="s5" d="m157.7 743.4c0-2.6-2.2-4.8-4.8-4.8-2.6 0-4.7 2.2-4.7 4.8 0 2.6 2.1 4.7 4.7 4.7 2.6 0 4.8-2.1 4.8-4.7z"/>
				<path id="&lt;Path&gt;" class="s5" d="m93.9 765.5c0-2.6-2.1-4.8-4.8-4.8-2.6 0-4.7 2.2-4.7 4.8 0 2.6 2.1 4.7 4.7 4.7 2.7 0 4.8-2.1 4.8-4.7z"/>
			</g>
			<g id="&lt;Group&gt;">
				<path id="&lt;Path&gt;" class="s0" d="m93.3 836.7c-2.1 0-52.4-0.7-61.3-56.1-0.1-0.6 0.3-1.1 0.8-1.2 0.6-0.1 1.1 0.3 1.2 0.8 3.7 23 14.8 39.1 33 48 13.6 6.6 26.2 6.5 26.4 6.5 0.5 0.1 1 0.4 1 1 0 0.5-0.5 1-1 1q0 0-0.1 0z"/>
				<path id="&lt;Path&gt;" class="s0" d="m35 807.8q-0.4 0-0.9 0c-5.5-0.5-9.8-5.7-10-6-0.3-0.4-0.3-1 0.2-1.4 0.4-0.3 1-0.2 1.4 0.2 0 0 3.9 4.7 8.6 5.2q3.1 0.3 5.7-2c0.5-0.3 1.1-0.3 1.4 0.2 0.4 0.4 0.3 1-0.1 1.4q-2.9 2.4-6.3 2.4z"/>
				<path id="&lt;Path&gt;" class="s0" d="m37.7 798.6c-0.6 0-1-0.4-1-0.9-0.1-0.6 0.4-1 0.9-1.1 0.7 0 16-1.2 18.1-16.5 0.1-0.6 0.6-1 1.1-0.9 0.6 0.1 0.9 0.6 0.9 1.1-2.4 17-19.8 18.3-20 18.3q0 0 0 0z"/>
				<path id="&lt;Path&gt;" class="s0" d="m49.8 793.8q-0.2 0-0.4 0c0-0.1-6.5-2.5-6.3-10.1 0-0.6 0.5-1 1-1 0.5 0 1 0.5 1 1-0.2 6.2 4.8 8.1 5 8.2 0.5 0.2 0.8 0.7 0.6 1.3-0.1 0.4-0.5 0.6-0.9 0.6z"/>
				<path id="&lt;Path&gt;" class="s0" d="m49.8 817.9c-0.3 0-0.7-0.2-0.8-0.5-0.3-0.5-0.2-1.1 0.3-1.4 0.1 0 11.4-6.7 10-17.6-0.1-0.6 0.3-1.1 0.8-1.2 0.6 0 1.1 0.3 1.1 0.9 1.7 12.3-10.4 19.4-10.9 19.7q-0.2 0.1-0.5 0.1z"/>
				<path id="&lt;Path&gt;" class="s0" d="m31.9 821.4c-1.7 0-3.4-0.3-5.2-0.9-0.6-0.2-0.8-0.8-0.7-1.3 0.2-0.5 0.8-0.8 1.3-0.6 10.3 3.5 18.4-6 18.5-6.1 0.4-0.4 1-0.5 1.4-0.1 0.5 0.3 0.5 1 0.2 1.4-0.1 0.1-6.5 7.6-15.5 7.6z"/>
				<path id="&lt;Path&gt;" class="s5" d="m26.6 797.3c-1.1-1.6-3.3-2.1-5-1-1.6 1.1-2.1 3.4-1 5 1.1 1.7 3.4 2.1 5 1 1.7-1.1 2.1-3.3 1-5z"/>
				<path id="&lt;Path&gt;" class="s5" d="m47 779.6c-1.1-1.7-3.4-2.1-5-1-1.7 1.1-2.1 3.3-1 4.9 1.1 1.7 3.3 2.2 5 1.1 1.6-1.1 2.1-3.4 1-5z"/>
				<path id="&lt;Path&gt;" class="s5" d="m63 794.3c-1.1-1.7-3.4-2.1-5-1-1.7 1.1-2.2 3.3-1.1 5 1.1 1.6 3.4 2.1 5 1 1.7-1.1 2.1-3.4 1.1-5z"/>
				<path id="&lt;Path&gt;" class="s5" d="m34.8 776.5c-1.1-1.6-3.4-2.1-5-1-1.7 1.1-2.1 3.3-1 5 1.1 1.7 3.3 2.1 5 1 1.6-1.1 2.1-3.3 1-5z"/>
				<path id="&lt;Path&gt;" class="s5" d="m59.7 776.3c-1.1-1.7-3.3-2.1-5-1-1.7 1.1-2.1 3.3-1 5 1.1 1.6 3.3 2.1 5 1 1.6-1.1 2.1-3.4 1-5z"/>
				<path id="&lt;Path&gt;" class="s5" d="m28.5 817.1c-1.1-1.7-3.3-2.2-5-1.1-1.6 1.1-2.1 3.4-1 5 1.1 1.7 3.3 2.2 5 1.1 1.7-1.1 2.1-3.4 1-5z"/>
			</g>
			<path id="&lt;Path&gt;" class="s3" d="m0 932.4c0 0 275.9-35.3 436.9 67.6-263.4 0-436.9 0-436.9 0z"/>
			<path id="&lt;Path&gt;" class="s4" d="m538.6 343.3h-263.4c0 0 39.9-24.7 81.8-12.3 30-75.4 77.9-51.4 77.9-19.5 29.9-18 29.9 19.5 29.9 19.5 0 0 36.4-29.4 73.8 12.3z"/>
			<path id="&lt;Path&gt;" class="s4" d="m1197 141.8h-295.3c0 0 41.9-22.1 77.9-11 7.9-68.8 74.6-56.8 74.2-16.9 39.5-20 46.9 16.9 46.9 16.9 0 0 60.4-42.8 96.3 11z"/>
			<path id="&lt;Path&gt;" class="s4" d="m1328.7 230h-159.6c0 0 2-24.3 43.9-20.3 12-47.9 73.8-38.8 69.8-0.5 24-7.5 45.9 20.8 45.9 20.8z"/>
			<path id="&lt;Path&gt;" class="s1" d="m1222.7 858.1h-109.4c0 0 8.1-16.7 31.6-9.2-3.2-20.1 16.3-20 16.3-20 0 0 15.4-38 43.7-4.4 31.6 37.6 17.8 33.6 17.8 33.6z"/>
			<g id="&lt;Group&gt;">
				<g id="&lt;Group&gt;">
					<path id="&lt;Path&gt;" class="s6" d="m104.2 562.4h-13.8l11.1-6.4-9.4-22.7-7.7 5.1 3-16.6-15-36.1-24.9 60.8 7.6 9-10.2-2.5-9.3 22.7 14.2 7.1h-17.1l-12.7 31h105.4z"/>
					<path id="&lt;Path&gt;" class="s0" d="m73.7 613.8h-2v-82.8h2z"/>
				</g>
				<g id="&lt;Group&gt;">
					<path id="&lt;Path&gt;" class="s6" d="m321.4 539.6h-13.7l11.1-6.5-9.4-22.7-7.7 5.2 2.9-16.6-14.9-36.2-24.9 60.9 7.6 9-10.3-2.6-9.2 22.7 14.2 7.2h-17.2l-12.6 30.9h105.4z"/>
					<path id="&lt;Path&gt;" class="s0" d="m291 590.9h-2v-82.7h2z"/>
				</g>
				<g id="&lt;Group&gt;">
					<path id="&lt;Path&gt;" class="s6" d="m158.8 558.2h-8.8l7-4.2-5.9-14.4-5 3.2 1.9-10.6-9.5-23-15.9 38.8 4.8 5.8-6.5-1.7-5.9 14.5 9.1 4.6h-11l-8 19.7h67.2z"/>
					<path id="&lt;Path&gt;" class="s0" d="m139.7 590.9h-2v-52.8h2z"/>
				</g>
				<g id="&lt;Group&gt;">
					<path id="&lt;Path&gt;" class="s6" d="m386.7 558.2h-8.8l7-4.2-5.9-14.4-5 3.2 1.9-10.6-9.5-23-15.9 38.8 4.9 5.8-6.6-1.7-5.9 14.5 9.1 4.6h-11l-8 19.7h67.2z"/>
					<path id="&lt;Path&gt;" class="s0" d="m367.6 590.9h-2v-52.8h2z"/>
				</g>
				<g id="&lt;Group&gt;">
					<path id="&lt;Path&gt;" class="s6" d="m216.8 589.1h-6.8l5.4-3.2-4.6-11.2-3.8 2.6 1.5-8.2-7.4-17.8-12.2 30 3.7 4.4-5-1.3-4.6 11.2 7 3.5h-8.5l-6.2 15.3h51.9z"/>
					<path id="&lt;Path&gt;" class="s0" d="m202.3 614.4h-2v-40.8h2z"/>
				</g>
				<g id="&lt;Group&gt;">
					<path id="&lt;Path&gt;" class="s6" d="m444.4 630.9h-6.8l5.4-3.2-4.6-11.2-3.8 2.6 1.5-8.2-7.4-17.8-12.2 30 3.7 4.4-5-1.3-4.6 11.2 7 3.5h-8.4l-6.3 15.3h51.9z"/>
					<path id="&lt;Path&gt;" class="s0" d="m429.9 656.2h-2v-40.8h2z"/>
				</g>
				<path id="&lt;Path&gt;" class="s0" d="m72.8 556l-11-9.4 1.3-1.5 9.6 8.2 7.6-7.2 1.4 1.4z"/>
				<path id="&lt;Path&gt;" class="s0" d="m72 591.6l-17.1-16.1 1.4-1.4 17.1 16.1z"/>
				<path id="&lt;Path&gt;" class="s0" d="m139.3 575.6l-1.3-1.6 9.2-7.8 1.3 1.5z"/>
				<path id="&lt;Path&gt;" class="s0" d="m201.2 599.2l-5.8-5.5 1.4-1.5 4.5 4.3 4.8-4.3 1.4 1.5z"/>
				<path id="&lt;Path&gt;" class="s0" d="m289.3 582.6l-13.9-15 1.5-1.4 13.8 15z"/>
				<path id="&lt;Path&gt;" class="s0" d="m290.5 566.4l-1-1.7 20.4-12.8 1.1 1.7z"/>
				<path id="&lt;Path&gt;" class="s0" d="m290 534.7l-7.5-5.8 1.2-1.6 6.3 4.8 6.1-4.8 1.2 1.6z"/>
				<g id="&lt;Group&gt;">
					<path id="&lt;Path&gt;" class="s6" d="m550.3 579.6h-13.8l11.1-6.4-9.4-22.7-7.7 5.1 3-16.6-15-36.1-24.9 60.8 7.6 9-10.2-2.5-9.3 22.6 14.2 7.2h-17.1l-12.6 31h105.3z"/>
					<path id="&lt;Path&gt;" class="s0" d="m519.8 631h-2v-82.8h2z"/>
				</g>
				<path id="&lt;Path&gt;" class="s0" d="m518.1 622.6l-13.8-15 1.5-1.3 13.8 15z"/>
				<path id="&lt;Path&gt;" class="s0" d="m519.4 606.4l-1.1-1.7 20.5-12.8 1.1 1.7z"/>
				<path id="&lt;Path&gt;" class="s0" d="m518.9 574.7l-7.6-5.8 1.3-1.6 6.2 4.9 6.1-4.9 1.3 1.6z"/>
				<path id="&lt;Path&gt;" class="s0" d="m366 569.5l-8.4-6.5 1.2-1.6 8.4 6.5z"/>
				<path id="&lt;Path&gt;" class="s0" d="m367.1 582.8l-1-1.8 11.1-6 1 1.8z"/>
				<path id="&lt;Path&gt;" class="s0" d="m428.3 648l-7.4-4.8 1.1-1.7 7.4 4.8z"/>
			</g>
			<g id="&lt;Group&gt;">
				<path id="&lt;Path&gt;" class="s4" d="m98.3 249.3c0 2.5-2.1 4.5-4.6 4.5-2.5 0-4.6-2-4.6-4.5 0-2.5 2.1-4.6 4.6-4.6 2.5 0 4.6 2.1 4.6 4.6z"/>
				<path id="&lt;Path&gt;" class="s4" d="m125.4 229.5c0 2.5-2 4.5-4.6 4.5-2.5 0-4.6-2-4.6-4.5 0-2.6 2.1-4.6 4.6-4.6 2.6 0 4.6 2 4.6 4.6z"/>
				<path id="&lt;Path&gt;" class="s4" d="m145.5 271.1c0 2.5-2 4.5-4.5 4.5-2.4 0-4.4-2-4.4-4.5 0-2.4 2-4.4 4.4-4.4 2.5 0 4.5 2 4.5 4.4z"/>
				<path id="&lt;Path&gt;" class="s4" d="m116.2 312.2c0 2-1.7 3.6-3.7 3.6-2 0-3.7-1.6-3.7-3.6 0-2.1 1.7-3.7 3.7-3.7 2 0 3.7 1.6 3.7 3.7z"/>
				<path id="&lt;Path&gt;" class="s4" d="m175.3 252.1c0 1.6-1.3 2.9-2.8 2.9-1.6 0-2.9-1.3-2.9-2.9 0-1.5 1.3-2.8 2.9-2.8 1.5 0 2.8 1.3 2.8 2.8z"/>
				<path id="&lt;Path&gt;" class="s4" d="m63.2 362c0 0.9-0.7 1.6-1.6 1.6-0.9 0-1.7-0.7-1.7-1.6 0-0.9 0.8-1.6 1.7-1.6 0.9 0 1.6 0.7 1.6 1.6z"/>
				<path id="&lt;Path&gt;" class="s4" d="m64.4 312.4c0 2.1-1.7 3.9-3.8 3.9-2.2 0-3.9-1.8-3.9-3.9 0-2.2 1.7-3.9 3.9-3.9 2.1 0 3.8 1.7 3.8 3.9z"/>
				<path id="&lt;Path&gt;" class="s4" d="m25.5 304.5c0 1.5-1.2 2.7-2.7 2.7-1.5 0-2.8-1.2-2.8-2.7 0-1.6 1.3-2.8 2.8-2.8 1.5 0 2.7 1.2 2.7 2.8z"/>
				<path id="&lt;Path&gt;" class="s4" d="m189.9 361.6c0 1.8-1.4 3.2-3.2 3.2-1.8 0-3.2-1.4-3.2-3.2 0-1.8 1.4-3.2 3.2-3.2 1.8 0 3.2 1.4 3.2 3.2z"/>
				<path id="&lt;Path&gt;" class="s4" d="m227.2 285.4c0 2.4-2 4.4-4.4 4.4-2.4 0-4.4-2-4.4-4.4 0-2.4 2-4.4 4.4-4.4 2.4 0 4.4 2 4.4 4.4z"/>
				<path id="&lt;Path&gt;" class="s4" d="m275.2 176.5c0 3.9-3.1 7-6.9 7-3.9 0-7-3.1-7-7 0-3.8 3.1-7 7-7 3.8 0 6.9 3.2 6.9 7z"/>
				<path id="&lt;Path&gt;" class="s4" d="m230.9 401.6c0 1.7 1.4 3.2 3.2 3.2 1.8 0 3.2-1.5 3.2-3.2 0-1.8-1.4-3.2-3.2-3.2-1.8 0-3.2 1.4-3.2 3.2z"/>
				<path id="&lt;Path&gt;" class="s4" d="m195.9 431.1c0 1.6-1.4 2.9-3 2.9-1.6 0-3-1.3-3-2.9 0-1.7 1.4-3 3-3 1.6 0 3 1.3 3 3z"/>
				<path id="&lt;Path&gt;" class="s4" d="m357.4 91.2c0 0.2 0.2 0.4 0.4 0.4 0.2 0 0.4-0.2 0.4-0.4 0-0.3-0.2-0.4-0.4-0.4-0.2 0-0.4 0.1-0.4 0.4z"/>
				<path id="&lt;Path&gt;" class="s4" d="m70.2 165c0-1.8-1.5-3.3-3.3-3.3-1.9 0-3.4 1.5-3.4 3.3 0 1.9 1.5 3.4 3.4 3.4 1.8 0 3.3-1.5 3.3-3.4z"/>
				<path id="&lt;Path&gt;" class="s4" d="m64.2 45.8c0 2.4-2 4.3-4.3 4.3-2.4 0-4.3-1.9-4.3-4.3 0-2.3 1.9-4.2 4.3-4.2 2.3 0 4.3 1.9 4.3 4.2z"/>
				<path id="&lt;Path&gt;" class="s4" d="m37.7 95.8c0 2.4-1.9 4.3-4.3 4.3-2.4 0-4.3-1.9-4.3-4.3 0-2.3 1.9-4.2 4.3-4.2 2.4 0 4.3 1.9 4.3 4.2z"/>
				<path id="&lt;Path&gt;" class="s4" d="m349.3 128.5c0 1.9-1.5 3.3-3.3 3.3-1.8 0-3.3-1.4-3.3-3.3 0-1.8 1.5-3.3 3.3-3.3 1.8 0 3.3 1.5 3.3 3.3z"/>
				<path id="&lt;Path&gt;" class="s4" d="m279.7 83.8c0 1.2-1 2.3-2.2 2.3-1.3 0-2.3-1.1-2.3-2.3 0-1.2 1-2.2 2.3-2.2 1.2 0 2.2 1 2.2 2.2z"/>
				<path id="&lt;Path&gt;" class="s4" d="m274.8 50.4c0 1.8-1.5 3.3-3.3 3.3-1.8 0-3.2-1.5-3.2-3.3 0-1.8 1.4-3.3 3.2-3.3 1.8 0 3.3 1.5 3.3 3.3z"/>
				<path id="&lt;Path&gt;" class="s4" d="m468.1 166.7c0 0.9-0.7 1.7-1.6 1.7-1 0-1.7-0.8-1.7-1.7 0-0.9 0.7-1.7 1.7-1.7 0.9 0 1.6 0.8 1.6 1.7z"/>
				<path id="&lt;Path&gt;" class="s4" d="m473.3 99.3c0 1.9-1.5 3.4-3.4 3.4-1.9 0-3.4-1.5-3.4-3.4 0-1.9 1.5-3.5 3.4-3.5 1.9 0 3.4 1.6 3.4 3.5z"/>
				<path id="&lt;Path&gt;" class="s4" d="m436.9 59.9c0 2.2-1.8 4-4 4-2.2 0-4-1.8-4-4 0-2.2 1.8-4 4-4 2.2 0 4 1.8 4 4z"/>
				<path id="&lt;Path&gt;" class="s4" d="m406.9 214.6c0 1.9-1.5 3.4-3.3 3.4-1.9 0-3.4-1.5-3.4-3.4 0-1.8 1.5-3.3 3.4-3.3 1.8 0 3.3 1.5 3.3 3.3z"/>
				<path id="&lt;Path&gt;" class="s4" d="m351.9 229.5c0 2.5-2.1 4.5-4.6 4.5-2.6 0-4.6-2-4.6-4.5 0-2.6 2-4.6 4.6-4.6 2.5 0 4.6 2 4.6 4.6z"/>
				<path id="&lt;Path&gt;" class="s4" d="m445.9 457.5c0 0.3-0.2 0.5-0.5 0.5-0.3 0-0.6-0.2-0.6-0.5 0-0.3 0.3-0.6 0.6-0.6 0.3 0 0.5 0.3 0.5 0.6z"/>
				<path id="&lt;Path&gt;" class="s4" d="m415.5 419.5c0 2.3-1.9 4.3-4.3 4.3-2.4 0-4.3-2-4.3-4.3 0-2.4 1.9-4.3 4.3-4.3 2.4 0 4.3 1.9 4.3 4.3z"/>
				<path id="&lt;Path&gt;" class="s4" d="m372.1 394.5c0-1.5-1.2-2.8-2.7-2.8-1.6 0-2.8 1.3-2.8 2.8 0 1.5 1.2 2.8 2.8 2.8 1.5 0 2.7-1.3 2.7-2.8z"/>
				<path id="&lt;Path&gt;" class="s4" d="m512.2 401c0 2.1-1.7 3.8-3.8 3.8-2 0-3.7-1.7-3.7-3.8 0-2.1 1.7-3.7 3.7-3.7 2.1 0 3.8 1.6 3.8 3.7z"/>
				<path id="&lt;Path&gt;" class="s4" d="m646.2 185.4c0 1.1-0.9 1.9-1.9 1.9-1.1 0-1.9-0.8-1.9-1.9 0-1 0.8-1.9 1.9-1.9 1 0 1.9 0.9 1.9 1.9z"/>
				<path id="&lt;Path&gt;" class="s4" d="m558 179.7c0 2.1-1.7 3.8-3.8 3.8-2.1 0-3.9-1.7-3.9-3.8 0-2.1 1.8-3.8 3.9-3.8 2.1 0 3.8 1.7 3.8 3.8z"/>
				<path id="&lt;Path&gt;" class="s4" d="m518.8 255.5c0 1.8-1.4 3.3-3.3 3.3-1.8 0-3.3-1.5-3.3-3.3 0-1.9 1.5-3.4 3.3-3.4 1.9 0 3.3 1.5 3.3 3.4z"/>
				<path id="&lt;Path&gt;" class="s4" d="m681.7 101c0 0.9-0.8 1.7-1.7 1.7-1 0-1.7-0.8-1.7-1.7 0-1 0.7-1.7 1.7-1.7 0.9 0 1.7 0.7 1.7 1.7z"/>
				<path id="&lt;Path&gt;" class="s4" d="m622.9 79.6c0 2.3-1.9 4.2-4.2 4.2-2.4 0-4.3-1.9-4.3-4.2 0-2.4 1.9-4.3 4.3-4.3 2.3 0 4.2 1.9 4.2 4.3z"/>
				<path id="&lt;Path&gt;" class="s4" d="m586.9 63.1c0 1.7-1.5 3.1-3.2 3.1-1.8 0-3.2-1.4-3.2-3.1 0-1.8 1.4-3.2 3.2-3.2 1.7 0 3.2 1.4 3.2 3.2z"/>
				<path id="&lt;Path&gt;" class="s4" d="m586.9 143.8c0 1.7-1.5 3.2-3.2 3.2-1.8 0-3.2-1.5-3.2-3.2 0-1.8 1.4-3.2 3.2-3.2 1.7 0 3.2 1.4 3.2 3.2z"/>
				<path id="&lt;Path&gt;" class="s4" d="m558 103.9c0 2.2-1.7 3.9-3.8 3.9-2.1 0-3.9-1.7-3.9-3.9 0-2.1 1.8-3.8 3.9-3.8 2.1 0 3.8 1.7 3.8 3.8z"/>
				<path id="&lt;Path&gt;" class="s4" d="m811.7 40.5c0 2.1-1.7 3.9-3.8 3.9-2.2 0-3.9-1.8-3.9-3.9 0-2.2 1.7-3.9 3.9-3.9 2.1 0 3.8 1.7 3.8 3.9z"/>
				<path id="&lt;Path&gt;" class="s4" d="m739.6 172.1c0 2.1-1.6 3.8-3.7 3.8-2.1 0-3.7-1.7-3.7-3.8 0-2.1 1.6-3.7 3.7-3.7 2.1 0 3.7 1.6 3.7 3.7z"/>
				<path id="&lt;Path&gt;" class="s4" d="m648.1 272.7c0 1.6-1.3 2.9-2.9 2.9-1.5 0-2.8-1.3-2.8-2.9 0-1.6 1.3-2.9 2.8-2.9 1.6 0 2.9 1.3 2.9 2.9z"/>
				<path id="&lt;Path&gt;" class="s4" d="m830.2 139.7c0 1.2-1 2.1-2.2 2.1-1.1 0-2.1-0.9-2.1-2.1 0-1.2 1-2.1 2.1-2.1 1.2 0 2.2 0.9 2.2 2.1z"/>
				<path id="&lt;Path&gt;" class="s4" d="m839.6 96.3c0 2.6-2.1 4.7-4.7 4.7-2.6 0-4.7-2.1-4.7-4.7 0-2.6 2.1-4.7 4.7-4.7 2.6 0 4.7 2.1 4.7 4.7z"/>
				<path id="&lt;Path&gt;" class="s4" d="m887.2 248.4c0 2.1-1.6 3.7-3.7 3.7-2 0-3.7-1.6-3.7-3.7 0-2 1.7-3.7 3.7-3.7 2.1 0 3.7 1.7 3.7 3.7z"/>
				<path id="&lt;Path&gt;" class="s4" d="m941.7 199.4c0 2.3-1.8 4.1-4 4.1-2.2 0-4-1.8-4-4.1 0-2.2 1.8-4 4-4 2.2 0 4 1.8 4 4z"/>
				<path id="&lt;Path&gt;" class="s4" d="m842.6 207.4c0 2.1-1.7 3.9-3.8 3.9-2.2 0-3.9-1.8-3.9-3.9 0-2.2 1.7-3.9 3.9-3.9 2.1 0 3.8 1.7 3.8 3.9z"/>
				<path id="&lt;Path&gt;" class="s4" d="m950.9 249.3c0 2.5-2.1 4.5-4.6 4.5-2.5 0-4.6-2-4.6-4.5 0-2.5 2.1-4.6 4.6-4.6 2.5 0 4.6 2.1 4.6 4.6z"/>
				<path id="&lt;Path&gt;" class="s4" d="m901.7 314.5c0 4-3.2 7.2-7.2 7.2-4 0-7.3-3.2-7.3-7.2 0-4 3.3-7.3 7.3-7.3 4 0 7.2 3.3 7.2 7.3z"/>
				<path id="&lt;Path&gt;" class="s4" d="m1005.1 250.7c0 0.8 0.6 1.4 1.4 1.4 0.8 0 1.4-0.6 1.4-1.4 0-0.8-0.6-1.4-1.4-1.4-0.8 0-1.4 0.6-1.4 1.4z"/>
				<path id="&lt;Path&gt;" class="s4" d="m972 348.5c0 2.9-2.4 5.2-5.2 5.2-2.9 0-5.2-2.3-5.2-5.2 0-2.8 2.3-5.2 5.2-5.2 2.8 0 5.2 2.4 5.2 5.2z"/>
				<path id="&lt;Path&gt;" class="s4" d="m1011.4 300.1c0 1.7-1.4 3.1-3.2 3.1-1.7 0-3.1-1.4-3.1-3.1 0-1.8 1.4-3.2 3.1-3.2 1.8 0 3.2 1.4 3.2 3.2z"/>
				<path id="&lt;Path&gt;" class="s4" d="m1093.3 199.6c0 2.3-1.8 4.1-4.1 4.1-2.3 0-4.2-1.8-4.2-4.1 0-2.3 1.9-4.2 4.2-4.2 2.3 0 4.1 1.9 4.1 4.2z"/>
				<path id="&lt;Path&gt;" class="s4" d="m1088.7 246.6c0 1-0.8 1.8-1.8 1.8-1.1 0-1.9-0.8-1.9-1.8 0-1.1 0.8-1.9 1.9-1.9 1 0 1.8 0.8 1.8 1.9z"/>
				<path id="&lt;Path&gt;" class="s4" d="m1203.8 55.7c0 2.3-1.9 4.2-4.3 4.2-2.3 0-4.2-1.9-4.2-4.2 0-2.3 1.9-4.2 4.2-4.2 2.4 0 4.3 1.9 4.3 4.2z"/>
				<path id="&lt;Path&gt;" class="s4" d="m1099.1 47.2c0 1.6-1.3 2.9-2.9 2.9-1.6 0-2.9-1.3-2.9-2.9 0-1.6 1.3-2.8 2.9-2.8 1.6 0 2.9 1.2 2.9 2.8z"/>
				<path id="&lt;Path&gt;" class="s4" d="m964.9 52.9c0 3.8-3.1 7-7 7-3.9 0-7-3.2-7-7 0-3.9 3.1-7.1 7-7.1 3.9 0 7 3.2 7 7.1z"/>
				<path id="&lt;Path&gt;" class="s4" d="m1357.9 48.7c0 1.5-1.3 2.8-2.9 2.8-1.5 0-2.8-1.3-2.8-2.8 0-1.6 1.3-2.9 2.8-2.9 1.6 0 2.9 1.3 2.9 2.9z"/>
				<path id="&lt;Path&gt;" class="s4" d="m1282.9 113.2c0 0.8-0.7 1.4-1.5 1.4-0.8 0-1.4-0.6-1.4-1.4 0-0.9 0.6-1.5 1.4-1.5 0.8 0 1.5 0.6 1.5 1.5z"/>
				<path id="&lt;Path&gt;" class="s4" d="m1295.6 60.6c0 1.8-1.5 3.3-3.3 3.3-1.9 0-3.4-1.5-3.4-3.3 0-1.9 1.5-3.4 3.4-3.4 1.8 0 3.3 1.5 3.3 3.4z"/>
				<path id="&lt;Path&gt;" class="s4" d="m1334.2 93.5c0 1.5-1.2 2.8-2.7 2.8-1.5 0-2.8-1.3-2.8-2.8 0-1.5 1.3-2.7 2.8-2.7 1.5 0 2.7 1.2 2.7 2.7z"/>
				<path id="&lt;Path&gt;" class="s4" d="m1407 80c0 1-0.8 1.7-1.8 1.7-1 0-1.8-0.7-1.8-1.7 0-1 0.8-1.8 1.8-1.8 1 0 1.8 0.8 1.8 1.8z"/>
				<path id="&lt;Path&gt;" class="s4" d="m1426.3 254c0 2.7-2.2 4.8-4.8 4.8-2.6 0-4.8-2.1-4.8-4.8 0-2.6 2.2-4.7 4.8-4.7 2.6 0 4.8 2.1 4.8 4.7z"/>
				<path id="&lt;Path&gt;" class="s4" d="m1385.1 189.5c0 3.2-2.6 5.9-5.9 5.9-3.3 0-6-2.7-6-5.9 0-3.3 2.7-6 6-6 3.3 0 5.9 2.7 5.9 6z"/>
				<path id="&lt;Path&gt;" class="s4" d="m1242.7 326.5c0 2.5-2.1 4.5-4.5 4.5-2.5 0-4.5-2-4.5-4.5 0-2.5 2-4.5 4.5-4.5 2.4 0 4.5 2 4.5 4.5z"/>
				<path id="&lt;Path&gt;" class="s4" d="m1277.8 289.7c0 2.4-2 4.4-4.4 4.4-2.4 0-4.3-2-4.3-4.4 0-2.4 1.9-4.3 4.3-4.3 2.4 0 4.4 1.9 4.4 4.3z"/>
				<path id="&lt;Path&gt;" class="s4" d="m1219.8 289.7c0 2.4-1.9 4.4-4.3 4.4-2.5 0-4.4-2-4.4-4.4 0-2.4 1.9-4.3 4.4-4.3 2.4 0 4.3 1.9 4.3 4.3z"/>
				<path id="&lt;Path&gt;" class="s4" d="m1186.1 336.6c0 3.2-2.6 5.7-5.7 5.7-3.1 0-5.6-2.5-5.6-5.7 0-3.1 2.5-5.6 5.6-5.6 3.1 0 5.7 2.5 5.7 5.6z"/>
				<path id="&lt;Path&gt;" class="s4" d="m1153.3 315.8c0 1.8-1.6 3.3-3.4 3.3-1.9 0-3.4-1.5-3.4-3.3 0-1.9 1.5-3.4 3.4-3.4 1.8 0 3.4 1.5 3.4 3.4z"/>
				<path id="&lt;Path&gt;" class="s4" d="m1195.3 381c0 2.6-2 4.7-4.6 4.7-2.6 0-4.6-2.1-4.6-4.7 0-2.5 2-4.6 4.6-4.6 2.6 0 4.6 2.1 4.6 4.6z"/>
				<path id="&lt;Path&gt;" class="s4" d="m1445.6 179.7c0 2.1-1.7 3.8-3.8 3.8-2.1 0-3.8-1.7-3.8-3.8 0-2.1 1.7-3.8 3.8-3.8 2.1 0 3.8 1.7 3.8 3.8z"/>
				<path id="&lt;Path&gt;" class="s4" d="m1462.7 126.2c0 1.9-1.5 3.5-3.4 3.5-1.9 0-3.4-1.6-3.4-3.5 0-1.8 1.5-3.4 3.4-3.4 1.9 0 3.4 1.6 3.4 3.4z"/>
				<path id="&lt;Path&gt;" class="s4" d="m1386.6 134.6c0 3.3-2.7 6-6 6-3.4 0-6.1-2.7-6.1-6 0-3.4 2.7-6.1 6.1-6.1 3.3 0 6 2.7 6 6.1z"/>
				<path id="&lt;Path&gt;" class="s4" d="m1450.2 55.3c0 2.9-2.4 5.3-5.3 5.3-2.8 0-5.2-2.4-5.2-5.3 0-2.8 2.4-5.2 5.2-5.2 2.9 0 5.3 2.4 5.3 5.2z"/>
				<path id="&lt;Path&gt;" class="s4" d="m703.1 36c0 2.5-2 4.5-4.4 4.5-2.5 0-4.5-2-4.5-4.5 0-2.4 2-4.4 4.5-4.4 2.4 0 4.4 2 4.4 4.4z"/>
				<path id="&lt;Path&gt;" class="s4" d="m469.9 20.7c0 1.4-1.2 2.5-2.6 2.5-1.4 0-2.5-1.1-2.5-2.5 0-1.4 1.1-2.6 2.5-2.6 1.4 0 2.6 1.2 2.6 2.6z"/>
				<path id="&lt;Path&gt;" class="s4" d="m338.1 20.7c0 1.4-1.2 2.5-2.6 2.5-1.4 0-2.5-1.1-2.5-2.5 0-1.4 1.1-2.6 2.5-2.6 1.4 0 2.6 1.2 2.6 2.6z"/>
				<path id="&lt;Path&gt;" class="s4" d="m750 424.7c0 2.8-2.3 5.1-5.2 5.1-2.8 0-5.2-2.3-5.2-5.1 0-2.9 2.4-5.2 5.2-5.2 2.9 0 5.2 2.3 5.2 5.2z"/>
				<path id="&lt;Path&gt;" class="s4" d="m787.9 342.6c0 3.3-2.6 5.9-5.9 5.9-3.3 0-6-2.6-6-5.9 0-3.3 2.7-6 6-6 3.3 0 5.9 2.7 5.9 6z"/>
				<path id="&lt;Path&gt;" class="s4" d="m689.9 391.5c0 3.2-2.6 5.8-5.8 5.8-3.2 0-5.8-2.6-5.8-5.8 0-3.2 2.6-5.8 5.8-5.8 3.2 0 5.8 2.6 5.8 5.8z"/>
				<path id="&lt;Path&gt;" class="s4" d="m646.6 511.3c0 1.2-0.9 2.1-2.1 2.1-1.2 0-2.1-0.9-2.1-2.1 0-1.2 0.9-2.1 2.1-2.1 1.2 0 2.1 0.9 2.1 2.1z"/>
				<path id="&lt;Path&gt;" class="s4" d="m830.2 464.9c0 1.2-1 2.2-2.2 2.2-1.1 0-2.1-1-2.1-2.2 0-1.1 1-2.1 2.1-2.1 1.2 0 2.2 1 2.2 2.1z"/>
				<path id="&lt;Path&gt;" class="s4" d="m812.9 553.8c0 1.4-1.1 2.6-2.5 2.6-1.4 0-2.5-1.2-2.5-2.6 0-1.4 1.1-2.5 2.5-2.5 1.4 0 2.5 1.1 2.5 2.5z"/>
				<path id="&lt;Path&gt;" class="s4" d="m889.4 459.9c0 1.6-1.3 2.9-2.9 2.9-1.7 0-3-1.3-3-2.9 0-1.7 1.3-3 3-3 1.6 0 2.9 1.3 2.9 3z"/>
				<path id="&lt;Path&gt;" class="s4" d="m564.4 501.8c0 1.3-1.1 2.4-2.4 2.4-1.3 0-2.3-1.1-2.3-2.4 0-1.3 1-2.3 2.3-2.3 1.3 0 2.4 1 2.4 2.3z"/>
				<path id="&lt;Path&gt;" class="s4" d="m602.7 447.6c0 0.6-0.5 1.1-1.1 1.1-0.6 0-1.1-0.5-1.1-1.1 0-0.6 0.5-1.1 1.1-1.1 0.6 0 1.1 0.5 1.1 1.1z"/>
				<path id="&lt;Path&gt;" class="s4" d="m118 464.5c0 2.5-2 4.6-4.6 4.6-2.5 0-4.6-2.1-4.6-4.6 0-2.6 2.1-4.6 4.6-4.6 2.6 0 4.6 2 4.6 4.6z"/>
				<path id="&lt;Path&gt;" class="s4" d="m46.6 409.2c0 2.5-2 4.5-4.5 4.5-2.4 0-4.4-2-4.4-4.5 0-2.4 2-4.4 4.4-4.4 2.5 0 4.5 2 4.5 4.4z"/>
				<path id="&lt;Path&gt;" class="s4" d="m1386.2 372.9c0 1.9-1.6 3.5-3.5 3.5-2 0-3.5-1.6-3.5-3.5 0-2 1.5-3.6 3.5-3.6 1.9 0 3.5 1.6 3.5 3.6z"/>
				<path id="&lt;Path&gt;" class="s4" d="m1344 432.7c0 1.6-1.3 2.9-2.9 2.9-1.6 0-2.9-1.3-2.9-2.9 0-1.6 1.3-2.9 2.9-2.9 1.6 0 2.9 1.3 2.9 2.9z"/>
				<path id="&lt;Path&gt;" class="s4" d="m986.6 479.1c0 1.3-1.1 2.5-2.5 2.5-1.4 0-2.5-1.2-2.5-2.5 0-1.4 1.1-2.6 2.5-2.6 1.4 0 2.5 1.2 2.5 2.6z"/>
				<path id="&lt;Path&gt;" class="s4" d="m944.3 558c0 3-2.4 5.4-5.3 5.4-2.9 0-5.3-2.4-5.3-5.4 0-2.9 2.4-5.3 5.3-5.3 2.9 0 5.3 2.4 5.3 5.3z"/>
				<path id="&lt;Path&gt;" class="s4" d="m1411 464.9c0 1.2-1 2.2-2.1 2.2-1.2 0-2.1-1-2.1-2.2 0-1.1 0.9-2.1 2.1-2.1 1.1 0 2.1 1 2.1 2.1z"/>
				<path id="&lt;Path&gt;" class="s4" d="m1311.1 399.6c0 2.9-2.3 5.2-5.2 5.2-2.8 0-5.1-2.3-5.1-5.2 0-2.8 2.3-5.1 5.1-5.1 2.9 0 5.2 2.3 5.2 5.1z"/>
				<path id="&lt;Path&gt;" class="s4" d="m1455.9 330c0 1.9-1.5 3.4-3.5 3.4-1.9 0-3.4-1.5-3.4-3.4 0-1.9 1.5-3.5 3.4-3.5 2 0 3.5 1.6 3.5 3.5z"/>
				<path id="&lt;Path&gt;" class="s4" d="m1363.4 489.8c0 2.3-1.9 4.2-4.2 4.2-2.3 0-4.2-1.9-4.2-4.2 0-2.3 1.9-4.1 4.2-4.1 2.3 0 4.2 1.8 4.2 4.1z"/>
			</g>
			<g id="&lt;Group&gt;">
				<g id="&lt;Group&gt;">
					<path id="&lt;Path&gt;" class="s0" d="m1301 910.7c-0.4 0-0.7-0.2-0.9-0.5-0.3-0.5-0.1-1.1 0.4-1.4 2.7-1.6 4.4-3.7 5-6.4 1.6-6.2-2.6-13.2-2.7-13.3-0.2-0.4-0.1-1 0.4-1.3 0.5-0.3 1.1-0.2 1.4 0.3 0.1 0.3 4.6 7.8 2.9 14.7-0.8 3.3-2.8 5.9-6 7.7q-0.3 0.2-0.5 0.2z"/>
					<path id="&lt;Path&gt;" class="s0" d="m1269.5 920.4q-2.8 0-6-0.6c-0.6-0.1-0.9-0.7-0.8-1.2 0.1-0.5 0.6-0.9 1.2-0.8 20.2 4.2 28.5-14.5 28.8-15.3 0.2-0.5 0.8-0.8 1.3-0.5 0.5 0.2 0.8 0.8 0.5 1.3 0 0.2-7.5 17.1-25 17.1z"/>
					<path id="&lt;Path&gt;" class="s0" d="m1282.4 916.8c-0.6 0-1-0.5-1-1 0-0.3-0.2-7.6-8.2-10.1-0.5-0.2-0.8-0.8-0.6-1.3 0.2-0.5 0.7-0.8 1.3-0.6 9.3 3 9.5 11.9 9.5 12 0 0.5-0.5 1-1 1q0 0 0 0z"/>
					<path id="&lt;Path&gt;" class="s0" d="m1293.8 934.4c-3.1 0-6.5-0.7-9.8-2.4-0.5-0.2-0.7-0.8-0.4-1.3 0.2-0.5 0.8-0.7 1.3-0.4 13.2 6.7 26.5-4.5 26.6-4.6 0.5-0.4 1.1-0.4 1.4 0.1 0.4 0.4 0.4 1-0.1 1.4-0.1 0.1-8.6 7.2-19 7.2z"/>
					<path id="&lt;Path&gt;" class="s0" d="m1309 921.8c-0.4 0-0.8-0.3-1-0.7-0.2-0.5 0.1-1.1 0.6-1.3 0.2 0 15.6-6 15.9-20.6 0-0.5 0.5-0.9 1-0.9 0.6 0 1 0.4 1 1-0.3 15.9-17 22.3-17.2 22.4q-0.1 0.1-0.3 0.1z"/>
					<path id="&lt;Path&gt;" class="s5" d="m1298.1 889.1c-1.6-2.1-1.1-5.1 1-6.6 2-1.6 5-1.2 6.6 0.9 1.6 2.1 1.1 5-0.9 6.6-2.1 1.6-5.1 1.2-6.7-0.9z"/>
					<path id="&lt;Path&gt;" class="s5" d="m1267.2 906.5c-1.6-2.1-1.2-5.1 0.9-6.6 2.1-1.6 5.1-1.2 6.6 0.9 1.6 2.1 1.2 5.1-0.9 6.6-2.1 1.6-5.1 1.2-6.6-0.9z"/>
					<path id="&lt;Path&gt;" class="s5" d="m1278.4 932.8c-1.6-2.1-1.2-5.1 0.9-6.7 2.1-1.6 5.1-1.1 6.7 1 1.5 2 1.1 5-1 6.6-2.1 1.6-5 1.2-6.6-0.9z"/>
					<path id="&lt;Path&gt;" class="s5" d="m1268.7 890c-1.5-2-1.1-5 1-6.6 2.1-1.6 5-1.2 6.6 0.9 1.6 2.1 1.2 5.1-0.9 6.7-2.1 1.6-5.1 1.1-6.7-1z"/>
					<path id="&lt;Path&gt;" class="s5" d="m1257.5 920.8c-1.6-2.1-1.1-5 0.9-6.6 2.1-1.6 5.1-1.2 6.7 0.9 1.6 2.1 1.1 5.1-0.9 6.7-2.1 1.5-5.1 1.1-6.7-1z"/>
					<path id="&lt;Path&gt;" class="s5" d="m1321.7 900.1c-1.5-2.1-1.1-5.1 1-6.7 2.1-1.5 5-1.1 6.6 1 1.6 2.1 1.2 5-0.9 6.6-2.1 1.6-5.1 1.2-6.7-0.9z"/>
				</g>
				<path id="&lt;Path&gt;" class="s1" d="m1246.9 1000c0 0 17.7-66.1 84.7-50.1 19.9-23.5 41.8-4.8 41.8-4.8 0 0 0-57.4 67.8-48.6 31.5-28.5 58.8 0.3 58.8 0.3v103.2z"/>
			</g>
			<path id="&lt;Path&gt;" class="s2" d="m1011.4 836.7c0 4.4-12.6 8-28.2 8-15.5 0-28.1-3.6-28.1-8 0-4.3 12.6-7.9 28.1-7.9 15.6 0 28.2 3.6 28.2 7.9z"/>
			<path id="&lt;Path&gt;" class="s2" d="m481 785.2c0 4.3-12.6 7.9-28.2 7.9-15.5 0-28.1-3.6-28.1-7.9 0-4.4 12.6-8 28.1-8 15.6 0 28.2 3.6 28.2 8z"/>
			<path id="&lt;Path&gt;" class="s2" d="m1133 917c0 8.1-23.1 14.6-51.7 14.6-28.6 0-51.8-6.5-51.8-14.6 0-8 23.2-14.5 51.8-14.5 28.6 0 51.7 6.5 51.7 14.5z"/>
			<path id="&lt;Path&gt;" class="s2" d="m921.2 863.7c0 2.6-7.6 4.8-17 4.8-9.4 0-17-2.2-17-4.8 0-2.7 7.6-4.8 17-4.8 9.4 0 17 2.1 17 4.8z"/>
			<path id="&lt;Path&gt;" class="s2" d="m408.9 753.1c0 2.7-7.6 4.8-17 4.8-9.4 0-17-2.1-17-4.8 0-2.6 7.6-4.8 17-4.8 9.4 0 17 2.2 17 4.8z"/>
			<path id="&lt;Path&gt;" class="s2" d="m515.5 766.9c0 1.9-5.4 3.4-12 3.4-6.7 0-12.1-1.5-12.1-3.4 0-1.9 5.4-3.4 12.1-3.4 6.6 0 12 1.5 12 3.4z"/>
			<path id="&lt;Path&gt;" class="s2" d="m60.2 714.5c0 1.8-5.4 3.4-12.1 3.4-6.6 0-12-1.6-12-3.4 0-1.9 5.4-3.4 12-3.4 6.7 0 12.1 1.5 12.1 3.4z"/>
			<path id="&lt;Path&gt;" class="s2" d="m877.7 844.7c0 1.8-5.4 3.3-12.1 3.3-6.6 0-12-1.5-12-3.3 0-1.9 5.4-3.4 12-3.4 6.7 0 12.1 1.5 12.1 3.4z"/>
			<path id="&lt;Path&gt;" class="s2" d="m1115.3 778.5c0 2.6-7.6 4.8-17 4.8-9.4 0-17-2.2-17-4.8 0-2.6 7.6-4.8 17-4.8 9.4 0 17 2.2 17 4.8z"/>
			<path id="&lt;Path&gt;" class="s4" d="m306 800.5c-21 24.9-89.8 13.5-91.2-28.3-16.1-1.1-22.6-7.6-25.3-12.9 11.4-5.4 24.2-8.5 37.7-8.5 34.3 0 64 19.8 78.3 48.6q0.2 0.6 0.5 1.1z"/>
		</g>
	</g>
</svg>