<svg version="1.2" xmlns="http://www.w3.org/2000/svg" viewBox="0 0 1000 400" width="1000" height="400">
	<title>2107</title>
	<defs>
		<clipPath clipPathUnits="userSpaceOnUse" id="cp1">
			<path d="m1000 400h-1000v-400h1000z"/>
		</clipPath>
		<linearGradient id="g1" x2="1" gradientUnits="userSpaceOnUse" gradientTransform="matrix(0,-162.667,906.6,0,563.627,349.667)">
			<stop offset=".006" stop-color="#86f9ff"/>
			<stop offset="1" stop-color="#4c51dd"/>
		</linearGradient>
		<linearGradient id="g2" x2="1" gradientUnits="userSpaceOnUse" gradientTransform="matrix(0,-190.372,1007.333,0,517.655,372.375)">
			<stop offset=".006" stop-color="#86c4ff"/>
			<stop offset="1" stop-color="#4c40dd"/>
		</linearGradient>
		<linearGradient id="g3" x2="1" gradientUnits="userSpaceOnUse" gradientTransform="matrix(-3.03,86.745,-1554.755,-54.315,176.128,247.6)">
			<stop offset="0" stop-color="#38eac9"/>
			<stop offset="1" stop-color="#000000"/>
		</linearGradient>
		<linearGradient id="g4" x2="1" gradientUnits="userSpaceOnUse" gradientTransform="matrix(-1.631,46.685,-836.738,-29.231,202.118,272.207)">
			<stop offset="0" stop-color="#38eac9"/>
			<stop offset="1" stop-color="#000000"/>
		</linearGradient>
	</defs>
	<style>
		.s0 { fill: url(#g1) } 
		.s1 { mix-blend-mode: soft-light;fill: #ffffff } 
		.s2 { opacity: .5;mix-blend-mode: soft-light;fill: #ffffff } 
		.s3 { fill: url(#g2) } 
		.s4 { opacity: .5;fill: #ffffff } 
		.s5 { fill: #4f8df4 } 
		.s6 { fill: #ffffff } 
		.s7 { opacity: .9;mix-blend-mode: screen;fill: url(#g3) } 
		.s8 { opacity: .9;mix-blend-mode: screen;fill: url(#g4) } 
	</style>
	<g id="layer1">
		<g id="&lt;Group&gt;">
			<g id="&lt;Clip Group&gt;" clip-path="url(#cp1)">
				<g id="&lt;Group&gt;">
					<path id="&lt;Path&gt;" class="s0" d="m95.7 286.9l49.7-12.6h4l140.6-53.7 40.2 22.2 3.8 0.9 50.2 23.3 3.8 0.9 15.7 5.5 24.8 3.9-67.6-12.7 2.1-0.2 33.4-14.3 7.2-2.2 35.9 18.3 2.4-0.2 6.4 6 9 4.1 58.1-51.1h2.8l36-36.7 3.5-1.3 22.2 20.2 1.7 0.3 84.1 66.8 2.9 0.4 66-18.7 4.6-0.3 80.9 40.8 51.6-29.7 3 0.2 75.6-38.5 52 18.6v102.6l-906.6-0.2z"/>
					<path id="&lt;Path&gt;" class="s1" d="m557.7 187l25.4 29.7-21.4-22.1-5.7 1.2 25 32.7-16.1-18.6-13.7 13.4 2.9 19.1-2.9 0.7-6.3-8.6-3.3 1.1 11 26.5-53.9 30.7-38-19.5 54.7-48.3 19 29-16.2-29 36-36.7z"/>
					<path id="&lt;Path&gt;" class="s1" d="m632.7 265.5l-49.6-48.8 25.9 26.7-1.1 1.1 13.7 16.7z"/>
					<path id="&lt;Path&gt;" class="s1" d="m290 220.6l23.2 20.5-23.2-16.8-3.1 0.7 14.7 11.9-11.3-6.1-15.7 7.6 19.3 24-11.6-11.7-2.3 0.2 9 8.5-26.2 14.9-30.1-26.4-3.4 1.5 17.4 16.1-55.1-7.3z"/>
					<path id="&lt;Path&gt;" class="s1" d="m739.2 255.7l11.6 7.9-8.8-4-2.8-0.5 15.7 17.6-15.7 2.8-22.6-15.5-2.1 0.2 3.5 2.6-5.9-3.7-4.1 0.4 13.6 13-22.3 0.7-10.5-8.4 45.8-12.8z"/>
					<path id="&lt;Path&gt;" class="s2" d="m515.4 225l27.5 42.6-27.5 15.6-14-40.3 8.9 43.2-4.4 2.6-14.6-42.5z"/>
					<path id="&lt;Path&gt;" class="s1" d="m554.2 188.3l1.8 7.5 25 32.7-16.1-18.6-13.7 13.4-8.3-16.5 11.2 35.6-2.9 0.7-6.3-8.6-11.1-25.5z"/>
					<path id="&lt;Path&gt;" class="s2" d="m268.6 228.8l25.3 33.6-11.6-11.7-13.7-12.7 11.4 12.9 9 8.5-12.9 7.3-22.1-27.3 19 29.1-5.1 2.9-22.5-33.8z"/>
					<path id="&lt;Path&gt;" class="s1" d="m840.3 284.9l31.4-18.1 44.1 32.1-41.1-31.9 75.6-38.5 19.3 8.7-4.8 10.5-18.9-7.3h-1.9l31.5 18.5-35.9 16-27.9-19.2h-2.8l39.7 33.5-31.9-23.7-16.8-3.1 70.2 53.4-65.2 7.6-49.4-32.6 28.4 22z"/>
					<path id="&lt;Path&gt;" class="s1" d="m871.7 266.8l44.1 32.1 22.4 19.3-10.8 0.9-55.7-44.8-3.5 1.7 42 32.9-21 4.2-42.8-31.7z"/>
					<path id="&lt;Path&gt;" class="s1" d="m950.3 228.5l19.3 8.7-2.5 5.6-19.1-11.2-0.9 0.9 18.3 14-0.6 1.2-28.8-11.9z"/>
					<path id="&lt;Path&gt;" class="s1" d="m933.5 237.1l32.3 26.1-16.2 7.2-28.3-22.7h-2.3l25.1 25.2-4.5 2-33.6-23.8z"/>
				</g>
				<g id="&lt;Group&gt;">
					<path id="&lt;Path&gt;" class="s3" d="m902.6 237.6l-139.6 62.4h-5.1l-116.7-25.1h-4.1l-49.1-24.8-58.6 27.2-2.6 0.3-30.5 17.3-2.1-0.6-65.6-62.5-2 0.2-49-50h-5l-40.7 51-4.2 3.2-30.4 38.7-67-8.8-1.8-1.9-132.4-34.6-3.6 1.2-36 45.6-33.1 11.8-27.4-31.7v99.7l1007.3 16.2v-68.6l-86.5-48.7-4.1-2.3z"/>
					<path id="&lt;Path&gt;" class="s4" d="m427.6 231.8l4.8 5.9 20.6 41.3-24.4-19.2-6.7-2.7-1.1 2.6 3.2 9-5.1-9 6.7-27.7z"/>
					<path id="&lt;Compound Path&gt;" fill-rule="evenodd" class="s1" d="m289 301.3l31.3-42.8 2.1-6-20.8 21.8-5.3 0.6 30.4-38.7 6.9 2.1-2.7-5.3 40.7-51h5l13.4 11.4-11.5-8.7-1.9-0.5-5.4 7.6 9.4 26.8-3.9-13.9 9.2 25.8-7.6-10.3-7.1 49.5 25.4 35.4zm86.4-13h3.3l-4.6-3.3-1.9-0.8zm-37.3-4.8l-2.3-1 2.3 16.4h6.4zm38.2-65.4l-7-27-2.1-1.3 2.4 26.3zm-6.2 53.7l-6.4-1.8 12.5 15.1 4.7 2.3z"/>
					<path id="&lt;Path&gt;" class="s1" d="m388.2 234.4l4 2.8 17.4 36-19.7-34z"/>
					<path id="&lt;Path&gt;" class="s1" d="m486.1 308.3l-33.1-29.3 22.1 22.7-5.5-1.7 4.5 7.9z"/>
					<path id="&lt;Compound Path&gt;" fill-rule="evenodd" class="s1" d="m587 250.1l-3.3 8 35.3 29.3-18.9-11.3-5.7-0.1 3.1 3.3-23.3 11.5 18.3 21.3-47.8-1.7-16.3-33.1zm11 28.9l5 6.3-5.6-6zm-2.8-5.1h3.3l-6.1-6.8-4.5-1.4zm-19.9 24.4l1.8-0.7-2.7-3.2-0.9 1.6zm-1.7-9.8h2.4l-9.4-9.9-3.9-2.1z"/>
					<path id="&lt;Path&gt;" class="s1" d="m525.8 277.6l15.8 32.7-37.7-2-8.6-13.4 13.2-7.5 9.9 17.7-6.3-19.8z"/>
					<path id="&lt;Path&gt;" class="s1" d="m636.1 274.9l68.7 41.3 9.7 0.3-74.3-41.6z"/>
					<path id="&lt;Compound Path&gt;" fill-rule="evenodd" class="s1" d="m901.6 237.6l6.3 33.6-18.7-12.7-3 1.6 41.2 55.4-8.1-0.6-48.8-59.4-13.3 4.6 37 62.8-67.7-2.4-30.9-26.8-5.2 0.7 22.1 25.6-31.3-1.1-19.2-18.9zm-79.4 72.8l-7.4-16-10.2-9.4-2.3 1.4z"/>
					<path id="&lt;Path&gt;" class="s1" d="m229.3 266.1l23 21.3-15.1-17.2 3.6 0.5 29.6 23 25.9-18.8z"/>
					<path id="&lt;Path&gt;" class="s5" d="m673.4 315l-6.1-2.9h-9.8l-30.7 1.5z"/>
					<path id="&lt;Path&gt;" class="s1" d="m367 189.7l-29.6 36.9 22.4-27.9 0.4 1.8-14.7 23.8 18.1 45.7 6.3 1.8 1.3-2.1 3.4-19.3-7.6-24.7 8 13.2 3-17.3-9.4-6.3z"/>
					<path id="&lt;Path&gt;" class="s1" d="m788 288.4l2.4 6 14.6 16.8-23.1-0.4-6-15.3 5 15.3-8.1-0.2-10.8-10.6z"/>
					<path id="&lt;Path&gt;" class="s1" d="m166 297.2l-63.6-65.7-7.3-1.9-3.6 1.2-10.8 13.7 37.7 50.7 3.6 0.3-27.1-47.5 11.8 12.4 17.5 35 3.6 0.1-17.8-37 22.4 37.2 25.2 1.5-45.4-53.3 50.2 52.4z"/>
					<path id="&lt;Path&gt;" class="s1" d="m636.1 280.3l-4.7 9.9 8.1 13.8-5.1-11.8 5.7 7.9-2.3-18z"/>
					<path id="&lt;Path&gt;" class="s1" d="m404.9 276.3l-7.3 14.3 7.3-3.2z"/>
					<path id="&lt;Path&gt;" class="s1" d="m191.6 267.9l18.4 22.6 40.4 6.4-38-7.1 38 4.8-3.2-6.3z"/>
					<path id="&lt;Path&gt;" class="s1" d="m925.8 300.4h35.9l37.6 16.7-21-0.4-32.4-14-3.4-0.2 16.6 13.3-22.3-1.2z"/>
					<path id="&lt;Path&gt;" class="s1" d="m901.6 237.6l6.3 33.6-6.3-4.3-14.6-22.7-3 1.3 5.2 13-3 1.6 41.2 55.4-51.7-66.1z"/>
					<path id="&lt;Path&gt;" class="s1" d="m78.3 247.5l25.6 46h-1.9l-24.6-38.5-0.8 1 19.1 35.2-12.4-4.6-15.4-26z"/>
					<path id="&lt;Path&gt;" class="s1" d="m65.8 263.4l12 21.2-1.3-0.5-13.3-17.4z"/>
					<path id="&lt;Path&gt;" class="s1" d="m51.2 277.9l19.6 15.8-17.6-0.8-12.5-10.5-3.5 0.5 9.2 9.3-9.2 0.1-7.7-6.5z"/>
				</g>
				<g id="&lt;Group&gt;">
					<g id="&lt;Group&gt;" style="mix-blend-mode: soft-light">
						<path id="&lt;Path&gt;" class="s6" d="m184.7 355.2c0 0.9-0.8 1.7-1.8 1.7-0.9 0-1.7-0.8-1.7-1.7 0-1 0.8-1.8 1.7-1.8 1 0 1.8 0.8 1.8 1.8z"/>
						<path id="&lt;Path&gt;" class="s6" d="m57.3 324.4c0 1-0.8 1.7-1.8 1.7-0.9 0-1.7-0.7-1.7-1.7 0-1 0.8-1.7 1.7-1.7 1 0 1.8 0.7 1.8 1.7z"/>
						<path id="&lt;Path&gt;" class="s6" d="m209.1 395.4c0 0.6-0.5 1.2-1.2 1.2-0.7 0-1.2-0.6-1.2-1.2 0-0.7 0.5-1.3 1.2-1.3 0.7 0 1.2 0.6 1.2 1.3z"/>
						<path id="&lt;Path&gt;" class="s6" d="m39.2 355.2c0 0.7-0.6 1.2-1.3 1.2-0.7 0-1.2-0.5-1.2-1.2 0-0.7 0.5-1.3 1.2-1.3 0.7 0 1.3 0.6 1.3 1.3z"/>
						<path id="&lt;Path&gt;" class="s6" d="m159 376.9c0 0.6-0.6 1.2-1.3 1.2-0.6 0-1.2-0.6-1.2-1.2 0-0.7 0.6-1.3 1.2-1.3 0.7 0 1.3 0.6 1.3 1.3z"/>
						<path id="&lt;Path&gt;" class="s6" d="m219.9 306.8c0 0.7-0.5 1.2-1.2 1.2-0.7 0-1.2-0.5-1.2-1.2 0-0.7 0.5-1.3 1.2-1.3 0.7 0 1.2 0.6 1.2 1.3z"/>
						<path id="&lt;Path&gt;" class="s6" d="m220.9 359.1c0 0.7-0.6 1.2-1.3 1.2-0.6 0-1.2-0.5-1.2-1.2 0-0.7 0.6-1.2 1.2-1.2 0.7 0 1.3 0.5 1.3 1.2z"/>
						<path id="&lt;Path&gt;" class="s6" d="m149.7 362.4c0 0.5-0.4 0.9-0.9 0.9-0.5 0-0.9-0.4-0.9-0.9 0-0.5 0.4-0.9 0.9-0.9 0.5 0 0.9 0.4 0.9 0.9z"/>
						<path id="&lt;Path&gt;" class="s6" d="m88.9 349c0 0.5-0.4 0.9-0.9 0.9-0.5 0-0.9-0.4-0.9-0.9 0-0.5 0.4-0.9 0.9-0.9 0.5 0 0.9 0.4 0.9 0.9z"/>
						<path id="&lt;Path&gt;" class="s6" d="m8 375.4c0 0.5-0.4 0.9-0.9 0.9-0.5 0-0.9-0.4-0.9-0.9 0-0.5 0.4-0.9 0.9-0.9 0.5 0 0.9 0.4 0.9 0.9z"/>
						<path id="&lt;Path&gt;" class="s6" d="m8 354.6c0 0.5-0.4 1-0.9 1-0.5 0-0.9-0.5-0.9-1 0-0.5 0.4-0.9 0.9-0.9 0.5 0 0.9 0.4 0.9 0.9z"/>
						<path id="&lt;Path&gt;" class="s6" d="m24.9 301.4c0 0.5-0.4 1-0.9 1-0.5 0-0.9-0.5-0.9-1 0-0.5 0.4-0.9 0.9-0.9 0.5 0 0.9 0.4 0.9 0.9z"/>
						<path id="&lt;Path&gt;" class="s6" d="m188.5 381.3c0 0.3-0.3 0.6-0.6 0.6-0.3 0-0.6-0.3-0.6-0.6 0-0.3 0.3-0.6 0.6-0.6 0.3 0 0.6 0.3 0.6 0.6z"/>
						<path id="&lt;Path&gt;" class="s6" d="m155.1 376.3c0 0.3-0.3 0.6-0.6 0.6-0.3 0-0.6-0.3-0.6-0.6 0-0.3 0.3-0.6 0.6-0.6 0.3 0 0.6 0.3 0.6 0.6z"/>
						<path id="&lt;Path&gt;" class="s6" d="m155.7 389.9c0 0.4-0.3 0.6-0.6 0.6-0.3 0-0.6-0.2-0.6-0.6 0-0.3 0.3-0.6 0.6-0.6 0.3 0 0.6 0.3 0.6 0.6z"/>
						<path id="&lt;Path&gt;" class="s6" d="m163.1 386.4c0 0.4-0.2 0.6-0.5 0.6-0.4 0-0.6-0.2-0.6-0.6 0-0.3 0.2-0.5 0.6-0.5 0.3 0 0.5 0.2 0.5 0.5z"/>
						<path id="&lt;Path&gt;" class="s6" d="m147.6 389c0 0.3-0.3 0.6-0.6 0.6-0.3 0-0.6-0.3-0.6-0.6 0-0.3 0.3-0.6 0.6-0.6 0.3 0 0.6 0.3 0.6 0.6z"/>
						<path id="&lt;Path&gt;" class="s6" d="m-22.4 408.7c0 0.3-0.2 0.5-0.6 0.5-0.3 0-0.5-0.2-0.5-0.5 0-0.4 0.2-0.6 0.5-0.6 0.4 0 0.6 0.2 0.6 0.6z"/>
						<path id="&lt;Path&gt;" class="s6" d="m193.7 343.8c0 0.3-0.3 0.6-0.6 0.6-0.3 0-0.6-0.3-0.6-0.6 0-0.3 0.3-0.6 0.6-0.6 0.3 0 0.6 0.3 0.6 0.6z"/>
						<path id="&lt;Path&gt;" class="s6" d="m165.3 377.2c0 0.1-0.1 0.2-0.3 0.2-0.2 0-0.3-0.1-0.3-0.2 0-0.2 0.1-0.3 0.3-0.3 0.2 0 0.3 0.1 0.3 0.3z"/>
						<path id="&lt;Path&gt;" class="s6" d="m37 417.6c0 0.2-0.2 0.3-0.3 0.3-0.2 0-0.3-0.1-0.3-0.3 0-0.1 0.1-0.3 0.3-0.3 0.1 0 0.3 0.2 0.3 0.3z"/>
						<path id="&lt;Path&gt;" class="s6" d="m95.6 377.4c0 0.2-0.1 0.3-0.3 0.3-0.1 0-0.3-0.1-0.3-0.3 0-0.1 0.2-0.2 0.3-0.2 0.2 0 0.3 0.1 0.3 0.2z"/>
						<path id="&lt;Path&gt;" class="s6" d="m29.7 373.3c0 0.2-0.2 0.3-0.3 0.3-0.2 0-0.3-0.1-0.3-0.3 0-0.1 0.1-0.2 0.3-0.2 0.1 0 0.3 0.1 0.3 0.2z"/>
						<path id="&lt;Path&gt;" class="s6" d="m129.1 373.1c0 0.1-0.1 0.2-0.3 0.2-0.2 0-0.3-0.1-0.3-0.2 0-0.2 0.1-0.3 0.3-0.3 0.2 0 0.3 0.1 0.3 0.3z"/>
						<path id="&lt;Path&gt;" class="s6" d="m88.3 375.7c0 0.2-0.1 0.3-0.3 0.3-0.2 0-0.3-0.1-0.3-0.3 0-0.2 0.1-0.3 0.3-0.3 0.2 0 0.3 0.1 0.3 0.3z"/>
						<path id="&lt;Path&gt;" class="s6" d="m-11.6 377.2c0 0.2-0.1 0.3-0.3 0.3-0.1 0-0.2-0.1-0.2-0.3 0-0.1 0.1-0.2 0.2-0.2 0.2 0 0.3 0.1 0.3 0.2z"/>
						<path id="&lt;Path&gt;" class="s6" d="m-22.1 376.3c0 0.1-0.1 0.3-0.3 0.3-0.1 0-0.3-0.2-0.3-0.3 0-0.2 0.2-0.3 0.3-0.3 0.2 0 0.3 0.1 0.3 0.3z"/>
						<path id="&lt;Path&gt;" class="s6" d="m160.9 381.9c0 0.2-0.1 0.3-0.3 0.3-0.1 0-0.2-0.1-0.2-0.3 0-0.2 0.1-0.3 0.2-0.3 0.2 0 0.3 0.1 0.3 0.3z"/>
						<path id="&lt;Path&gt;" class="s6" d="m105.8 382.2c0 0.2-0.1 0.3-0.3 0.3-0.1 0-0.2-0.1-0.2-0.3 0-0.2 0.1-0.3 0.2-0.3 0.2 0 0.3 0.1 0.3 0.3z"/>
						<path id="&lt;Path&gt;" class="s6" d="m29.4 383c0 0.2-0.2 0.3-0.3 0.3-0.2 0-0.3-0.1-0.3-0.3 0-0.1 0.1-0.3 0.3-0.3 0.1 0 0.3 0.2 0.3 0.3z"/>
						<path id="&lt;Path&gt;" class="s6" d="m163.1 372.5c0 0.3-0.2 0.6-0.5 0.6-0.4 0-0.6-0.3-0.6-0.6 0-0.3 0.2-0.6 0.6-0.6 0.3 0 0.5 0.3 0.5 0.6z"/>
						<path id="&lt;Path&gt;" class="s6" d="m136.4 371.9c0 0.3-0.2 0.6-0.5 0.6-0.4 0-0.6-0.3-0.6-0.6 0-0.3 0.2-0.6 0.6-0.6 0.3 0 0.5 0.3 0.5 0.6z"/>
						<path id="&lt;Path&gt;" class="s6" d="m26 347.3c0 0.3-0.2 0.5-0.6 0.5-0.3 0-0.5-0.2-0.5-0.5 0-0.4 0.2-0.6 0.5-0.6 0.4 0 0.6 0.2 0.6 0.6z"/>
						<path id="&lt;Path&gt;" class="s6" d="m147.6 302.4c0 0.3-0.3 0.5-0.6 0.5-0.3 0-0.6-0.2-0.6-0.5 0-0.4 0.3-0.6 0.6-0.6 0.3 0 0.6 0.2 0.6 0.6z"/>
						<path id="&lt;Path&gt;" class="s6" d="m117.2 391.5c0 0.3-0.3 0.6-0.6 0.6-0.3 0-0.6-0.3-0.6-0.6 0-0.3 0.3-0.6 0.6-0.6 0.3 0 0.6 0.3 0.6 0.6z"/>
						<path id="&lt;Path&gt;" class="s6" d="m23.1 346.7c0 0.3-0.3 0.6-0.6 0.6-0.4 0-0.6-0.3-0.6-0.6 0-0.3 0.2-0.6 0.6-0.6 0.3 0 0.6 0.3 0.6 0.6z"/>
						<path id="&lt;Path&gt;" class="s6" d="m13.4 312.9c0 0.3-0.2 0.6-0.6 0.6-0.3 0-0.5-0.3-0.5-0.6 0-0.3 0.2-0.6 0.5-0.6 0.4 0 0.6 0.3 0.6 0.6z"/>
						<path id="&lt;Path&gt;" class="s6" d="m-8.8 313.5c0 0.3-0.3 0.6-0.6 0.6-0.3 0-0.6-0.3-0.6-0.6 0-0.3 0.3-0.6 0.6-0.6 0.3 0 0.6 0.3 0.6 0.6z"/>
						<path id="&lt;Path&gt;" class="s6" d="m6.2 351.6c0 0.3-0.3 0.6-0.6 0.6-0.3 0-0.6-0.3-0.6-0.6 0-0.3 0.3-0.6 0.6-0.6 0.3 0 0.6 0.3 0.6 0.6z"/>
						<path id="&lt;Path&gt;" class="s6" d="m-9.4 311.7c0 0.4-0.2 0.6-0.6 0.6-0.3 0-0.5-0.2-0.5-0.6 0-0.3 0.2-0.5 0.5-0.5 0.4 0 0.6 0.2 0.6 0.5z"/>
						<path id="&lt;Path&gt;" class="s6" d="m22.5 311.7c0 0.4-0.3 0.6-0.6 0.6-0.3 0-0.6-0.2-0.6-0.6 0-0.3 0.3-0.5 0.6-0.5 0.3 0 0.6 0.2 0.6 0.5z"/>
						<path id="&lt;Path&gt;" class="s6" d="m128.8 344.4c0 0.3-0.3 0.5-0.6 0.5-0.3 0-0.6-0.2-0.6-0.5 0-0.4 0.3-0.6 0.6-0.6 0.3 0 0.6 0.2 0.6 0.6z"/>
						<path id="&lt;Path&gt;" class="s6" d="m32.1 304.1c0 0.3-0.2 0.6-0.5 0.6-0.4 0-0.6-0.3-0.6-0.6 0-0.3 0.2-0.6 0.6-0.6 0.3 0 0.5 0.3 0.5 0.6z"/>
						<path id="&lt;Path&gt;" class="s6" d="m-23.5 293.2c0 0.3-0.3 0.6-0.6 0.6-0.3 0-0.6-0.3-0.6-0.6 0-0.3 0.3-0.6 0.6-0.6 0.3 0 0.6 0.3 0.6 0.6z"/>
						<path id="&lt;Path&gt;" class="s6" d="m118.4 317.6c0 0.3-0.2 0.6-0.6 0.6-0.3 0-0.5-0.3-0.5-0.6 0-0.3 0.2-0.6 0.5-0.6 0.4 0 0.6 0.3 0.6 0.6z"/>
						<path id="&lt;Path&gt;" class="s6" d="m158.3 341c0 0.3-0.2 0.6-0.5 0.6-0.4 0-0.6-0.3-0.6-0.6 0-0.3 0.2-0.6 0.6-0.6 0.3 0 0.5 0.3 0.5 0.6z"/>
						<path id="&lt;Path&gt;" class="s6" d="m292.2 294c0.7-0.7 1.8-0.7 2.5 0 0.6 0.7 0.6 1.8 0 2.5-0.7 0.7-1.8 0.7-2.5 0-0.7-0.7-0.7-1.8 0-2.5z"/>
						<path id="&lt;Path&gt;" class="s6" d="m219.6 298.8c0.7-0.7 1.8-0.7 2.5 0 0.7 0.7 0.7 1.8 0 2.5-0.7 0.6-1.8 0.6-2.5 0-0.6-0.7-0.6-1.8 0-2.5z"/>
						<path id="&lt;Path&gt;" class="s6" d="m270.1 318.6c0.7-0.7 1.8-0.7 2.4 0 0.7 0.7 0.7 1.8 0 2.4-0.6 0.7-1.7 0.7-2.4 0-0.7-0.6-0.7-1.7 0-2.4z"/>
						<path id="&lt;Path&gt;" class="s6" d="m303.6 321.4c0.5-0.5 1.2-0.5 1.7 0 0.5 0.5 0.5 1.3 0 1.7-0.5 0.5-1.2 0.5-1.7 0-0.5-0.4-0.5-1.2 0-1.7z"/>
						<path id="&lt;Path&gt;" class="s6" d="m247.2 290.2c0.5-0.5 1.3-0.5 1.8 0 0.5 0.5 0.5 1.3 0 1.7-0.5 0.5-1.3 0.5-1.8 0-0.4-0.4-0.4-1.2 0-1.7z"/>
						<path id="&lt;Path&gt;" class="s6" d="m299.9 338.2c0.4-0.3 1-0.3 1.3 0 0.4 0.4 0.4 0.9 0 1.3-0.3 0.4-0.9 0.4-1.3 0-0.3-0.4-0.3-0.9 0-1.3z"/>
						<path id="&lt;Path&gt;" class="s6" d="m285.8 297.4c0.3-0.3 0.6-0.3 0.9 0 0.2 0.2 0.2 0.6 0 0.8-0.3 0.2-0.6 0.2-0.9 0-0.2-0.2-0.2-0.6 0-0.8z"/>
						<path id="&lt;Path&gt;" class="s6" d="m305.9 324.6c0.2-0.3 0.6-0.3 0.8 0 0.3 0.2 0.3 0.5 0 0.8-0.2 0.2-0.6 0.2-0.8 0-0.2-0.3-0.2-0.6 0-0.8z"/>
						<path id="&lt;Path&gt;" class="s6" d="m315.1 314.5c0.3-0.2 0.6-0.2 0.9 0 0.2 0.2 0.2 0.6 0 0.8-0.3 0.2-0.6 0.2-0.9 0-0.2-0.2-0.2-0.6 0-0.8z"/>
						<path id="&lt;Path&gt;" class="s6" d="m307.4 311.7c0.2-0.2 0.6-0.2 0.8 0 0.3 0.2 0.3 0.6 0 0.8-0.2 0.2-0.6 0.2-0.8 0-0.2-0.2-0.2-0.6 0-0.8z"/>
						<path id="&lt;Path&gt;" class="s6" d="m255.7 320.3c0.2-0.3 0.5-0.3 0.8 0 0.2 0.2 0.2 0.6 0 0.8-0.3 0.2-0.6 0.2-0.8 0-0.3-0.2-0.3-0.6 0-0.8z"/>
						<path id="&lt;Path&gt;" class="s6" d="m299.3 316.7c0.1-0.1 0.3-0.1 0.4 0 0.1 0.1 0.1 0.3 0 0.4-0.1 0.2-0.3 0.2-0.4 0-0.1-0.1-0.1-0.3 0-0.4z"/>
						<path id="&lt;Path&gt;" class="s6" d="m322 345.2c0.1-0.1 0.3-0.1 0.4 0 0.1 0.1 0.1 0.3 0 0.4-0.1 0.2-0.3 0.2-0.4 0-0.1-0.1-0.1-0.3 0-0.4z"/>
						<path id="&lt;Path&gt;" class="s6" d="m305.8 316.5c0.1-0.2 0.3-0.2 0.4 0 0.1 0.1 0.1 0.3 0 0.4-0.1 0.1-0.3 0.1-0.4 0-0.2-0.1-0.2-0.3 0-0.4z"/>
						<path id="&lt;Path&gt;" class="s6" d="m297.5 321.6c0.3-0.3 0.6-0.3 0.9 0 0.2 0.2 0.2 0.6 0 0.8-0.3 0.2-0.6 0.2-0.9 0-0.2-0.2-0.2-0.6 0-0.8z"/>
						<path id="&lt;Path&gt;" class="s6" d="m316 340.9c0.2-0.3 0.6-0.3 0.8 0 0.2 0.2 0.2 0.5 0 0.8-0.2 0.2-0.6 0.2-0.8 0-0.2-0.3-0.2-0.6 0-0.8z"/>
						<path id="&lt;Path&gt;" class="s6" d="m301.9 365.7c0.3-0.2 0.6-0.2 0.9 0 0.2 0.3 0.2 0.6 0 0.8-0.3 0.3-0.6 0.3-0.9 0-0.2-0.2-0.2-0.5 0-0.8z"/>
						<path id="&lt;Path&gt;" class="s6" d="m278.7 347.2c0.2-0.2 0.6-0.2 0.8 0 0.2 0.2 0.2 0.6 0 0.8-0.2 0.3-0.6 0.3-0.8 0-0.3-0.2-0.3-0.6 0-0.8z"/>
						<path id="&lt;Path&gt;" class="s6" d="m361.4 325.8c0.7-0.7 1.8-0.7 2.5 0 0.6 0.7 0.6 1.8 0 2.5-0.7 0.7-1.8 0.7-2.5 0-0.7-0.7-0.7-1.8 0-2.5z"/>
						<path id="&lt;Path&gt;" class="s6" d="m396.7 300.5c0.7-0.6 1.8-0.6 2.5 0 0.7 0.7 0.7 1.8 0 2.5-0.7 0.7-1.8 0.7-2.5 0-0.6-0.7-0.6-1.8 0-2.5z"/>
						<path id="&lt;Path&gt;" class="s6" d="m339.3 350.4c0.7-0.7 1.8-0.7 2.5 0 0.6 0.7 0.6 1.8 0 2.5-0.7 0.6-1.8 0.6-2.5 0-0.7-0.7-0.7-1.8 0-2.5z"/>
						<path id="&lt;Path&gt;" class="s6" d="m344.7 368.5c0.7-0.7 1.8-0.7 2.5 0 0.6 0.7 0.6 1.8 0 2.5-0.7 0.7-1.8 0.7-2.5 0-0.7-0.7-0.7-1.8 0-2.5z"/>
						<path id="&lt;Path&gt;" class="s6" d="m350.4 304.7c0.5-0.5 1.3-0.5 1.7 0 0.5 0.4 0.5 1.2 0 1.7-0.4 0.5-1.2 0.5-1.7 0-0.5-0.5-0.5-1.3 0-1.7z"/>
						<path id="&lt;Path&gt;" class="s6" d="m372.8 353.2c0.5-0.5 1.2-0.5 1.7 0 0.5 0.5 0.5 1.3 0 1.8-0.5 0.4-1.2 0.4-1.7 0-0.5-0.5-0.5-1.3 0-1.8z"/>
						<path id="&lt;Path&gt;" class="s6" d="m316.4 322c0.5-0.5 1.3-0.5 1.8 0 0.5 0.5 0.5 1.3 0 1.8-0.5 0.4-1.3 0.4-1.8 0-0.4-0.5-0.4-1.3 0-1.8z"/>
						<path id="&lt;Path&gt;" class="s6" d="m369.1 370c0.4-0.3 1-0.3 1.3 0 0.4 0.4 0.4 1 0 1.3-0.3 0.4-0.9 0.4-1.3 0-0.3-0.3-0.3-0.9 0-1.3z"/>
						<path id="&lt;Path&gt;" class="s6" d="m376.4 387.8c0.3-0.4 0.9-0.4 1.3 0 0.3 0.3 0.3 0.9 0 1.3-0.4 0.3-1 0.3-1.3 0-0.4-0.4-0.4-1 0-1.3z"/>
						<path id="&lt;Path&gt;" class="s6" d="m341.6 364.6c0.4-0.4 1-0.4 1.3 0 0.4 0.4 0.4 0.9 0 1.3-0.3 0.3-0.9 0.3-1.3 0-0.3-0.4-0.3-0.9 0-1.3z"/>
						<path id="&lt;Path&gt;" class="s6" d="m289 397.9c0.4-0.4 0.9-0.4 1.3 0 0.4 0.3 0.4 0.9 0 1.3-0.4 0.3-0.9 0.3-1.3 0-0.3-0.4-0.3-1 0-1.3z"/>
						<path id="&lt;Path&gt;" class="s6" d="m355.1 329.2c0.2-0.2 0.6-0.2 0.8 0 0.2 0.2 0.2 0.6 0 0.8-0.2 0.2-0.6 0.2-0.8 0-0.3-0.2-0.3-0.6 0-0.8z"/>
						<path id="&lt;Path&gt;" class="s6" d="m375.1 356.4c0.2-0.3 0.6-0.3 0.8 0 0.3 0.2 0.3 0.6 0 0.8-0.2 0.2-0.6 0.2-0.8 0-0.2-0.2-0.2-0.6 0-0.8z"/>
						<path id="&lt;Path&gt;" class="s6" d="m346 363.9c0.3-0.2 0.6-0.2 0.9 0 0.2 0.2 0.2 0.6 0 0.8-0.3 0.2-0.6 0.2-0.9 0-0.2-0.2-0.2-0.6 0-0.8z"/>
						<path id="&lt;Path&gt;" class="s6" d="m410.9 351.2c0.3-0.2 0.6-0.2 0.9 0 0.2 0.2 0.2 0.6 0 0.8-0.3 0.3-0.6 0.3-0.9 0-0.2-0.2-0.2-0.6 0-0.8z"/>
						<path id="&lt;Path&gt;" class="s6" d="m428.6 346.9c0.3-0.2 0.6-0.2 0.8 0 0.3 0.2 0.3 0.6 0 0.8-0.2 0.2-0.5 0.2-0.8 0-0.2-0.2-0.2-0.6 0-0.8z"/>
						<path id="&lt;Path&gt;" class="s6" d="m384.4 346.3c0.2-0.2 0.6-0.2 0.8 0 0.2 0.2 0.2 0.6 0 0.8-0.2 0.3-0.6 0.3-0.8 0-0.3-0.2-0.3-0.6 0-0.8z"/>
						<path id="&lt;Path&gt;" class="s6" d="m260.4 303.7c0.2-0.2 0.6-0.2 0.8 0 0.2 0.2 0.2 0.6 0 0.8-0.2 0.3-0.6 0.3-0.8 0-0.2-0.2-0.2-0.6 0-0.8z"/>
						<path id="&lt;Path&gt;" class="s6" d="m745.5 365.3c0.2-0.3 0.6-0.3 0.8 0 0.3 0.2 0.3 0.6 0 0.8-0.2 0.2-0.6 0.2-0.8 0-0.2-0.2-0.2-0.6 0-0.8z"/>
						<path id="&lt;Path&gt;" class="s6" d="m376.6 343.5c0.2-0.2 0.6-0.2 0.8 0 0.3 0.2 0.3 0.6 0 0.8-0.2 0.2-0.6 0.2-0.8 0-0.2-0.2-0.2-0.6 0-0.8z"/>
						<path id="&lt;Path&gt;" class="s6" d="m324.9 352.1c0.2-0.2 0.6-0.2 0.8 0 0.2 0.2 0.2 0.6 0 0.8-0.2 0.2-0.6 0.2-0.8 0-0.3-0.2-0.3-0.6 0-0.8z"/>
						<path id="&lt;Path&gt;" class="s6" d="m192.7 299.6c0.2-0.2 0.6-0.2 0.8 0 0.2 0.2 0.2 0.6 0 0.8-0.2 0.3-0.6 0.3-0.8 0-0.3-0.2-0.3-0.6 0-0.8z"/>
						<path id="&lt;Path&gt;" class="s6" d="m368.5 348.5c0.1-0.1 0.3-0.1 0.4 0 0.1 0.1 0.1 0.3 0 0.4-0.1 0.2-0.3 0.2-0.4 0-0.1-0.1-0.1-0.3 0-0.4z"/>
						<path id="&lt;Path&gt;" class="s6" d="m322.6 358c0.1-0.1 0.3-0.1 0.4 0 0.1 0.1 0.1 0.3 0 0.4-0.1 0.1-0.3 0.1-0.4 0-0.1-0.1-0.1-0.3 0-0.4z"/>
						<path id="&lt;Path&gt;" class="s6" d="m330.6 352.6c0.1-0.1 0.3-0.1 0.4 0 0.1 0.2 0.1 0.3 0 0.5-0.1 0.1-0.3 0.1-0.4 0-0.1-0.2-0.1-0.3 0-0.5z"/>
						<path id="&lt;Path&gt;" class="s6" d="m278 301.2c0.1-0.1 0.3-0.1 0.4 0 0.1 0.2 0.1 0.3 0 0.5-0.1 0.1-0.3 0.1-0.4 0-0.1-0.2-0.1-0.3 0-0.5z"/>
						<path id="&lt;Path&gt;" class="s6" d="m391.2 377c0.1-0.1 0.3-0.1 0.4 0 0.2 0.2 0.2 0.3 0 0.4-0.1 0.2-0.3 0.2-0.4 0-0.1-0.1-0.1-0.2 0-0.4z"/>
						<path id="&lt;Path&gt;" class="s6" d="m391.5 397.5c0.1-0.2 0.3-0.2 0.4 0 0.1 0.1 0.1 0.2 0 0.4-0.1 0.1-0.3 0.1-0.4 0-0.1-0.2-0.1-0.3 0-0.4z"/>
						<path id="&lt;Path&gt;" class="s6" d="m212 371.3c0.1-0.1 0.3-0.1 0.4 0 0.1 0.1 0.1 0.3 0 0.4-0.1 0.1-0.3 0.1-0.4 0-0.1-0.1-0.1-0.3 0-0.4z"/>
						<path id="&lt;Path&gt;" class="s6" d="m380.4 397.7c0.1-0.1 0.3-0.1 0.4 0 0.1 0.2 0.1 0.3 0 0.5-0.1 0.1-0.3 0.1-0.4 0-0.1-0.2-0.1-0.3 0-0.5z"/>
						<path id="&lt;Path&gt;" class="s6" d="m380.1 393.9c0.1-0.1 0.3-0.1 0.4 0 0.2 0.1 0.2 0.3 0 0.4-0.1 0.1-0.3 0.1-0.4 0-0.1-0.1-0.1-0.3 0-0.4z"/>
						<path id="&lt;Path&gt;" class="s6" d="m344 367.6c0.1-0.2 0.3-0.2 0.4 0 0.1 0.1 0.1 0.3 0 0.4-0.1 0.1-0.3 0.1-0.4 0-0.1-0.1-0.1-0.3 0-0.4z"/>
						<path id="&lt;Path&gt;" class="s6" d="m375 348.3c0.1-0.1 0.3-0.1 0.4 0 0.1 0.1 0.1 0.3 0 0.4-0.1 0.1-0.3 0.1-0.4 0-0.1-0.1-0.1-0.3 0-0.4z"/>
						<path id="&lt;Path&gt;" class="s6" d="m342.1 363.2c0.1-0.1 0.3-0.1 0.4 0 0.1 0.1 0.1 0.3 0 0.4-0.1 0.2-0.3 0.2-0.4 0-0.1-0.1-0.1-0.3 0-0.4z"/>
						<path id="&lt;Path&gt;" class="s6" d="m366.7 353.4c0.3-0.3 0.6-0.3 0.9 0 0.2 0.2 0.2 0.6 0 0.8-0.3 0.2-0.6 0.2-0.9 0-0.2-0.2-0.2-0.6 0-0.8z"/>
						<path id="&lt;Path&gt;" class="s6" d="m331.2 362.7c0.3-0.2 0.6-0.2 0.9 0 0.2 0.3 0.2 0.6 0 0.9-0.3 0.2-0.6 0.2-0.9 0-0.2-0.3-0.2-0.6 0-0.9z"/>
						<path id="&lt;Path&gt;" class="s6" d="m339 363.3c0.2-0.2 0.5-0.2 0.8 0 0.2 0.2 0.2 0.6 0 0.8-0.3 0.3-0.6 0.3-0.8 0-0.3-0.2-0.3-0.6 0-0.8z"/>
						<path id="&lt;Path&gt;" class="s6" d="m206.3 315.1c0.2-0.3 0.6-0.3 0.8 0 0.2 0.2 0.2 0.6 0 0.8-0.2 0.2-0.6 0.2-0.8 0-0.3-0.2-0.3-0.6 0-0.8z"/>
						<path id="&lt;Path&gt;" class="s6" d="m216 295.7c0.4-0.5 1.2-0.5 1.7 0 0.5 0.5 0.5 1.3 0 1.8-0.5 0.5-1.3 0.5-1.7 0-0.5-0.5-0.5-1.3 0-1.8z"/>
						<path id="&lt;Path&gt;" class="s6" d="m211.7 291.1c0.1-0.2 0.3-0.2 0.4 0 0.1 0.1 0.1 0.3 0 0.4-0.1 0.1-0.3 0.1-0.4 0-0.1-0.1-0.1-0.3 0-0.4z"/>
						<path id="&lt;Path&gt;" class="s6" d="m218.1 290.8c0.2-0.1 0.3-0.1 0.5 0 0.1 0.1 0.1 0.3 0 0.4-0.2 0.1-0.3 0.1-0.5 0-0.1-0.1-0.1-0.3 0-0.4z"/>
						<path id="&lt;Path&gt;" class="s6" d="m209.9 295.9c0.2-0.2 0.6-0.2 0.8 0 0.3 0.2 0.3 0.6 0 0.8-0.2 0.2-0.6 0.2-0.8 0-0.2-0.2-0.2-0.6 0-0.8z"/>
						<path id="&lt;Path&gt;" class="s6" d="m385.2 372.7c0.2-0.3 0.6-0.3 0.8 0 0.3 0.2 0.3 0.6 0 0.8-0.2 0.2-0.6 0.2-0.8 0-0.2-0.2-0.2-0.6 0-0.8z"/>
						<path id="&lt;Path&gt;" class="s6" d="m454.2 319.7c0.2-0.2 0.6-0.2 0.8 0 0.3 0.2 0.3 0.6 0 0.8-0.2 0.2-0.6 0.2-0.8 0-0.2-0.2-0.2-0.6 0-0.8z"/>
						<path id="&lt;Path&gt;" class="s6" d="m439.7 373.2c0.2-0.2 0.6-0.2 0.8 0 0.2 0.3 0.2 0.6 0 0.9-0.2 0.2-0.6 0.2-0.8 0-0.3-0.3-0.3-0.6 0-0.9z"/>
						<path id="&lt;Path&gt;" class="s6" d="m360.5 393.4c0.2-0.2 0.6-0.2 0.8 0 0.2 0.2 0.2 0.6 0 0.8-0.2 0.3-0.6 0.3-0.8 0-0.3-0.2-0.3-0.6 0-0.8z"/>
						<path id="&lt;Path&gt;" class="s6" d="m462.3 314.5c0.2-0.2 0.6-0.2 0.8 0 0.2 0.2 0.2 0.6 0 0.8-0.2 0.2-0.6 0.2-0.8 0-0.3-0.2-0.3-0.6 0-0.8z"/>
						<path id="&lt;Path&gt;" class="s6" d="m246.8 364.7c0.5-0.5 1.3-0.5 1.7 0 0.5 0.4 0.5 1.2 0 1.7-0.4 0.5-1.2 0.5-1.7 0-0.5-0.5-0.5-1.3 0-1.7z"/>
						<path id="&lt;Path&gt;" class="s6" d="m248.5 327.1c0.4-0.5 1.2-0.5 1.7 0 0.5 0.5 0.5 1.2 0 1.7-0.5 0.5-1.3 0.5-1.7 0-0.5-0.5-0.5-1.2 0-1.7z"/>
						<path id="&lt;Path&gt;" class="s6" d="m37 367.2c0.5-0.5 1.3-0.5 1.8 0 0.5 0.5 0.5 1.2 0 1.7-0.5 0.5-1.3 0.5-1.8 0-0.4-0.5-0.4-1.2 0-1.7z"/>
						<path id="&lt;Path&gt;" class="s6" d="m243.1 381.5c0.4-0.4 1-0.4 1.3 0 0.4 0.3 0.4 0.9 0 1.3-0.3 0.3-0.9 0.3-1.3 0-0.3-0.4-0.3-1 0-1.3z"/>
						<path id="&lt;Path&gt;" class="s6" d="m249.1 367.8c0.3-0.2 0.6-0.2 0.9 0 0.2 0.3 0.2 0.6 0 0.8-0.3 0.3-0.6 0.3-0.9 0-0.2-0.2-0.2-0.6 0-0.8z"/>
						<path id="&lt;Path&gt;" class="s6" d="m258.4 357.8c0.2-0.3 0.6-0.3 0.8 0 0.2 0.2 0.2 0.6 0 0.8-0.2 0.2-0.6 0.2-0.8 0-0.3-0.2-0.3-0.6 0-0.8z"/>
						<path id="&lt;Path&gt;" class="s6" d="m269.2 323.1c0.2-0.2 0.6-0.2 0.8 0 0.2 0.2 0.2 0.6 0 0.8-0.2 0.2-0.6 0.2-0.8 0-0.3-0.2-0.3-0.6 0-0.8z"/>
						<path id="&lt;Path&gt;" class="s6" d="m250.6 355c0.3-0.3 0.6-0.3 0.9 0 0.2 0.2 0.2 0.6 0 0.8-0.3 0.2-0.6 0.2-0.9 0-0.2-0.2-0.2-0.6 0-0.8z"/>
						<path id="&lt;Path&gt;" class="s6" d="m242.5 360c0.2-0.1 0.3-0.1 0.5 0 0.1 0.1 0.1 0.3 0 0.4-0.2 0.1-0.3 0.1-0.5 0-0.1-0.1-0.1-0.3 0-0.4z"/>
						<path id="&lt;Path&gt;" class="s6" d="m231.4 383.9c0.1-0.1 0.3-0.1 0.4 0 0.1 0.1 0.1 0.3 0 0.4-0.1 0.2-0.3 0.2-0.4 0-0.1-0.1-0.1-0.3 0-0.4z"/>
						<path id="&lt;Path&gt;" class="s6" d="m265.2 388.5c0.2-0.1 0.3-0.1 0.5 0 0.1 0.1 0.1 0.3 0 0.4-0.2 0.1-0.3 0.1-0.5 0-0.1-0.1-0.1-0.3 0-0.4z"/>
						<path id="&lt;Path&gt;" class="s6" d="m249 359.7c0.1-0.1 0.3-0.1 0.4 0 0.1 0.1 0.1 0.3 0 0.4-0.1 0.2-0.3 0.2-0.4 0-0.1-0.1-0.1-0.3 0-0.4z"/>
						<path id="&lt;Path&gt;" class="s6" d="m240.8 364.8c0.2-0.2 0.5-0.2 0.8 0 0.2 0.3 0.2 0.6 0 0.9-0.3 0.2-0.6 0.2-0.8 0-0.3-0.3-0.3-0.6 0-0.9z"/>
						<path id="&lt;Path&gt;" class="s6" d="m201.1 364.5c0.2-0.3 0.6-0.3 0.8 0 0.2 0.2 0.2 0.6 0 0.8-0.2 0.2-0.6 0.2-0.8 0-0.3-0.2-0.3-0.6 0-0.8z"/>
						<path id="&lt;Path&gt;" class="s6" d="m259.2 384.1c0.2-0.2 0.6-0.2 0.8 0 0.3 0.3 0.3 0.6 0 0.8-0.2 0.3-0.6 0.3-0.8 0-0.2-0.2-0.2-0.5 0-0.8z"/>
						<path id="&lt;Path&gt;" class="s6" d="m371.1 397.5c0.3-0.2 0.6-0.2 0.9 0 0.2 0.3 0.2 0.6 0 0.9-0.3 0.2-0.6 0.2-0.9 0-0.2-0.3-0.2-0.6 0-0.9z"/>
						<path id="&lt;Path&gt;" class="s6" d="m379.3 423.8c0.3-0.2 0.6-0.2 0.9 0 0.2 0.2 0.2 0.6 0 0.8-0.3 0.2-0.6 0.2-0.9 0-0.2-0.2-0.2-0.6 0-0.8z"/>
						<path id="&lt;Path&gt;" class="s6" d="m347.9 379c0.2-0.2 0.6-0.2 0.8 0 0.2 0.2 0.2 0.6 0 0.8-0.2 0.3-0.6 0.3-0.8 0-0.2-0.2-0.2-0.6 0-0.8z"/>
						<path id="&lt;Path&gt;" class="s6" d="m476.8 335c0 1-0.7 1.7-1.7 1.7-1 0-1.7-0.7-1.7-1.7 0-1 0.7-1.8 1.7-1.8 1 0 1.7 0.8 1.7 1.8z"/>
						<path id="&lt;Path&gt;" class="s6" d="m475.1 302c0 0.9-0.8 1.7-1.7 1.7-1 0-1.8-0.8-1.8-1.7 0-1 0.8-1.8 1.8-1.8 0.9 0 1.7 0.8 1.7 1.8z"/>
						<path id="&lt;Path&gt;" class="s6" d="m499.6 342.2c0 0.6-0.6 1.2-1.3 1.2-0.6 0-1.2-0.6-1.2-1.2 0-0.7 0.6-1.3 1.2-1.3 0.7 0 1.3 0.6 1.3 1.3z"/>
						<path id="&lt;Path&gt;" class="s6" d="m449.4 323.7c0 0.7-0.5 1.2-1.2 1.2-0.7 0-1.2-0.5-1.2-1.2 0-0.7 0.5-1.3 1.2-1.3 0.7 0 1.2 0.6 1.2 1.3z"/>
						<path id="&lt;Path&gt;" class="s6" d="m795 344.6c0 0.7-0.6 1.2-1.3 1.2-0.6 0-1.2-0.5-1.2-1.2 0-0.7 0.6-1.3 1.2-1.3 0.7 0 1.3 0.6 1.3 1.3z"/>
						<path id="&lt;Path&gt;" class="s6" d="m511.3 305.9c0 0.7-0.5 1.2-1.2 1.2-0.7 0-1.2-0.5-1.2-1.2 0-0.7 0.5-1.2 1.2-1.2 0.7 0 1.2 0.5 1.2 1.2z"/>
						<path id="&lt;Path&gt;" class="s6" d="m440.1 309.2c0 0.5-0.4 0.9-0.9 0.9-0.5 0-0.9-0.4-0.9-0.9 0-0.5 0.4-0.9 0.9-0.9 0.5 0 0.9 0.4 0.9 0.9z"/>
						<path id="&lt;Path&gt;" class="s6" d="m478.9 328.1c0 0.3-0.2 0.6-0.5 0.6-0.4 0-0.6-0.3-0.6-0.6 0-0.3 0.2-0.6 0.6-0.6 0.3 0 0.5 0.3 0.5 0.6z"/>
						<path id="&lt;Path&gt;" class="s6" d="m445.5 323.1c0 0.3-0.2 0.6-0.5 0.6-0.4 0-0.6-0.3-0.6-0.6 0-0.3 0.2-0.6 0.6-0.6 0.3 0 0.5 0.3 0.5 0.6z"/>
						<path id="&lt;Path&gt;" class="s6" d="m446.1 336.7c0 0.4-0.2 0.6-0.6 0.6-0.3 0-0.5-0.2-0.5-0.6 0-0.3 0.2-0.5 0.5-0.5 0.4 0 0.6 0.2 0.6 0.5z"/>
						<path id="&lt;Path&gt;" class="s6" d="m453.6 333.2c0 0.4-0.3 0.6-0.6 0.6-0.3 0-0.6-0.2-0.6-0.6 0-0.3 0.3-0.5 0.6-0.5 0.3 0 0.6 0.2 0.6 0.5z"/>
						<path id="&lt;Path&gt;" class="s6" d="m438 335.8c0 0.3-0.2 0.6-0.5 0.6-0.4 0-0.6-0.3-0.6-0.6 0-0.3 0.2-0.6 0.6-0.6 0.3 0 0.5 0.3 0.5 0.6z"/>
						<path id="&lt;Path&gt;" class="s6" d="m484.1 290.6c0 0.3-0.3 0.6-0.6 0.6-0.3 0-0.6-0.3-0.6-0.6 0-0.3 0.3-0.6 0.6-0.6 0.3 0 0.6 0.3 0.6 0.6z"/>
						<path id="&lt;Path&gt;" class="s6" d="m455.7 324c0 0.1-0.1 0.3-0.3 0.3-0.1 0-0.2-0.2-0.2-0.3 0-0.2 0.1-0.3 0.2-0.3 0.2 0 0.3 0.1 0.3 0.3z"/>
						<path id="&lt;Path&gt;" class="s6" d="m451.4 328.7c0 0.2-0.2 0.3-0.3 0.3-0.2 0-0.3-0.1-0.3-0.3 0-0.2 0.1-0.3 0.3-0.3 0.1 0 0.3 0.1 0.3 0.3z"/>
						<path id="&lt;Path&gt;" class="s6" d="m453.6 319.3c0 0.3-0.3 0.6-0.6 0.6-0.3 0-0.6-0.3-0.6-0.6 0-0.3 0.3-0.6 0.6-0.6 0.3 0 0.6 0.3 0.6 0.6z"/>
						<path id="&lt;Path&gt;" class="s6" d="m722.6 340.2c0 0.3-0.2 0.5-0.6 0.5-0.3 0-0.5-0.2-0.5-0.5 0-0.4 0.2-0.6 0.5-0.6 0.4 0 0.6 0.2 0.6 0.6z"/>
						<path id="&lt;Path&gt;" class="s6" d="m867.2 331.8c0.7-0.7 1.8-0.7 2.5 0 0.7 0.7 0.7 1.8 0 2.5-0.7 0.7-1.8 0.7-2.5 0-0.7-0.7-0.7-1.8 0-2.5z"/>
						<path id="&lt;Path&gt;" class="s6" d="m794.7 336.6c0.6-0.7 1.8-0.7 2.4 0 0.7 0.7 0.7 1.8 0 2.5-0.6 0.6-1.8 0.6-2.4 0-0.7-0.7-0.7-1.8 0-2.5z"/>
						<path id="&lt;Path&gt;" class="s6" d="m845.1 356.4c0.7-0.7 1.8-0.7 2.5 0 0.7 0.7 0.7 1.8 0 2.4-0.7 0.7-1.8 0.7-2.5 0-0.7-0.6-0.7-1.7 0-2.4z"/>
						<path id="&lt;Path&gt;" class="s6" d="m856.2 310.7c0.5-0.5 1.3-0.5 1.7 0 0.5 0.4 0.5 1.2 0 1.7-0.4 0.5-1.2 0.5-1.7 0-0.5-0.5-0.5-1.3 0-1.7z"/>
						<path id="&lt;Path&gt;" class="s6" d="m878.6 359.2c0.5-0.5 1.3-0.5 1.7 0 0.5 0.5 0.5 1.3 0 1.7-0.4 0.5-1.2 0.5-1.7 0-0.5-0.4-0.5-1.2 0-1.7z"/>
						<path id="&lt;Path&gt;" class="s6" d="m822.3 328c0.4-0.5 1.2-0.5 1.7 0 0.5 0.5 0.5 1.3 0 1.7-0.5 0.5-1.3 0.5-1.7 0-0.5-0.4-0.5-1.2 0-1.7z"/>
						<path id="&lt;Path&gt;" class="s6" d="m860.9 335.2c0.2-0.3 0.6-0.3 0.8 0 0.2 0.2 0.2 0.6 0 0.8-0.2 0.2-0.6 0.2-0.8 0-0.3-0.2-0.3-0.6 0-0.8z"/>
						<path id="&lt;Path&gt;" class="s6" d="m880.9 362.4c0.3-0.3 0.6-0.3 0.9 0 0.2 0.2 0.2 0.5 0 0.8-0.3 0.2-0.6 0.2-0.9 0-0.2-0.3-0.2-0.6 0-0.8z"/>
						<path id="&lt;Path&gt;" class="s6" d="m890.2 352.3c0.2-0.2 0.6-0.2 0.8 0 0.2 0.2 0.2 0.6 0 0.8-0.2 0.2-0.6 0.2-0.8 0-0.3-0.2-0.3-0.6 0-0.8z"/>
						<path id="&lt;Path&gt;" class="s6" d="m882.4 349.5c0.3-0.2 0.6-0.2 0.8 0 0.3 0.2 0.3 0.6 0 0.8-0.2 0.2-0.5 0.2-0.8 0-0.2-0.2-0.2-0.6 0-0.8z"/>
						<path id="&lt;Path&gt;" class="s6" d="m830.7 358.1c0.2-0.3 0.6-0.3 0.8 0 0.2 0.2 0.2 0.6 0 0.8-0.2 0.2-0.6 0.2-0.8 0-0.3-0.2-0.3-0.6 0-0.8z"/>
						<path id="&lt;Path&gt;" class="s6" d="m874.3 354.5c0.1-0.1 0.3-0.1 0.4 0 0.2 0.1 0.2 0.3 0 0.4-0.1 0.2-0.3 0.2-0.4 0-0.1-0.1-0.1-0.3 0-0.4z"/>
						<path id="&lt;Path&gt;" class="s6" d="m612.5 292c0.1-0.1 0.3-0.1 0.4 0 0.1 0.1 0.1 0.3 0 0.4-0.1 0.2-0.3 0.2-0.4 0-0.2-0.1-0.2-0.3 0-0.4z"/>
						<path id="&lt;Path&gt;" class="s6" d="m799.3 305.8c0.1-0.1 0.3-0.1 0.4 0 0.2 0.2 0.2 0.3 0 0.5-0.1 0.1-0.3 0.1-0.4 0-0.1-0.2-0.1-0.3 0-0.5z"/>
						<path id="&lt;Path&gt;" class="s6" d="m880.8 354.3c0.1-0.2 0.3-0.2 0.4 0 0.1 0.1 0.1 0.3 0 0.4-0.1 0.1-0.3 0.1-0.4 0-0.1-0.1-0.1-0.3 0-0.4z"/>
						<path id="&lt;Path&gt;" class="s6" d="m872.5 359.4c0.3-0.3 0.6-0.3 0.9 0 0.2 0.2 0.2 0.6 0 0.8-0.3 0.2-0.6 0.2-0.9 0-0.2-0.2-0.2-0.6 0-0.8z"/>
						<path id="&lt;Path&gt;" class="s6" d="m775.5 306.2c0.2-0.2 0.6-0.2 0.8 0 0.3 0.2 0.3 0.6 0 0.8-0.2 0.3-0.6 0.3-0.8 0-0.2-0.2-0.2-0.6 0-0.8z"/>
						<path id="&lt;Path&gt;" class="s6" d="m592.4 312.5c0.2-0.2 0.6-0.2 0.8 0 0.2 0.3 0.2 0.6 0 0.9-0.2 0.2-0.6 0.2-0.8 0-0.3-0.3-0.3-0.6 0-0.9z"/>
						<path id="&lt;Path&gt;" class="s6" d="m569.1 294c0.2-0.2 0.6-0.2 0.8 0 0.3 0.2 0.3 0.6 0 0.8-0.2 0.3-0.6 0.3-0.8 0-0.2-0.2-0.2-0.6 0-0.8z"/>
						<path id="&lt;Path&gt;" class="s6" d="m936.4 363.6c0.7-0.7 1.8-0.7 2.5 0 0.7 0.7 0.7 1.8 0 2.5-0.7 0.7-1.8 0.7-2.5 0-0.7-0.7-0.7-1.8 0-2.5z"/>
						<path id="&lt;Path&gt;" class="s6" d="m1021.5 328.4c0.7-0.7 1.8-0.7 2.5 0 0.7 0.7 0.7 1.8 0 2.5-0.7 0.7-1.8 0.7-2.5 0-0.6-0.7-0.6-1.8 0-2.5z"/>
						<path id="&lt;Path&gt;" class="s6" d="m971.8 338.3c0.6-0.6 1.8-0.6 2.4 0 0.7 0.7 0.7 1.8 0 2.5-0.6 0.7-1.8 0.7-2.4 0-0.7-0.7-0.7-1.8 0-2.5z"/>
						<path id="&lt;Path&gt;" class="s6" d="m629.7 297.2c0.7-0.7 1.8-0.7 2.5 0 0.7 0.7 0.7 1.8 0 2.5-0.7 0.6-1.8 0.6-2.5 0-0.6-0.7-0.6-1.8 0-2.5z"/>
						<path id="&lt;Path&gt;" class="s6" d="m635.1 315.3c0.7-0.6 1.8-0.6 2.5 0 0.7 0.7 0.7 1.8 0 2.5-0.7 0.7-1.8 0.7-2.5 0-0.6-0.7-0.6-1.8 0-2.5z"/>
						<path id="&lt;Path&gt;" class="s6" d="m925.4 342.5c0.5-0.5 1.3-0.5 1.8 0 0.4 0.4 0.4 1.2 0 1.7-0.5 0.5-1.3 0.5-1.8 0-0.5-0.5-0.5-1.3 0-1.7z"/>
						<path id="&lt;Path&gt;" class="s6" d="m994.1 310.5c0.5-0.5 1.3-0.5 1.8 0 0.5 0.4 0.5 1.2 0 1.7-0.5 0.5-1.3 0.5-1.8 0-0.4-0.5-0.4-1.3 0-1.7z"/>
						<path id="&lt;Path&gt;" class="s6" d="m984.3 320.1c0.4-0.5 1.2-0.5 1.7 0 0.5 0.4 0.5 1.2 0 1.7-0.5 0.5-1.3 0.5-1.7 0-0.5-0.5-0.5-1.3 0-1.7z"/>
						<path id="&lt;Path&gt;" class="s6" d="m663.2 300c0.5-0.5 1.3-0.5 1.8 0 0.5 0.5 0.5 1.3 0 1.8-0.5 0.4-1.3 0.4-1.8 0-0.5-0.5-0.5-1.3 0-1.8z"/>
						<path id="&lt;Path&gt;" class="s6" d="m891.5 359.8c0.4-0.5 1.2-0.5 1.7 0 0.5 0.5 0.5 1.3 0 1.8-0.5 0.4-1.3 0.4-1.7 0-0.5-0.5-0.5-1.3 0-1.8z"/>
						<path id="&lt;Path&gt;" class="s6" d="m659.6 316.8c0.3-0.3 0.9-0.3 1.3 0 0.3 0.4 0.3 1 0 1.3-0.4 0.4-1 0.4-1.3 0-0.4-0.3-0.4-0.9 0-1.3z"/>
						<path id="&lt;Path&gt;" class="s6" d="m666.8 334.6c0.4-0.4 1-0.4 1.3 0 0.4 0.3 0.4 0.9 0 1.3-0.3 0.3-0.9 0.3-1.3 0-0.3-0.4-0.3-1 0-1.3z"/>
						<path id="&lt;Path&gt;" class="s6" d="m632.1 311.4c0.3-0.3 0.9-0.3 1.3 0 0.3 0.4 0.3 0.9 0 1.3-0.4 0.3-1 0.3-1.3 0-0.4-0.4-0.4-0.9 0-1.3z"/>
						<path id="&lt;Path&gt;" class="s6" d="m579.5 344.7c0.3-0.4 0.9-0.4 1.2 0 0.4 0.3 0.4 0.9 0 1.3-0.3 0.3-0.9 0.3-1.2 0-0.4-0.4-0.4-1 0-1.3z"/>
						<path id="&lt;Path&gt;" class="s6" d="m665.6 303.2c0.2-0.3 0.6-0.3 0.8 0 0.2 0.2 0.2 0.6 0 0.8-0.2 0.2-0.6 0.2-0.8 0-0.3-0.2-0.3-0.6 0-0.8z"/>
						<path id="&lt;Path&gt;" class="s6" d="m636.5 310.7c0.2-0.2 0.6-0.2 0.8 0 0.2 0.2 0.2 0.6 0 0.8-0.2 0.3-0.6 0.3-0.8 0-0.2-0.2-0.2-0.6 0-0.8z"/>
						<path id="&lt;Path&gt;" class="s6" d="m701.4 298c0.2-0.2 0.6-0.2 0.8 0 0.2 0.2 0.2 0.6 0 0.8-0.2 0.3-0.6 0.3-0.8 0-0.3-0.2-0.3-0.6 0-0.8z"/>
						<path id="&lt;Path&gt;" class="s6" d="m719.1 293.7c0.2-0.2 0.6-0.2 0.8 0 0.2 0.2 0.2 0.6 0 0.8-0.2 0.2-0.6 0.2-0.8 0-0.3-0.2-0.3-0.6 0-0.8z"/>
						<path id="&lt;Path&gt;" class="s6" d="m674.8 293.1c0.2-0.2 0.6-0.2 0.8 0 0.2 0.2 0.2 0.6 0 0.8-0.2 0.3-0.6 0.3-0.8 0-0.2-0.2-0.2-0.6 0-0.8z"/>
						<path id="&lt;Path&gt;" class="s6" d="m835.4 341.5c0.2-0.2 0.6-0.2 0.8 0 0.3 0.2 0.3 0.6 0 0.8-0.2 0.3-0.6 0.3-0.8 0-0.2-0.2-0.2-0.6 0-0.8z"/>
						<path id="&lt;Path&gt;" class="s6" d="m1036 312.1c0.2-0.2 0.5-0.2 0.8 0 0.2 0.2 0.2 0.6 0 0.8-0.3 0.2-0.6 0.2-0.8 0-0.3-0.2-0.3-0.6 0-0.8z"/>
						<path id="&lt;Path&gt;" class="s6" d="m667.1 290.3c0.2-0.2 0.5-0.2 0.8 0 0.2 0.2 0.2 0.6 0 0.8-0.3 0.2-0.6 0.2-0.8 0-0.3-0.2-0.3-0.6 0-0.8z"/>
						<path id="&lt;Path&gt;" class="s6" d="m615.3 298.9c0.2-0.2 0.6-0.2 0.8 0 0.3 0.2 0.3 0.6 0 0.8-0.2 0.2-0.6 0.2-0.8 0-0.2-0.2-0.2-0.6 0-0.8z"/>
						<path id="&lt;Path&gt;" class="s6" d="m767.7 337.4c0.2-0.2 0.6-0.2 0.8 0 0.2 0.2 0.2 0.6 0 0.8-0.2 0.3-0.6 0.3-0.8 0-0.2-0.2-0.2-0.6 0-0.8z"/>
						<path id="&lt;Path&gt;" class="s6" d="m659 295.3c0.1-0.1 0.3-0.1 0.4 0 0.1 0.2 0.1 0.3 0 0.5-0.1 0.1-0.3 0.1-0.4 0-0.1-0.2-0.1-0.3 0-0.5z"/>
						<path id="&lt;Path&gt;" class="s6" d="m613 304.8c0.2-0.1 0.3-0.1 0.5 0 0.1 0.1 0.1 0.3 0 0.4-0.2 0.1-0.3 0.1-0.5 0-0.1-0.1-0.1-0.3 0-0.4z"/>
						<path id="&lt;Path&gt;" class="s6" d="m621 299.4c0.1-0.1 0.3-0.1 0.4 0 0.1 0.2 0.1 0.3 0 0.5-0.1 0.1-0.3 0.1-0.4 0-0.1-0.2-0.1-0.3 0-0.5z"/>
						<path id="&lt;Path&gt;" class="s6" d="m853 339c0.1-0.1 0.3-0.1 0.4 0 0.2 0.2 0.2 0.3 0 0.5-0.1 0.1-0.3 0.1-0.4 0-0.1-0.2-0.1-0.3 0-0.5z"/>
						<path id="&lt;Path&gt;" class="s6" d="m681.7 323.8c0.1-0.1 0.3-0.1 0.4 0 0.1 0.2 0.1 0.3 0 0.5-0.1 0.1-0.3 0.1-0.4 0-0.1-0.2-0.1-0.3 0-0.5z"/>
						<path id="&lt;Path&gt;" class="s6" d="m682 344.3c0.1-0.2 0.3-0.2 0.4 0 0.1 0.1 0.1 0.3 0 0.4-0.1 0.1-0.3 0.1-0.4 0-0.2-0.1-0.2-0.3 0-0.4z"/>
						<path id="&lt;Path&gt;" class="s6" d="m502.4 318.1c0.1-0.1 0.3-0.1 0.4 0 0.2 0.1 0.2 0.3 0 0.4-0.1 0.1-0.3 0.1-0.4 0-0.1-0.1-0.1-0.3 0-0.4z"/>
						<path id="&lt;Path&gt;" class="s6" d="m670.9 344.5c0.1-0.1 0.3-0.1 0.4 0 0.1 0.2 0.1 0.3 0 0.5-0.1 0.1-0.3 0.1-0.4 0-0.1-0.2-0.1-0.3 0-0.5z"/>
						<path id="&lt;Path&gt;" class="s6" d="m670.6 340.7c0.1-0.1 0.3-0.1 0.4 0 0.1 0.1 0.1 0.3 0 0.4-0.1 0.1-0.3 0.1-0.4 0-0.1-0.1-0.1-0.3 0-0.4z"/>
						<path id="&lt;Path&gt;" class="s6" d="m634.4 314.4c0.1-0.2 0.3-0.2 0.4 0 0.1 0.1 0.1 0.3 0 0.4-0.1 0.1-0.3 0.1-0.4 0-0.1-0.1-0.1-0.3 0-0.4z"/>
						<path id="&lt;Path&gt;" class="s6" d="m665.4 295.1c0.1-0.1 0.3-0.1 0.4 0 0.1 0.1 0.1 0.3 0 0.4-0.1 0.1-0.3 0.1-0.4 0-0.1-0.1-0.1-0.3 0-0.4z"/>
						<path id="&lt;Path&gt;" class="s6" d="m632.5 310c0.1-0.1 0.3-0.1 0.4 0 0.1 0.1 0.1 0.3 0 0.4-0.1 0.2-0.3 0.2-0.4 0-0.1-0.1-0.1-0.3 0-0.4z"/>
						<path id="&lt;Path&gt;" class="s6" d="m657.2 300.2c0.2-0.2 0.6-0.2 0.8 0 0.2 0.2 0.2 0.6 0 0.8-0.2 0.2-0.6 0.2-0.8 0-0.2-0.2-0.2-0.6 0-0.8z"/>
						<path id="&lt;Path&gt;" class="s6" d="m621.7 309.5c0.2-0.2 0.6-0.2 0.8 0 0.2 0.3 0.2 0.6 0 0.9-0.2 0.2-0.6 0.2-0.8 0-0.2-0.3-0.2-0.6 0-0.9z"/>
						<path id="&lt;Path&gt;" class="s6" d="m629.4 310.1c0.2-0.2 0.6-0.2 0.8 0 0.2 0.2 0.2 0.6 0 0.8-0.2 0.3-0.6 0.3-0.8 0-0.2-0.2-0.2-0.6 0-0.8z"/>
						<path id="&lt;Path&gt;" class="s6" d="m781.3 352.9c0.2-0.3 0.6-0.3 0.8 0 0.2 0.2 0.2 0.6 0 0.8-0.2 0.2-0.6 0.2-0.8 0-0.2-0.2-0.2-0.6 0-0.8z"/>
						<path id="&lt;Path&gt;" class="s6" d="m791 333.5c0.5-0.5 1.2-0.5 1.7 0 0.5 0.5 0.5 1.3 0 1.8-0.5 0.5-1.2 0.5-1.7 0-0.5-0.5-0.5-1.3 0-1.8z"/>
						<path id="&lt;Path&gt;" class="s6" d="m802.6 326.6c0.2-0.2 0.5-0.2 0.8 0 0.2 0.2 0.2 0.6 0 0.8-0.3 0.3-0.6 0.3-0.8 0-0.3-0.2-0.3-0.6 0-0.8z"/>
						<path id="&lt;Path&gt;" class="s6" d="m794.8 323.8c0.2-0.2 0.6-0.2 0.8 0 0.3 0.2 0.3 0.6 0 0.8-0.2 0.3-0.6 0.3-0.8 0-0.2-0.2-0.2-0.6 0-0.8z"/>
						<path id="&lt;Path&gt;" class="s6" d="m786.7 328.9c0.1-0.2 0.3-0.2 0.4 0 0.1 0.1 0.1 0.2 0 0.4-0.1 0.1-0.3 0.1-0.4 0-0.1-0.2-0.1-0.3 0-0.4z"/>
						<path id="&lt;Path&gt;" class="s6" d="m793.2 328.6c0.1-0.1 0.3-0.1 0.4 0 0.1 0.1 0.1 0.3 0 0.4-0.1 0.1-0.3 0.1-0.4 0-0.1-0.1-0.1-0.3 0-0.4z"/>
						<path id="&lt;Path&gt;" class="s6" d="m784.9 333.7c0.3-0.2 0.6-0.2 0.9 0 0.2 0.2 0.2 0.6 0 0.8-0.3 0.2-0.6 0.2-0.9 0-0.2-0.2-0.2-0.6 0-0.8z"/>
						<path id="&lt;Path&gt;" class="s6" d="m675.6 319.5c0.3-0.3 0.6-0.3 0.9 0 0.2 0.2 0.2 0.6 0 0.8-0.3 0.2-0.6 0.2-0.9 0-0.2-0.2-0.2-0.6 0-0.8z"/>
						<path id="&lt;Path&gt;" class="s6" d="m1029.2 357.5c0.3-0.2 0.6-0.2 0.9 0 0.2 0.2 0.2 0.6 0 0.8-0.3 0.2-0.6 0.2-0.9 0-0.2-0.2-0.2-0.6 0-0.8z"/>
						<path id="&lt;Path&gt;" class="s6" d="m730.1 320c0.2-0.2 0.6-0.2 0.8 0 0.3 0.3 0.3 0.6 0 0.9-0.2 0.2-0.6 0.2-0.8 0-0.2-0.3-0.2-0.6 0-0.9z"/>
						<path id="&lt;Path&gt;" class="s6" d="m650.9 340.2c0.2-0.2 0.6-0.2 0.8 0 0.3 0.2 0.3 0.6 0 0.8-0.2 0.3-0.6 0.3-0.8 0-0.2-0.2-0.2-0.6 0-0.8z"/>
						<path id="&lt;Path&gt;" class="s6" d="m1037.3 352.3c0.2-0.2 0.6-0.2 0.8 0 0.2 0.2 0.2 0.6 0 0.8-0.2 0.2-0.6 0.2-0.8 0-0.2-0.2-0.2-0.6 0-0.8z"/>
						<path id="&lt;Path&gt;" class="s6" d="m537.2 311.5c0.5-0.5 1.3-0.5 1.8 0 0.5 0.5 0.5 1.2 0 1.7-0.5 0.5-1.3 0.5-1.8 0-0.4-0.5-0.4-1.2 0-1.7z"/>
						<path id="&lt;Path&gt;" class="s6" d="m823.5 364.9c0.5-0.5 1.3-0.5 1.7 0 0.5 0.5 0.5 1.2 0 1.7-0.4 0.5-1.2 0.5-1.7 0-0.5-0.5-0.5-1.2 0-1.7z"/>
						<path id="&lt;Path&gt;" class="s6" d="m533.6 328.3c0.3-0.4 0.9-0.4 1.3 0 0.3 0.3 0.3 0.9 0 1.3-0.4 0.3-1 0.3-1.3 0-0.4-0.4-0.4-1 0-1.3z"/>
						<path id="&lt;Path&gt;" class="s6" d="m539.6 314.6c0.2-0.2 0.6-0.2 0.8 0 0.2 0.3 0.2 0.6 0 0.9-0.2 0.2-0.6 0.2-0.8 0-0.3-0.3-0.3-0.6 0-0.9z"/>
						<path id="&lt;Path&gt;" class="s6" d="m548.8 304.6c0.2-0.3 0.6-0.3 0.8 0 0.3 0.2 0.3 0.6 0 0.8-0.2 0.2-0.6 0.2-0.8 0-0.2-0.2-0.2-0.6 0-0.8z"/>
						<path id="&lt;Path&gt;" class="s6" d="m844.2 360.9c0.2-0.2 0.6-0.2 0.8 0 0.2 0.2 0.2 0.6 0 0.8-0.2 0.2-0.6 0.2-0.8 0-0.2-0.2-0.2-0.6 0-0.8z"/>
						<path id="&lt;Path&gt;" class="s6" d="m541.1 301.8c0.2-0.3 0.6-0.3 0.8 0 0.2 0.2 0.2 0.6 0 0.8-0.2 0.2-0.6 0.2-0.8 0-0.3-0.2-0.3-0.6 0-0.8z"/>
						<path id="&lt;Path&gt;" class="s6" d="m533 306.8c0.1-0.1 0.3-0.1 0.4 0 0.1 0.1 0.1 0.3 0 0.4-0.1 0.1-0.3 0.1-0.4 0-0.1-0.1-0.1-0.3 0-0.4z"/>
						<path id="&lt;Path&gt;" class="s6" d="m521.9 330.7c0.1-0.1 0.3-0.1 0.4 0 0.1 0.1 0.1 0.3 0 0.4-0.1 0.2-0.3 0.2-0.4 0-0.2-0.1-0.2-0.3 0-0.4z"/>
						<path id="&lt;Path&gt;" class="s6" d="m555.7 335.3c0.1-0.1 0.3-0.1 0.4 0 0.1 0.1 0.1 0.3 0 0.4-0.1 0.1-0.3 0.1-0.4 0-0.1-0.1-0.1-0.3 0-0.4z"/>
						<path id="&lt;Path&gt;" class="s6" d="m539.4 306.5c0.1-0.1 0.3-0.1 0.4 0 0.1 0.1 0.1 0.3 0 0.4-0.1 0.2-0.3 0.2-0.4 0-0.1-0.1-0.1-0.3 0-0.4z"/>
						<path id="&lt;Path&gt;" class="s6" d="m531.2 311.6c0.2-0.2 0.6-0.2 0.8 0 0.2 0.3 0.2 0.6 0 0.9-0.2 0.2-0.6 0.2-0.8 0-0.2-0.3-0.2-0.6 0-0.9z"/>
						<path id="&lt;Path&gt;" class="s6" d="m491.5 311.3c0.2-0.2 0.6-0.2 0.8 0 0.3 0.2 0.3 0.6 0 0.8-0.2 0.2-0.6 0.2-0.8 0-0.2-0.2-0.2-0.6 0-0.8z"/>
						<path id="&lt;Path&gt;" class="s6" d="m549.7 330.9c0.2-0.2 0.6-0.2 0.8 0 0.2 0.3 0.2 0.6 0 0.9-0.2 0.2-0.6 0.2-0.8 0-0.3-0.3-0.3-0.6 0-0.9z"/>
						<path id="&lt;Path&gt;" class="s6" d="m661.6 344.3c0.2-0.2 0.6-0.2 0.8 0 0.2 0.3 0.2 0.6 0 0.9-0.2 0.2-0.6 0.2-0.8 0-0.2-0.3-0.2-0.6 0-0.9z"/>
						<path id="&lt;Path&gt;" class="s6" d="m669.8 370.6c0.2-0.2 0.6-0.2 0.8 0 0.2 0.2 0.2 0.6 0 0.8-0.2 0.2-0.6 0.2-0.8 0-0.2-0.2-0.2-0.6 0-0.8z"/>
						<path id="&lt;Path&gt;" class="s6" d="m638.3 325.8c0.2-0.2 0.6-0.2 0.8 0 0.3 0.3 0.3 0.6 0 0.8-0.2 0.3-0.6 0.3-0.8 0-0.2-0.2-0.2-0.5 0-0.8z"/>
					</g>
				</g>
				<path id="&lt;Path&gt;" class="s7" d="m76.5 324c0 0 70 8 99 0 29-8 94 6 94 6 0 0-171 4-193-6z"/>
				<path id="&lt;Path&gt;" class="s8" d="m148.5 313.3c0 0 37.7 4.3 53.3 0 15.6-4.3 50.6 3.2 50.6 3.2 0 0-92.1 2.2-103.9-3.2z"/>
			</g>
		</g>
	</g>
</svg>